<svg width="1920" height="969" viewBox="0 0 1920 969" fill="none" xmlns="http://www.w3.org/2000/svg">
<g clip-path="url(#clip0_2056_59)">
<path d="M440 -0.5L474.202 25.3597C505.865 49.3004 533.514 78.1311 556.109 110.769V110.769C572.317 134.18 585.797 159.365 596.287 185.836L610.939 222.81C626.253 261.452 636.689 301.854 642.004 343.079L649.918 404.45C654.279 438.271 653.273 472.569 646.937 506.076L640.668 539.232C636.273 562.478 626.988 584.526 613.43 603.914L612.215 605.65C591.663 635.038 561.879 656.714 527.596 667.235L524.477 668.192C499.279 675.925 472.478 676.825 446.817 670.799L433.377 667.643C389.567 657.356 354.662 624.325 341.975 581.149V581.149C335.139 557.885 335.213 533.137 342.188 509.915L359.412 452.568C368.908 420.952 387.873 393.008 413.748 372.507V372.507C430.418 359.299 449.535 349.517 469.999 343.723L552.896 320.252C587.466 310.464 623.223 305.5 659.153 305.5V305.5C713.452 305.5 767.154 316.838 816.82 338.787L827.508 343.511C858.995 357.427 888.248 375.931 914.312 398.421V398.421C946.174 425.913 972.794 458.948 992.882 495.927L1004.45 517.219C1028.44 561.372 1041 610.821 1041 661.068V661.068C1041 717.236 1056.7 772.287 1086.32 820.007L1093.61 831.746C1114.06 864.686 1140.15 894.247 1170.22 918.731V918.731C1195.12 939.011 1222.92 956.017 1252.35 968.871L1330.5 1003" stroke="#FFF7EB" stroke-width="70"/>
<path d="M178.68 200.592L183.017 216.079L189.786 215.074L204.181 213.026L214.627 211.092L223.693 209.155L234.053 206.538L243.909 202.637L249.321 199.764C251.205 198.764 252.981 197.573 254.62 196.208C256.819 194.377 258.753 192.251 260.368 189.89L260.668 189.451C262.528 186.732 263.936 183.73 264.838 180.561L264.96 180.131C265.805 177.165 266.151 174.08 265.986 171.001L265.908 169.544C265.78 167.138 265.215 164.775 264.243 162.57C263 159.752 261.122 157.261 258.755 155.292L258.502 155.081C256.851 153.708 254.997 152.599 253.006 151.794C250.556 150.804 247.938 150.29 245.295 150.282L244.137 150.278C242.066 150.272 240.002 150.506 237.986 150.975L232.143 152.335L224.645 154.405L223.992 144.686C223.753 141.139 222.826 137.672 221.261 134.48L220.593 133.117C218.952 129.771 216.473 126.907 213.397 124.803C209.828 122.362 205.606 121.049 201.281 121.035L200.566 121.033C198.127 121.025 195.702 121.404 193.381 122.155C189.177 123.515 185.452 126.053 182.647 129.466L181.013 131.453C178.404 134.628 176.433 138.277 175.209 142.2L174.922 143.12C173.727 146.947 173.166 150.944 173.26 154.953L173.439 162.578L175.273 180.108L178.68 200.592Z" fill="#FFF7EB"/>
<path d="M120.733 197.458L143.388 203.579L147.181 194.342L155.356 174.763L160.729 160.224L165.067 147.411L169.518 132.467L171.983 117.197L172.421 108.267C172.574 105.158 172.405 102.043 171.917 98.9688C171.263 94.8458 170.041 90.8334 168.286 87.0459L167.96 86.3429C165.938 81.9811 163.225 77.9746 159.925 74.4785L159.478 74.0042C156.389 70.732 152.78 67.9945 148.796 65.9029L146.911 64.9135C143.798 63.2789 140.414 62.2226 136.923 61.796C132.463 61.2508 127.937 61.7468 123.701 63.2449L123.248 63.4051C120.294 64.4498 117.52 65.9465 115.026 67.8419C111.954 70.1753 109.357 73.074 107.373 76.3821L106.504 77.8318C104.951 80.4228 103.703 83.1853 102.787 86.0639L100.131 94.4048L97.1301 105.352L84.4559 98.9158C79.8308 96.5671 74.7921 95.1427 69.6218 94.7224L67.4142 94.5429C61.9944 94.1023 56.5528 95.0725 51.6192 97.359C45.8933 100.013 41.0966 104.326 37.8513 109.738L37.3148 110.633C35.4844 113.686 34.149 117.009 33.3584 120.48C31.9264 126.766 32.327 133.33 34.5127 139.395L35.7856 142.927C37.8185 148.569 40.9229 153.764 44.9277 158.227L45.8664 159.273C49.774 163.627 54.3666 167.315 59.4629 170.189L69.1573 175.656L92.5059 186.441L120.733 197.458Z" fill="#FFF7EB"/>
<path d="M883.001 634.006L869.351 705.463L937.871 675.319L892.518 732.157L969.869 734.102L901.795 765.065L972.657 798.714L895.344 797.669L945.682 856.358L874.445 823.511L894.288 895.616L843.235 837.474L828.654 908.712L807.896 836.79L761.779 893.054L775.429 821.597L706.909 851.741L752.262 794.903L674.911 792.958L742.985 761.995L672.123 728.346L749.436 729.391L699.098 670.702L770.335 703.549L750.492 631.444L801.545 689.586L816.126 618.348L836.884 690.27L883.001 634.006Z" fill="#FF9900" fill-opacity="0.06"/>
<path d="M1615.1 691.323L1609.49 720.709L1637.67 708.313L1619.02 731.688L1650.83 732.487L1622.83 745.221L1651.97 759.059L1620.18 758.629L1640.88 782.765L1611.58 769.257L1619.75 798.91L1598.75 774.999L1592.75 804.296L1584.22 774.718L1565.25 797.857L1570.86 768.47L1542.69 780.867L1561.34 757.492L1529.53 756.692L1557.52 743.958L1528.38 730.12L1560.17 730.55L1539.47 706.414L1568.77 719.922L1560.61 690.269L1581.6 714.18L1587.6 684.883L1596.14 714.461L1615.1 691.323Z" fill="#FF9900" fill-opacity="0.06"/>
<circle cx="597" cy="824" r="28" fill="#FFF9F0"/>
<circle cx="756" cy="943" r="14" fill="#FFF9F0"/>
<circle cx="784" cy="691" r="14" fill="#FFF9F0"/>
</g>
<defs>
<clipPath id="clip0_2056_59">
<rect width="1920" height="969" fill="white"/>
</clipPath>
</defs>
</svg>
