<svg width="180" height="181" viewBox="0 0 180 181" fill="none" xmlns="http://www.w3.org/2000/svg">
<path d="M115.648 29.9311L109.265 63.3463L141.307 49.2499L120.099 75.8292L156.27 76.7388L124.437 91.2179L157.574 106.953L121.42 106.464L144.96 133.909L111.647 118.549L120.927 152.267L97.0526 125.078L90.2342 158.391L80.5273 124.759L58.9616 151.069L65.3445 117.654L33.3028 131.75L54.5112 105.171L18.3398 104.261L50.1732 89.7821L17.0362 74.0468L53.1895 74.5356L29.6501 47.091L62.9628 62.451L53.6834 28.733L77.5574 55.9219L84.3758 22.6087L94.0826 56.2414L115.648 29.9311Z" fill="#FF9900" fill-opacity="0.06"/>
</svg>
