<svg width="1920" height="969" viewBox="0 0 1920 969" fill="none" xmlns="http://www.w3.org/2000/svg">
<g clip-path="url(#clip0_2056_59)">
<path d="M-65.5 569L-1.46076 513.375C46.5404 471.68 103.461 441.545 164.928 425.285V425.285C216.819 411.558 270.876 408.005 324.117 414.821L382.787 422.331C427.087 428.003 468.997 445.664 503.994 473.41L520.068 486.153C547.097 507.582 567.263 536.453 578.078 569.207L583.348 585.168C591.886 611.027 591.827 638.954 583.178 664.775V664.775C569.653 705.158 536.663 735.989 495.458 746.754L493.038 747.387C465.438 754.597 436.238 752.585 409.889 741.656L403.96 739.196C376.914 727.978 353.62 708.895 337.194 684.655V684.655C320.21 659.591 311 629.816 311 599.54V580.917C311 547.768 318.771 515.08 333.69 485.478L354.915 443.361C367.817 417.761 386.139 395.278 408.608 377.476V377.476C429.002 361.318 452.388 349.351 477.422 342.263L538.707 324.911C583.023 312.364 628.86 306 674.919 306H681.588C721.715 306 761.696 310.853 800.658 320.452L811.427 323.105C856.838 334.294 900.121 352.812 939.572 377.933V377.933C977.621 402.16 1011.62 432.221 1040.33 467.014L1045.83 473.684C1074.47 508.392 1098.14 546.919 1116.15 588.154L1140.61 644.142C1148.85 662.99 1159.12 680.878 1171.26 697.483L1175.04 702.649C1201.55 738.915 1237.1 767.601 1278.15 785.846V785.846C1311.02 800.453 1346.58 808 1382.55 808H1430.74C1457.2 808 1483.62 805.83 1509.73 801.511L1619.71 783.322C1651.1 778.13 1683.04 777.071 1714.71 780.174L1737.3 782.387C1771.74 785.76 1805.12 796.124 1835.42 812.844V812.844C1856.04 824.226 1874.98 838.418 1891.7 855.012L1934.5 897.5" stroke="#FFF7EB" stroke-width="70"/>
<path d="M178.262 201.709L182.599 217.195L189.368 216.191L203.763 214.142L214.209 212.209L223.275 210.271L233.635 207.654L243.491 203.753L248.904 200.88C250.787 199.881 252.563 198.689 254.202 197.324C256.401 195.494 258.335 193.367 259.95 191.006L260.25 190.568C262.11 187.848 263.518 184.846 264.42 181.677L264.542 181.247C265.387 178.281 265.733 175.196 265.568 172.117L265.49 170.661C265.362 168.254 264.797 165.891 263.825 163.686C262.583 160.869 260.704 158.377 258.337 156.408L258.084 156.197C256.433 154.824 254.579 153.715 252.588 152.911C250.138 151.92 247.52 151.407 244.877 151.398L243.719 151.395C241.648 151.388 239.584 151.622 237.568 152.091L231.725 153.451L224.227 155.522L223.574 145.802C223.335 142.255 222.408 138.789 220.843 135.597L220.175 134.234C218.534 130.888 216.055 128.023 212.98 125.92C209.41 123.478 205.188 122.165 200.863 122.152L200.148 122.149C197.709 122.142 195.284 122.52 192.963 123.271C188.759 124.632 185.034 127.169 182.229 130.582L180.595 132.57C177.986 135.744 176.015 139.394 174.791 143.316L174.504 144.236C173.309 148.063 172.748 152.06 172.842 156.069L173.021 163.694L174.855 181.224L178.262 201.709Z" fill="#FFF7EB"/>
<path d="M120.733 198.691L143.388 204.812L147.181 195.575L155.356 175.997L160.729 161.457L165.067 148.644L169.518 133.7L171.983 118.431L172.421 109.5C172.574 106.392 172.405 103.276 171.917 100.202C171.263 96.0792 170.041 92.0668 168.286 88.2793L167.96 87.5763C165.938 83.2145 163.225 79.208 159.925 75.7119L159.478 75.2376C156.389 71.9654 152.78 69.2279 148.796 67.1363L146.911 66.1469C143.798 64.5123 140.414 63.456 136.923 63.0294C132.463 62.4842 127.937 62.9802 123.701 64.4783L123.248 64.6385C120.294 65.6832 117.52 67.1799 115.026 69.0753C111.954 71.4087 109.357 74.3074 107.373 77.6155L106.504 79.0652C104.951 81.6562 103.703 84.4187 102.787 87.2973L100.131 95.6382L97.1301 106.585L84.4559 100.149C79.8308 97.8005 74.7921 96.3761 69.6218 95.9558L67.4142 95.7763C61.9944 95.3357 56.5528 96.3059 51.6192 98.5924C45.8933 101.246 41.0966 105.559 37.8513 110.972L37.3148 111.866C35.4844 114.919 34.149 118.243 33.3584 121.713C31.9264 127.999 32.327 134.564 34.5127 140.629L35.7856 144.161C37.8185 149.802 40.9229 154.997 44.9277 159.46L45.8664 160.506C49.774 164.861 54.3666 168.548 59.4629 171.422L69.1573 176.889L92.5059 187.674L120.733 198.691Z" fill="#FFF7EB"/>
<path d="M882.779 635.006L869.13 706.463L937.65 676.319L892.296 733.157L969.647 735.102L901.573 766.065L972.435 799.714L895.123 798.669L945.46 857.358L874.223 824.511L894.067 896.616L843.013 838.474L828.432 909.712L807.675 837.79L761.557 894.054L775.207 822.597L706.687 852.741L752.041 795.903L674.69 793.958L742.764 762.995L671.902 729.346L749.214 730.391L698.876 671.702L770.114 704.549L750.27 632.444L801.324 690.586L815.904 619.348L836.662 691.27L882.779 635.006Z" fill="#FF9900" fill-opacity="0.06"/>
<path d="M1716.1 481.323L1710.49 510.709L1738.67 498.313L1720.02 521.688L1751.83 522.487L1723.83 535.221L1752.97 549.059L1721.18 548.629L1741.88 572.765L1712.58 559.257L1720.75 588.91L1699.75 564.999L1693.75 594.296L1685.22 564.718L1666.25 587.857L1671.86 558.47L1643.69 570.867L1662.34 547.492L1630.53 546.692L1658.52 533.958L1629.38 520.12L1661.17 520.55L1640.47 496.414L1669.77 509.922L1661.61 480.269L1682.6 504.18L1688.6 474.883L1697.14 504.461L1716.1 481.323Z" fill="#FF9900" fill-opacity="0.06"/>
<circle cx="597" cy="825" r="28" fill="#FFF9F0"/>
<circle cx="756" cy="944" r="14" fill="#FFF9F0"/>
<circle cx="784" cy="692" r="14" fill="#FFF9F0"/>
</g>
<defs>
<clipPath id="clip0_2056_59">
<rect width="1920" height="969" fill="white"/>
</clipPath>
</defs>
</svg>
