<svg width="1920" height="945" viewBox="0 0 1920 945" fill="none" xmlns="http://www.w3.org/2000/svg">
<g clip-path="url(#clip0_2291_1066)">
<path d="M1572.36 224.331L1567.16 292.509L1627.97 257.119L1591.61 314.993L1664.06 308.639L1603.75 344.747L1673.49 368.689L1601.17 375.878L1654.38 425.373L1584.38 402.221L1610.53 467.465L1556.71 418.557L1550.61 486.629L1523.63 421.651L1486.5 479.068L1491.7 410.891L1430.9 446.281L1467.25 388.407L1394.8 394.76L1455.11 358.653L1385.38 334.711L1457.69 327.521L1404.48 278.026L1474.48 301.179L1448.33 235.934L1502.15 284.843L1508.25 216.77L1535.23 281.748L1572.36 224.331Z" fill="#FFF7EB"/>
<path d="M-44.5 216.5L4.16474 302.379C28.2777 344.931 58.0299 384.03 92.6141 418.614L106.917 432.917C177.852 503.852 269.23 550.779 368.21 567.103L373.813 568.027C395.901 571.669 418.249 573.5 440.635 573.5H520.688C563.889 573.5 605.756 558.527 639.159 531.13L654.947 518.181C709.053 473.804 727.839 399.3 701.244 334.575L697.171 324.664C676.3 273.869 628.056 239.624 573.219 236.68V236.68C535.32 234.645 498.18 247.839 470.059 273.327L457.051 285.118C418.493 320.066 396.5 369.682 396.5 421.722V442.943C396.5 467.165 400.289 491.238 407.73 514.289L431.841 588.976C452.106 651.753 491.479 706.63 544.457 745.936V745.936C582.661 774.281 626.762 793.649 673.482 802.603L687.71 805.329C726.336 812.732 765.877 814.092 804.92 809.362L973 789H982.666C1073.56 789 1163.78 804.489 1249.47 834.802L1299.5 852.5V852.5C1393.09 894.778 1498.69 902.33 1597.35 873.8L1615.93 868.425C1652.41 857.875 1686.98 841.595 1718.36 820.194V820.194C1804.19 761.636 1911.22 743.208 2011.7 769.684L2085 789" stroke="#FFF7EB" stroke-width="70"/>
</g>
<defs>
<clipPath id="clip0_2291_1066">
<rect width="1920" height="945" fill="white"/>
</clipPath>
</defs>
</svg>
