<svg width="1920" height="1148" viewBox="0 0 1920 1148" fill="none" xmlns="http://www.w3.org/2000/svg">
<path d="M-38.1302 176.544C-38.1302 176.544 19.4976 151.875 83.5762 130.434C127.812 115.633 175.228 101.885 205.821 93.3235C227.675 87.2076 249.964 82.9543 272.489 80.196L380.131 67.0153L488.994 68.844L596.032 81.5861L703.424 105.825L930.753 156.704L1139.92 181.011L1376.8 184.99L1611.28 168.135L1798.43 171.279C1843.77 172.041 1888.79 178.967 1932.27 191.867L2062.22 230.431L2048.19 1065.77L1955.66 1091.41C1886.09 1110.69 1814.23 1120.46 1742.04 1120.46L1651.43 1120.46C1611.53 1120.46 1571.69 1117.48 1532.24 1111.53L1359 1085.43L1091.5 1065.77L940.334 1073.12C900.832 1075.04 861.528 1079.88 822.743 1087.61L679.5 1116.17L589.097 1131.19C545.773 1138.38 501.929 1142 458.011 1142L403.5 1142L238.662 1120.46L63 1085.43L-52.7597 1047.45L-38.1302 176.544Z" fill="#FFF7EB"/>
<path d="M1181.5 -46L1220.81 -11.1441C1244.52 9.87751 1270.64 28.0076 1298.63 42.8648L1337.5 63.5L1462 113.5L1518.68 131.965C1568.41 148.164 1614.48 173.959 1654.28 207.888L1655 208.5" stroke="#FFF7EB" stroke-width="70"/>
<path d="M1667 213L1690.31 237.734C1707.4 255.872 1722.76 275.567 1736.18 296.563L1747.91 314.907C1757.95 330.604 1766.54 347.177 1773.59 364.424L1776.92 372.574C1789.85 404.223 1796.5 438.083 1796.5 472.271V475.597C1796.5 522.279 1783.53 568.043 1759.03 607.781L1758.11 609.273C1741.53 636.166 1719.86 659.568 1694.33 678.167V678.167C1662.9 701.055 1626.44 716.068 1588.01 721.945L1561.5 726L1481.75 741M1481.75 741L1441 748.665C1415.21 753.516 1388.76 753.728 1362.89 749.29V749.29C1321.8 742.241 1283.56 723.701 1252.57 695.816L1234.25 679.326C1224.77 670.79 1216.01 661.476 1208.08 651.481L1190.66 629.533C1169.84 603.285 1158.5 570.763 1158.5 537.255V537.255C1158.5 491.36 1180.06 447.784 1216.34 419.666V419.666C1233.79 406.136 1254.18 396.516 1275.74 391.725L1282.29 390.269C1326.46 380.453 1372.71 387.666 1411.8 410.466L1416.95 413.471C1436.82 425.061 1454.43 440.153 1468.92 458.016V458.016C1496.47 491.969 1511.5 534.363 1511.5 578.086V611.655C1511.5 647.886 1504.6 683.786 1491.16 717.434L1481.75 741ZM1481.75 741L1347.58 871.971C1304.91 913.62 1252.23 943.571 1194.62 958.934V958.934C1178.23 963.305 1161.54 966.469 1144.68 968.398L1038.58 980.542C1015.57 983.176 992.375 983.806 969.256 982.426L918.455 979.393C886.27 977.471 854.435 971.665 823.643 962.101L738 935.5L582.095 891.751C555.437 884.271 528.074 879.578 500.447 877.749L468.561 875.638C422.208 872.57 375.675 877.599 331.048 890.5L293 901.5L270.855 908.047C209.833 926.089 153.996 958.428 107.98 1002.38L81.4551 1027.72C71.509 1037.22 62.5175 1047.67 54.6095 1058.92V1058.92C45.2349 1072.26 37.4414 1086.65 31.3858 1101.79L28.5 1109" stroke="white" stroke-width="70"/>
<path d="M143 373.659L238.302 278L203.075 348.726H264L153.551 451L203.075 373.659H143Z" fill="white"/>
<path d="M1582 172L1531 174C1552.61 180.648 1573.45 189.569 1593.17 200.614L1601 205L1642 237L1674 219.5L1704 200.5L1697.36 194.433C1686.49 184.515 1674.45 175.973 1661.5 169L1620 172H1582Z" fill="white"/>
<path d="M77.5 1088L49 1082L28 1075L9 1067.5C2.67468 1084.81 -2.41076 1102.55 -6.21779 1120.58L-10 1138.5H58L61.5 1121.5C65.8266 1110.18 71.0365 1099.23 77.0813 1088.73L77.5 1088Z" fill="#FFF7EB"/>
</svg>
