<svg width="569" height="782" viewBox="0 0 569 782" fill="none" xmlns="http://www.w3.org/2000/svg">
<path d="M0 33.2972L59.7653 16.6475C101.204 5.10336 145.293 7.54653 185.202 23.5985L192.617 26.5809C240.385 45.794 294.134 43.3789 339.987 19.9591V19.9591C392.585 -6.9062 455.085 -5.92821 506.817 22.5697L569 56.8243V769.278L502.94 755.244C456.906 745.464 409.034 749.085 364.994 765.677V765.677C322.766 781.586 276.978 785.582 232.633 777.228L214.312 773.777C198.46 770.791 183.081 765.685 168.591 758.596V758.596C118.279 733.983 59.3693 734.226 9.26158 759.253L0 763.879V33.2972Z" fill="#FFF9F0"/>
</svg>
