<svg width="1920" height="1148" viewBox="0 0 1920 1148" fill="none" xmlns="http://www.w3.org/2000/svg">
<g clip-path="url(#clip0_2044_61)">
<path d="M-37.9573 176.521C-37.9573 176.521 19.6705 151.853 83.7491 130.412C127.985 115.611 175.401 101.863 205.994 93.3012C227.848 87.1854 250.137 82.9321 272.662 80.1738L380.304 66.9931L489.167 68.8218L596.205 81.5639L703.596 105.803L930.925 156.681L1140.1 180.989L1376.97 184.968L1611.45 168.113L1798.6 171.257C1843.94 172.018 1888.97 178.945 1932.44 191.845L2062.4 230.408L2048.37 1065.75L1955.84 1091.39C1886.27 1110.67 1814.41 1120.44 1742.21 1120.44L1651.6 1120.44C1611.7 1120.44 1571.86 1117.46 1532.41 1111.51L1359.17 1085.41L1091.67 1065.75L940.507 1073.1C901.005 1075.01 861.7 1079.86 822.915 1087.59L679.673 1116.15L589.27 1131.16C545.946 1138.36 502.102 1141.98 458.184 1141.98L403.673 1141.98L238.835 1120.44L63.1729 1085.41L-52.5868 1047.42L-37.9573 176.521Z" fill="#FFF7EB"/>
<path d="M143 373.659L238.302 278L203.075 348.726H264L153.551 451L203.075 373.659H143Z" fill="white"/>
<path d="M1998 336.5L1963.77 357.508C1911.04 389.868 1873.13 441.639 1858.2 501.674V501.674C1840.71 571.96 1791.92 630.324 1725.85 659.993L1704.52 669.57C1667.92 686.004 1628.26 694.5 1588.14 694.5H1560.16C1524.83 694.5 1489.95 686.615 1458.06 671.421V671.421C1420.35 653.459 1388.06 625.868 1364.42 591.433L1355.25 578.063C1338.96 554.328 1328.24 527.221 1323.89 498.764L1321.47 482.955C1314.22 435.574 1328.88 387.464 1361.32 352.177V352.177C1393.68 316.973 1440.25 298.326 1487.96 301.465L1509.69 302.894C1568.63 306.772 1622.97 336.073 1658.6 383.184L1664.21 390.609C1693.6 429.472 1709.5 476.863 1709.5 525.586V545.68C1709.5 573.738 1705.34 601.641 1697.15 628.477L1689.83 652.446C1681.3 680.396 1669.71 707.318 1655.26 732.72V732.72C1602.94 824.731 1516 892 1413.8 919.547L1397.48 923.946C1353.1 935.907 1307.12 940.793 1261.22 938.424L1213.67 935.97C1087.38 929.452 965.388 887.954 861.318 816.112L753.255 741.513C663.321 679.428 551.305 658.323 444.945 683.422V683.422C413.769 690.779 383.629 701.983 355.218 716.777L311.692 739.442C201.852 796.636 79.839 826.5 -44 826.5V826.5" stroke="white" stroke-width="70"/>
</g>
<defs>
<clipPath id="clip0_2044_61">
<rect width="1920" height="1148" fill="white"/>
</clipPath>
</defs>
</svg>
