<svg width="1920" height="1770" viewBox="0 0 1920 1770" fill="none" xmlns="http://www.w3.org/2000/svg">
<g clip-path="url(#clip0_2114_1533)">
<path d="M1985 38L1788.8 87.1413C1740.1 99.3376 1693.02 117.254 1648.54 140.518V140.518C1599.06 166.393 1553.21 198.67 1512.15 236.516L1473.29 272.342C1455.18 289.038 1439.4 308.099 1426.39 329.011V329.011C1399.34 372.467 1385 422.63 1385 473.817V524.775C1385 557.068 1393.15 588.839 1408.71 617.14V617.14C1432.63 660.673 1472.51 693.225 1519.96 707.943L1538.73 713.767C1576.76 725.564 1617.68 723.963 1654.67 709.23V709.23C1693.88 693.611 1726.08 664.272 1745.27 626.676L1748.57 620.191C1774.48 569.438 1776.22 509.736 1753.31 457.561V457.561C1739.37 425.795 1716.99 398.456 1688.61 378.512L1657.19 356.439C1617.88 328.818 1572.97 310.19 1525.65 301.876L1443.3 287.406C1392.64 278.505 1341.05 276.151 1289.8 280.399L1232.32 285.164C1135.89 293.157 1044.92 333.209 973.91 398.931L933.081 436.721C870.549 494.597 835 575.939 835 661.144V664.425C835 708.886 824.834 752.758 805.28 792.688L802.161 799.058C784.62 834.876 759.107 866.2 727.579 890.625V890.625C699.166 912.638 666.514 928.547 631.667 937.356L595.69 946.45C565.347 954.12 534.17 958 502.873 958H452.473C397.527 958 344.277 938.966 301.78 904.136V904.136C261.695 871.281 233.445 826.226 221.332 775.832L210.926 732.536C203.474 701.535 205.329 669.025 216.258 639.072L220.543 627.327C232.971 593.265 258.78 565.761 291.984 551.194V551.194C308.812 543.812 326.988 540 345.364 540H393.276C433.593 540 472.748 553.506 504.491 578.363V578.363C534.089 601.541 555.707 633.386 566.322 669.449L596.025 770.353C612.038 824.753 612.913 882.49 598.555 937.35L597.59 941.036C590.567 967.869 579.676 993.537 565.258 1017.23V1017.23C537.32 1063.15 497.001 1100.25 448.929 1124.29L443.778 1126.86C343.735 1176.88 278.986 1277.54 274.944 1389.31L271.361 1488.4C268.606 1564.59 231.226 1635.36 169.847 1680.59V1680.59C133.937 1707.05 91.6013 1723.41 47.2319 1727.99L-137 1747" stroke="#D7F7FF" stroke-width="70"/>
<mask id="mask0_2114_1533" style="mask-type:alpha" maskUnits="userSpaceOnUse" x="-158" y="131" width="399" height="380">
<path d="M79.5527 510.267C76.4639 510.351 73.6076 509.999 70.0506 509.113C63.0237 507.361 57.0606 502.986 53.7144 497.173C52.1542 494.491 51.8354 493.449 48.7755 481.577C46.2246 471.588 45.2849 468.535 44.4975 467.253C43.9194 466.347 43.2083 465.586 42.9553 465.566C42.6545 465.519 41.1497 466.743 39.6323 468.278C38.0671 469.785 36.776 471.038 36.6971 471.055C36.6183 471.073 35.7798 471.762 34.8789 472.543C30.8605 476.027 25.6317 477.825 19.8296 477.64C11.8537 477.37 6.08285 474.027 1.33312 466.957C-0.368227 464.383 -1.43295 459.13 -0.91605 455.555C-0.142635 450.001 1.09938 447.798 15.5207 426.745C25.1452 412.694 29.1054 406.572 29.4714 405.26C29.9352 403.464 29.9084 403.163 27.1385 391.841C23.535 377.018 22.6153 375.152 18.5662 374.839C15.8696 374.642 10.3848 377.69 6.67732 381.449C6.19989 381.903 4.25709 383.572 2.32062 385.086C-2.58603 389.04 -6.50523 392.962 -7.1681 394.611C-7.49224 395.376 -7.8675 398.112 -8.03107 400.685C-8.53249 408.905 -8.86157 413.859 -9.12929 417.071C-9.27776 418.795 -9.53965 422.581 -9.67646 425.455C-10.7105 445.054 -11.2454 447.634 -15.425 453.152C-20.0406 459.307 -27.6687 462.955 -35.1799 462.542C-41.1727 462.246 -46.2287 460.048 -50.2129 455.993C-52.856 453.287 -53.8088 451.274 -55.6069 444.611C-56.6001 440.955 -57.4552 438.459 -57.789 438.266C-58.3613 437.934 -58.3613 437.934 -68.3347 446.416C-79.8047 456.159 -82.6001 457.906 -88.845 459.242C-96.0672 460.839 -101.466 459.871 -108.494 455.736C-113.319 452.909 -116.08 450.23 -119.307 445.312C-120.944 442.84 -121.397 441.751 -122.001 439.083C-122.82 435.465 -122.728 433.676 -121.588 429.192C-120.045 423.194 -117.22 418.828 -110.671 412.428C-109.693 411.438 -108.801 410.621 -108.683 410.595C-108.564 410.568 -106.59 408.853 -104.288 406.757C-99.6533 402.519 -96.3357 398.502 -97.0987 398.06C-97.3455 397.885 -99.0775 397.739 -100.911 397.693C-102.737 397.684 -105.079 397.407 -106.093 397.137C-108.486 396.449 -113.355 393.248 -115.193 391.167C-120.494 385.143 -122.467 374.409 -119.366 368.52C-116.645 363.332 -112.409 359.53 -107.292 357.603C-103.127 356.046 -95.7251 355.062 -89.8048 355.22C-87.5126 355.278 -84.9756 355.318 -84.1935 355.295C-83.4114 355.272 -81.6171 355.327 -80.2252 355.434C-77.7028 355.593 -72.3675 355.731 -66.8828 355.795C-65.271 355.776 -62.1884 355.847 -60.0228 355.895C-53.8494 356.073 -48.6674 355.899 -46.8935 355.498C-45.0407 355.078 -41.2783 352.843 -39.2274 350.919C-38.476 350.211 -37.7474 349.585 -37.6292 349.558C-37.235 349.469 -30.954 343.898 -27.9254 340.984C-26.3914 339.523 -24.689 337.524 -24.0514 336.495C-23.1418 335.022 -23.0211 334.456 -23.3355 333.068C-23.625 331.788 -23.9939 331.257 -25.1634 330.484C-26.5318 329.565 -32.4818 327.261 -33.1519 327.413C-33.3096 327.449 -33.7929 327.327 -34.1744 327.106C-34.8732 326.765 -39.6581 325.581 -48.6556 323.545C-52.4968 322.685 -52.9158 322.665 -55.8329 323.325C-57.5674 323.718 -59.6382 324.455 -60.5575 324.971C-61.4686 325.523 -63.772 326.697 -65.6749 327.628C-67.5777 328.558 -70.4082 329.967 -71.9335 330.735C-73.4504 331.539 -76.8079 333.183 -79.3873 334.42C-81.9667 335.657 -85.3242 337.3 -86.8411 338.105C-98.8999 344.331 -98.8999 344.331 -105.396 345.839C-111.222 347.196 -111.624 347.249 -114.244 346.843C-117.94 346.258 -122.998 343.868 -125.502 341.592C-130.217 337.241 -132.637 330.758 -131.975 324.345C-131.236 316.993 -127.899 311.78 -120.471 306.334C-119.122 305.337 -118.096 304.375 -118.154 304.119C-118.212 303.863 -119.18 303.429 -120.329 303.113C-125.884 301.642 -138.705 297.359 -141.762 295.938C-149.812 292.227 -155.423 285.928 -157.053 278.727C-158.691 271.491 -157.054 264.627 -152.145 257.752C-144.89 247.696 -130.744 243.918 -115.506 248.076C-113.7 248.551 -111.101 249.231 -109.786 249.548C-108.463 249.902 -105.785 250.564 -103.86 251.012C-101.927 251.496 -99.5211 251.874 -98.486 251.87C-95.9655 251.837 -95.7017 251.355 -96.6916 248.813C-97.8264 245.996 -98.7943 241.719 -98.8444 239.118C-98.9353 235.604 -97.815 232.315 -95.2132 228.614C-91.8721 223.785 -87.9973 220.948 -82.4594 219.234C-72.108 216.084 -63.7374 218.646 -57.5218 226.883C-55.3913 229.706 -54.9085 230.557 -51.2951 237.001C-50.224 238.987 -48.3407 242.364 -47.1099 244.506C-43.48 251.023 -40.8633 255.81 -39.38 258.702C-37.1385 263.113 -34.3806 267.791 -32.8199 269.743C-31.1867 271.832 -29.6231 272.516 -22.7786 274.194C-20.5925 274.698 -17.2326 275.628 -15.2748 276.223C-5.14534 279.232 -0.430013 279.01 1.10547 275.358C2.24628 272.526 -2.77473 249.61 -5.50582 245.233C-5.93893 244.601 -9.62977 242.209 -15.4877 238.848C-26.1544 232.732 -45.6086 221.113 -47.3606 219.781C-49.5107 218.154 -50.7151 217.044 -52.5931 214.971C-54.3115 213.055 -54.4896 212.634 -55.5573 208.649C-56.5671 204.92 -56.6474 204.016 -56.3719 201.572C-55.6203 194.64 -50.4148 187.429 -44.0443 184.45C-38.012 181.625 -30.9193 181.287 -24.6623 183.483C-22.1321 184.409 -17.5088 185.245 -17.0937 184.882C-16.8903 184.682 -17.3199 182.052 -18.2547 177.921C-20.6392 167.203 -21.4917 161.057 -21.0887 157.162C-20.5835 152.437 -19.4276 148.756 -17.5689 145.799C-12.2111 137.248 -3.24608 132.183 7.25911 131.727C15.9242 131.379 25.764 136.222 30.2422 143.008C32.7227 146.826 33.5509 149.021 36.226 159.558C38.8761 169.985 40.0752 172.903 41.6126 172.555C42.0462 172.457 43.5491 171.041 44.8923 169.469C46.2355 167.897 48.5521 165.682 50.0029 164.585C52.6139 162.573 52.6927 162.555 57.392 161.53C62.9108 160.28 64.9271 160.4 70.2633 162.19C78.0573 164.767 82.7399 169.893 83.6955 176.862C84.2552 180.616 83.8117 185.98 82.7916 188.247C82.1433 189.777 75.5206 200.613 72.9207 204.506C61.1966 221.913 54.8566 231.801 54.2269 233.596L53.4744 235.764L56.1611 247.451C58.7587 258.928 58.856 259.175 60.3233 261.263C62.2402 264.057 63.6048 264.593 66.6402 263.906C68.5241 263.442 69.4517 262.963 72.235 260.796C74.0697 259.381 76.3425 257.522 77.2827 256.733C78.2541 255.899 80.1264 254.284 81.4341 253.104C82.7894 251.952 84.6305 250.383 85.5791 249.63C86.4799 248.85 88.066 247.069 89.071 245.651C91.0104 242.868 91.1832 241.983 91.5415 233.68C91.6092 231.782 91.8 228.78 91.9091 227.065C92.1354 223.671 92.354 219.51 92.7469 212.275C93.1865 203.415 94.0709 196.337 95.3894 191.544C96.739 186.704 101.612 180.952 106.26 178.786C114.133 175.121 124.083 176.058 130.772 181.076C135.072 184.329 136.713 187.185 138.438 194.441C139.602 199.403 140.071 200.373 141.247 200.26C142.423 200.148 144.077 198.851 155.24 189.216C162.275 183.129 166.178 180.785 171.286 179.552C177.388 178.133 182.839 178.782 189.594 181.71C199.166 185.921 204.21 193.194 204.415 203.253C204.454 206.356 203.588 211.316 202.583 213.465C199.628 219.82 198.559 221.138 189.252 229.815C181.274 237.23 178.767 240.065 179.291 241.099C179.452 241.446 180.688 241.781 182.373 241.9C189.483 242.557 197.264 246.905 200.127 251.867C201.88 254.851 202.884 261.117 202.162 264.7C201.45 268.512 200.14 271.882 198.467 274.374C196.793 276.866 192.387 280.284 189.027 281.736C186.203 282.99 180.491 283.937 175.025 284.136C172.758 284.188 169.196 284.38 167.08 284.552C164.964 284.723 161.726 284.88 159.908 284.907C158.083 284.897 155.784 284.995 154.766 285.072C153.755 285.185 150.785 285.243 148.169 285.22C138.797 285.19 136.515 285.36 132.06 286.369C128.008 287.324 127.591 287.495 125.435 289.136C124.156 290.079 122.135 291.766 120.898 292.891C119.66 294.016 117.898 295.568 116.919 296.366C111.385 300.846 107.241 305.972 107.273 308.309C107.272 309.769 107.696 310.364 109.519 311.642C111.771 313.169 121.442 316.167 131.532 318.455C136.467 319.567 137.099 319.616 139.386 319.099C140.765 318.786 143.135 317.904 144.652 317.1C154.824 311.877 156.908 310.829 158.756 310.027C159.889 309.54 162.429 308.312 164.355 307.299C179.51 299.374 185.953 296.532 190.536 295.726C200.333 293.969 208.999 297.656 213.273 305.372C216.164 310.635 216.943 318.104 215.085 322.713C213.836 325.8 210.08 330.262 205.707 333.826C200.848 337.808 200.715 337.953 202.389 338.573C203.071 338.841 204.363 339.24 205.195 339.436C206.035 339.669 208.341 340.338 210.308 340.969C212.265 341.563 215.546 342.511 217.614 343.042C229.231 346.214 235.997 351.023 239.176 358.295C241.506 363.646 241.538 370.747 239.216 377.881C238.129 381.316 234.314 386.982 231.556 389.259C225.412 394.338 215.968 396.553 206.841 395.045C204.942 394.707 203.168 394.378 202.89 394.249C202.652 394.111 200.457 393.57 198.049 393.001C195.65 392.468 193.177 391.798 192.551 391.594C189.807 390.64 184.671 389.919 182.842 390.257C180.925 390.575 180.925 390.575 181.252 391.654C184.015 400.749 183.965 400.53 183.573 403.923C182.826 409.779 179.736 414.436 173.095 419.512L170.17 421.788L165.046 422.948C159.969 424.135 159.89 424.153 156.889 423.526C153.412 422.814 147.04 419.377 144.803 417.002C142.399 414.434 138.461 408.755 136.141 404.362C134.9 401.992 133.137 398.779 132.235 397.177C130.271 393.626 127.033 387.558 123.897 381.39C119.43 372.642 117.02 369.499 113.822 368.186C112.997 367.835 110.168 367.054 107.498 366.429C104.868 365.794 101.977 365.104 101.129 364.835C100.281 364.566 97.2628 363.866 94.4358 363.276C90.1278 362.368 88.9413 362.253 87.1674 362.654C84.8728 363.135 83.9802 363.952 83.2443 366.193C82.9075 367.269 83.2423 369.114 85.4321 379.338C88.1285 391.983 88.9524 394.525 91.0192 396.516C91.61 397.112 100.452 402.488 110.579 408.418C132.543 421.237 133.998 422.175 136.948 425.503C138.507 427.264 140.033 430.53 140.745 433.673C142.318 440.809 139.297 449.063 133.078 454.543C127.048 459.942 120.967 461.088 111.862 458.576C105.586 456.846 103.147 456.323 102.676 456.621C102.315 456.857 102.676 459.003 104.31 466.587C106.713 477.57 107.025 479.497 106.831 483.767C106.716 487.29 105.835 490.717 104.11 494.45C102.031 498.993 97.2456 504.034 92.4913 506.647C90.0633 508.003 88.9138 508.417 85.0029 509.264C82.4718 509.798 80.0112 510.278 79.5527 510.267Z" fill="#8A8F92"/>
</mask>
<g mask="url(#mask0_2114_1533)">
<rect x="-301" y="152" width="966.726" height="833.852" transform="rotate(-12.7534 -301 152)" fill="#D7F7FF"/>
</g>
<mask id="mask1_2114_1533" style="mask-type:alpha" maskUnits="userSpaceOnUse" x="1430" y="1089" width="189" height="173">
<path d="M1496.65 1260.15C1495.39 1259.48 1494.31 1258.69 1493.07 1257.53C1490.63 1255.23 1489.21 1252.11 1489.17 1249C1489.15 1247.57 1489.25 1247.07 1490.7 1241.58C1491.93 1236.97 1492.24 1235.52 1492.21 1234.82C1492.19 1234.32 1492.07 1233.86 1491.97 1233.79C1491.86 1233.7 1490.98 1233.86 1490.02 1234.14C1489.04 1234.39 1488.24 1234.6 1488.2 1234.59C1488.16 1234.58 1487.67 1234.67 1487.13 1234.78C1484.72 1235.28 1482.19 1234.83 1479.89 1233.44C1476.73 1231.53 1475.15 1228.87 1474.83 1224.93C1474.72 1223.51 1475.48 1221.14 1476.5 1219.82C1478.07 1217.74 1479.07 1217.14 1489.67 1211.89C1496.74 1208.38 1499.72 1206.8 1500.17 1206.36C1500.76 1205.74 1500.82 1205.61 1502.26 1200.4C1504.16 1193.59 1504.21 1192.63 1502.64 1191.59C1501.6 1190.9 1498.69 1190.89 1496.34 1191.57C1496.04 1191.65 1494.88 1191.88 1493.76 1192.06C1490.88 1192.54 1488.4 1193.24 1487.76 1193.76C1487.46 1194 1486.69 1195.02 1486.04 1196.02C1483.98 1199.23 1482.72 1201.16 1481.89 1202.4C1481.44 1203.06 1480.48 1204.53 1479.77 1205.66C1474.92 1213.35 1474.12 1214.28 1471.18 1215.56C1467.92 1217 1464.01 1216.75 1461.07 1214.89C1458.71 1213.41 1457.16 1211.38 1456.47 1208.84C1456.01 1207.14 1456.08 1206.11 1456.86 1203.01C1457.29 1201.31 1457.51 1200.11 1457.42 1199.95C1457.26 1199.69 1457.26 1199.69 1451.31 1200.86C1444.47 1202.21 1442.94 1202.28 1440.11 1201.41C1436.83 1200.42 1434.87 1198.81 1432.96 1195.54C1431.65 1193.31 1431.14 1191.6 1430.95 1188.88C1430.85 1187.51 1430.91 1186.97 1431.27 1185.75C1431.76 1184.11 1432.2 1183.4 1433.68 1181.85C1435.66 1179.77 1437.79 1178.65 1441.88 1177.54C1442.5 1177.36 1443.05 1177.23 1443.1 1177.25C1443.16 1177.27 1444.34 1177.02 1445.75 1176.69C1448.58 1176.03 1450.83 1175.15 1450.62 1174.8C1450.56 1174.68 1449.9 1174.23 1449.16 1173.79C1448.43 1173.38 1447.54 1172.73 1447.2 1172.39C1446.38 1171.58 1445.14 1169.18 1444.87 1167.92C1444.09 1164.29 1445.72 1159.5 1448.3 1157.82C1450.58 1156.34 1453.15 1155.76 1455.66 1156.14C1457.69 1156.45 1460.91 1157.73 1463.27 1159.13C1464.18 1159.68 1465.2 1160.27 1465.52 1160.43C1465.84 1160.6 1466.55 1161.03 1467.09 1161.39C1468.07 1162.02 1470.2 1163.29 1472.4 1164.55C1473.06 1164.91 1474.29 1165.64 1475.16 1166.15C1477.61 1167.61 1479.75 1168.72 1480.55 1168.96C1481.4 1169.21 1483.42 1169.15 1484.69 1168.84C1485.15 1168.72 1485.59 1168.64 1485.64 1168.65C1485.82 1168.7 1489.62 1167.87 1491.51 1167.38C1492.46 1167.14 1493.6 1166.71 1494.09 1166.44C1494.79 1166.05 1494.97 1165.85 1495.15 1165.22C1495.33 1164.64 1495.3 1164.34 1495 1163.76C1494.65 1163.08 1492.77 1160.8 1492.46 1160.71C1492.39 1160.69 1492.22 1160.53 1492.12 1160.36C1491.92 1160.06 1490.25 1158.5 1487.07 1155.64C1485.71 1154.42 1485.55 1154.32 1484.22 1153.93C1483.43 1153.69 1482.43 1153.52 1481.94 1153.52C1481.44 1153.54 1480.25 1153.49 1479.27 1153.44C1478.29 1153.38 1476.82 1153.31 1476.03 1153.28C1475.24 1153.26 1473.51 1153.16 1472.19 1153.08C1470.86 1153 1469.13 1152.9 1468.34 1152.88C1462.05 1152.67 1462.05 1152.67 1459.09 1151.81C1456.42 1151.04 1456.25 1150.97 1455.28 1150.22C1453.92 1149.14 1452.41 1147.03 1451.92 1145.54C1451 1142.72 1451.48 1139.55 1453.2 1137.11C1455.17 1134.3 1457.69 1132.95 1461.93 1132.43C1462.7 1132.33 1463.33 1132.17 1463.37 1132.06C1463.4 1131.94 1463.11 1131.55 1462.72 1131.16C1460.8 1129.31 1456.59 1124.67 1455.67 1123.41C1453.26 1120.08 1452.42 1116.27 1453.39 1112.99C1454.36 1109.69 1456.58 1107.29 1460.12 1105.62C1465.33 1103.19 1471.9 1104.87 1477.12 1110C1477.74 1110.6 1478.64 1111.46 1479.1 1111.89C1479.56 1112.33 1480.49 1113.2 1481.17 1113.82C1481.84 1114.45 1482.72 1115.15 1483.14 1115.38C1484.17 1115.94 1484.39 1115.8 1484.56 1114.55C1484.74 1113.16 1485.32 1111.21 1485.89 1110.15C1486.64 1108.7 1487.84 1107.63 1489.73 1106.72C1492.17 1105.52 1494.38 1105.25 1497.01 1105.81C1501.91 1106.88 1504.71 1109.81 1505.36 1114.55C1505.58 1116.17 1505.59 1116.63 1505.59 1120.05C1505.57 1121.1 1505.57 1122.89 1505.58 1124.03C1505.58 1127.49 1505.55 1130.02 1505.5 1131.52C1505.4 1133.81 1505.46 1136.33 1505.65 1137.47C1505.84 1138.68 1506.31 1139.31 1508.7 1141.54C1509.47 1142.24 1510.62 1143.38 1511.28 1144.06C1514.69 1147.57 1516.65 1148.55 1518.1 1147.42C1519.2 1146.53 1522.35 1136.13 1522.24 1133.74C1522.21 1133.39 1521.26 1131.58 1519.65 1128.9C1516.72 1124.01 1511.48 1114.91 1511.08 1113.98C1510.58 1112.83 1510.34 1112.11 1510.05 1110.85C1509.79 1109.69 1509.81 1109.48 1510.28 1107.62C1510.72 1105.89 1510.89 1105.5 1511.55 1104.58C1513.43 1101.94 1517.16 1100.21 1520.41 1100.44C1523.49 1100.67 1526.43 1102.14 1528.47 1104.44C1529.28 1105.39 1530.96 1106.77 1531.21 1106.72C1531.34 1106.68 1531.76 1105.52 1532.32 1103.64C1533.78 1098.77 1534.82 1096.09 1535.87 1094.61C1537.14 1092.81 1538.44 1091.58 1539.86 1090.81C1543.96 1088.56 1548.74 1088.54 1553.09 1090.74C1556.67 1092.56 1559.55 1096.74 1559.83 1100.5C1559.96 1102.6 1559.8 1103.68 1558.5 1108.54C1557.21 1113.36 1557.04 1114.81 1557.74 1115.02C1557.93 1115.08 1558.86 1114.84 1559.76 1114.51C1560.66 1114.18 1562.1 1113.81 1562.93 1113.69C1564.44 1113.47 1564.48 1113.48 1566.61 1114.13C1569.13 1114.88 1569.91 1115.38 1571.67 1117.31C1574.23 1120.12 1574.97 1123.25 1573.78 1126.28C1573.15 1127.93 1571.76 1130 1570.83 1130.68C1570.23 1131.15 1565.1 1134.04 1563.16 1135.02C1554.49 1139.41 1549.68 1141.97 1549.02 1142.55L1548.23 1143.26L1546.67 1148.59C1545.12 1153.82 1545.11 1153.94 1545.23 1155.12C1545.37 1156.68 1545.8 1157.21 1547.18 1157.62C1548.05 1157.86 1548.53 1157.87 1550.15 1157.63C1551.21 1157.47 1552.55 1157.23 1553.11 1157.12C1553.69 1157.01 1554.81 1156.78 1555.61 1156.6C1556.42 1156.44 1557.52 1156.22 1558.07 1156.13C1558.61 1156.02 1559.66 1155.66 1560.38 1155.31C1561.8 1154.63 1562.07 1154.31 1564.09 1151.03C1564.55 1150.28 1565.3 1149.11 1565.74 1148.44C1566.6 1147.12 1567.63 1145.49 1569.42 1142.65C1571.61 1139.17 1573.56 1136.51 1575.18 1134.87C1576.82 1133.21 1580.09 1131.99 1582.46 1132.17C1586.48 1132.47 1590.29 1135.1 1591.86 1138.64C1592.86 1140.93 1592.88 1142.45 1591.93 1145.78C1591.28 1148.05 1591.25 1148.55 1591.75 1148.77C1592.25 1148.99 1593.21 1148.84 1599.91 1147.47C1604.13 1146.6 1606.24 1146.53 1608.58 1147.19C1611.37 1148 1613.43 1149.49 1615.5 1152.21C1618.41 1156.08 1618.81 1160.16 1616.61 1164.27C1615.93 1165.54 1614.45 1167.34 1613.56 1167.99C1610.93 1169.89 1610.2 1170.18 1604.47 1171.58C1599.57 1172.77 1597.91 1173.35 1597.89 1173.89C1597.88 1174.06 1598.3 1174.48 1598.96 1174.91C1601.68 1176.78 1603.84 1180.3 1603.88 1182.96C1603.91 1184.56 1602.9 1187.32 1601.8 1188.61C1600.65 1189.99 1599.35 1191.05 1598.11 1191.68C1596.87 1192.31 1594.32 1192.69 1592.63 1192.52C1591.21 1192.39 1588.68 1191.48 1586.43 1190.32C1585.5 1189.83 1584.01 1189.1 1583.12 1188.69C1582.23 1188.28 1580.88 1187.61 1580.14 1187.21C1579.4 1186.8 1578.45 1186.32 1578.02 1186.12C1577.59 1185.93 1576.38 1185.28 1575.32 1184.68C1571.54 1182.55 1570.58 1182.1 1568.55 1181.5C1566.7 1180.97 1566.49 1180.95 1565.25 1181.12C1564.52 1181.21 1563.32 1181.44 1562.56 1181.61C1561.81 1181.79 1560.74 1182.02 1560.17 1182.12C1556.91 1182.68 1554.08 1183.81 1553.56 1184.76C1553.23 1185.35 1553.27 1185.69 1553.72 1186.62C1554.28 1187.75 1557.51 1191.15 1561.08 1194.36C1562.82 1195.92 1563.06 1196.09 1564.11 1196.39C1564.73 1196.58 1565.89 1196.76 1566.69 1196.78C1571.98 1196.97 1573.06 1197.02 1573.99 1197.11C1574.56 1197.17 1575.86 1197.25 1576.87 1197.27C1584.79 1197.5 1588.04 1197.81 1590.08 1198.52C1594.43 1200.03 1597.1 1203.48 1597.09 1207.56C1597.06 1210.35 1595.69 1213.54 1593.89 1214.99C1592.69 1215.95 1590.16 1216.91 1587.59 1217.36C1584.72 1217.87 1584.64 1217.9 1585.17 1218.52C1585.39 1218.79 1585.82 1219.24 1586.11 1219.51C1586.4 1219.79 1587.18 1220.59 1587.83 1221.29C1588.49 1221.97 1589.6 1223.09 1590.32 1223.78C1594.3 1227.69 1595.94 1231.16 1595.58 1234.82C1595.31 1237.51 1593.72 1240.39 1591.17 1242.75C1589.95 1243.89 1587.12 1245.32 1585.49 1245.62C1581.86 1246.28 1577.54 1245.04 1574.19 1242.36C1573.5 1241.8 1572.86 1241.26 1572.78 1241.15C1572.71 1241.04 1571.95 1240.32 1571.1 1239.55C1570.25 1238.79 1569.4 1237.96 1569.2 1237.74C1568.3 1236.73 1566.39 1235.28 1565.57 1235C1564.73 1234.69 1564.73 1234.69 1564.61 1235.2C1563.67 1239.51 1563.7 1239.41 1562.78 1240.69C1561.15 1242.89 1558.85 1244.07 1555.01 1244.62L1553.31 1244.88L1550.98 1244.19C1548.66 1243.52 1548.62 1243.51 1547.55 1242.58C1546.31 1241.5 1544.51 1238.67 1544.14 1237.2C1543.75 1235.62 1543.44 1232.43 1543.5 1230.13C1543.53 1228.89 1543.55 1227.2 1543.55 1226.34C1543.56 1224.46 1543.62 1221.28 1543.75 1218.07C1543.92 1213.53 1543.66 1211.71 1542.66 1210.46C1542.41 1210.13 1541.44 1209.17 1540.5 1208.31C1539.58 1207.46 1538.57 1206.53 1538.29 1206.23C1538.01 1205.93 1536.94 1204.96 1535.93 1204.08C1534.4 1202.74 1533.94 1202.43 1533.14 1202.19C1532.1 1201.86 1531.55 1201.99 1530.75 1202.73C1530.37 1203.09 1530.09 1203.91 1528.66 1208.54C1526.89 1214.26 1526.65 1215.48 1527.03 1216.75C1527.13 1217.12 1529.49 1221.3 1532.25 1225.99C1538.23 1236.14 1538.6 1236.85 1539.04 1238.86C1539.27 1239.93 1539.15 1241.59 1538.73 1243.03C1537.75 1246.27 1534.66 1248.92 1530.9 1249.73C1527.24 1250.55 1524.53 1249.63 1521.41 1246.56C1519.27 1244.44 1518.4 1243.67 1518.14 1243.69C1517.94 1243.7 1517.6 1244.65 1516.55 1248.09C1515.03 1253.07 1514.72 1253.92 1513.68 1255.6C1512.84 1257 1511.7 1258.19 1510.16 1259.31C1508.29 1260.67 1505.22 1261.63 1502.7 1261.61C1501.42 1261.61 1500.86 1261.52 1499.08 1260.97C1497.94 1260.62 1496.84 1260.25 1496.65 1260.15Z" fill="#8A8F92"/>
</mask>
<g mask="url(#mask1_2114_1533)">
<rect x="1424" y="1029" width="447.918" height="386.354" transform="rotate(16.4825 1424 1029)" fill="#D7F7FF"/>
</g>
</g>
<defs>
<clipPath id="clip0_2114_1533">
<rect width="1920" height="1770" fill="white"/>
</clipPath>
</defs>
</svg>
