<svg width="569" height="787" viewBox="0 0 569 787" fill="none" xmlns="http://www.w3.org/2000/svg">
<g clip-path="url(#clip0_2507_1223)">
<path d="M0 -761.502L39.1929 -773.361C92.2997 -789.429 148.968 -789.466 202.095 -773.468L211.359 -770.678C261.404 -755.609 314.899 -756.499 364.414 -773.226V-773.226C412.2 -789.369 463.734 -790.774 512.329 -777.261L569 -761.502V25.023L534.639 41.5114C478.02 68.6811 412.833 71.8602 353.839 50.3291V50.3291C308.716 33.8611 259.609 31.7316 213.231 44.2316L201.536 47.3836C144.132 62.8553 83.2356 59.0502 28.204 36.5529L0 25.023V-761.502Z" fill="#FFF9F0"/>
<path d="M569 1.89636V745.523L521.549 763.141C471.607 781.683 416.483 780.542 367.351 759.95C315.331 738.146 256.661 738.224 204.678 760.117C156.036 780.602 101.408 782.067 51.7541 764.173L0 745.523V1.30048L34.3377 13.9205C88.71 33.9037 148.278 34.71 203.171 16.2057L213.081 12.8652C262.678 -3.85364 316.551 -2.76294 365.431 15.9497C414.149 34.6006 467.833 35.7475 517.303 19.1944L569 1.89636Z" fill="#FF9900"/>
<path d="M384.777 58.9534L380.42 81.7594L402.289 72.1386L387.814 90.2791L412.501 90.8999L390.775 100.782L413.391 111.521L388.716 111.188L404.782 129.919L382.046 119.436L388.379 142.448L372.085 123.892L367.432 146.628L360.807 123.674L346.088 141.63L350.444 118.824L328.576 128.445L343.051 110.305L318.363 109.684L340.09 99.802L317.474 89.0625L342.148 89.3962L326.083 70.6652L348.819 81.1484L342.486 58.1358L358.78 76.6923L363.433 53.9559L370.058 76.9103L384.777 58.9534Z" fill="#FFB240"/>
<path d="M30.4643 629.953L26.108 652.759L47.9766 643.139L33.5017 661.279L58.1889 661.9L36.4625 671.782L59.0786 682.521L34.4038 682.188L50.4695 700.919L27.7335 690.436L34.0668 713.448L17.7727 694.892L13.1191 717.628L6.49413 694.674L-8.22459 712.63L-3.86821 689.824L-25.7368 699.445L-11.262 681.305L-35.9491 680.684L-14.2227 670.802L-36.8389 660.063L-12.1641 660.396L-28.2298 641.665L-5.49375 652.148L-11.827 629.136L4.46711 647.692L9.1207 624.956L15.7456 647.91L30.4643 629.953Z" fill="#FFB240"/>
</g>
<defs>
<clipPath id="clip0_2507_1223">
<rect width="569" height="787" fill="white"/>
</clipPath>
</defs>
</svg>
