<svg width="1920" height="1026" viewBox="0 0 1920 1026" fill="none" xmlns="http://www.w3.org/2000/svg">
<g clip-path="url(#clip0_2428_1239)">
<g clip-path="url(#clip1_2428_1239)">
<path d="M58.7795 1007.87L0 999.525V21.2801L110.278 -11.0415C195.089 -35.8989 285.449 -34.4126 369.397 -6.77917C403.337 4.39313 438.521 11.3535 474.159 13.9456L497.116 15.6153C548.836 19.3771 600.824 16.6659 651.872 7.54462L825.579 -23.493C920.702 -40.4895 1018.15 -39.703 1112.99 -21.1737L1207.45 -2.7168C1291.09 13.6255 1377.96 5.75421 1457.37 -25.1909C1498.13 -41.0765 1541.16 -50.9453 1584.78 -54.363C1657.17 -60.0354 1729.85 -47.9697 1796.52 -19.2119L1920 34.0498V999.525L1820.59 1014.44C1769.51 1022.1 1717.54 1021.8 1666.55 1013.55L1578.55 999.308C1494.08 985.639 1407.95 985.854 1323.55 999.945L1263.37 1009.99C1200.09 1020.56 1135.34 1018.41 1072.9 1003.67C1003.18 987.207 930.658 986.468 860.609 1001.5L821.701 1009.86C771.996 1020.53 720.746 1021.91 670.538 1013.93L582.602 999.967C493.836 985.868 402.592 986.96 314.144 1002.94C230.057 1018.13 143.38 1019.88 58.7795 1007.87Z" fill="#FF9900"/>
<path d="M-46.5 650.5L33.14 692.728C51.6728 702.554 71.0828 710.629 91.1171 716.847L101.733 720.141C151.048 735.446 203.514 737.553 253.898 726.252L255.736 725.84C309.144 713.86 358.049 686.951 396.752 648.248L401.467 643.533C411.134 633.866 421.689 625.129 432.992 617.439L445.135 609.176C488.347 579.775 517.102 533.464 524.292 481.696L526.073 468.871C530.563 436.544 524.177 403.641 507.919 375.341L504.214 368.892C480.266 327.204 435.857 301.5 387.78 301.5V301.5C313.619 301.5 253.5 361.619 253.5 435.78V460.731C253.5 480.731 257.268 500.552 264.607 519.158L274.234 543.564C284.031 568.402 297.214 591.767 313.408 612.996V612.996C359.602 673.551 427.778 713.486 503.189 724.164L525.468 727.318C648.461 744.733 771.309 694.616 847.023 596.138L872.5 563L903.015 514.447C941.732 452.841 1001.14 407.053 1070.58 385.305V385.305C1114.3 371.61 1160.54 367.912 1205.88 374.483L1224.45 377.174C1302.31 388.458 1375 423.149 1437.27 471.231C1459.76 488.598 1480.74 504.325 1495.31 515.13C1508.75 525.104 1522.76 534.193 1537.26 542.562L1582.33 568.586C1625.35 593.424 1674.15 606.5 1723.83 606.5V606.5C1810.46 606.5 1892.31 566.823 1945.98 498.819L1992 440.5" stroke="#FFB240" stroke-width="70"/>
<path d="M1681.95 86.048L1669.79 149.737L1730.86 122.869L1690.44 173.529L1759.38 175.263L1698.7 202.859L1761.86 232.851L1692.95 231.919L1737.82 284.228L1674.33 254.952L1692.01 319.218L1646.51 267.396L1633.51 330.89L1615.01 266.787L1573.91 316.934L1586.07 253.246L1525 280.113L1565.43 229.453L1496.48 227.72L1557.16 200.123L1494 170.132L1562.91 171.063L1518.04 118.755L1581.54 148.03L1563.85 83.7645L1609.35 135.586L1622.35 72.0917L1640.85 136.195L1681.95 86.048Z" fill="#FFB240"/>
</g>
<g clip-path="url(#clip2_2428_1239)">
<path d="M61.4235 -878.619L0 -870.084V61L86.3193 33.8059C190.479 0.991211 301.979 -0.537598 407 29.4089L412.932 30.4798C524.636 50.6445 639.145 49.4967 750.422 27.0968L787.148 19.7039C905.829 -4.18634 1028.11 -3.88739 1146.67 20.5829L1207.74 33.1876C1296.81 51.5707 1388.51 53.3291 1478.22 38.374L1504.33 34.0221C1522.75 30.9509 1540.92 26.5244 1558.69 20.7788C1633.7 -3.47113 1714.4 -3.77362 1789.58 19.9133L1920 61V-870.084L1819 -884.914C1768.96 -892.262 1718.09 -891.975 1668.13 -884.061L1578.15 -869.808C1493.93 -856.466 1408.11 -856.676 1323.95 -870.431L1263.32 -880.34C1200.05 -890.68 1135.37 -888.574 1072.9 -874.139C1003.14 -858.018 930.701 -857.294 860.631 -872.018L821.703 -880.198C771.979 -890.646 720.774 -892 670.567 -884.194L579.838 -870.087C492.875 -856.566 404.278 -857.487 317.615 -872.813L310.849 -874.009C228.46 -888.58 144.295 -890.135 61.4235 -878.619Z" fill="#FFF7EB"/>
</g>
</g>
<defs>
<clipPath id="clip0_2428_1239">
<rect width="1920" height="1026" fill="white"/>
</clipPath>
<clipPath id="clip1_2428_1239">
<rect width="1920" height="1026" fill="white"/>
</clipPath>
<clipPath id="clip2_2428_1239">
<rect width="1920" height="974" fill="white" transform="translate(0 -892)"/>
</clipPath>
</defs>
</svg>
