<svg width="569" height="702" viewBox="0 0 569 702" fill="none" xmlns="http://www.w3.org/2000/svg">
<g clip-path="url(#clip0_2496_1832)">
<path d="M0 -14H569V681.172L545.367 688.036C486.786 705.048 424.769 706.406 365.499 691.976L362.049 691.136C309.127 678.252 253.86 678.48 201.047 691.802V691.802C143.418 706.338 82.9566 705.263 25.8804 688.688L0 681.172V-14Z" fill="#FF9900"/>
<path d="M337.717 92.5645L341.992 126.13L367.94 102.914L356.088 134.591L390.571 124.289L364.939 147.803L401.128 152.457L366.791 163.151L397.518 181.838L361.279 177.594L380.458 206.613L349.494 188.271L353.326 221.875L333.769 193.068L321.496 224.601L317.22 191.035L291.273 214.252L303.125 182.575L268.641 192.876L294.274 169.362L258.085 164.709L292.421 154.015L261.695 135.328L297.934 139.572L278.755 110.553L309.719 128.895L305.887 95.2908L325.444 124.097L337.717 92.5645Z" fill="#FFB240"/>
<path d="M77.3234 541.385L71.9099 569.725L99.0852 557.77L81.0979 580.312L111.776 581.084L84.7771 593.364L112.881 606.709L82.2189 606.295L102.183 629.571L73.9299 616.544L81.8 645.141L61.552 622.081L55.7692 650.335L47.5366 621.81L29.2463 644.124L34.6598 615.784L7.48456 627.74L25.4719 605.197L-5.20585 604.426L21.7926 592.146L-6.31148 578.8L24.3509 579.215L4.38669 555.939L32.6398 568.966L24.7697 540.369L45.0177 563.428L50.8006 535.175L59.0331 563.699L77.3234 541.385Z" fill="#FFB240"/>
</g>
<defs>
<clipPath id="clip0_2496_1832">
<rect width="569" height="702" fill="white"/>
</clipPath>
</defs>
</svg>
