<svg width="1920" height="870" viewBox="0 0 1920 870" fill="none" xmlns="http://www.w3.org/2000/svg">
<g clip-path="url(#clip0_2360_1030)">
<path d="M0 -1.5L1920 0V797.159L1827.21 828.817C1706.23 870.089 1576.01 876.165 1451.72 846.336C1350.29 821.995 1244.6 821.49 1142.94 844.862L1124.1 849.191C1018.6 873.448 909.111 874.801 803.034 853.159L722.687 836.767C634.281 818.73 542.861 821.874 455.902 845.943C347.388 875.978 232.421 873.301 125.422 838.248L0 797.159V-1.5Z" fill="#FF9900"/>
<path d="M2063.5 683L1979.54 705.01C1914.12 722.162 1844.82 716.62 1782.95 689.292L1770.79 683.92C1720.88 661.875 1665.28 656.214 1611.95 667.749V667.749C1585.15 673.546 1559.45 683.576 1535.81 697.461L1522.35 705.37C1487.09 726.08 1446.49 737 1405.6 737V737C1349.01 737 1294 715.65 1253.95 675.67C1250.41 672.137 1246.88 668.603 1243.39 665.101C1204.17 625.789 1182.26 571.054 1189.5 516V516C1190.17 510.889 1192.62 502.318 1195.9 492.389C1209.95 449.806 1251.3 423 1296.14 423V423C1358.45 423 1408.43 474.525 1406.52 536.81L1406.43 539.83C1405.23 579.099 1383.79 614.947 1349.75 634.574L1326.54 647.962C1315.55 654.299 1303.9 659.51 1291.49 662.121C1244.52 672 1187.63 672 1182 672C1179.55 672 1168.67 671.153 1154.78 669.98C1102.97 665.604 1052.43 651.716 1005.35 629.65V629.65C967.635 611.969 932.558 589.128 901.131 561.783L881.45 544.658C849.308 516.69 821.231 484.367 798.036 448.628L782.577 424.809C739.647 358.665 676.74 307.937 603 280V280V280C552.071 261.928 497.561 256.287 444.011 263.544L426.673 265.894C401.616 269.29 376.946 275.097 353.005 283.235L346.962 285.289C307.623 298.66 270.924 318.803 238.52 344.809L232.117 349.947C216.749 362.281 202.729 376.207 190.292 391.492L178.915 405.475C155.707 433.998 140.342 468.081 134.337 504.359L133.22 511.108C132.075 518.024 131.5 525.023 131.5 532.033V536.017C131.5 581.991 157.413 624.04 198.48 644.706V644.706C205.477 648.227 212.798 651.064 220.34 653.178L221.816 653.592C263.112 665.165 307.451 656.397 341.234 629.978V629.978C357.205 617.487 370.154 601.554 379.114 583.366L382.089 577.326C393.214 554.744 399 529.908 399 504.735V486.268C399 470.129 397.396 454.031 394.211 438.209L383.5 385C374.833 352.667 343.8 277 339 271C335.741 266.926 325.075 250.175 315.485 234.832C307.461 221.993 298.52 209.748 288.611 198.302L285.194 194.356C254.945 159.417 215.933 133.168 172.173 118.31V118.31C145.24 109.165 116.99 104.5 88.5464 104.5H78.708C34.7992 104.5 -8.21439 116.918 -45.3674 140.319V140.319C-58.7543 148.751 -71.2467 158.526 -82.6511 169.491L-130.5 215.5" stroke="#FFB240" stroke-width="70"/>
<path d="M1760.13 95.7362L1745.05 174.706L1820.77 141.392L1770.65 204.207L1856.13 206.357L1780.9 240.576L1859.21 277.763L1773.77 276.608L1829.4 341.467L1750.67 305.167L1772.6 384.853L1716.18 320.597L1700.07 399.326L1677.13 319.842L1626.16 382.022L1641.25 303.051L1565.52 336.365L1615.64 273.55L1530.16 271.401L1605.39 237.182L1527.08 199.995L1612.52 201.15L1556.89 136.29L1635.62 172.591L1613.69 92.9048L1670.11 157.16L1686.22 78.4312L1709.16 157.915L1760.13 95.7362Z" fill="#FFB240"/>
<circle cx="523.061" cy="663.799" r="16" transform="rotate(23.9444 523.061 663.799)" fill="#FFB240"/>
<circle cx="579.332" cy="729.271" r="21" transform="rotate(23.9444 579.332 729.271)" fill="#FFB240"/>
<circle cx="487.953" cy="737.93" r="28" transform="rotate(23.9444 487.953 737.93)" fill="#FFB240"/>
</g>
<defs>
<clipPath id="clip0_2360_1030">
<rect width="1920" height="870" fill="white"/>
</clipPath>
</defs>
</svg>
