<svg width="569" height="839" viewBox="0 0 569 839" fill="none" xmlns="http://www.w3.org/2000/svg">
<g clip-path="url(#clip0_2507_1085)">
<path d="M0 0.491898L569 0V819.612L545.511 825.926C486.693 841.738 424.912 843.003 365.496 829.612L362.025 828.83C309.007 816.881 253.972 817.094 201.049 829.451V829.451C143.274 842.941 83.0602 841.94 25.7654 826.538L0 819.612V0.491898Z" fill="#FF9900"/>
<path d="M360.717 75.5645L364.992 109.13L390.94 85.9139L379.088 117.591L413.571 107.289L387.939 130.803L424.128 135.457L389.791 146.151L420.518 164.838L384.279 160.594L403.458 189.613L372.494 171.271L376.326 204.875L356.769 176.068L344.496 207.601L340.22 174.035L314.273 197.252L326.125 165.575L291.641 175.876L317.274 152.362L281.085 147.709L315.421 137.015L284.695 118.328L320.934 122.572L301.755 93.5529L332.719 111.895L328.887 78.2908L348.444 107.097L360.717 75.5645Z" fill="#FFB240"/>
</g>
<defs>
<clipPath id="clip0_2507_1085">
<rect width="569" height="839" fill="white"/>
</clipPath>
</defs>
</svg>
