<svg width="1920" height="1080" viewBox="0 0 1920 1080" fill="none" xmlns="http://www.w3.org/2000/svg">
<g clip-path="url(#clip0_2056_35)">
<path d="M127 57.2689L0 0V923L115.18 961.766C141.348 970.574 168.201 977.198 195.464 981.572L246.744 989.8C301.215 998.54 356.757 998.205 411.118 988.808L491 975L626.531 945.938C697.01 930.825 769.923 931.129 840.274 946.829L859.07 951.024C929.843 966.819 1003.2 967.031 1074.07 951.645L1098.67 946.304C1169.38 930.951 1242.58 931.129 1313.22 946.826L1440 975L1475.55 981.222C1557.23 995.516 1641.19 989.271 1719.86 963.048L1744.1 954.967C1774.96 944.68 1806.75 937.43 1839.02 933.318L1920 923V14.0365L1863.34 46.9888C1829.88 66.4433 1793.53 80.4185 1755.66 88.3845L1737.55 92.1948C1661.55 108.18 1582.89 106.305 1507.74 86.7177L1503.55 85.624C1479.89 79.4574 1455.77 75.2346 1431.42 72.9978C1382.8 68.5307 1333.78 72.0292 1286.28 83.3551L1206 102.5L1172.7 108.08C1072.92 124.8 970.628 118.195 873.828 88.7849L863.479 85.6407C821.084 72.76 777.319 64.9199 733.089 62.2827C677.339 58.9586 621.404 63.9335 567.116 77.0446L518.811 88.7107L494.205 93.3555C445.28 102.591 395.6 107.239 345.811 107.239H329.014L313.295 105.153C254.943 97.4079 197.624 83.2466 142.38 62.9259L127 57.2689Z" fill="#FF9900"/>
<path d="M398 1021.5L268.381 940.214C236.959 920.508 208.549 896.365 184.033 868.532V868.532C140.411 819.01 110.253 759.105 96.4538 694.568L93.381 680.197C87.8092 654.138 85 627.565 85 600.917V600.917C85 542.752 98.3812 485.368 124.108 433.203L131.857 417.491C160.617 359.177 201.559 307.715 251.917 266.585L255.586 263.588C308.895 220.047 371.01 188.583 437.651 171.363L485.779 158.927C515.198 151.325 545.25 146.42 575.559 144.275L599.942 142.548C665.666 137.895 731.661 146.278 794.134 167.215L804.393 170.653C857.422 188.425 907.093 214.968 951.339 249.176L992.5 281L1016.92 304.338C1030.54 317.348 1041.81 332.612 1050.23 349.456V349.456C1061.59 372.173 1067.5 397.223 1067.5 422.622V435.228C1067.5 448.692 1065.85 462.105 1062.58 475.167V475.167C1057.57 495.21 1048.83 514.131 1036.83 530.943L1034.74 533.862C1028.26 542.935 1020.97 551.399 1012.95 559.149L1010 562L1008.21 563.379C997.791 571.419 986.278 577.935 974.02 582.731L972.921 583.161C963.012 587.039 952.661 589.678 942.105 591.018L940.54 591.217C931.214 592.401 921.78 592.45 912.443 591.363V591.363C875.419 587.052 842.706 565.253 824.472 532.743L818.447 521.999C806.68 501.019 800.5 477.367 800.5 453.311V448.218C800.5 439.089 801.282 429.978 802.836 420.982L803.211 418.815C806.057 402.347 811.115 386.339 818.247 371.226L819.457 368.662C825.47 355.921 832.771 343.828 841.247 332.574V332.574C853.022 316.938 866.962 303.055 882.647 291.344L883.985 290.344C892.318 284.123 901.084 278.505 910.218 273.534L1009.5 219.5L1038.95 206.464C1080.13 188.238 1123.58 175.658 1168.12 169.066L1226 160.5L1389.5 153L1502.5 140.5L1548.39 130.302C1595.55 119.823 1640.94 102.564 1683.15 79.0646L1712 63" stroke="#FFB340" stroke-width="70"/>
<path d="M1571 100L1546 95L1600.5 78.5L1626.5 68.5L1649 56L1663.78 46.2501C1669.58 42.4278 1674.94 37.9922 1679.79 33.0201C1687.58 25.0218 1694.67 16.363 1700.96 7.14099L1705.5 0.5H1749H1783.5L1779.51 10.818C1772.52 28.8974 1763.81 46.2626 1753.49 62.6737C1749.17 69.5467 1744.3 76.0606 1738.94 82.152L1728.5 94C1707.23 100.316 1685.35 104.387 1663.22 106.147L1652.5 107H1643.67C1619.28 107 1594.94 104.656 1571 100Z" fill="#FFF7EB"/>
<path d="M338 994H283.5L302 1006.5L350.5 1033.5L405 1067.5L411.917 1072.05C430.574 1084.31 447.72 1098.72 463 1115L515.961 1089.55C521.823 1086.73 523.478 1079.15 519.324 1074.15L508 1060.5C490.724 1042.56 471.436 1026.67 450.517 1013.16L449.5 1012.5L409.5 987.5L338 994Z" fill="#FFF7EB"/>
</g>
<defs>
<clipPath id="clip0_2056_35">
<rect width="1920" height="1080" fill="white"/>
</clipPath>
</defs>
</svg>
