<svg width="1920" height="1080" viewBox="0 0 1920 1080" fill="none" xmlns="http://www.w3.org/2000/svg">
<g clip-path="url(#clip0_2056_35)">
<path d="M127 57.2689L0 0V923L37.3996 942.351C79.2563 964.008 123.965 979.639 170.198 988.779L208.622 996.376C280.656 1010.62 354.943 1008.82 426.203 991.106L491 975L626.531 945.938C697.01 930.825 769.923 931.129 840.274 946.829L859.07 951.024C929.843 966.819 1003.2 967.031 1074.07 951.645L1098.67 946.304C1169.38 930.951 1242.58 931.129 1313.22 946.826L1440 975L1511.47 987.508C1570.02 997.754 1629.93 997.478 1688.38 986.695L1718.16 981.2C1763.83 972.774 1808.1 958.027 1849.7 937.383L1920 902.5V14.0365L1863.34 46.9888C1829.88 66.4433 1793.53 80.4185 1755.66 88.3845L1737.55 92.1948C1661.55 108.18 1582.89 106.305 1507.74 86.7177L1503.55 85.624C1479.89 79.4574 1455.77 75.2346 1431.42 72.9978C1382.8 68.5307 1333.78 72.0292 1286.28 83.3551L1206 102.5L1172.7 108.08C1072.92 124.8 970.628 118.195 873.828 88.7849L863.479 85.6407C821.084 72.76 777.319 64.9199 733.089 62.2827C677.339 58.9586 621.404 63.9335 567.116 77.0446L518.811 88.7107L494.205 93.3555C445.28 102.591 395.6 107.239 345.811 107.239H329.014L313.295 105.153C254.943 97.4079 197.624 83.2466 142.38 62.9259L127 57.2689Z" fill="#FF9900"/>
<path d="M-112.5 775.5L-40.3196 754.565C20.109 737.039 72.8267 699.577 109.253 648.274V648.274C135.042 611.955 151.746 569.981 157.967 525.873L165 476V476C176.507 414.846 202.141 357.226 239.858 307.732L241.509 305.565C290.731 240.972 357.985 192.408 434.783 166.003L450.1 160.737C498.696 144.028 549.729 135.5 601.118 135.5H617.945C671.958 135.5 725.614 144.252 776.828 161.415L804.393 170.653C857.422 188.425 907.093 214.968 951.339 249.176L992.5 281L1016.92 304.338C1030.54 317.348 1041.81 332.612 1050.23 349.456V349.456C1061.59 372.173 1067.5 397.223 1067.5 422.622V435.228C1067.5 448.692 1065.85 462.105 1062.58 475.167V475.167C1057.57 495.21 1048.83 514.131 1036.83 530.943L1034.74 533.862C1028.26 542.935 1020.97 551.399 1012.95 559.149L1010 562L1008.21 563.379C997.791 571.419 986.278 577.935 974.02 582.731L972.921 583.161C963.012 587.039 952.661 589.678 942.105 591.018L940.54 591.217C931.214 592.401 921.78 592.45 912.443 591.363V591.363C875.419 587.052 842.706 565.253 824.472 532.743L818.447 521.999C806.68 501.019 800.5 477.367 800.5 453.311V448.218C800.5 439.089 801.282 429.978 802.836 420.982L803.211 418.815C806.057 402.347 811.115 386.339 818.247 371.226L819.457 368.662C825.47 355.921 832.771 343.828 841.247 332.574V332.574C853.022 316.938 866.962 303.055 882.647 291.344L883.985 290.344C892.318 284.123 901.084 278.505 910.218 273.534L1009.5 219.5L1062.43 196.074C1088.02 184.743 1115.04 176.923 1142.73 172.824V172.824C1197.26 164.753 1252.96 171.33 1304.11 191.88L1370.53 218.562C1389.48 226.177 1408.97 232.386 1428.84 237.138V237.138C1507.57 255.97 1590.08 251.429 1666.26 224.073L1679 219.5L1756.64 181.397C1794.57 162.782 1836.66 154.284 1878.85 156.727V156.727C1921.54 159.199 1962.84 172.795 1998.66 196.163L2014.5 206.5" stroke="#FFB340" stroke-width="70"/>
</g>
<defs>
<clipPath id="clip0_2056_35">
<rect width="1920" height="1080" fill="white"/>
</clipPath>
</defs>
</svg>
