<svg width="569" height="522" viewBox="0 0 569 522" fill="none" xmlns="http://www.w3.org/2000/svg">
<path d="M11.216 4.61215L0 0V503.739L34.1761 496.633C55.7729 492.142 77.9304 490.987 99.877 493.209C113.679 494.607 127.314 497.331 140.593 501.345L154.317 505.493C211.886 522.893 272.867 525.771 331.818 513.869L335.331 513.159C391.112 495.258 450.454 491.42 508.077 501.987L569 513.159V6.60822L531.561 19.7942C512.082 26.6549 491.852 31.1621 471.302 33.2197C438.12 36.5423 404.607 33.4277 372.605 24.047L365.904 22.0828C316.54 7.61285 264.25 6.30575 214.225 18.2913L207.658 19.8646C142.201 35.5474 73.4676 30.2106 11.216 4.61215Z" fill="#FF9900"/>
</svg>
