<svg width="569" height="646" viewBox="0 0 569 646" fill="none" xmlns="http://www.w3.org/2000/svg">
<g clip-path="url(#clip0_2496_2128)">
<path d="M0 0H569V622.599L545.566 628.694C486.657 644.016 424.967 645.242 365.495 632.275L362.015 631.516C308.961 619.948 254.015 620.153 201.049 632.119V632.119C143.218 645.183 83.1 644.213 25.7207 629.289L0 622.599V0Z" fill="#FF9900"/>
<path d="M352.717 92.5645L356.992 126.13L382.94 102.914L371.088 134.591L405.571 124.289L379.939 147.803L416.128 152.457L381.791 163.151L412.518 181.838L376.279 177.594L395.458 206.613L364.494 188.271L368.326 221.875L348.769 193.068L336.496 224.601L332.22 191.035L306.273 214.252L318.125 182.575L283.641 192.876L309.274 169.362L273.085 164.709L307.421 154.015L276.695 135.328L312.934 139.572L293.755 110.553L324.719 128.895L320.887 95.2908L340.444 124.097L352.717 92.5645Z" fill="#FFB240"/>
<path d="M61.5028 512.468L57.138 535.318L79.0492 525.679L64.5461 543.854L89.2814 544.476L67.5127 554.378L90.1728 565.138L65.45 564.804L81.547 583.571L58.7667 573.068L65.1123 596.125L48.7864 577.532L44.1238 600.313L37.486 577.314L22.7386 595.306L27.1035 572.455L5.19227 582.095L19.6953 563.919L-5.03992 563.297L16.7288 553.396L-5.93137 542.636L18.7914 542.97L2.69448 524.202L25.4747 534.706L19.1292 511.649L35.455 530.241L40.1176 507.461L46.7555 530.46L61.5028 512.468Z" fill="#FFB240"/>
</g>
<defs>
<clipPath id="clip0_2496_2128">
<rect width="569" height="646" fill="white"/>
</clipPath>
</defs>
</svg>
