<svg width="1920" height="961" viewBox="0 0 1920 961" fill="none" xmlns="http://www.w3.org/2000/svg">
<g clip-path="url(#clip0_2280_601)">
<path d="M1572.36 251.331L1567.16 319.509L1627.97 284.119L1591.61 341.993L1664.06 335.639L1603.75 371.747L1673.49 395.689L1601.17 402.878L1654.38 452.373L1584.38 429.221L1610.53 494.465L1556.71 445.557L1550.61 513.629L1523.63 448.651L1486.5 506.068L1491.7 437.891L1430.9 473.281L1467.25 415.407L1394.8 421.76L1455.11 385.653L1385.38 361.711L1457.69 354.521L1404.48 305.026L1474.48 328.179L1448.33 262.934L1502.15 311.843L1508.25 243.77L1535.23 308.748L1572.36 251.331Z" fill="#FFF7EB"/>
<path d="M-44.5 243.5L4.16474 329.379C28.2777 371.931 58.0299 411.03 92.6141 445.614L106.917 459.917C177.852 530.852 269.23 577.779 368.21 594.103L373.813 595.027C395.901 598.669 418.249 600.5 440.635 600.5H520.688C563.889 600.5 605.756 585.527 639.159 558.13L654.947 545.181C709.053 500.804 727.839 426.3 701.244 361.575L697.171 351.664C676.3 300.869 628.056 266.624 573.219 263.68V263.68C535.32 261.645 498.18 274.839 470.059 300.327L457.051 312.118C418.493 347.066 396.5 396.682 396.5 448.722V469.943C396.5 494.165 400.289 518.238 407.73 541.289L431.841 615.976C452.106 678.753 491.479 733.63 544.457 772.936V772.936C582.661 801.281 626.762 820.649 673.482 829.603L687.71 832.329C726.336 839.732 765.877 841.092 804.92 836.362L973 816H1003.69C1080.67 816 1157.08 829.118 1229.65 854.79V854.79C1276.08 871.214 1320.58 892.652 1362.36 918.722L1483 994" stroke="#FFF7EB" stroke-width="70"/>
</g>
<defs>
<clipPath id="clip0_2280_601">
<rect width="1920" height="961" fill="white"/>
</clipPath>
</defs>
</svg>
