<svg width="1920" height="1180" viewBox="0 0 1920 1180" fill="none" xmlns="http://www.w3.org/2000/svg">
<g clip-path="url(#clip0_2068_3)">
<path d="M1920 44.2541C1880.25 29.4543 1822.11 23.7827 1781.76 21.6146C1750.96 19.9598 1720.16 22.1692 1689.55 25.932L1655.57 30.109C1579.25 39.4901 1501.99 37.8207 1426.15 25.1526L1397 20.2831L1370.23 16.3914C1295.46 5.51865 1219.51 5.2955 1144.67 15.7286L1112 20.2831L919 44.2541H793.811C750.011 44.2541 706.285 40.6571 663.074 33.4993L645.579 30.6013C560.094 16.4409 472.877 16.2626 387.334 30.0733L358.548 34.7208C319.246 41.0661 279.499 44.2541 239.688 44.2541C185.391 44.2541 131.258 38.3244 78.2496 26.5704L0 9.2196V924.857L121.459 962.645C159.932 974.614 199.993 980.702 240.286 980.702H413L627 954.887L687.099 943.483C717.253 937.761 747.994 935.75 778.637 937.495C821.561 939.94 863.749 949.724 903.368 966.422L911.235 969.737C982.857 999.924 1061.72 1008.59 1138.19 994.677L1215 980.702L1315.59 965.99C1365.9 958.631 1417.04 958.99 1467.25 967.053L1555.5 981.229L1604.75 993.289C1665.73 1008.22 1729.36 1008.59 1790.5 994.369L1793.45 993.683C1828.98 985.419 1863.22 972.334 1895.2 954.792L1920 941.189V44.2541Z" fill="#FFF7EB"/>
<path d="M1960 129V129C1920.75 195.731 1864.02 250.477 1795.93 287.33L1789 291.08L1762.45 302.348C1691.38 332.504 1633 386.518 1597.4 455.024V455.024C1572.84 502.292 1560 554.81 1560 608.079V632.396C1560 650.029 1562.69 667.559 1567.98 684.38L1571.93 696.947C1581.97 728.893 1603.26 756.112 1631.84 773.551L1633.33 774.456C1683.29 804.935 1747.15 800.004 1791.85 762.216V762.216C1822.38 736.394 1840 698.432 1840 658.44V654.661C1840 641.943 1838.32 629.281 1834.99 617.006L1832.42 607.519C1816.53 548.857 1776.87 499.494 1723.01 471.346L1677.41 447.519C1660.83 438.855 1645.01 428.819 1630.1 417.518L1576 376.5L1532.47 349.396C1437.88 290.492 1326.31 264.877 1215.5 276.618L1161.68 282.319C1107.21 288.091 1054.63 305.59 1007.56 333.613V333.613C945.164 370.757 894.739 425.021 862.267 489.967L825.355 563.789C814.011 586.478 796.552 605.545 774.949 618.839L572.986 743.124C570.588 744.6 567.5 742.874 567.5 740.058V740.058C567.5 738.783 566.825 737.603 565.726 736.956L413.191 647.173C359.3 615.452 297.147 600.592 234.736 604.506L224.424 605.152C106.671 612.537 0.744229 679.267 -56.76 782.29L-65.25 797.5" stroke="white" stroke-width="70"/>
<path d="M207 171L220.435 272.312L302 289L220.435 305.688L207 407L193.565 305.688L112 289L193.565 272.312L207 171Z" fill="white"/>
<path d="M313 289L322.164 349.196L367 361.5L322.164 373.804L313 434L303.836 373.804L259 361.5L303.836 349.196L313 289Z" fill="white"/>
</g>
<defs>
<clipPath id="clip0_2068_3">
<rect width="1920" height="1180" fill="white"/>
</clipPath>
</defs>
</svg>
