<svg width="769" height="710" viewBox="0 0 769 715" fill="none" xmlns="http://www.w3.org/2000/svg">
<path d="M0 32.0594L69.4084 19.0641C136.181 6.56224 205.042 11.3286 269.455 32.911V32.911C341.89 57.1809 419.773 60.1308 493.836 41.4098L515.957 35.8182C568.741 22.4761 623.421 18.2792 677.622 23.4098L769 32.0594V679.213L722.664 675.603C677.304 672.069 631.671 676.002 587.585 687.246V687.246C540.733 699.196 492.155 702.883 444.036 698.142L401.747 693.976C372.627 691.107 343.246 692.426 314.499 697.893L289.102 702.723C246.987 710.733 203.449 706.251 163.848 689.83V689.83C122.586 672.721 77.0901 668.589 33.4208 677.986L0 685.177V32.0594Z" fill="#FFF7EB"/>
<path d="M169.243 68.9846L158.025 102.878L199.886 86.6356L170.556 114.664L216.23 113.179L174.596 129.791L215.037 143.357L169.347 145.263L196.544 171.193L155.846 158.015L164.414 191.174L136.769 165.522L125.01 199.342L115.893 166.297L86.1361 194.079L97.3539 160.186L55.4928 176.428L84.823 148.4L39.149 149.885L80.7824 133.273L40.3416 119.707L86.0323 117.801L58.8345 91.8704L99.5329 105.049L90.965 71.8897L118.61 97.5421L130.369 63.7218L139.486 96.7674L169.243 68.9846Z" fill="white"/>
</svg>
