<svg width="1920" height="1180" viewBox="0 0 1920 1180" fill="none" xmlns="http://www.w3.org/2000/svg">
<g clip-path="url(#clip0_2068_3)">
<path d="M1920 44.2541C1880.25 29.4543 1822.11 23.7827 1781.76 21.6146C1750.96 19.9598 1720.16 22.1692 1689.55 25.932L1655.57 30.109C1579.25 39.4901 1501.99 37.8207 1426.15 25.1526L1397 20.2831L1370.23 16.3914C1295.46 5.51865 1219.51 5.2955 1144.67 15.7286L1112 20.2831L919 44.2541H793.811C750.011 44.2541 706.285 40.6571 663.074 33.4993L645.579 30.6013C560.094 16.4409 472.877 16.2626 387.334 30.0733L358.548 34.7208C319.246 41.0661 279.499 44.2541 239.688 44.2541C185.391 44.2541 131.258 38.3244 78.2496 26.5704L0 9.2196V924.857L121.459 962.645C159.932 974.614 199.993 980.702 240.286 980.702H413L627 954.887L687.099 943.483C717.253 937.761 747.994 935.75 778.637 937.495C821.561 939.94 863.749 949.724 903.368 966.422L911.235 969.737C982.857 999.924 1061.72 1008.59 1138.19 994.677L1215 980.702L1315.59 965.99C1365.9 958.631 1417.04 958.99 1467.25 967.053L1555.5 981.229L1604.75 993.289C1665.73 1008.22 1729.36 1008.59 1790.5 994.369L1793.45 993.683C1828.98 985.419 1863.22 972.334 1895.2 954.792L1920 941.189V44.2541Z" fill="#FFF7EB"/>
<path d="M1924.5 314.5L1892.12 308.837C1853.04 302.004 1812.89 302.448 1773.96 310.09V310.09C1759.04 313.019 1744.3 317.017 1729.94 322.031L1728.07 322.684C1678.65 339.951 1634.35 369.351 1599.24 408.188L1576.92 432.88C1539.32 474.472 1518.5 528.544 1518.5 584.612V601.038C1518.5 624.053 1523.66 646.775 1533.6 667.532L1539.21 679.238C1554.95 712.11 1584.21 736.517 1619.37 746.118V746.118C1667.95 759.385 1719.76 742.332 1750.97 702.801L1755.92 696.537C1772.92 675.005 1783.09 648.883 1785.14 621.526L1786.08 608.875C1790.14 554.6 1769.29 501.425 1729.43 464.369L1701.84 438.724C1691.3 428.925 1679.95 420.028 1667.93 412.125L1582.5 356L1517.31 323.529C1432.05 281.061 1336.43 263.832 1241.71 273.868L1161.93 282.319C1107.46 288.091 1054.88 305.59 1007.81 333.613V333.613C945.414 370.757 894.989 425.021 862.517 489.967L825.605 563.789C814.261 586.478 796.802 605.545 775.199 618.839L573.236 743.124C570.838 744.6 567.75 742.874 567.75 740.058V740.058C567.75 738.783 567.075 737.603 565.976 736.956L413.441 647.173C359.55 615.452 297.397 600.592 234.986 604.506L224.674 605.152C106.921 612.537 0.994229 679.267 -56.51 782.29L-65 797.5" stroke="white" stroke-width="70"/>
<path d="M207 171L220.435 272.312L302 289L220.435 305.688L207 407L193.565 305.688L112 289L193.565 272.312L207 171Z" fill="white"/>
<path d="M313 289L322.164 349.196L367 361.5L322.164 373.804L313 434L303.836 373.804L259 361.5L303.836 349.196L313 289Z" fill="white"/>
</g>
<defs>
<clipPath id="clip0_2068_3">
<rect width="1920" height="1180" fill="white"/>
</clipPath>
</defs>
</svg>
