<svg width="1920" height="1003" viewBox="0 0 1920 1003" fill="none" xmlns="http://www.w3.org/2000/svg">
<g clip-path="url(#clip0_2114_1617)">
<path d="M0 228.218L52.9868 200.699C110.739 170.703 172.222 148.517 235.821 134.721C317.344 117.036 401.285 113.368 484.041 123.875L570.5 134.851L795 195.608L937.951 212.746C1023.42 222.994 1109.99 219.379 1194.31 202.041L1282.5 183.907L1407.55 157.859C1480.77 142.606 1555.86 138.374 1630.34 145.303C1703.06 152.069 1774.4 169.403 1842.12 196.758L1920 228.218V1113L1783.14 1067.28C1714.7 1044.41 1643.47 1030.91 1571.4 1027.15L1555.14 1026.3C1509.79 1023.93 1464.33 1025.42 1419.25 1030.77L1315.5 1043.06L1091.5 1092.83L885 1113H773.5L670.5 1082.73L548.046 1051.86C497.801 1039.2 446.444 1031.45 394.699 1028.71L365.331 1027.16C309.597 1024.22 253.707 1027.12 198.576 1035.81L0 1067.11V228.218Z" fill="#D7F7FF"/>
<path d="M-100 602L-50.5274 658.712C-2.47138 713.801 60.0546 754.328 129.965 775.699V775.699C186.583 793.007 246.391 797.243 304.884 788.088L360.105 779.444C379.004 776.486 397.631 771.999 415.804 766.026L468.695 748.642C509.391 735.267 544.439 708.656 568.257 673.051V673.051C576.722 660.395 583.651 646.777 588.897 632.484L598.639 605.94C609.843 575.412 617.536 543.709 621.57 511.442L628.948 452.413C633.246 418.031 628.766 383.122 615.926 350.94L609.085 333.795C600.506 312.295 586.533 293.368 568.512 278.839V278.839C544.561 259.53 514.723 249 483.958 249H469.599C450.364 249 431.293 252.541 413.341 259.446V259.446C396.898 265.77 381.639 274.821 368.206 286.219L362.527 291.038C336.284 313.304 316.213 341.949 304.242 374.216L291.959 407.329C281.698 434.988 275.138 463.883 272.45 493.261V493.261C265.984 563.922 282.137 634.81 318.577 695.694L326.806 709.443C337.584 727.451 349.82 744.544 363.392 760.552L368.989 767.154C416.069 822.684 475.518 865.877 545.237 886.84C563.019 892.187 576.732 896.366 581 898.5C586.13 901.065 619.04 907.011 655.04 912.979C721.851 924.054 790.33 916.843 853.953 893.637V893.637C898.636 877.339 940.107 853.313 976.471 822.657L977.816 821.523C1014.33 790.738 1055.88 766.475 1100.64 749.8L1160.07 727.654C1247.32 695.147 1339.68 678.5 1432.79 678.5H1514L1578.65 674.829C1640.8 671.3 1703.1 677.958 1763.1 694.539V694.539C1794.31 703.164 1824.73 714.429 1854.03 728.211L1953.5 775" stroke="white" stroke-width="70"/>
<path d="M1944.22 835.541L1936.22 877.452L1976.41 859.772L1949.81 893.109L1995.17 894.25L1955.25 912.41L1996.81 932.146L1951.46 931.533L1980.99 965.955L1939.21 946.69L1950.84 988.981L1920.9 954.879L1912.35 996.662L1900.17 954.478L1873.12 987.478L1881.13 945.567L1840.94 963.247L1867.54 929.91L1822.17 928.769L1862.1 910.609L1820.54 890.873L1865.89 891.486L1836.36 857.064L1878.14 876.329L1866.5 834.038L1896.45 868.14L1905 826.357L1917.18 868.541L1944.22 835.541Z" fill="#D7F7FF"/>
<path d="M91.245 267.654L80.4429 324.203L134.668 300.347L98.7765 345.329L159.991 346.868L106.118 371.372L162.197 398.001L101.013 397.174L140.85 443.619L84.4736 417.625L100.178 474.687L59.7747 428.674L48.2356 485.052L31.8084 428.134L-4.68815 472.66L6.11394 416.11L-48.1115 439.966L-12.2196 394.984L-73.434 393.445L-19.5611 368.942L-75.6401 342.312L-14.4565 343.139L-54.293 296.694L2.08325 322.688L-13.6207 265.626L26.7822 311.639L38.3213 255.262L54.7485 312.179L91.245 267.654Z" fill="#D7F7FF"/>
</g>
<defs>
<clipPath id="clip0_2114_1617">
<rect width="1920" height="1003" fill="white"/>
</clipPath>
</defs>
</svg>
