<svg width="1920" height="785" viewBox="0 0 1920 785" fill="none" xmlns="http://www.w3.org/2000/svg">
<g clip-path="url(#clip0_2155_1051)">
<path d="M0 0H1920V711.159L1827.21 742.817C1706.23 784.089 1576.01 790.165 1451.72 760.336C1350.29 735.995 1244.6 735.49 1142.94 758.862L1124.1 763.191C1018.6 787.448 909.111 788.801 803.034 767.159L722.687 750.767C634.281 732.73 542.861 735.874 455.902 759.943C347.388 789.978 232.421 787.301 125.422 752.248L0 711.159V0Z" fill="#FF9900"/>
<path d="M-14 67L48.0665 51.1743C89.6682 40.5667 133.287 40.7382 174.804 51.6727L176.841 52.2091C213.764 61.9336 247.885 80.1962 276.456 105.525V105.525C294.387 121.421 309.804 139.925 322.616 160.176C329.865 171.634 336.541 181.926 339 185C343.8 191 374.833 266.667 383.5 299L391.642 339.448C396.514 363.652 397.378 388.491 394.198 412.974L392.969 422.436C390.344 442.651 384.149 462.24 374.673 480.289L370.704 487.849C362.001 504.428 349.878 518.971 335.139 530.519L329.154 535.207C297.845 559.736 256.304 566.883 218.598 554.229V554.229C167.356 537.033 134.294 487.283 138.287 433.38L140.043 409.664C142.294 379.287 153.808 350.332 173.032 326.705L192.465 302.821C203.458 289.312 215.849 277.004 229.432 266.102L238.52 258.809C270.924 232.803 307.623 212.66 346.962 199.289L353.005 197.235C376.946 189.097 401.616 183.29 426.673 179.894L444.011 177.544C497.561 170.287 552.071 175.928 603 194V194V194C676.74 221.937 739.647 272.665 782.577 338.809L798.036 362.628C821.231 398.367 849.308 430.69 881.45 458.658L914.095 487.063C936.921 506.924 962.398 523.515 989.795 536.357V536.357C1046.4 562.893 1109.39 571.814 1171.53 564.949C1176.91 564.356 1180.68 564 1182 564C1186.11 564 1213.36 553.5 1245.3 545.975C1280.5 537.686 1316.28 528.396 1347 509.328V509.328C1382.39 487.361 1409.77 454.586 1425.09 415.851L1435.01 390.783C1442.27 372.426 1446 352.863 1446 333.123V324.368C1446 267.613 1412.51 216.204 1360.59 193.27V193.27C1322.15 176.286 1278.19 177.032 1240.35 195.309L1237.99 196.447C1172.26 228.193 1145.37 301.705 1156.53 373.844C1156.83 375.827 1157 377.404 1157 378.5C1157 384.888 1161.25 409.536 1166.24 436.307C1176.08 489.062 1201.89 537.46 1239.77 575.476C1244.18 579.904 1248.68 584.403 1253.18 588.904C1293.72 629.383 1348.76 651 1406.05 651V651C1446.94 651 1487.09 640.08 1522.35 619.37L1535.81 611.461C1559.45 597.576 1585.15 587.546 1611.95 581.749V581.749C1665.28 570.214 1720.88 575.875 1770.79 597.92L1782.95 603.292C1844.82 630.62 1914.12 636.162 1979.54 619.01L2063.5 597" stroke="#FFB240" stroke-width="70"/>
<path d="M1760.13 9.73624L1745.05 88.7064L1820.77 55.3924L1770.65 118.207L1856.13 120.357L1780.9 154.576L1859.21 191.763L1773.77 190.608L1829.4 255.467L1750.67 219.167L1772.6 298.853L1716.18 234.597L1700.07 313.326L1677.13 233.842L1626.16 296.022L1641.25 217.051L1565.52 250.365L1615.64 187.55L1530.16 185.401L1605.39 151.182L1527.08 113.995L1612.52 115.15L1556.89 50.2904L1635.62 86.5906L1613.69 6.90484L1670.11 71.1604L1686.22 -7.56877L1709.16 71.9155L1760.13 9.73624Z" fill="#FFB240"/>
<circle cx="517.613" cy="573.815" r="16" transform="rotate(12.0934 517.613 573.815)" fill="#FFB240"/>
<circle cx="586.13" cy="626.335" r="21" transform="rotate(12.0934 586.13 626.335)" fill="#FFB240"/>
<circle cx="498.477" cy="653.576" r="28" transform="rotate(12.0934 498.477 653.576)" fill="#FFB240"/>
</g>
<defs>
<clipPath id="clip0_2155_1051">
<rect width="1920" height="785" fill="white"/>
</clipPath>
</defs>
</svg>
