<svg width="569" height="1394" viewBox="0 0 569 1394" fill="none" xmlns="http://www.w3.org/2000/svg">
<g clip-path="url(#clip0_2338_707)">
<path d="M0 0H569V1360.79L545.343 1367.74C486.801 1384.94 424.745 1386.31 365.5 1371.72L362.053 1370.87C309.147 1357.84 253.842 1358.07 201.046 1371.54V1371.54C143.441 1386.24 82.9396 1385.16 25.8991 1368.4L0 1360.79V0Z" fill="#FF9900"/>
<path d="M307.256 92.3901L312.443 133.111L343.922 104.946L329.543 143.375L371.377 130.878L340.28 159.404L384.184 165.05L342.528 178.023L379.805 200.694L335.841 195.545L359.108 230.75L321.543 208.498L326.193 249.265L302.467 214.318L287.578 252.573L282.39 211.852L250.911 240.017L265.29 201.587L223.456 214.085L254.553 185.559L210.649 179.913L252.305 166.94L215.028 144.269L258.992 149.418L235.725 114.213L273.29 136.465L268.641 95.6976L292.366 130.645L307.256 92.3901Z" fill="#FFB240"/>
<path d="M137.876 598.4L129.047 644.618L173.366 625.121L144.032 661.884L194.063 663.143L150.032 683.17L195.866 704.934L145.86 704.258L178.419 742.218L132.342 720.973L145.177 767.611L112.155 730.004L102.724 776.081L89.2979 729.562L59.4689 765.953L68.2975 719.735L23.9785 739.232L53.3133 702.469L3.28214 701.211L47.313 681.184L1.47902 659.419L51.4851 660.095L18.9263 622.135L65.0032 643.38L52.1682 596.743L85.1899 634.349L94.6209 588.272L108.047 634.791L137.876 598.4Z" fill="#FFB240"/>
<path d="M338.876 1210.4L330.047 1256.62L374.366 1237.12L345.032 1273.88L395.063 1275.14L351.032 1295.17L396.866 1316.93L346.86 1316.26L379.419 1354.22L333.342 1332.97L346.177 1379.61L313.155 1342L303.724 1388.08L290.298 1341.56L260.469 1377.95L269.298 1331.73L224.978 1351.23L254.313 1314.47L204.282 1313.21L248.313 1293.18L202.479 1271.42L252.485 1272.1L219.926 1234.13L266.003 1255.38L253.168 1208.74L286.19 1246.35L295.621 1200.27L309.047 1246.79L338.876 1210.4Z" fill="#FFB240"/>
</g>
<defs>
<clipPath id="clip0_2338_707">
<rect width="569" height="1394" fill="white"/>
</clipPath>
</defs>
</svg>
