<svg width="1920" height="1000" viewBox="0 0 1920 1000" fill="none" xmlns="http://www.w3.org/2000/svg">
<g clip-path="url(#clip0_2064_13)">
<path d="M1920 946.483V79C1830.54 17.9907 1718.24 0.844246 1614.65 32.3785L1585.18 41.3489C1504.71 65.8447 1418.63 64.7669 1338.8 38.2641C1257.05 11.125 1168.8 10.6622 1086.77 36.9426L1074.44 40.8919C997.286 65.6122 914.148 64.3267 837.792 37.2325C763.232 10.7757 682.155 8.91151 606.458 31.9135L571.083 42.6626C493.3 66.2983 410.083 65.0985 333.014 39.23C225.656 3.19497 107.947 15.4823 10.3456 72.9125L0 79V946.483L2.26984 947.202C80.4695 971.973 164.45 971.721 242.5 946.483L263.552 939.987C324.433 921.199 387.786 911.646 451.5 911.646L541.5 921.614L622 941.205L712 959.089L823 978.429L853.798 981.844C920.736 989.267 988.486 981.489 1052 959.089L1090.15 945.461C1122.97 933.739 1156.86 925.28 1191.34 920.206C1229.99 914.517 1269.16 913.116 1308.12 916.029L1310.6 916.214C1339.16 918.349 1367.5 922.7 1395.39 929.227L1490.5 951.491L1603 984.332C1661.91 994.04 1722.03 993.692 1780.82 983.302L1792 981.326L1920 946.483Z" fill="#FF9900"/>
<path d="M1944.5 425.5L1906.18 462.345C1862.75 504.104 1812.13 537.671 1756.76 561.425L1728.71 573.46C1697.65 586.786 1665.32 596.928 1632.21 603.73L1572.5 616L1476.12 626.774C1430.3 631.896 1385.5 643.844 1343.21 662.221V662.221C1314.48 674.708 1287.09 690.084 1261.46 708.111L1200.5 751L1120.23 800.338C1073.85 828.839 1022.37 848.018 968.651 856.8V856.8C935.34 862.247 901.491 863.642 867.844 860.956L799.5 855.5L737.264 842.708C694.604 833.94 653.273 819.636 614.319 800.16L549 767.5L489.78 727.417C453.09 702.582 419.862 672.981 390.971 639.391L351.5 593.5L312.914 543.922C283.966 506.729 263.219 463.829 252.036 418.044L250.319 411.015C245.125 389.748 242.5 367.936 242.5 346.044V318.905C242.5 286.588 251.395 254.832 268.153 227.2V227.2C282.177 204.075 301.364 184.442 324.173 169.91L325.212 169.248C342.592 158.176 361.845 150.365 382.027 146.199L396.073 143.299C436.861 134.88 479.276 145.169 511.672 171.342V171.342C535.858 190.883 552.805 217.96 559.808 248.256L564.282 267.61C569.389 289.704 570.639 312.514 567.976 335.034L567.338 340.429C562.535 381.06 546.886 419.65 522.032 452.15L513.006 463.954C501.035 479.608 487.457 493.966 472.494 506.791L455.905 521.01C410.03 560.331 357.282 590.832 300.318 610.975L289.062 614.955C266.384 622.975 243.156 629.347 219.56 634.023L194.626 638.963C162.619 645.306 130.068 648.5 97.4378 648.5H84.5655C58.2297 648.5 31.935 646.419 5.9269 642.277L-90 627" stroke="#FFB240" stroke-width="70"/>
</g>
<defs>
<clipPath id="clip0_2064_13">
<rect width="1920" height="1000" fill="white"/>
</clipPath>
</defs>
</svg>
