<svg width="1920" height="1000" viewBox="0 0 1920 1000" fill="none" xmlns="http://www.w3.org/2000/svg">
<path d="M586.667 69.0614L517.401 45.3543C481.216 32.9694 444.189 23.1952 406.605 16.1072L382.859 11.6289C345.368 4.55839 307.299 1 269.147 1H249.9C209.741 1 169.751 6.1971 130.925 16.4618C105.023 23.3098 79.7612 32.3812 55.42 43.5751L0 69.0614V945.888L2.26113 946.619C80.3882 971.883 164.528 971.627 242.5 945.888L263.72 939.203C324.476 920.063 387.801 910.325 451.5 910.325L541.5 920.5L622 940.5L712 958.756L823 978.5L853.587 981.963C920.629 989.552 988.519 981.612 1052 958.756L1090.31 944.787C1123.02 932.86 1156.84 924.246 1191.27 919.073C1229.97 913.259 1269.19 911.828 1308.21 914.805L1310.62 914.989C1339.16 917.168 1367.49 921.604 1395.32 928.257L1490.5 951L1603 984.526C1661.89 994.434 1722.05 994.079 1780.82 983.476L1792 981.458L1920 945.888V69.0614L1877.39 55.2858C1832.55 40.7903 1786.52 30.2848 1739.83 23.8919L1689.5 17L1658.67 12.6864C1598.42 4.2563 1537.4 2.72639 1476.81 8.12629L1453.5 10.2033L1375.93 19.0873C1331.39 24.1887 1287.35 33.0253 1244.29 45.5038L1163 69.0614L1074.38 99.0349C1031.91 113.4 988.045 123.241 943.508 128.393C889.393 134.653 834.698 133.945 780.764 126.286L778.312 125.937C724.526 118.299 671.897 104.011 621.633 83.3996L586.667 69.0614Z" fill="#FF9900"/>
<path d="M1944 425.5L1905.68 462.345C1862.25 504.104 1811.63 537.671 1756.26 561.425L1728.21 573.46C1697.15 586.786 1664.82 596.928 1631.71 603.73L1572 616L1475.62 626.774C1429.8 631.896 1385 643.844 1342.71 662.221V662.221C1313.98 674.708 1286.59 690.084 1260.96 708.111L1200 751L1119.73 800.338C1073.35 828.839 1021.87 848.018 968.151 856.8V856.8C934.84 862.247 900.991 863.642 867.344 860.956L799 855.5L736.764 842.708C694.104 833.94 652.773 819.636 613.819 800.16L548.5 767.5L489.28 727.417C452.59 702.582 419.362 672.981 390.471 639.391L351 593.5L312.414 543.922C283.466 506.729 262.719 463.829 251.536 418.044L249.819 411.015C244.625 389.748 242 367.936 242 346.044V318.905C242 286.588 250.895 254.832 267.653 227.2V227.2C281.677 204.075 300.864 184.442 323.673 169.91L324.712 169.248C342.092 158.176 361.345 150.365 381.527 146.199L395.573 143.299C436.361 134.88 478.776 145.169 511.172 171.342V171.342C535.358 190.883 552.305 217.96 559.308 248.256L563.782 267.61C568.889 289.704 570.139 312.514 567.476 335.034L566.838 340.429C562.035 381.06 546.386 419.65 521.532 452.15L512.506 463.954C500.535 479.608 486.957 493.966 471.994 506.791L455.405 521.01C409.53 560.331 356.782 590.832 299.818 610.975L288.562 614.955C265.884 622.975 242.656 629.347 219.06 634.023L194.126 638.963C162.119 645.306 129.568 648.5 96.9378 648.5H84.0655C57.7297 648.5 31.435 646.419 5.4269 642.277L-90.5 627" stroke="#FFB240" stroke-width="70"/>
</svg>
