<svg width="125" height="125" viewBox="0 0 125 125" fill="none" xmlns="http://www.w3.org/2000/svg">
<path d="M87.457 7.02931L81.8484 37.5368L110.003 24.667L91.3674 48.9335L123.151 49.7639L95.1792 62.9831L124.296 77.3492L92.5288 76.9029L113.212 101.959L83.9412 87.9359L92.0948 118.72L71.1172 93.8968L65.126 124.311L56.5968 93.6051L37.6474 117.626L43.2559 87.1185L15.1015 99.9882L33.7369 75.7218L1.95374 74.8914L29.9251 61.6722L0.808282 47.3061L32.5755 47.7524L11.892 22.696L41.1632 36.7194L33.0095 5.9355L53.9871 30.7585L59.9783 0.344108L68.5075 31.0502L87.457 7.02931Z" fill="#FFB240"/>
</svg>
