<svg width="34" height="33" viewBox="0 0 34 33" fill="none" xmlns="http://www.w3.org/2000/svg">
<path d="M13.5281 29.4488L17.7617 32.8722L19.3785 31.198L22.8342 27.6619L25.2532 24.9716L27.3013 22.5641L29.5619 19.7006L31.4327 16.5831L32.3131 14.6724C32.6218 14.0024 32.8628 13.3021 33.0324 12.5824C33.259 11.6208 33.3563 10.6323 33.3215 9.64425L33.3146 9.44713C33.2747 8.31154 33.0582 7.18988 32.6732 6.12417L32.6131 5.95782C32.2554 4.96762 31.7409 4.04432 31.0901 3.22474L30.7646 2.81483C30.2596 2.17891 29.6455 1.64213 28.9524 1.23062C28.0561 0.698526 27.0497 0.389021 26.0143 0.327038L25.9242 0.321647C25.2067 0.278696 24.487 0.351688 23.7915 0.53793C22.9398 0.76598 22.1392 1.15992 21.4336 1.69809L21.1095 1.94527C20.5561 2.36736 20.0526 2.85371 19.609 3.39449L18.3045 4.98509L16.7034 7.10674L14.5856 4.51249C13.8291 3.5857 12.9022 2.81908 11.8572 2.25576L11.3899 2.00382C10.2913 1.41161 9.05924 1.12471 7.81713 1.17186C6.37682 1.22653 4.98641 1.72786 3.83096 2.60912L3.64212 2.75315C2.97697 3.26046 2.39456 3.87226 1.91675 4.56555C1.06241 5.80515 0.568942 7.2663 0.493761 8.77941L0.447957 9.70125C0.377438 11.1205 0.571764 12.5402 1.02059 13.8847L1.12438 14.1956C1.56427 15.5133 2.20992 16.7495 3.03637 17.8563L4.58625 19.9319L8.55329 24.4407L13.5281 29.4488Z" fill="#FFB240"/>
</svg>
