<svg width="581" height="468" viewBox="0 0 581 468" fill="none" xmlns="http://www.w3.org/2000/svg">
<path d="M580.791 27.5513V438.617L550.266 449.499C513.899 462.465 475.323 468.1 436.767 466.079C421.016 465.253 405.358 463.155 389.946 459.804L329.998 446.771C301.269 440.525 271.432 439.305 242.278 443.101C226.279 445.184 210.382 448.816 195.075 453.912L190.294 455.503C126.183 476.844 56.0533 470.25 -2.95605 437.332V27.5513L7.01212 23.7043C68.7024 -0.10376 136.507 -2.98083 199.992 15.5158C245.79 31.7803 295.385 34.0877 342.496 22.146L387.765 10.6709L402.66 7.38831C462.63 -5.82791 525.292 1.26495 580.791 27.5513Z" fill="#FF9900"/>
</svg>
