<svg width="1920" height="858" viewBox="0 0 1920 858" fill="none" xmlns="http://www.w3.org/2000/svg">
<g clip-path="url(#clip0_2235_1397)">
<path d="M78.3584 41.2521L0 69.9489V834C65.611 803.124 140.405 797.935 209.652 819.453L218.5 822.203C306.471 849.541 400.265 852.165 489.627 829.789L516.064 823.169C613.46 798.78 715.422 799.24 812.595 824.505L816.326 825.475C913.623 850.772 1015.64 851.82 1113.43 828.529L1167.38 815.68C1248.88 796.269 1334.45 799.779 1414.13 825.648C1508.54 856.294 1610.73 855.274 1704.43 822.535C1771.67 799.042 1845.29 801.693 1910.67 829.964L1920 834V69.9489L1850.87 43.7402C1776.19 15.4262 1694.09 13.3782 1618.09 37.9334C1553.42 58.8286 1484.08 60.5351 1418.45 42.8463L1409.43 40.4153C1311.03 13.8905 1206.6 12.5434 1107.43 36.057C1014.03 58.2056 915.842 58.6037 822.351 36.805L784.855 28.0624C705.834 9.63766 623.493 10.948 545.099 31.8778L501.83 43.4297C437.024 60.7318 368.575 58.7288 304.891 37.6668C231.137 13.2745 151.303 14.5381 78.3584 41.2521Z" fill="#FF9900"/>
<path d="M-83 728L-50.0114 600.496C-30.1565 523.756 2.95371 451.074 47.8258 385.73V385.73C63.2396 363.284 80.7734 342.37 100.186 323.276L135.689 288.355C154.201 270.146 174.105 253.407 195.218 238.289L218.65 221.511C254.723 195.681 294.073 174.768 335.665 159.322L352.133 153.205C385.615 140.771 420.332 131.96 455.691 126.923L475.757 124.064C545.466 114.133 616.486 119.038 684.169 138.457L732.599 152.353C802.041 172.277 866.341 207.013 921.072 254.169L946 275.647L968.964 300.101C983.553 315.636 995.453 333.491 1004.18 352.935V352.935C1015.27 377.652 1021 404.435 1021 431.526V448.084C1021 462.723 1019.38 477.317 1016.18 491.601V491.601C1011.1 514.245 1002.09 535.825 989.57 555.363L988.585 556.901C981.875 567.369 974.245 577.218 965.786 586.331L963.5 588.793L960.988 590.953C951.052 599.495 939.893 606.501 927.883 611.738L926.109 612.512C916.414 616.739 906.192 619.633 895.72 621.115L894.84 621.24C884.992 622.633 875 622.691 865.137 621.411V621.411C828.778 616.693 797.127 594.25 780.646 561.501L770.388 541.118C759.612 519.708 754 496.072 754 472.103V461.865C754 451.775 754.777 441.699 756.323 431.728L756.684 429.403C759.55 410.921 764.688 392.864 771.982 375.641L773.378 372.344C779.112 358.802 786.227 345.728 794.462 333.543V333.543C806.349 315.952 820.783 299.958 837.103 286.378V286.378C845.689 279.234 854.795 272.738 864.345 266.946L923.653 230.975C949.726 215.162 978.099 203.5 1007.76 196.406V196.406C1045.87 187.29 1085.42 185.882 1124.08 192.266L1157.22 197.736C1194.86 203.952 1231.39 215.706 1265.59 232.617V232.617C1303.6 251.411 1338.27 276.33 1368.19 306.377L1432.2 370.652C1452.66 391.193 1475.49 409.224 1500.22 424.363L1505.06 427.326C1573.89 469.469 1655.19 486.462 1735.13 475.412V475.412C1760.63 471.888 1785.66 465.554 1809.77 456.526L1956.5 401.574" stroke="#FFB240" stroke-width="70"/>
<circle cx="388.218" cy="350.93" r="33.5" transform="rotate(18.0155 388.218 350.93)" fill="#FFB240"/>
<circle cx="425.107" cy="248.641" r="16" transform="rotate(18.0155 425.107 248.641)" fill="#FFB240"/>
<circle cx="488.879" cy="321.1" r="26" transform="rotate(18.0155 488.879 321.1)" fill="#FFB240"/>
<path d="M1597.65 560.183L1584.39 629.604L1650.96 600.318L1606.9 655.537L1682.04 657.427L1615.91 687.508L1684.75 720.198L1609.64 719.183L1658.55 776.2L1589.34 744.289L1608.62 814.339L1559.02 757.853L1544.85 827.062L1524.69 757.19L1479.88 811.85L1493.14 742.429L1426.57 771.715L1470.64 716.495L1395.49 714.606L1461.62 684.525L1392.78 651.834L1467.89 652.85L1418.99 595.833L1488.19 627.744L1468.92 557.694L1518.52 614.179L1532.68 544.97L1552.85 614.843L1597.65 560.183Z" fill="#FFB240"/>
</g>
<defs>
<clipPath id="clip0_2235_1397">
<rect width="1920" height="858" fill="white"/>
</clipPath>
</defs>
</svg>
