<svg width="1920" height="1215" viewBox="0 0 1920 1215" fill="none" xmlns="http://www.w3.org/2000/svg">
<path d="M1671 1189L1680.76 1179.77C1716.76 1145.73 1744.32 1103.76 1761.27 1057.2V1057.2C1770.39 1032.17 1776.33 1006.09 1778.96 979.572L1782.1 947.863C1787.96 888.697 1780.57 828.969 1760.47 773.015V773.015C1743.96 727.059 1719.19 684.511 1687.37 647.47L1656.25 611.242C1578.54 520.777 1477.75 453.083 1364.61 415.37L1345.64 409.047C1271.03 384.178 1192.91 371.5 1114.27 371.5H1023.98C960.958 371.5 898.572 384.063 840.465 408.456L834.619 410.91C773.315 436.644 718.539 475.756 674.296 525.385V525.385C642.636 560.9 616.861 601.25 597.948 644.908L582.385 680.833C571.83 705.197 564.106 730.692 559.364 756.818L554.609 783.016C545.727 831.954 551.225 882.417 570.437 928.294L573.829 936.394C590.277 975.669 617.455 1009.52 652.25 1034.06V1034.06C690.478 1061.02 736.113 1075.5 782.894 1075.5H793.281C817.526 1075.5 841.537 1070.76 863.96 1061.54V1061.54C905.569 1044.43 939.56 1012.81 959.628 972.545L964.786 962.195C991.409 908.78 994.818 846.749 974.212 790.737L958.241 747.329C929.756 669.902 863.657 612.417 783.028 594.948V594.948C769.368 591.988 755.478 590.222 741.512 589.669L472 579L347.13 558.367C276.247 546.655 209.592 516.828 153.626 471.778L141.023 461.633C99.2403 428 65.7982 385.163 43.3086 336.468V336.468C27.8674 303.035 17.8314 267.362 13.5752 230.782L12.3872 220.571C5.22138 158.984 12.0374 96.5734 32.3278 37.9847L41.5 11.5" stroke="#FFF7EB" stroke-width="70"/>
<path d="M1651.07 101.557L1636.61 177.264L1709.21 145.327L1661.16 205.546L1743.11 207.607L1670.99 240.412L1746.06 276.063L1664.15 274.955L1717.48 337.135L1642.01 302.334L1663.03 378.728L1608.94 317.127L1593.49 392.603L1571.5 316.403L1522.64 376.013L1537.1 300.306L1464.51 332.243L1512.56 272.024L1430.61 269.963L1502.73 237.159L1427.65 201.508L1509.56 202.615L1456.23 140.436L1531.71 175.236L1510.68 98.8429L1564.77 160.443L1580.22 84.9674L1602.21 161.167L1651.07 101.557Z" fill="#FF9900" fill-opacity="0.06"/>
<path d="M297.35 852.062L286.11 910.904L342.533 886.081L305.187 932.885L368.882 934.487L312.826 959.984L371.178 987.692L307.514 986.832L348.965 1035.16L290.304 1008.11L306.645 1067.49L264.604 1019.61L252.597 1078.27L235.504 1019.05L197.529 1065.38L208.769 1006.54L152.345 1031.36L189.692 984.554L125.997 982.952L182.053 957.455L123.701 929.746L187.364 930.607L145.913 882.279L204.575 909.327L188.234 849.952L230.275 897.83L242.281 839.168L259.374 898.392L297.35 852.062Z" fill="#FF9900" fill-opacity="0.06"/>
</svg>
