<svg width="1920" height="1013" viewBox="0 0 1920 1013" fill="none" xmlns="http://www.w3.org/2000/svg">
<g clip-path="url(#clip0_2055_24)">
<path d="M1528.22 58.5488L1516.05 122.274L1577.16 95.3912L1536.71 146.08L1605.69 147.815L1544.98 175.427L1608.18 205.436L1539.23 204.504L1584.12 256.842L1520.59 227.55L1538.29 291.852L1492.76 240.001L1479.76 303.532L1461.24 239.392L1420.12 289.568L1432.29 225.842L1371.18 252.725L1411.63 202.036L1342.65 200.302L1403.36 172.689L1340.16 142.681L1409.11 143.613L1364.22 91.2741L1427.75 120.567L1410.05 56.264L1455.58 108.115L1468.58 44.5844L1487.09 108.725L1528.22 58.5488Z" fill="#FF9900" fill-opacity="0.06"/>
<path d="M297.529 772.062L286.289 830.904L342.712 806.081L305.365 852.885L369.061 854.487L313.004 879.984L371.356 907.692L307.693 906.832L349.144 955.159L290.483 928.112L306.823 987.487L264.783 939.609L252.776 998.271L235.683 939.046L197.707 985.377L208.947 926.535L152.524 951.358L189.871 904.554L126.175 902.952L182.232 877.455L123.88 849.746L187.543 850.607L146.092 802.279L204.753 829.327L188.413 769.952L230.453 817.83L242.46 759.168L259.553 818.392L297.529 772.062Z" fill="#FF9900" fill-opacity="0.06"/>
<path d="M-46 351L-3.84994 409.016C27.0646 451.566 66.2565 487.434 111.374 514.465V514.465C142.966 533.393 177.076 547.757 212.692 557.129L228.838 561.378C289.019 577.216 352.175 577.992 412.728 563.639L416.42 562.763C442.386 556.608 467.554 547.473 491.423 535.539L516.197 523.152C553.11 504.695 584.654 477.049 607.791 442.874L612.717 435.6C642.836 391.113 655.433 337.056 648.083 283.838L644.425 257.358C638.121 211.716 612.327 171.052 573.724 145.897V145.897C562.618 138.661 550.651 132.841 538.102 128.575L534.734 127.429C516.424 121.204 497.067 118.646 477.769 119.901V119.901C456.51 121.284 435.803 127.263 417.079 137.425L406.778 143.016C356.938 170.066 320.871 216.944 307.5 272.053L304.066 286.209C295.795 320.298 295.312 355.812 302.653 390.114L308.248 416.256C316.36 454.156 330.7 490.449 350.686 523.658L358.612 536.828C398.506 603.117 455.079 657.791 522.691 695.4L533.535 701.432C615.243 746.882 709.619 764.235 802.151 750.821V750.821C842.508 744.971 881.819 733.365 918.883 716.357L1011.62 673.802C1094.39 635.821 1182.45 610.622 1272.79 599.068L1308.5 594.5V594.5C1364.6 594.5 1420.14 605.69 1471.87 627.415L1543.5 657.5L1570.32 671.491C1597.94 685.903 1621.22 707.418 1637.76 733.821L1641.84 740.333C1656.65 763.966 1664.5 791.291 1664.5 819.179V825.899C1664.5 881.176 1631.59 931.145 1580.8 952.97V952.97C1556.45 963.436 1529.6 966.683 1503.45 962.326L1498.24 961.457C1435.02 950.92 1384.64 902.85 1371.14 840.19L1360.54 790.941C1353.59 758.69 1353.65 725.323 1360.72 693.097L1372.71 638.368C1386.31 576.291 1416.66 518.945 1460.26 472.715V472.715C1498.14 432.555 1545.11 401.832 1597.11 383.289L1601.44 381.745C1636.22 369.34 1672.88 363 1709.8 363V363C1742.41 363 1774.83 367.944 1805.96 377.662L1807.29 378.078C1853.54 392.517 1896.06 416.91 1931.87 449.541L1962 477" stroke="#FFF7EB" stroke-width="70"/>
</g>
<defs>
<clipPath id="clip0_2055_24">
<rect width="1920" height="1013" fill="white"/>
</clipPath>
</defs>
</svg>
