<svg width="135" height="141" viewBox="0 0 135 141" fill="none" xmlns="http://www.w3.org/2000/svg">
<path d="M102.073 7.64962L95.4925 42.0975L128.524 27.5655L106.661 54.9662L143.95 55.9039L111.133 70.8305L145.294 87.0521L108.023 86.5482L132.29 114.841L97.9479 99.0062L107.514 133.766L82.9023 105.737L75.8731 140.08L65.8663 105.408L43.6341 132.531L50.2143 98.0833L17.1823 112.615L39.0462 85.2145L1.7569 84.2768L34.5741 69.3502L0.412998 53.1286L37.6836 53.6326L13.4168 25.3399L47.759 41.1745L38.1928 6.41452L62.8046 34.4437L69.8337 0.100942L79.8405 34.773L102.073 7.64962Z" fill="#FF9900" fill-opacity="0.06"/>
</svg>
