<svg width="1920" height="2375" viewBox="0 0 1920 2375" fill="none" xmlns="http://www.w3.org/2000/svg">
<path d="M-40 322.5L-16.6194 400.601C-0.978662 452.848 23.1107 502.181 54.6928 546.644V546.644C106.922 620.175 178.637 678.441 261.178 714.798V714.798C316.041 738.964 366.511 772.899 409.494 814.689L431.3 835.889C457.303 861.169 479.598 890 497.525 921.526L514.867 952.025C523.896 967.904 530.295 985.139 533.816 1003.06L537.087 1019.72C545.51 1062.6 532.824 1106.91 502.987 1138.84L496.568 1145.71C464.221 1180.33 414.691 1192.96 369.718 1178.06V1178.06C320.04 1161.61 286.5 1115.17 286.5 1062.84V1042.34C286.5 1021.99 290.647 1001.86 298.688 983.166L301.987 975.499C316.985 940.631 342.069 911.046 374.014 890.546L396.807 875.919C433.107 852.624 474.317 838.07 517.195 833.402L535.358 831.425C562.364 828.485 589.618 828.641 616.589 831.892L641.831 834.935C672.561 838.639 702.943 844.805 732.686 853.373L759.975 861.235C831.968 881.976 906.518 892.5 981.439 892.5H986.946C1093.25 892.5 1198.49 871.314 1296.51 830.18L1417 779.616C1461.05 761.133 1500.11 732.52 1531.02 696.103L1549.49 674.337C1572.73 646.953 1588.16 613.809 1594.15 578.394L1596.22 566.186C1606.9 503.004 1582.89 438.944 1533.3 398.356L1525.63 392.079C1498.71 370.041 1464.99 358 1430.2 358V358C1377.87 358 1329.3 385.145 1301.87 429.707L1289.5 449.812C1264.1 491.085 1255.17 540.405 1264.47 587.966L1272.21 627.532C1278.36 658.969 1289.57 689.2 1305.41 717.046L1309.43 724.117C1319.79 742.335 1331.78 759.573 1345.26 775.62L1398.5 839L1430.11 871.631C1450.3 892.475 1472.82 910.93 1497.23 926.633V926.633C1553.09 962.579 1617.43 983.206 1683.78 986.446L1687.55 986.63C1772.24 990.765 1853.32 1022.18 1918.69 1076.18L1933 1088L2051 1180.5M1979 1624L1932.91 1667.99C1870.75 1727.32 1789.21 1762.13 1703.37 1766.01L1683.15 1766.92C1652.65 1768.29 1622.15 1764.01 1593.21 1754.29L1558.48 1742.61C1494.08 1720.97 1446.65 1665.86 1434.83 1598.95L1431.07 1577.72C1426.8 1553.51 1430.18 1528.57 1440.74 1506.37V1506.37C1455.51 1475.34 1483.05 1452.27 1516.2 1443.18L1520.46 1442.02C1559.49 1431.31 1601.28 1439.72 1633.13 1464.69L1652 1479.48C1683.38 1504.08 1705.37 1538.7 1714.29 1577.57V1577.57C1723.47 1617.57 1718.96 1659.88 1701.43 1696.99C1691.2 1718.66 1681.33 1737.31 1672.5 1744V1744C1600.82 1798.3 1532.11 1851.5 1442.18 1851.5H1369.61C1332.66 1851.5 1295.76 1847.26 1259.76 1838.9V1838.9C1139.92 1811.05 1034.94 1738.58 966.557 1636.3L953.368 1616.58C919.923 1566.56 875.207 1525.08 822.816 1495.49V1495.49C715.516 1434.88 585.669 1429.36 473.614 1480.65L435.322 1498.18C380.128 1523.44 334.1 1565.16 303.547 1617.61V1617.61C277.637 1662.09 240.128 1699.21 195.489 1724.85V1724.85C118.048 1769.34 24.0882 1777.24 -59.4707 1745.71L-94.5 1732.5" stroke="#FFF7EB" stroke-width="70"/>
<path d="M364.5 227L373.622 296.116L429 307.5L373.622 318.884L364.5 388L355.378 318.884L300 307.5L355.378 296.116L364.5 227Z" fill="#FFF7EB"/>
<path d="M428.5 317L433.506 350.212L458 357L433.506 363.788L428.5 397L423.494 363.788L399 357L423.494 350.212L428.5 317Z" fill="#FFF7EB"/>
<path d="M1664.5 709L1673.62 778.116L1729 789.5L1673.62 800.884L1664.5 870L1655.38 800.884L1600 789.5L1655.38 778.116L1664.5 709Z" fill="#FFF7EB"/>
<path d="M1728.5 799L1733.51 832.212L1758 839L1733.51 845.788L1728.5 879L1723.49 845.788L1699 839L1723.49 832.212L1728.5 799Z" fill="#FFF7EB"/>
<path d="M494.357 1907.33L489.157 1975.51L549.966 1940.12L513.612 1997.99L586.058 1991.64L525.752 2027.75L595.486 2051.69L523.171 2058.88L576.382 2108.37L506.382 2085.22L532.53 2150.47L478.708 2101.56L472.615 2169.63L445.632 2104.65L408.504 2162.07L413.705 2093.89L352.896 2129.28L389.249 2071.41L316.803 2077.76L377.11 2041.65L307.375 2017.71L379.69 2010.52L326.479 1961.03L396.48 1984.18L370.331 1918.93L424.153 1967.84L430.246 1899.77L457.229 1964.75L494.357 1907.33Z" fill="#FFF7EB"/>
<path d="M291.05 1248L299.045 1308.58L347.582 1318.56L299.045 1328.53L291.05 1389.11L283.055 1328.53L234.518 1318.56L283.055 1308.58L291.05 1248Z" fill="#FFF7EB"/>
<path d="M347.145 1326.88L351.533 1355.99L373.001 1361.94L351.533 1367.89L347.145 1397L342.757 1367.89L321.289 1361.94L342.757 1355.99L347.145 1326.88Z" fill="#FFF7EB"/>
</svg>
