<svg width="1920" height="823" viewBox="0 0 1920 823" fill="none" xmlns="http://www.w3.org/2000/svg">
<g clip-path="url(#clip0_2114_1355)">
<path d="M0 -178H1920V751.49L1836.18 780.725C1710.64 824.513 1574.67 828.619 1446.72 792.488V792.488C1351.21 765.517 1250.78 760.848 1153.18 778.842L1084.39 791.523C1004.1 806.325 922.016 808.75 840.99 798.712L708.55 782.304C629.078 772.458 548.448 778.232 471.19 799.302V799.302C354.726 831.063 231.49 827.838 116.847 790.027L0 751.49V-178Z" fill="#01AED8"/>
<mask id="mask0_2114_1355" style="mask-type:alpha" maskUnits="userSpaceOnUse" x="389" y="518" width="163" height="166">
<path d="M405.856 542.737C406.839 541.995 407.867 541.46 409.271 540.949C412.046 539.941 415.201 540.097 417.903 541.36C419.154 541.939 419.547 542.23 423.834 545.68C427.434 548.588 428.586 549.44 429.198 549.707C429.638 549.891 430.08 549.993 430.168 549.942C430.279 549.889 430.43 549.113 430.499 548.226C430.591 547.337 430.665 546.601 430.685 546.577C430.706 546.552 430.788 546.118 430.866 545.637C431.209 543.49 432.414 541.654 434.355 540.381C437.028 538.635 439.835 538.474 443.342 539.853C444.609 540.362 446.412 541.955 447.235 543.326C448.523 545.448 448.728 546.506 449.866 557.202C450.625 564.341 451.032 567.397 451.277 567.941C451.623 568.676 451.715 568.776 455.756 572.1C461.038 576.457 461.855 576.898 463.261 576.074C464.194 575.52 465.136 573.188 465.302 571.017C465.332 570.748 465.502 569.716 465.713 568.739C466.216 566.223 466.405 563.946 466.164 563.216C466.058 562.874 465.422 561.829 464.762 560.891C462.647 557.898 461.381 556.088 460.578 554.902C460.148 554.264 459.184 552.878 458.432 551.841C453.336 544.742 452.795 543.715 452.627 540.82C452.425 537.6 453.899 534.564 456.46 532.976C458.495 531.697 460.751 531.3 463.173 531.8C464.784 532.138 465.652 532.622 468.085 534.54C469.422 535.59 470.392 536.267 470.554 536.257C470.833 536.241 470.833 536.241 471.731 530.972C472.767 524.915 473.193 523.659 474.857 521.751C476.767 519.526 478.795 518.619 482.23 518.445C484.585 518.322 486.227 518.622 488.642 519.6C489.86 520.087 490.31 520.364 491.246 521.158C492.516 522.236 492.981 522.883 493.853 524.716C495.013 527.171 495.303 529.351 494.943 533.103C494.899 533.675 494.835 534.166 494.804 534.203C494.773 534.24 494.605 535.295 494.436 536.56C494.101 539.113 494.133 541.284 494.505 541.263C494.633 541.267 495.238 540.919 495.848 540.512C496.445 540.094 497.285 539.651 497.69 539.511C498.661 539.2 501.134 539.197 502.31 539.502C505.706 540.387 509.324 543.69 509.946 546.466C510.498 548.91 510.172 551.218 509.039 553.073C508.114 554.579 505.975 556.631 504.003 557.941C503.24 558.45 502.402 559.021 502.154 559.209C501.906 559.398 501.306 559.793 500.823 560.076C499.957 560.602 498.181 561.785 496.376 563.028C495.856 563.406 494.833 564.092 494.114 564.575C492.053 565.937 490.413 567.193 489.947 567.743C489.46 568.317 488.853 569.968 488.719 571.114C488.67 571.535 488.606 571.923 488.575 571.959C488.471 572.081 487.969 575.48 487.791 577.199C487.696 578.065 487.695 579.157 487.773 579.664C487.885 580.39 488.002 580.615 488.49 581.029C488.939 581.41 489.206 581.511 489.801 581.512C490.502 581.518 493.079 580.952 493.255 580.744C493.296 580.695 493.487 580.626 493.673 580.615C493.995 580.574 495.882 579.884 499.378 578.521C500.867 577.936 501.009 577.847 501.777 576.942C502.233 576.405 502.703 575.669 502.86 575.277C503.003 574.873 503.428 573.931 503.79 573.166C504.152 572.401 504.684 571.255 504.968 570.635C505.239 570.003 505.877 568.653 506.375 567.625C506.872 566.597 507.51 565.247 507.781 564.616C509.984 559.655 509.984 559.655 511.682 557.628C513.204 555.809 513.32 555.698 514.286 555.236C515.652 554.588 517.963 554.257 519.409 554.477C522.151 554.912 524.737 556.623 526.299 559.02C528.096 561.765 528.453 564.359 527.543 567.979C527.38 568.639 527.313 569.213 527.402 569.289C527.492 569.365 527.928 569.293 528.39 569.139C530.607 568.373 535.971 566.914 537.361 566.707C541.012 566.148 544.586 567.059 547.112 569.203C549.652 571.359 551.021 574.139 551.327 577.678C551.751 582.871 548.19 587.457 542.074 589.517C541.353 589.767 540.318 590.129 539.802 590.321C539.273 590.503 538.217 590.889 537.466 591.176C536.702 591.452 535.814 591.875 535.477 592.115C534.665 592.708 534.713 592.938 535.74 593.599C536.891 594.323 538.391 595.597 539.129 596.496C540.133 597.705 540.679 599.115 540.857 601.011C541.108 603.472 540.632 605.358 539.303 607.236C536.804 610.727 533.367 611.761 529.059 610.311C527.582 609.815 527.189 609.628 524.226 608.206C523.326 607.758 521.777 607.01 520.782 606.544C517.793 605.101 515.614 604.029 514.329 603.359C512.376 602.332 510.181 601.33 509.132 601.007C508.021 600.653 507.322 600.774 504.627 601.766C503.775 602.093 502.423 602.543 501.62 602.787C497.486 604.07 496.011 605.235 496.523 606.868C496.937 608.122 504.924 614.986 507.027 615.888C507.344 616.009 509.209 615.995 512.049 615.82C517.219 615.5 526.777 615.079 527.717 615.142C528.868 615.215 529.569 615.326 530.755 615.618C531.846 615.892 532.02 615.999 533.473 617.147C534.835 618.219 535.112 618.517 535.7 619.437C537.376 622.037 537.679 625.761 536.43 628.274C535.248 630.654 533.031 632.409 530.384 633.083C529.303 633.343 527.565 634.117 527.53 634.34C527.52 634.457 528.389 635.278 529.838 636.508C533.586 639.71 535.567 641.665 536.515 643.121C537.66 644.892 538.304 646.447 538.518 647.911C539.143 652.14 537.626 655.981 534.331 658.564C531.604 660.685 527.057 661.259 523.717 659.917C521.85 659.153 520.972 658.575 517.18 655.504C513.426 652.466 512.227 651.721 511.823 652.197C511.709 652.332 511.612 653.174 511.61 654.034C511.608 654.894 511.467 656.204 511.299 656.923C511.006 658.229 510.985 658.254 509.738 659.697C508.287 661.407 507.597 661.83 505.362 662.435C502.109 663.331 499.163 662.617 496.92 660.398C495.697 659.213 494.354 657.233 494.058 656.204C493.845 655.519 493 650.198 492.767 648.236C491.762 639.438 491.086 634.514 490.794 633.741L490.438 632.808L486.324 629.337C482.296 625.919 482.196 625.855 481.139 625.462C479.74 624.927 479.147 625.054 478.349 625.994C477.864 626.592 477.694 626.973 477.388 628.374C477.183 629.292 476.958 630.467 476.87 630.96C476.785 631.477 476.623 632.474 476.524 633.188C476.401 633.904 476.237 634.878 476.136 635.361C476.059 635.842 476.036 636.831 476.102 637.559C476.241 638.981 476.43 639.33 478.615 642.319C479.119 642.999 479.889 644.094 480.329 644.72C481.196 645.96 482.278 647.467 484.155 650.09C486.468 653.293 488.142 655.974 489.041 657.956C489.942 659.962 489.949 663.099 489.036 664.93C487.487 668.029 483.986 669.996 480.416 669.783C478.113 669.636 476.787 669.015 474.214 666.873C472.459 665.405 472.038 665.173 471.686 665.484C471.334 665.795 471.154 666.63 470.189 672.578C469.584 676.331 468.962 678.052 467.64 679.662C466.046 681.567 464.09 682.597 461.078 683.13C456.792 683.864 453.133 682.482 450.278 679.009C449.405 677.931 448.313 675.995 448.045 675.011C447.246 672.105 447.229 671.397 447.856 666.213C448.399 661.777 448.43 660.206 447.973 659.965C447.824 659.881 447.328 660.049 446.747 660.396C444.248 661.806 440.508 662.079 438.2 661.003C436.802 660.362 434.738 658.4 433.98 656.98C433.156 655.481 432.648 654 432.503 652.741C432.357 651.483 432.845 649.27 433.537 647.987C434.11 646.896 435.708 645.247 437.433 643.916C438.157 643.375 439.265 642.486 439.906 641.938C440.548 641.39 441.56 640.588 442.144 640.159C442.742 639.741 443.463 639.177 443.774 638.915C444.071 638.642 445.023 637.937 445.882 637.341C448.943 635.19 449.639 634.604 450.811 633.223C451.866 631.954 451.954 631.798 452.202 630.726C452.357 630.101 452.548 629.044 452.639 628.365C452.731 627.686 452.875 626.736 452.973 626.231C453.533 623.386 453.463 620.636 452.805 619.825C452.4 619.314 452.097 619.204 451.149 619.177C449.992 619.162 446.011 620.343 442.089 621.87C440.174 622.619 439.954 622.748 439.353 623.456C438.99 623.884 438.462 624.739 438.191 625.371C436.325 629.546 435.937 630.393 435.557 631.101C435.323 631.532 434.836 632.548 434.489 633.347C431.749 639.617 430.437 642.098 429.168 643.438C426.463 646.312 422.618 647.021 419.087 645.306C416.687 644.131 414.363 641.696 413.69 639.654C413.242 638.285 413.228 635.857 413.665 633.601C414.144 631.086 414.147 631.005 413.43 631.174C413.134 631.237 412.602 631.396 412.277 631.519C411.939 631.631 411.002 631.929 410.187 632.162C409.384 632.405 408.052 632.831 407.232 633.122C402.568 634.691 399.031 634.569 395.98 632.757C393.738 631.421 391.759 628.943 390.538 625.91C389.94 624.457 389.612 621.593 389.879 620.16C390.473 616.965 392.936 614.011 396.327 612.433C397.04 612.114 397.708 611.82 397.835 611.801C397.951 611.794 398.815 611.477 399.758 611.121C400.687 610.754 401.678 610.418 401.939 610.345C403.097 610.046 404.97 609.113 405.472 608.573C406.009 608.019 406.009 608.019 405.603 607.717C402.182 605.171 402.259 605.236 401.446 603.958C400.066 601.736 399.782 599.393 400.539 596.084L400.861 594.613L402.208 593.025C403.533 591.438 403.554 591.413 404.705 590.94C406.035 590.388 409.064 590.121 410.451 590.436C411.946 590.781 414.803 591.86 416.776 592.862C417.838 593.406 419.302 594.124 420.04 594.476C421.664 595.266 424.401 596.643 427.132 598.079C431.012 600.111 432.669 600.655 434.074 600.377C434.44 600.309 435.578 599.93 436.621 599.533C437.654 599.148 438.787 598.723 439.138 598.622C439.489 598.52 440.666 598.069 441.751 597.623C443.405 596.947 443.824 596.714 444.291 596.164C444.905 595.466 444.969 594.975 444.588 594.02C444.399 593.566 443.779 592.998 440.232 589.924C435.848 586.12 434.875 585.42 433.65 585.2C433.292 585.127 428.922 585.285 423.979 585.546C413.271 586.126 412.537 586.133 410.653 585.648C409.658 585.392 408.255 584.6 407.152 583.664C404.661 581.529 403.358 577.943 403.865 574.591C404.333 571.31 405.996 569.506 409.658 568.284C412.182 567.442 413.122 567.063 413.193 566.85C413.245 566.684 412.532 566.016 409.898 563.738C406.071 560.448 405.435 559.845 404.315 558.306C403.376 557.047 402.713 555.644 402.24 553.939C401.658 551.869 401.82 549.001 402.644 546.989C403.059 545.954 403.319 545.544 404.358 544.346C405.035 543.575 405.703 542.839 405.856 542.737Z" fill="#8A8F92"/>
</mask>
<g mask="url(#mask0_2114_1355)">
<rect x="629.284" y="580.297" width="383.267" height="374.322" transform="rotate(130.322 629.284 580.297)" fill="#61C9E2"/>
</g>
<mask id="mask1_2114_1355" style="mask-type:alpha" maskUnits="userSpaceOnUse" x="1437" y="15" width="164" height="152">
<path d="M1496.65 165.542C1495.53 164.99 1494.58 164.327 1493.47 163.34C1491.29 161.39 1489.98 158.703 1489.87 155.993C1489.82 154.74 1489.9 154.307 1491.04 149.484C1492.01 145.43 1492.25 144.161 1492.21 143.554C1492.17 143.121 1492.06 142.715 1491.97 142.66C1491.87 142.586 1491.11 142.741 1490.27 143.004C1489.43 143.249 1488.73 143.454 1488.7 143.446C1488.67 143.437 1488.24 143.526 1487.77 143.635C1485.68 144.125 1483.47 143.784 1481.43 142.626C1478.62 141.028 1477.19 138.745 1476.82 135.322C1476.7 134.081 1477.3 132.001 1478.16 130.819C1479.49 128.978 1480.34 128.424 1489.47 123.606C1495.56 120.391 1498.12 118.947 1498.5 118.546C1499.01 117.991 1499.05 117.878 1500.19 113.306C1501.7 107.325 1501.72 106.484 1500.33 105.61C1499.4 105.032 1496.86 105.089 1494.83 105.736C1494.57 105.809 1493.56 106.04 1492.59 106.218C1490.09 106.708 1487.95 107.374 1487.4 107.839C1487.14 108.051 1486.49 108.96 1485.95 109.849C1484.22 112.696 1483.17 114.406 1482.47 115.505C1482.09 116.094 1481.29 117.399 1480.69 118.402C1476.64 125.219 1475.96 126.041 1473.42 127.228C1470.61 128.561 1467.2 128.43 1464.59 126.869C1462.5 125.635 1461.11 123.896 1460.44 121.696C1460.01 120.23 1460.05 119.33 1460.66 116.608C1460.99 115.113 1461.15 114.059 1461.07 113.927C1460.93 113.701 1460.93 113.701 1455.76 114.858C1449.83 116.184 1448.5 116.283 1446.01 115.586C1443.13 114.797 1441.38 113.434 1439.64 110.632C1438.45 108.712 1437.96 107.234 1437.74 104.867C1437.62 103.674 1437.66 103.2 1437.94 102.131C1438.33 100.683 1438.7 100.06 1439.95 98.6706C1441.64 96.8155 1443.47 95.7851 1447.02 94.7282C1447.55 94.5582 1448.02 94.434 1448.07 94.4467C1448.12 94.4594 1449.15 94.2175 1450.37 93.9009C1452.82 93.2572 1454.77 92.4447 1454.58 92.1429C1454.52 92.034 1453.93 91.6557 1453.28 91.2941C1452.63 90.947 1451.84 90.4071 1451.53 90.1196C1450.81 89.423 1449.67 87.3611 1449.4 86.2704C1448.64 83.1176 1449.95 78.9058 1452.17 77.3827C1454.12 76.0389 1456.35 75.4762 1458.55 75.7502C1460.33 75.977 1463.16 77.0185 1465.25 78.1897C1466.06 78.6418 1466.96 79.1339 1467.24 79.2728C1467.53 79.4117 1468.16 79.7692 1468.64 80.0697C1469.51 80.6015 1471.39 81.6549 1473.34 82.7107C1473.92 83.0073 1475.01 83.6129 1475.78 84.0377C1477.95 85.2636 1479.84 86.1769 1480.55 86.3672C1481.29 86.5659 1483.06 86.4747 1484.15 86.1724C1484.56 86.0606 1484.94 85.9738 1484.98 85.9864C1485.14 86.0287 1488.44 85.218 1490.07 84.7456C1490.89 84.5116 1491.88 84.1169 1492.3 83.8691C1492.9 83.5131 1493.05 83.3336 1493.2 82.7775C1493.34 82.2653 1493.31 82.0058 1493.03 81.5092C1492.72 80.9225 1491.02 78.9784 1490.75 78.9065C1490.69 78.8896 1490.54 78.7552 1490.45 78.6043C1490.26 78.3507 1488.77 77.0263 1485.93 74.604C1484.72 73.5734 1484.58 73.4872 1483.41 73.1743C1482.71 72.9882 1481.83 72.8622 1481.41 72.8736C1480.98 72.8996 1479.93 72.8861 1479.08 72.8607C1478.22 72.8353 1476.94 72.8065 1476.25 72.7941C1475.56 72.7963 1474.05 72.7523 1472.89 72.7093C1471.74 72.6662 1470.23 72.6222 1469.53 72.6244C1464.05 72.5816 1464.05 72.5816 1461.44 71.8985C1459.1 71.2872 1458.94 71.2303 1458.08 70.5919C1456.87 69.6868 1455.51 67.8795 1455.04 66.5937C1454.18 64.1497 1454.53 61.3745 1455.98 59.205C1457.62 56.7138 1459.8 55.4773 1463.48 54.927C1464.15 54.8243 1464.7 54.6732 1464.73 54.5707C1464.76 54.4683 1464.49 54.1307 1464.14 53.8013C1462.43 52.2295 1458.65 48.2835 1457.82 47.1996C1455.64 44.3565 1454.82 41.0466 1455.59 38.1638C1456.37 35.2664 1458.25 33.119 1461.3 31.5837C1465.78 29.3516 1471.56 30.663 1476.23 35.0194C1476.78 35.5293 1477.58 36.2618 1478 36.6228C1478.4 36.9984 1479.24 37.7393 1479.84 38.2619C1480.44 38.7992 1481.23 39.3872 1481.6 39.5807C1482.51 40.0436 1482.69 39.9207 1482.82 38.8248C1482.94 37.6033 1483.4 35.8912 1483.87 34.9511C1484.5 33.6767 1485.52 32.711 1487.15 31.8767C1489.25 30.7781 1491.17 30.4927 1493.48 30.9218C1497.77 31.7437 1500.29 34.2362 1500.96 38.3532C1501.19 39.7639 1501.2 40.1594 1501.28 43.145C1501.29 44.0572 1501.33 45.6201 1501.37 46.6181C1501.44 49.633 1501.47 51.8382 1501.46 53.1519C1501.43 55.1519 1501.54 57.3447 1501.73 58.3369C1501.92 59.3918 1502.35 59.9307 1504.48 61.8197C1505.17 62.4116 1506.2 63.3768 1506.79 63.958C1509.84 66.9416 1511.57 67.7499 1512.81 66.7325C1513.75 65.9339 1516.27 56.7903 1516.11 54.7103C1516.08 54.4027 1515.21 52.852 1513.75 50.5466C1511.08 46.3507 1506.31 38.5316 1505.93 37.7251C1505.47 36.7384 1505.25 36.1143 1504.97 35.0194C1504.71 34.0103 1504.73 33.8262 1505.1 32.1996C1505.44 30.6754 1505.58 30.3369 1506.14 29.5142C1507.71 27.1756 1510.93 25.5759 1513.77 25.7095C1516.46 25.8343 1519.06 27.0488 1520.89 29.0121C1521.62 29.8197 1523.11 30.9892 1523.33 30.9375C1523.44 30.9044 1523.78 29.8823 1524.23 28.2287C1525.39 23.9453 1526.24 21.5858 1527.12 20.2682C1528.19 18.6729 1529.3 17.5735 1530.52 16.8656C1534.04 14.815 1538.21 14.6908 1542.05 16.5051C1545.22 18.012 1547.82 21.5968 1548.15 24.8677C1548.32 26.7008 1548.2 27.6419 1547.17 31.9152C1546.16 36.1446 1546.04 37.4142 1546.65 37.5791C1546.83 37.6256 1547.63 37.402 1548.41 37.0925C1549.18 36.7829 1550.43 36.4266 1551.16 36.3074C1552.47 36.0789 1552.5 36.0873 1554.37 36.6052C1556.58 37.1973 1557.28 37.6197 1558.86 39.2644C1561.16 41.6538 1561.87 44.3693 1560.9 47.0423C1560.39 48.4907 1559.22 50.3263 1558.43 50.9454C1557.91 51.3707 1553.5 54.0005 1551.84 54.9037C1544.37 58.9244 1540.24 61.2684 1539.68 61.7919L1539 62.426L1537.76 67.1129C1536.53 71.7078 1536.52 71.8145 1536.65 72.8379C1536.81 74.1982 1537.2 74.647 1538.41 74.9726C1539.17 75.161 1539.59 75.1643 1541 74.913C1541.92 74.7525 1543.08 74.5152 1543.57 74.4098C1544.07 74.2941 1545.05 74.0688 1545.74 73.893C1546.44 73.736 1547.39 73.5211 1547.87 73.4304C1548.34 73.3209 1549.25 72.9824 1549.87 72.6641C1551.09 72.0337 1551.32 71.7498 1553.01 68.8466C1553.39 68.1803 1554.02 67.1423 1554.39 66.5492C1555.11 65.3776 1555.97 63.9302 1557.47 61.4156C1559.3 58.3287 1560.94 55.9631 1562.32 54.4962C1563.71 53.019 1566.54 51.8784 1568.61 51.9785C1572.12 52.1495 1575.5 54.3579 1576.95 57.4123C1577.87 59.3856 1577.92 60.7163 1577.17 63.6368C1576.66 65.6312 1576.64 66.0663 1577.08 66.2475C1577.53 66.4287 1578.36 66.2762 1584.17 64.9308C1587.83 64.0771 1589.67 63.9736 1591.73 64.4941C1594.18 65.1349 1596.01 66.3933 1597.87 68.7124C1600.5 72.0212 1600.94 75.5727 1599.12 79.2098C1598.55 80.3275 1597.31 81.939 1596.54 82.5185C1594.29 84.2359 1593.66 84.5061 1588.69 85.8582C1584.44 87.0093 1583.01 87.5513 1583.01 88.0199C1583 88.1747 1583.38 88.5272 1583.96 88.8866C1586.38 90.4604 1588.34 93.4807 1588.43 95.7948C1588.5 97.1925 1587.68 99.6233 1586.75 100.769C1585.77 101.999 1584.67 102.958 1583.6 103.534C1582.53 104.111 1580.31 104.504 1578.84 104.391C1577.59 104.308 1575.37 103.572 1573.38 102.614C1572.56 102.206 1571.25 101.604 1570.46 101.267C1569.67 100.93 1568.48 100.376 1567.82 100.044C1567.17 99.6969 1566.33 99.2991 1565.95 99.1348C1565.57 98.9852 1564.5 98.4466 1563.57 97.946C1560.22 96.1708 1559.37 95.8023 1557.59 95.3244C1555.96 94.9035 1555.78 94.8862 1554.7 95.0673C1554.06 95.1638 1553.02 95.3868 1552.37 95.5565C1551.71 95.7262 1550.79 95.9495 1550.29 96.0506C1547.46 96.6116 1545.02 97.6654 1544.59 98.5073C1544.31 99.0295 1544.35 99.3225 1544.76 100.123C1545.28 101.093 1548.18 103.986 1551.36 106.704C1552.91 108.031 1553.13 108.168 1554.05 108.413C1554.6 108.561 1555.61 108.691 1556.31 108.689C1560.93 108.736 1561.87 108.753 1562.68 108.814C1563.18 108.853 1564.32 108.892 1565.2 108.892C1572.11 108.91 1574.95 109.106 1576.75 109.68C1580.58 110.896 1582.99 113.847 1583.06 117.412C1583.11 119.839 1581.98 122.658 1580.45 123.957C1579.42 124.826 1577.24 125.715 1575 126.167C1572.51 126.677 1572.44 126.704 1572.92 127.241C1573.11 127.465 1573.5 127.851 1573.76 128.078C1574.02 128.319 1574.72 128.993 1575.3 129.589C1575.89 130.17 1576.89 131.127 1577.53 131.706C1581.08 135.028 1582.6 138.022 1582.37 141.222C1582.19 143.575 1580.87 146.121 1578.7 148.237C1577.66 149.261 1575.23 150.57 1573.81 150.865C1570.66 151.526 1566.86 150.54 1563.88 148.282C1563.27 147.804 1562.69 147.352 1562.62 147.254C1562.56 147.159 1561.88 146.553 1561.12 145.896C1560.36 145.254 1559.6 144.548 1559.42 144.358C1558.62 143.5 1556.91 142.275 1556.2 142.051C1555.45 141.804 1555.45 141.804 1555.36 142.252C1554.64 146.026 1554.66 145.938 1553.89 147.078C1552.52 149.033 1550.53 150.117 1547.2 150.683L1545.73 150.946L1543.68 150.397C1541.64 149.866 1541.6 149.857 1540.65 149.068C1539.54 148.159 1537.91 145.73 1537.55 144.459C1537.18 143.087 1536.84 140.314 1536.83 138.306C1536.84 137.224 1536.81 135.743 1536.79 135C1536.75 133.36 1536.74 130.58 1536.78 127.783C1536.83 123.812 1536.56 122.234 1535.66 121.162C1535.43 120.881 1534.56 120.069 1533.73 119.343C1532.91 118.621 1532 117.83 1531.75 117.574C1531.5 117.318 1530.55 116.499 1529.65 115.756C1528.28 114.62 1527.87 114.355 1527.16 114.165C1526.25 113.905 1525.78 114.029 1525.09 114.693C1524.77 115.014 1524.54 115.737 1523.4 119.807C1521.99 124.839 1521.8 125.903 1522.17 127.005C1522.27 127.329 1524.42 130.917 1526.92 134.945C1532.37 143.666 1532.71 144.276 1533.14 146.022C1533.37 146.945 1533.3 148.401 1532.96 149.659C1532.18 152.508 1529.55 154.892 1526.29 155.682C1523.12 156.479 1520.73 155.744 1517.94 153.131C1516.02 151.331 1515.25 150.684 1515.02 150.702C1514.85 150.719 1514.57 151.555 1513.73 154.575C1512.52 158.957 1512.27 159.705 1511.4 161.196C1510.7 162.435 1509.73 163.495 1508.41 164.506C1506.82 165.74 1504.15 166.643 1501.96 166.682C1500.84 166.711 1500.35 166.642 1498.79 166.209C1497.78 165.924 1496.81 165.632 1496.65 165.542Z" fill="#8A8F92"/>
</mask>
<g mask="url(#mask1_2114_1355)">
<rect x="1427.83" y="-34.3787" width="390.817" height="337.1" transform="rotate(15 1427.83 -34.3787)" fill="#61C9E2"/>
</g>
<mask id="mask2_2114_1355" style="mask-type:alpha" maskUnits="userSpaceOnUse" x="161" y="52" width="228" height="213">
<path d="M243.623 262.665C242.058 261.895 240.724 260.969 239.181 259.592C236.132 256.87 234.304 253.118 234.16 249.336C234.086 247.586 234.2 246.982 235.792 240.249C237.143 234.591 237.476 232.819 237.42 231.972C237.369 231.367 237.214 230.8 237.093 230.724C236.955 230.621 235.882 230.837 234.721 231.205C233.543 231.546 232.569 231.833 232.525 231.821C232.481 231.809 231.881 231.933 231.226 232.086C228.304 232.77 225.22 232.294 222.371 230.676C218.459 228.446 216.455 225.26 215.941 220.481C215.768 218.748 216.617 215.845 217.814 214.196C219.66 211.625 220.859 210.852 233.594 204.127C242.092 199.639 245.679 197.623 246.207 197.064C246.91 196.289 246.976 196.131 248.568 189.749C250.663 181.4 250.695 180.226 248.755 179.005C247.46 178.199 243.92 178.279 241.08 179.182C240.723 179.283 239.314 179.606 237.949 179.854C234.459 180.539 231.471 181.468 230.707 182.117C230.344 182.414 229.438 183.682 228.68 184.923C226.269 188.897 224.803 191.285 223.826 192.818C223.298 193.64 222.173 195.462 221.349 196.862C215.682 206.378 214.737 207.525 211.2 209.183C207.277 211.044 202.509 210.861 198.867 208.681C195.952 206.958 194.004 204.532 193.08 201.46C192.471 199.414 192.524 198.158 193.377 194.358C193.842 192.272 194.071 190.8 193.955 190.616C193.756 190.3 193.756 190.3 186.547 191.915C178.258 193.766 176.403 193.904 172.933 192.931C168.907 191.83 166.465 189.928 164.042 186.016C162.375 183.336 161.7 181.273 161.381 177.969C161.213 176.304 161.273 175.641 161.672 174.15C162.214 172.128 162.73 171.259 164.478 169.319C166.825 166.729 169.383 165.291 174.335 163.816C175.084 163.578 175.744 163.405 175.81 163.423C175.876 163.44 177.313 163.103 179.013 162.661C182.442 161.762 185.154 160.628 184.889 160.207C184.812 160.055 183.985 159.527 183.082 159.022C182.172 158.537 181.076 157.784 180.64 157.383C179.626 156.41 178.035 153.532 177.664 152.009C176.6 147.608 178.435 141.729 181.532 139.603C184.254 137.727 187.369 136.942 190.43 137.324C192.919 137.641 196.874 139.095 199.789 140.729C200.919 141.361 202.175 142.047 202.572 142.241C202.969 142.435 203.85 142.934 204.517 143.354C205.735 144.096 208.364 145.567 211.086 147.04C211.896 147.454 213.416 148.3 214.485 148.893C217.522 150.604 220.155 151.879 221.147 152.144C222.182 152.422 224.648 152.295 226.178 151.873C226.74 151.716 227.268 151.595 227.334 151.613C227.554 151.672 232.155 150.54 234.433 149.881C235.583 149.554 236.959 149.003 237.547 148.657C238.389 148.16 238.598 147.91 238.806 147.134C238.997 146.419 238.953 146.056 238.572 145.363C238.13 144.544 235.764 141.83 235.389 141.73C235.301 141.706 235.092 141.519 234.959 141.308C234.7 140.954 232.622 139.105 228.663 135.724C226.971 134.285 226.767 134.165 225.137 133.728C224.167 133.469 222.939 133.293 222.345 133.309C221.745 133.345 220.286 133.326 219.091 133.291C217.896 133.255 216.112 133.215 215.149 133.198C214.18 133.201 212.071 133.139 210.458 133.079C208.845 133.019 206.736 132.958 205.767 132.961C198.109 132.901 198.109 132.901 194.468 131.947C191.202 131.094 190.987 131.015 189.786 130.124C188.094 128.86 186.196 126.337 185.543 124.542C184.332 121.131 184.827 117.257 186.843 114.228C189.144 110.751 192.181 109.025 197.322 108.257C198.257 108.113 199.022 107.902 199.06 107.759C199.099 107.616 198.729 107.145 198.238 106.685C195.851 104.491 190.574 98.9831 189.421 97.47C186.376 93.5013 185.229 88.881 186.307 84.8569C187.391 80.8123 190.012 77.8147 194.27 75.6716C200.536 72.5558 208.593 74.3864 215.11 80.4676C215.888 81.1794 217.007 82.2018 217.58 82.7057C218.148 83.2301 219.311 84.2643 220.155 84.9938C220.993 85.7438 222.095 86.5646 222.613 86.8348C223.88 87.4809 224.139 87.3093 224.313 85.7795C224.486 84.0745 225.127 81.6846 225.785 80.3723C226.663 78.5933 228.087 77.2453 230.359 76.0806C233.296 74.547 235.977 74.1487 239.193 74.7477C245.19 75.8949 248.697 79.3743 249.637 85.1213C249.959 87.0905 249.977 87.6425 250.088 91.8102C250.101 93.0835 250.154 95.2652 250.205 96.6583C250.306 100.867 250.355 103.945 250.335 105.779C250.296 108.571 250.444 111.632 250.71 113.017C250.977 114.489 251.578 115.242 254.555 117.878C255.514 118.705 256.948 120.052 257.769 120.863C262.037 125.028 264.45 126.156 266.177 124.736C267.491 123.621 271.005 110.858 270.792 107.954C270.741 107.525 269.527 105.36 267.485 102.142C263.765 96.285 257.103 85.3703 256.578 84.2444C255.932 82.8671 255.622 81.996 255.229 80.4675C254.874 79.0589 254.896 78.802 255.41 76.5314C255.885 74.4038 256.083 73.9312 256.863 72.7828C259.06 69.5183 263.554 67.2853 267.518 67.4717C271.273 67.6459 274.904 69.3413 277.452 72.082C278.472 73.2092 280.561 74.8418 280.864 74.7696C281.018 74.7233 281.495 73.2966 282.113 70.9884C283.739 65.0092 284.929 61.7155 286.154 59.8762C287.648 57.6493 289.192 56.1146 290.897 55.1266C295.82 52.264 301.628 52.0906 306.995 54.6232C311.413 56.7267 315.055 61.7309 315.508 66.2967C315.743 68.8556 315.58 70.1693 314.147 76.1344C312.73 82.0383 312.562 83.8105 313.422 84.0407C313.664 84.1056 314.787 83.7934 315.87 83.3614C316.954 82.9293 318.693 82.4319 319.706 82.2654C321.539 81.9465 321.583 81.9583 324.199 82.6812C327.284 83.5077 328.259 84.0974 330.454 86.3932C333.669 89.7286 334.66 93.5191 333.306 97.2504C332.599 99.2722 330.968 101.835 329.863 102.699C329.137 103.293 322.982 106.963 320.661 108.224C310.231 113.837 304.467 117.109 303.68 117.84L302.735 118.725L301.005 125.267C299.287 131.681 299.27 131.83 299.454 133.259C299.678 135.158 300.218 135.784 301.915 136.239C302.977 136.502 303.567 136.506 305.526 136.155C306.814 135.931 308.438 135.6 309.114 135.453C309.819 135.292 311.178 134.977 312.141 134.732C313.121 134.512 314.453 134.212 315.124 134.086C315.779 133.933 317.039 133.461 317.914 133.016C319.614 132.136 319.932 131.74 322.293 127.687C322.826 126.757 323.71 125.308 324.215 124.48C325.22 122.845 326.423 120.824 328.52 117.314C331.068 113.005 333.37 109.703 335.288 107.655C337.234 105.593 341.179 104.001 344.069 104.141C348.964 104.38 353.687 107.462 355.709 111.726C357.001 114.481 357.07 116.338 356.025 120.415C355.303 123.199 355.282 123.806 355.899 124.059C356.516 124.312 357.682 124.099 365.789 122.221C370.902 121.03 373.467 120.885 376.342 121.612C379.762 122.506 382.314 124.263 384.918 127.5C388.592 132.119 389.2 137.076 386.659 142.153C385.863 143.714 384.127 145.963 383.06 146.772C379.914 149.169 379.034 149.547 372.106 151.434C366.173 153.041 364.176 153.797 364.166 154.451C364.155 154.668 364.685 155.16 365.495 155.661C368.873 157.858 371.616 162.074 371.742 165.305C371.833 167.256 370.688 170.649 369.386 172.248C368.029 173.965 366.489 175.304 364.998 176.108C363.508 176.913 360.409 177.462 358.35 177.304C356.61 177.188 353.509 176.16 350.726 174.824C349.58 174.254 347.751 173.413 346.649 172.943C345.547 172.473 343.889 171.7 342.974 171.236C342.065 170.752 340.892 170.196 340.363 169.967C339.828 169.758 338.33 169.006 337.029 168.307C332.357 165.829 331.172 165.315 328.683 164.648C326.408 164.06 326.155 164.036 324.647 164.289C323.76 164.424 322.308 164.735 321.394 164.972C320.48 165.209 319.193 165.52 318.494 165.662C314.553 166.445 311.136 167.916 310.538 169.091C310.154 169.82 310.21 170.229 310.784 171.346C311.507 172.7 315.549 176.739 319.987 180.533C322.159 182.385 322.462 182.576 323.74 182.918C324.511 183.125 325.926 183.307 326.895 183.304C333.348 183.369 334.664 183.393 335.798 183.478C336.492 183.533 338.083 183.587 339.311 183.587C348.962 183.612 352.926 183.886 355.427 184.687C360.781 186.385 364.14 190.503 364.247 195.48C364.307 198.868 362.733 202.803 360.595 204.616C359.16 205.83 356.112 207.071 352.991 207.702C349.518 208.413 349.414 208.451 350.086 209.2C350.357 209.514 350.897 210.052 351.261 210.369C351.619 210.706 352.595 211.646 353.411 212.478C354.233 213.289 355.622 214.625 356.516 215.433C361.483 220.07 363.598 224.249 363.275 228.717C363.033 232.001 361.183 235.556 358.148 238.509C356.703 239.938 353.309 241.766 351.333 242.178C346.93 243.1 341.632 241.724 337.47 238.573C336.61 237.904 335.811 237.274 335.706 237.137C335.623 237.005 334.669 236.158 333.616 235.241C332.558 234.345 331.499 233.36 331.24 233.094C330.121 231.896 327.745 230.187 326.743 229.875C325.702 229.53 325.702 229.53 325.581 230.154C324.571 235.423 324.604 235.3 323.516 236.892C321.605 239.62 318.838 241.133 314.187 241.923L312.129 242.291L309.265 241.524C306.417 240.783 306.373 240.771 305.039 239.669C303.49 238.4 301.211 235.009 300.718 233.235C300.192 231.321 299.718 227.45 299.714 224.646C299.717 223.136 299.68 221.069 299.651 220.032C299.604 217.742 299.581 213.861 299.635 209.957C299.704 204.414 299.326 202.211 298.074 200.715C297.754 200.323 296.546 199.189 295.378 198.176C294.231 197.168 292.968 196.063 292.616 195.706C292.263 195.349 290.94 194.206 289.683 193.168C287.77 191.583 287.208 191.214 286.216 190.948C284.944 190.585 284.284 190.758 283.327 191.684C282.876 192.133 282.559 193.142 280.965 198.824C278.989 205.848 278.733 207.333 279.241 208.871C279.38 209.324 282.383 214.332 285.882 219.955C293.482 232.128 293.962 232.979 294.561 235.417C294.877 236.705 294.781 238.738 294.31 240.494C293.221 244.472 289.543 247.799 284.997 248.902C280.567 250.014 277.229 248.988 273.342 245.341C270.662 242.828 269.582 241.925 269.268 241.951C269.026 241.973 268.642 243.14 267.465 247.357C265.779 253.473 265.428 254.518 264.209 256.599C263.227 258.328 261.886 259.808 260.043 261.219C257.811 262.942 254.097 264.202 251.036 264.257C249.467 264.297 248.784 264.201 246.608 263.596C245.204 263.198 243.849 262.791 243.623 262.665Z" fill="#8A8F92"/>
</mask>
<g mask="url(#mask2_2114_1355)">
<rect x="147.548" y="-16.4058" width="545.545" height="470.561" transform="rotate(15 147.548 -16.4058)" fill="#61C9E2"/>
</g>
<mask id="mask3_2114_1355" style="mask-type:alpha" maskUnits="userSpaceOnUse" x="1357" y="549" width="161" height="179">
<path d="M1362.99 685.577C1362.49 684.351 1362.22 683.145 1362.07 681.569C1361.76 678.453 1362.72 675.324 1364.67 673.002C1365.57 671.924 1365.96 671.621 1370.5 668.395C1374.32 665.69 1375.47 664.799 1375.89 664.267C1376.19 663.882 1376.4 663.469 1376.37 663.364C1376.35 663.235 1375.61 662.837 1374.74 662.487C1373.87 662.112 1373.15 661.805 1373.14 661.776C1373.12 661.747 1372.7 661.527 1372.24 661.297C1370.18 660.27 1368.65 658.474 1367.87 656.114C1366.8 652.868 1367.35 649.989 1369.63 646.892C1370.46 645.776 1372.51 644.465 1374.09 644.07C1376.54 643.446 1377.65 643.574 1388.64 645.818C1395.97 647.316 1399.13 647.875 1399.74 647.801C1400.56 647.685 1400.69 647.624 1405.04 644.607C1410.74 640.665 1411.39 639.982 1410.92 638.304C1410.6 637.189 1408.51 635.5 1406.38 634.645C1406.12 634.53 1405.13 634.031 1404.21 633.509C1401.82 632.205 1399.59 631.292 1398.8 631.303C1398.43 631.302 1397.22 631.612 1396.11 631.979C1392.58 633.162 1390.45 633.863 1389.06 634.296C1388.31 634.527 1386.68 635.059 1385.45 635.488C1377.06 638.372 1375.89 638.591 1372.95 637.843C1369.68 637.026 1367.02 634.578 1366.08 631.494C1365.32 629.039 1365.49 626.64 1366.61 624.358C1367.35 622.842 1368.06 622.121 1370.6 620.277C1371.99 619.263 1372.91 618.5 1372.94 618.334C1373 618.048 1373 618.048 1367.95 615.473C1362.16 612.509 1361.01 611.681 1359.52 609.399C1357.78 606.769 1357.39 604.44 1358.09 600.923C1358.56 598.511 1359.28 596.951 1360.87 594.829C1361.67 593.755 1362.06 593.39 1363.09 592.699C1364.5 591.761 1365.26 591.497 1367.32 591.2C1370.07 590.81 1372.32 591.208 1375.98 592.76C1376.54 592.986 1377.02 593.206 1377.05 593.249C1377.08 593.292 1378.09 593.796 1379.31 594.367C1381.78 595.514 1383.96 596.17 1384.03 595.789C1384.07 595.66 1383.88 594.941 1383.62 594.197C1383.36 593.463 1383.13 592.476 1383.09 592.024C1383.03 590.947 1383.65 588.454 1384.26 587.366C1386.01 584.225 1390.23 581.626 1393.16 581.879C1395.75 582.098 1397.97 583.159 1399.54 584.888C1400.81 586.298 1402.32 589.103 1403.13 591.506C1403.45 592.436 1403.81 593.461 1403.93 593.771C1404.06 594.081 1404.3 594.81 1404.46 595.387C1404.77 596.426 1405.5 598.59 1406.28 600.803C1406.53 601.446 1406.96 602.696 1407.26 603.573C1408.1 606.081 1408.94 608.131 1409.37 608.776C1409.82 609.449 1411.31 610.583 1412.43 611.082C1412.84 611.264 1413.21 611.451 1413.24 611.494C1413.33 611.638 1416.61 613.221 1418.28 613.946C1419.12 614.316 1420.21 614.662 1420.74 614.745C1421.49 614.862 1421.75 614.816 1422.29 614.456C1422.78 614.124 1422.95 613.887 1423.1 613.287C1423.29 612.583 1423.38 609.807 1423.21 609.564C1423.18 609.507 1423.15 609.292 1423.19 609.102C1423.23 608.764 1423.02 606.644 1422.55 602.69C1422.34 601.004 1422.29 600.832 1421.58 599.773C1421.15 599.142 1420.54 598.436 1420.18 598.153C1419.82 597.881 1418.98 597.154 1418.31 596.547C1417.64 595.939 1416.63 595.04 1416.08 594.558C1415.51 594.084 1414.33 593.013 1413.42 592.186C1412.52 591.359 1411.33 590.288 1410.77 589.815C1406.37 586.023 1406.37 586.023 1404.77 583.669C1403.34 581.559 1403.26 581.407 1403.04 580.287C1402.74 578.705 1402.99 576.272 1403.58 574.884C1404.71 572.26 1407.08 570.197 1409.88 569.383C1413.08 568.443 1415.77 568.905 1419.16 570.969C1419.77 571.343 1420.33 571.593 1420.43 571.526C1420.53 571.46 1420.57 570.998 1420.53 570.484C1420.33 568.007 1420.23 562.14 1420.38 560.674C1420.75 556.818 1422.56 553.506 1425.35 551.64C1428.15 549.765 1431.28 549.266 1434.9 550.079C1440.2 551.299 1443.89 556.34 1444.39 563.156C1444.46 563.961 1444.56 565.119 1444.62 565.7C1444.67 566.291 1444.79 567.477 1444.88 568.325C1444.96 569.182 1445.16 570.211 1445.32 570.626C1445.7 571.632 1445.95 571.657 1446.87 570.832C1447.89 569.902 1449.54 568.794 1450.63 568.336C1452.09 567.708 1453.64 567.604 1455.58 568.025C1458.11 568.554 1459.87 569.631 1461.42 571.566C1464.27 575.19 1464.43 578.981 1461.89 582.862C1461.02 584.192 1460.73 584.529 1458.56 587.064C1457.88 587.828 1456.74 589.153 1456.02 590.007C1453.81 592.561 1452.19 594.417 1451.19 595.499C1449.67 597.141 1448.11 599.036 1447.52 599.991C1446.88 600.998 1446.83 601.74 1447.13 604.77C1447.24 605.732 1447.35 607.237 1447.39 608.123C1447.62 612.695 1448.41 614.551 1450.18 614.552C1451.54 614.533 1460.43 608.661 1461.87 606.828C1462.07 606.548 1462.53 604.664 1463.08 601.747C1464.07 596.436 1466.08 586.673 1466.38 585.745C1466.75 584.608 1467.04 583.938 1467.63 582.835C1468.18 581.823 1468.33 581.681 1469.85 580.582C1471.27 579.549 1471.64 579.364 1472.71 579.063C1475.73 578.198 1479.54 579.074 1481.73 581.129C1483.81 583.075 1485 585.865 1485.01 588.746C1484.99 589.917 1485.32 591.914 1485.54 592.019C1485.65 592.067 1486.7 591.452 1488.29 590.382C1492.45 587.621 1494.91 586.244 1496.61 585.75C1498.67 585.158 1500.39 585.002 1501.91 585.25C1506.3 585.961 1509.75 588.707 1511.5 592.847C1512.93 596.266 1512.35 601.031 1510.16 603.97C1508.92 605.608 1508.12 606.31 1504.08 609.157C1500.09 611.976 1499.04 612.949 1499.41 613.507C1499.52 613.665 1500.34 614.029 1501.2 614.304C1502.06 614.578 1503.33 615.135 1504.01 615.533C1505.24 616.242 1505.26 616.271 1506.38 617.985C1507.73 619.989 1507.97 620.819 1508.01 623.262C1508.08 626.824 1506.62 629.566 1503.83 631.123C1502.33 631.979 1500.01 632.704 1498.91 632.676C1498.17 632.673 1492.63 631.839 1490.61 631.451C1481.55 629.675 1476.45 628.795 1475.61 628.844L1474.58 628.907L1470.06 631.952C1465.62 634.927 1465.53 635.007 1464.87 635.948C1463.98 637.187 1463.96 637.825 1464.69 638.928C1465.17 639.606 1465.51 639.898 1466.83 640.65C1467.7 641.148 1468.82 641.748 1469.29 641.992C1469.78 642.242 1470.74 642.721 1471.43 643.047C1472.11 643.398 1473.04 643.872 1473.5 644.126C1473.96 644.357 1474.95 644.694 1475.69 644.858C1477.15 645.168 1477.55 645.089 1481.09 643.835C1481.9 643.543 1483.19 643.114 1483.93 642.869C1485.39 642.389 1487.17 641.776 1490.27 640.716C1494.07 639.401 1497.17 638.565 1499.38 638.287C1501.62 638.014 1504.76 639.002 1506.36 640.503C1509.07 643.046 1510.14 647.197 1509.02 650.727C1508.29 653 1507.33 654.139 1504.54 656.053C1502.62 657.356 1502.28 657.707 1502.51 658.16C1502.73 658.613 1503.52 659.059 1509.22 661.917C1512.82 663.716 1514.39 664.888 1515.66 666.731C1517.16 668.941 1517.7 671.238 1517.46 674.442C1517.11 678.993 1514.8 682.242 1510.6 684.017C1509.3 684.555 1507.08 685.042 1506.03 685C1502.92 684.884 1502.21 684.677 1497.18 682.402C1492.88 680.448 1491.32 679.919 1490.96 680.303C1490.84 680.426 1490.88 680.979 1491.08 681.675C1491.86 684.64 1491.18 688.494 1489.51 690.478C1488.52 691.684 1486.03 693.142 1484.42 693.455C1482.71 693.811 1481.1 693.853 1479.8 693.6C1478.51 693.348 1476.42 692.155 1475.31 691.051C1474.36 690.128 1473.12 687.995 1472.23 685.835C1471.87 684.934 1471.26 683.536 1470.88 682.716C1470.49 681.895 1469.95 680.622 1469.67 679.897C1469.4 679.163 1469.02 678.257 1468.84 677.861C1468.64 677.474 1468.17 676.292 1467.8 675.238C1466.42 671.471 1466.01 670.584 1464.93 668.966C1463.93 667.501 1463.79 667.362 1462.78 666.773C1462.2 666.418 1461.19 665.891 1460.53 665.584C1459.88 665.276 1458.96 664.83 1458.48 664.571C1455.78 663.104 1453.01 662.304 1452.03 662.71C1451.42 662.955 1451.23 663.226 1450.96 664.173C1450.65 665.333 1450.82 669.72 1451.36 674.155C1451.62 676.322 1451.69 676.584 1452.25 677.415C1452.58 677.916 1453.3 678.719 1453.87 679.192C1457.57 682.396 1458.32 683.056 1458.93 683.663C1459.3 684.036 1460.19 684.848 1460.91 685.451C1466.48 690.2 1468.63 692.307 1469.65 694.011C1471.84 697.647 1471.57 701.746 1468.96 704.761C1467.17 706.806 1464.14 708.376 1461.93 708.406C1460.45 708.425 1458.02 707.668 1455.87 706.513C1453.48 705.233 1453.39 705.204 1453.38 705.98C1453.37 706.299 1453.39 706.885 1453.43 707.252C1453.46 707.628 1453.52 708.666 1453.55 709.562C1453.59 710.448 1453.67 711.924 1453.76 712.843C1454.14 718.04 1453.12 721.565 1450.53 724.065C1448.63 725.901 1445.64 727.109 1442.3 727.378C1440.69 727.519 1437.75 726.942 1436.38 726.218C1433.33 724.607 1431 721.189 1430.29 717.272C1430.15 716.453 1430.03 715.686 1430.04 715.552C1430.06 715.433 1429.96 714.462 1429.85 713.399C1429.72 712.347 1429.63 711.242 1429.62 710.956C1429.62 709.694 1429.16 707.511 1428.75 706.834C1428.33 706.118 1428.33 706.118 1427.93 706.431C1424.51 709.071 1424.6 709.014 1423.11 709.427C1420.54 710.113 1418.12 709.657 1415 707.846L1413.61 707.055L1412.37 705.193C1411.12 703.355 1411.1 703.327 1410.92 702.017C1410.7 700.502 1411.2 697.366 1411.87 696.068C1412.6 694.671 1414.4 692.134 1415.91 690.464C1416.72 689.567 1417.81 688.318 1418.35 687.687C1419.55 686.301 1421.63 683.98 1423.75 681.683C1426.77 678.418 1427.74 676.921 1427.82 675.417C1427.84 675.027 1427.75 673.76 1427.62 672.583C1427.5 671.421 1427.36 670.144 1427.35 669.758C1427.34 669.372 1427.18 668.043 1427.01 666.809C1426.76 664.928 1426.63 664.432 1426.2 663.788C1425.66 662.948 1425.18 662.727 1424.13 662.809C1423.63 662.854 1422.9 663.299 1418.93 665.899C1414.01 669.11 1413.06 669.868 1412.53 671.033C1412.36 671.37 1411.41 675.824 1410.42 680.887C1408.28 691.86 1408.1 692.602 1407.13 694.346C1406.62 695.268 1405.48 696.43 1404.26 697.245C1401.49 699.078 1397.57 699.254 1394.35 697.681C1391.18 696.169 1389.8 693.921 1389.51 689.844C1389.31 687.034 1389.17 685.967 1388.97 685.828C1388.82 685.723 1387.97 686.229 1385.02 688.161C1380.76 690.974 1379.99 691.424 1378.17 692.065C1376.67 692.612 1375.1 692.835 1373.27 692.771C1371.05 692.701 1368.23 691.629 1366.42 690.16C1365.49 689.414 1365.15 689.022 1364.21 687.595C1363.62 686.669 1363.05 685.763 1362.99 685.577Z" fill="#8A8F92"/>
</mask>
<g mask="url(#mask3_2114_1355)">
<rect x="1457.33" y="472.362" width="412.192" height="378.86" transform="rotate(56.198 1457.33 472.362)" fill="#61C9E2"/>
</g>
<path d="M39.9482 758.846L0 749L82.5 779.5L155 800.5L209 813L266 821C290.294 822.997 314.71 823.049 339.012 821.155L341 821C373.617 819.003 406.03 814.471 437.943 807.444L444.5 806L470.5 798L436.872 790.56C421.647 787.192 406.708 782.643 392.189 776.956C374.437 770.001 356.062 764.752 337.315 761.281L322.673 758.569C297.278 753.866 271.505 751.5 245.678 751.5H237.784C213.66 751.5 189.602 754.014 166 759L157.425 760.812C139.524 764.594 121.277 766.5 102.981 766.5C81.7384 766.5 60.5737 763.93 39.9482 758.846Z" fill="url(#paint0_linear_2114_1355)"/>
<path d="M758.63 780.268L734.5 783.5L830.5 796.5L880 802L929.5 804L974.5 803L1019.5 800L1059.5 794L1103.5 787.5L1170 773.5L1129.5 771L1092 765.5L1051 763.5H1025.88C987.742 763.5 949.721 767.692 912.5 776L884.54 779.554C863.925 782.175 843.065 782.258 822.429 779.801C801.228 777.277 779.792 777.434 758.63 780.268Z" fill="url(#paint1_linear_2114_1355)"/>
<path d="M1408.12 780H1461.82C1486.51 780 1511.09 776.854 1534.98 770.638C1551.96 766.222 1569.3 763.352 1586.79 762.063L1607.91 760.507C1639.57 758.174 1671.38 758.723 1702.94 762.149L1720 764C1752.93 770.319 1786.39 773.5 1819.91 773.5H1822C1826.4 773.5 1849.83 771.167 1865 768L1830 781.5L1794.5 793L1734 808.5L1700.5 815L1667.5 818L1657.57 818.779C1613.4 822.243 1568.96 819.626 1525.5 811L1478.5 800L1433 787L1400.46 779.113C1400.31 779.076 1400.15 779.039 1400 779L1400.46 779.113C1402.97 779.702 1405.54 780 1408.12 780Z" fill="url(#paint2_linear_2114_1355)"/>
</g>
<defs>
<linearGradient id="paint0_linear_2114_1355" x1="82" y1="959" x2="313" y2="814" gradientUnits="userSpaceOnUse">
<stop stop-color="#45AEC7"/>
<stop offset="1" stop-color="#61C9E2"/>
</linearGradient>
<linearGradient id="paint1_linear_2114_1355" x1="966.5" y1="763" x2="970.5" y2="937.5" gradientUnits="userSpaceOnUse">
<stop stop-color="#61C9E2"/>
<stop offset="1" stop-color="#45AEC7"/>
</linearGradient>
<linearGradient id="paint2_linear_2114_1355" x1="1633" y1="762" x2="1660.5" y2="894" gradientUnits="userSpaceOnUse">
<stop stop-color="#61C9E2"/>
<stop offset="1" stop-color="#45AEC7"/>
</linearGradient>
<clipPath id="clip0_2114_1355">
<rect width="1920" height="823" fill="white"/>
</clipPath>
</defs>
</svg>
