<svg width="569" height="1715" viewBox="0 0 569 1715" fill="none" xmlns="http://www.w3.org/2000/svg">
<g clip-path="url(#clip0_2130_2034)">
<path d="M0 0H569V1700.52L516.635 1690.18C466.201 1680.22 414.178 1681.65 364.372 1694.39V1694.39C311.379 1707.93 255.923 1708.69 202.582 1696.58L193.956 1694.62C137.224 1681.74 78.2986 1682.01 21.6842 1695.39L0 1700.52V0Z" fill="#01AED8"/>
<mask id="mask0_2130_2034" style="mask-type:alpha" maskUnits="userSpaceOnUse" x="-43" y="380" width="164" height="152">
<path d="M16.6515 530.542C15.5306 529.99 14.5751 529.327 13.4692 528.34C11.2851 526.39 9.97542 523.703 9.87256 520.993C9.81932 519.74 9.90147 519.307 11.0416 514.484C12.0094 510.43 12.248 509.161 12.2076 508.554C12.1714 508.121 12.0603 507.715 11.9735 507.66C11.8748 507.586 11.1059 507.741 10.2742 508.004C9.43054 508.249 8.73277 508.454 8.7012 508.446C8.66964 508.437 8.23988 508.526 7.77072 508.635C5.67722 509.125 3.46804 508.784 1.42717 507.626C-1.37559 506.028 -2.81085 503.745 -3.17907 500.322C-3.30328 499.081 -2.69523 497.001 -1.83729 495.819C-0.515 493.978 0.343923 493.424 9.46673 488.606C15.5552 485.391 18.1244 483.947 18.5024 483.546C19.0064 482.991 19.0535 482.878 20.194 478.306C21.6952 472.325 21.7175 471.484 20.3279 470.61C19.4001 470.032 16.8642 470.089 14.8301 470.736C14.5739 470.809 13.5646 471.04 12.5867 471.218C10.087 471.708 7.94646 472.374 7.39897 472.839C7.139 473.051 6.48966 473.96 5.94679 474.849C4.21984 477.696 3.16948 479.406 2.46917 480.505C2.09147 481.094 1.285 482.399 0.694974 483.402C-3.36453 490.219 -4.04161 491.041 -6.57574 492.228C-9.38572 493.561 -12.8014 493.43 -15.4109 491.869C-17.4992 490.635 -18.8942 488.896 -19.5563 486.696C-19.9924 485.23 -19.9544 484.33 -19.3434 481.608C-19.0105 480.113 -18.8465 479.059 -18.9295 478.927C-19.0719 478.701 -19.0719 478.701 -24.2367 479.858C-30.1743 481.184 -31.5033 481.283 -33.9891 480.586C-36.8734 479.797 -38.6227 478.434 -40.3586 475.632C-41.5527 473.712 -42.0362 472.234 -42.2647 469.867C-42.3849 468.674 -42.3422 468.2 -42.056 467.131C-41.6678 465.683 -41.2981 465.06 -40.0461 463.671C-38.3649 461.815 -36.5325 460.785 -32.9846 459.728C-32.4485 459.558 -31.9754 459.434 -31.928 459.447C-31.8807 459.459 -30.8517 459.218 -29.6335 458.901C-27.1774 458.257 -25.2343 457.445 -25.424 457.143C-25.4794 457.034 -26.0716 456.656 -26.719 456.294C-27.3703 455.947 -28.156 455.407 -28.468 455.12C-29.1948 454.423 -30.334 452.361 -30.5999 451.27C-31.3621 448.118 -30.0475 443.906 -27.8294 442.383C-25.8792 441.039 -23.6478 440.476 -21.4545 440.75C-19.6715 440.977 -16.838 442.019 -14.7498 443.19C-13.9406 443.642 -13.0406 444.134 -12.7564 444.273C-12.4722 444.412 -11.8406 444.769 -11.3629 445.07C-10.4904 445.601 -8.6075 446.655 -6.6575 447.711C-6.07726 448.007 -4.98777 448.613 -4.22196 449.038C-2.04689 450.264 -0.160219 451.177 0.550001 451.367C1.29179 451.566 3.05856 451.475 4.15452 451.172C4.55663 451.061 4.93512 450.974 4.98247 450.986C5.14029 451.029 8.43621 450.218 10.0683 449.746C10.8922 449.512 11.8776 449.117 12.2992 448.869C12.9021 448.513 13.0517 448.334 13.2007 447.778C13.3379 447.265 13.306 447.006 13.033 446.509C12.7166 445.923 11.0216 443.978 10.7533 443.906C10.6901 443.89 10.54 443.755 10.4452 443.604C10.2594 443.351 8.77041 442.026 5.93481 439.604C4.72238 438.573 4.57632 438.487 3.4084 438.174C2.71397 437.988 1.83425 437.862 1.40832 437.874C0.978463 437.9 -0.0667193 437.886 -0.922609 437.861C-1.7785 437.835 -3.0564 437.807 -3.74662 437.794C-4.44076 437.796 -5.95139 437.752 -7.10705 437.709C-8.26271 437.666 -9.77333 437.622 -10.4675 437.624C-15.9537 437.582 -15.9537 437.582 -18.5617 436.898C-20.9015 436.287 -21.0554 436.23 -21.9162 435.592C-23.1284 434.687 -24.488 432.88 -24.9554 431.594C-25.823 429.15 -25.4684 426.375 -24.0244 424.205C-22.3758 421.714 -20.2006 420.477 -16.5178 419.927C-15.8475 419.824 -15.2995 419.673 -15.272 419.571C-15.2446 419.468 -15.5094 419.131 -15.8609 418.801C-17.5711 417.229 -21.3517 413.284 -22.1777 412.2C-24.3593 409.357 -25.1809 406.047 -24.4084 403.164C-23.6321 400.266 -21.7542 398.119 -18.7039 396.584C-14.2152 394.352 -8.44306 395.663 -3.7744 400.019C-3.2175 400.529 -2.41571 401.262 -2.00497 401.623C-1.59815 401.998 -0.764798 402.739 -0.160544 403.262C0.439789 403.799 1.22951 404.387 1.60055 404.581C2.5084 405.044 2.69358 404.921 2.81806 403.825C2.94235 402.603 3.40111 400.891 3.87292 399.951C4.50196 398.677 5.52194 397.711 7.1495 396.877C9.25388 395.778 11.1742 395.493 13.4781 395.922C17.7744 396.744 20.2867 399.236 20.9598 403.353C21.1907 404.764 21.2032 405.159 21.2828 408.145C21.2921 409.057 21.3301 410.62 21.3671 411.618C21.4389 414.633 21.4739 416.838 21.4602 418.152C21.4318 420.152 21.5378 422.345 21.7287 423.337C21.9196 424.392 22.3504 424.931 24.4831 426.82C25.1703 427.412 26.1973 428.377 26.7858 428.958C29.8432 431.942 31.5719 432.75 32.8087 431.732C33.7501 430.934 36.2678 421.79 36.1147 419.71C36.0787 419.403 35.2086 417.852 33.7457 415.547C31.0808 411.351 26.3081 403.532 25.9322 402.725C25.4692 401.738 25.2473 401.114 24.9656 400.019C24.7116 399.01 24.7271 398.826 25.0952 397.2C25.436 395.675 25.5774 395.337 26.1362 394.514C27.7101 392.176 30.9299 390.576 33.7697 390.709C36.4598 390.834 39.0608 392.049 40.886 394.012C41.6169 394.82 43.1135 395.989 43.3303 395.938C43.4407 395.904 43.7822 394.882 44.2253 393.229C45.39 388.945 46.2421 386.586 47.1195 385.268C48.1898 383.673 49.2964 382.573 50.5179 381.866C54.0445 379.815 58.2053 379.691 62.0496 381.505C65.2151 383.012 67.8237 386.597 68.1483 389.868C68.3169 391.701 68.2 392.642 67.1734 396.915C66.1585 401.145 66.0383 402.414 66.6538 402.579C66.8274 402.626 67.6316 402.402 68.4081 402.092C69.1846 401.783 70.4303 401.427 71.1559 401.307C72.4688 401.079 72.5004 401.087 74.3746 401.605C76.5842 402.197 77.283 402.62 78.8553 404.264C81.1584 406.654 81.8686 409.369 80.8986 412.042C80.3921 413.491 79.2236 415.326 78.4319 415.945C77.9119 416.371 73.5027 419 71.8398 419.904C64.3682 423.924 60.2386 426.268 59.6754 426.792L58.9981 427.426L57.7591 432.113C56.5279 436.708 56.5163 436.814 56.648 437.838C56.8079 439.198 57.1951 439.647 58.4104 439.973C59.1719 440.161 59.5939 440.164 60.9976 439.913C61.9202 439.752 63.0833 439.515 63.5683 439.41C64.0729 439.294 65.0467 439.069 65.7367 438.893C66.4385 438.736 67.3926 438.521 67.8736 438.43C68.3428 438.321 69.2454 437.982 69.872 437.664C71.0897 437.034 71.318 436.75 73.0094 433.847C73.3909 433.18 74.0243 432.142 74.3862 431.549C75.1061 430.378 75.9675 428.93 77.4702 426.416C79.2954 423.329 80.9442 420.963 82.3184 419.496C83.7122 418.019 86.5383 416.878 88.609 416.978C92.1155 417.15 95.499 419.358 96.9473 422.412C97.8733 424.386 97.9227 425.716 97.174 428.637C96.6565 430.631 96.6414 431.066 97.0834 431.248C97.5255 431.429 98.3614 431.276 104.169 429.931C107.831 429.077 109.669 428.974 111.729 429.494C114.179 430.135 116.007 431.393 117.872 433.712C120.504 437.021 120.94 440.573 119.119 444.21C118.549 445.327 117.305 446.939 116.541 447.518C114.288 449.236 113.657 449.506 108.694 450.858C104.444 452.009 103.013 452.551 103.006 453.02C102.998 453.175 103.378 453.527 103.958 453.887C106.378 455.46 108.343 458.481 108.433 460.795C108.499 462.193 107.678 464.623 106.745 465.769C105.773 466.999 104.67 467.958 103.602 468.534C102.534 469.111 100.315 469.504 98.8393 469.391C97.5928 469.308 95.3712 468.572 93.378 467.614C92.557 467.206 91.2466 466.604 90.4573 466.267C89.668 465.93 88.48 465.376 87.8247 465.044C87.1734 464.697 86.3327 464.299 85.9538 464.135C85.571 463.985 84.4974 463.447 83.5659 462.946C80.2186 461.171 79.37 460.802 77.5866 460.324C75.957 459.903 75.7756 459.886 74.6952 460.067C74.0604 460.164 73.0195 460.387 72.3651 460.556C71.7106 460.726 70.7881 460.949 70.2874 461.051C67.4643 461.612 65.0168 462.665 64.5882 463.507C64.3129 464.029 64.3528 464.322 64.7643 465.123C65.2824 466.093 68.1779 468.986 71.3571 471.704C72.9132 473.031 73.1303 473.168 74.0457 473.413C74.5981 473.561 75.6119 473.691 76.306 473.689C80.9285 473.736 81.8711 473.753 82.6837 473.814C83.1807 473.853 84.3206 473.892 85.2001 473.892C92.114 473.91 94.954 474.106 96.7454 474.68C100.581 475.896 102.987 478.847 103.064 482.412C103.107 484.839 101.98 487.658 100.448 488.957C99.4196 489.826 97.236 490.715 95.0005 491.167C92.5126 491.677 92.4377 491.704 92.9197 492.241C93.1133 492.465 93.5005 492.851 93.7611 493.078C94.0179 493.319 94.717 493.993 95.3017 494.589C95.8902 495.17 96.8856 496.127 97.5255 496.706C101.084 500.028 102.599 503.022 102.368 506.222C102.194 508.575 100.869 511.121 98.6952 513.237C97.6595 514.261 95.2281 515.57 93.8127 515.865C90.6585 516.526 86.8628 515.54 83.8816 513.282C83.2655 512.804 82.693 512.352 82.6179 512.254C82.5586 512.159 81.8753 511.553 81.121 510.896C80.3627 510.254 79.6043 509.548 79.4187 509.358C78.6167 508.5 76.9149 507.275 76.1967 507.051C75.4509 506.804 75.4509 506.804 75.3649 507.252C74.6412 511.026 74.6647 510.938 73.8856 512.078C72.5161 514.033 70.534 515.117 67.2022 515.683L65.7275 515.946L63.6758 515.397C61.6359 514.866 61.6043 514.857 60.6487 514.068C59.539 513.159 57.9063 510.73 57.5533 509.459C57.1764 508.087 56.8368 505.314 56.8337 503.306C56.8359 502.224 56.8099 500.743 56.789 500C56.7549 498.36 56.7387 495.58 56.7777 492.783C56.8267 488.812 56.556 487.234 55.659 486.162C55.4298 485.881 54.5648 485.069 53.7276 484.343C52.9061 483.621 52.0017 482.83 51.7488 482.574C51.496 482.318 50.5482 481.499 49.6478 480.756C48.2774 479.62 47.8747 479.355 47.1645 479.165C46.253 478.905 45.7799 479.029 45.0947 479.693C44.7718 480.014 44.5442 480.737 43.4029 484.807C41.987 489.839 41.8033 490.903 42.1679 492.005C42.267 492.329 44.4182 495.917 46.925 499.945C52.3696 508.666 52.7137 509.276 53.1424 511.022C53.3686 511.945 53.2999 513.401 52.9627 514.659C52.1823 517.508 49.5475 519.892 46.291 520.682C43.1174 521.479 40.7261 520.744 37.9415 518.131C36.0219 516.331 35.2478 515.684 35.0231 515.702C34.8496 515.719 34.5748 516.555 33.7316 519.575C32.5237 523.957 32.2725 524.705 31.3992 526.196C30.6952 527.435 29.7345 528.495 28.4149 529.506C26.8155 530.74 24.1548 531.643 21.962 531.682C20.838 531.711 20.3488 531.642 18.7902 531.209C17.7841 530.924 16.8134 530.632 16.6515 530.542Z" fill="#8A8F92"/>
</mask>
<g mask="url(#mask0_2130_2034)">
<rect x="-52.1748" y="330.621" width="390.817" height="337.1" transform="rotate(15 -52.1748 330.621)" fill="#61C9E2"/>
</g>
<mask id="mask1_2130_2034" style="mask-type:alpha" maskUnits="userSpaceOnUse" x="244" y="838" width="164" height="152">
<path d="M303.652 988.542C302.531 987.99 301.575 987.327 300.469 986.34C298.285 984.39 296.975 981.703 296.873 978.993C296.819 977.74 296.901 977.307 298.042 972.484C299.009 968.43 299.248 967.161 299.208 966.554C299.171 966.121 299.06 965.715 298.973 965.66C298.875 965.586 298.106 965.741 297.274 966.004C296.431 966.249 295.733 966.454 295.701 966.446C295.67 966.437 295.24 966.526 294.771 966.635C292.677 967.125 290.468 966.784 288.427 965.626C285.624 964.028 284.189 961.745 283.821 958.322C283.697 957.081 284.305 955.001 285.163 953.819C286.485 951.978 287.344 951.424 296.467 946.606C302.555 943.391 305.124 941.947 305.502 941.546C306.006 940.991 306.054 940.878 307.194 936.306C308.695 930.325 308.718 929.484 307.328 928.61C306.4 928.032 303.864 928.089 301.83 928.736C301.574 928.809 300.565 929.04 299.587 929.218C297.087 929.708 294.946 930.374 294.399 930.839C294.139 931.051 293.49 931.96 292.947 932.849C291.22 935.696 290.169 937.406 289.469 938.505C289.091 939.094 288.285 940.399 287.695 941.402C283.635 948.219 282.958 949.041 280.424 950.228C277.614 951.561 274.199 951.43 271.589 949.869C269.501 948.635 268.106 946.896 267.444 944.696C267.008 943.23 267.046 942.33 267.657 939.608C267.989 938.113 268.153 937.059 268.07 936.927C267.928 936.701 267.928 936.701 262.763 937.858C256.826 939.184 255.497 939.283 253.011 938.586C250.127 937.797 248.377 936.434 246.641 933.632C245.447 931.712 244.964 930.234 244.735 927.867C244.615 926.674 244.658 926.2 244.944 925.131C245.332 923.683 245.702 923.06 246.954 921.671C248.635 919.815 250.467 918.785 254.015 917.728C254.552 917.558 255.025 917.434 255.072 917.447C255.119 917.459 256.148 917.218 257.367 916.901C259.823 916.257 261.766 915.445 261.576 915.143C261.521 915.034 260.928 914.656 260.281 914.294C259.63 913.947 258.844 913.407 258.532 913.12C257.805 912.423 256.666 910.361 256.4 909.27C255.638 906.118 256.953 901.906 259.171 900.383C261.121 899.039 263.352 898.476 265.545 898.75C267.329 898.977 270.162 900.019 272.25 901.19C273.059 901.642 273.959 902.134 274.244 902.273C274.528 902.412 275.159 902.769 275.637 903.07C276.51 903.601 278.393 904.655 280.343 905.711C280.923 906.007 282.012 906.613 282.778 907.038C284.953 908.264 286.84 909.177 287.55 909.367C288.292 909.566 290.059 909.475 291.155 909.172C291.557 909.061 291.935 908.974 291.982 908.986C292.14 909.029 295.436 908.218 297.068 907.746C297.892 907.512 298.878 907.117 299.299 906.869C299.902 906.513 300.052 906.334 300.201 905.778C300.338 905.265 300.306 905.006 300.033 904.509C299.717 903.923 298.022 901.978 297.753 901.906C297.69 901.89 297.54 901.755 297.445 901.604C297.259 901.351 295.77 900.026 292.935 897.604C291.722 896.573 291.576 896.487 290.408 896.174C289.714 895.988 288.834 895.862 288.408 895.874C287.978 895.9 286.933 895.886 286.077 895.861C285.222 895.835 283.944 895.807 283.253 895.794C282.559 895.796 281.049 895.752 279.893 895.709C278.737 895.666 277.227 895.622 276.533 895.624C271.046 895.582 271.046 895.582 268.438 894.898C266.099 894.287 265.945 894.23 265.084 893.592C263.872 892.687 262.512 890.88 262.045 889.594C261.177 887.15 261.532 884.375 262.976 882.205C264.624 879.714 266.799 878.477 270.482 877.927C271.153 877.824 271.701 877.673 271.728 877.571C271.755 877.468 271.491 877.131 271.139 876.801C269.429 875.229 265.648 871.284 264.822 870.2C262.641 867.357 261.819 864.047 262.592 861.164C263.368 858.266 265.246 856.119 268.296 854.584C272.785 852.352 278.557 853.663 283.226 858.019C283.783 858.529 284.584 859.262 284.995 859.623C285.402 859.998 286.235 860.739 286.839 861.262C287.44 861.799 288.23 862.387 288.601 862.581C289.508 863.044 289.694 862.921 289.818 861.825C289.942 860.603 290.401 858.891 290.873 857.951C291.502 856.677 292.522 855.711 294.15 854.877C296.254 853.778 298.174 853.493 300.478 853.922C304.774 854.744 307.287 857.236 307.96 861.353C308.191 862.764 308.203 863.159 308.283 866.145C308.292 867.057 308.33 868.62 308.367 869.618C308.439 872.633 308.474 874.838 308.46 876.152C308.432 878.152 308.538 880.345 308.729 881.337C308.92 882.392 309.35 882.931 311.483 884.82C312.17 885.412 313.197 886.377 313.786 886.958C316.843 889.942 318.572 890.75 319.809 889.732C320.75 888.934 323.268 879.79 323.115 877.71C323.079 877.403 322.209 875.852 320.746 873.547C318.081 869.351 313.308 861.532 312.932 860.725C312.469 859.738 312.247 859.114 311.966 858.019C311.712 857.01 311.727 856.826 312.095 855.2C312.436 853.675 312.577 853.337 313.136 852.514C314.71 850.176 317.93 848.576 320.77 848.709C323.46 848.834 326.061 850.049 327.886 852.012C328.617 852.82 330.114 853.989 330.33 853.938C330.441 853.904 330.782 852.882 331.225 851.229C332.39 846.945 333.242 844.586 334.12 843.268C335.19 841.673 336.296 840.573 337.518 839.866C341.045 837.815 345.205 837.691 349.05 839.505C352.215 841.012 354.824 844.597 355.148 847.868C355.317 849.701 355.2 850.642 354.173 854.915C353.159 859.145 353.038 860.414 353.654 860.579C353.827 860.626 354.632 860.402 355.408 860.092C356.185 859.783 357.43 859.427 358.156 859.307C359.469 859.079 359.5 859.087 361.375 859.605C363.584 860.197 364.283 860.62 365.855 862.264C368.158 864.654 368.869 867.369 367.899 870.042C367.392 871.491 366.224 873.326 365.432 873.945C364.912 874.371 360.503 877 358.84 877.904C351.368 881.924 347.239 884.268 346.675 884.792L345.998 885.426L344.759 890.113C343.528 894.708 343.516 894.814 343.648 895.838C343.808 897.198 344.195 897.647 345.41 897.973C346.172 898.161 346.594 898.164 347.998 897.913C348.92 897.752 350.083 897.515 350.568 897.41C351.073 897.294 352.047 897.069 352.737 896.893C353.438 896.736 354.393 896.521 354.874 896.43C355.343 896.321 356.245 895.982 356.872 895.664C358.09 895.034 358.318 894.75 360.009 891.847C360.391 891.18 361.024 890.142 361.386 889.549C362.106 888.378 362.968 886.93 364.47 884.416C366.295 881.329 367.944 878.963 369.318 877.496C370.712 876.019 373.538 874.878 375.609 874.978C379.116 875.15 382.499 877.358 383.947 880.412C384.873 882.386 384.923 883.716 384.174 886.637C383.657 888.631 383.641 889.066 384.083 889.248C384.525 889.429 385.361 889.276 391.169 887.931C394.831 887.077 396.669 886.974 398.729 887.494C401.179 888.135 403.007 889.393 404.872 891.712C407.504 895.021 407.94 898.573 406.119 902.21C405.549 903.327 404.305 904.939 403.541 905.518C401.288 907.236 400.657 907.506 395.694 908.858C391.444 910.009 390.013 910.551 390.006 911.02C389.998 911.175 390.378 911.527 390.958 911.887C393.378 913.46 395.343 916.481 395.433 918.795C395.499 920.193 394.678 922.623 393.745 923.769C392.773 924.999 391.67 925.958 390.602 926.534C389.534 927.111 387.315 927.504 385.839 927.391C384.593 927.308 382.371 926.572 380.378 925.614C379.557 925.206 378.247 924.604 377.457 924.267C376.668 923.93 375.48 923.376 374.825 923.044C374.173 922.697 373.333 922.299 372.954 922.135C372.571 921.985 371.497 921.447 370.566 920.946C367.219 919.171 366.37 918.802 364.587 918.324C362.957 917.903 362.776 917.886 361.695 918.067C361.06 918.164 360.02 918.387 359.365 918.556C358.711 918.726 357.788 918.949 357.287 919.051C354.464 919.612 352.017 920.665 351.588 921.507C351.313 922.029 351.353 922.322 351.764 923.123C352.282 924.093 355.178 926.986 358.357 929.704C359.913 931.031 360.13 931.168 361.046 931.413C361.598 931.561 362.612 931.691 363.306 931.689C367.928 931.736 368.871 931.753 369.684 931.814C370.181 931.853 371.321 931.892 372.2 931.892C379.114 931.91 381.954 932.106 383.745 932.68C387.581 933.896 389.987 936.847 390.064 940.412C390.107 942.839 388.98 945.658 387.448 946.957C386.42 947.826 384.236 948.715 382 949.167C379.513 949.677 379.438 949.704 379.92 950.241C380.113 950.465 380.5 950.851 380.761 951.078C381.018 951.319 381.717 951.993 382.302 952.589C382.89 953.17 383.886 954.127 384.525 954.706C388.084 958.028 389.599 961.022 389.368 964.222C389.194 966.575 387.869 969.121 385.695 971.237C384.66 972.261 382.228 973.57 380.813 973.865C377.659 974.526 373.863 973.54 370.882 971.282C370.266 970.804 369.693 970.352 369.618 970.254C369.559 970.159 368.875 969.553 368.121 968.896C367.363 968.254 366.604 967.548 366.419 967.358C365.617 966.5 363.915 965.275 363.197 965.051C362.451 964.804 362.451 964.804 362.365 965.252C361.641 969.026 361.665 968.938 360.886 970.078C359.516 972.033 357.534 973.117 354.202 973.683L352.728 973.946L350.676 973.397C348.636 972.866 348.604 972.857 347.649 972.068C346.539 971.159 344.906 968.73 344.553 967.459C344.176 966.087 343.837 963.314 343.834 961.306C343.836 960.224 343.81 958.743 343.789 958C343.755 956.36 343.739 953.58 343.778 950.783C343.827 946.812 343.556 945.234 342.659 944.162C342.43 943.881 341.565 943.069 340.728 942.343C339.906 941.621 339.002 940.83 338.749 940.574C338.496 940.318 337.548 939.499 336.648 938.756C335.277 937.62 334.875 937.355 334.164 937.165C333.253 936.905 332.78 937.029 332.095 937.693C331.772 938.014 331.544 938.737 330.403 942.807C328.987 947.839 328.803 948.903 329.168 950.005C329.267 950.329 331.418 953.917 333.925 957.945C339.37 966.666 339.714 967.276 340.142 969.022C340.369 969.945 340.3 971.401 339.963 972.659C339.182 975.508 336.548 977.892 333.291 978.682C330.117 979.479 327.726 978.744 324.942 976.131C323.022 974.331 322.248 973.684 322.023 973.702C321.85 973.719 321.575 974.555 320.732 977.575C319.524 981.957 319.272 982.705 318.399 984.196C317.695 985.435 316.735 986.495 315.415 987.506C313.816 988.74 311.155 989.643 308.962 989.682C307.838 989.711 307.349 989.642 305.79 989.209C304.784 988.924 303.813 988.632 303.652 988.542Z" fill="#8A8F92"/>
</mask>
<g mask="url(#mask1_2130_2034)">
<rect x="234.825" y="788.621" width="390.817" height="337.1" transform="rotate(15 234.825 788.621)" fill="#61C9E2"/>
</g>
<mask id="mask2_2130_2034" style="mask-type:alpha" maskUnits="userSpaceOnUse" x="-43" y="1148" width="164" height="152">
<path d="M16.6515 1298.54C15.5306 1297.99 14.5751 1297.33 13.4692 1296.34C11.2851 1294.39 9.97542 1291.7 9.87256 1288.99C9.81932 1287.74 9.90147 1287.31 11.0416 1282.48C12.0094 1278.43 12.248 1277.16 12.2076 1276.55C12.1714 1276.12 12.0603 1275.71 11.9735 1275.66C11.8748 1275.59 11.1059 1275.74 10.2742 1276C9.43054 1276.25 8.73277 1276.45 8.7012 1276.45C8.66964 1276.44 8.23988 1276.53 7.77072 1276.64C5.67722 1277.13 3.46804 1276.78 1.42717 1275.63C-1.37559 1274.03 -2.81085 1271.75 -3.17907 1268.32C-3.30328 1267.08 -2.69523 1265 -1.83729 1263.82C-0.515 1261.98 0.343923 1261.42 9.46673 1256.61C15.5552 1253.39 18.1244 1251.95 18.5024 1251.55C19.0064 1250.99 19.0535 1250.88 20.194 1246.31C21.6952 1240.32 21.7175 1239.48 20.3279 1238.61C19.4001 1238.03 16.8642 1238.09 14.8301 1238.74C14.5739 1238.81 13.5646 1239.04 12.5867 1239.22C10.087 1239.71 7.94646 1240.37 7.39897 1240.84C7.139 1241.05 6.48966 1241.96 5.94679 1242.85C4.21984 1245.7 3.16948 1247.41 2.46917 1248.5C2.09147 1249.09 1.285 1250.4 0.694974 1251.4C-3.36453 1258.22 -4.04161 1259.04 -6.57574 1260.23C-9.38572 1261.56 -12.8014 1261.43 -15.4109 1259.87C-17.4992 1258.63 -18.8942 1256.9 -19.5563 1254.7C-19.9924 1253.23 -19.9544 1252.33 -19.3434 1249.61C-19.0105 1248.11 -18.8465 1247.06 -18.9295 1246.93C-19.0719 1246.7 -19.0719 1246.7 -24.2367 1247.86C-30.1743 1249.18 -31.5033 1249.28 -33.9891 1248.59C-36.8734 1247.8 -38.6227 1246.43 -40.3586 1243.63C-41.5527 1241.71 -42.0362 1240.23 -42.2647 1237.87C-42.3849 1236.67 -42.3422 1236.2 -42.056 1235.13C-41.6678 1233.68 -41.2981 1233.06 -40.0461 1231.67C-38.3649 1229.82 -36.5325 1228.79 -32.9846 1227.73C-32.4485 1227.56 -31.9754 1227.43 -31.928 1227.45C-31.8807 1227.46 -30.8517 1227.22 -29.6335 1226.9C-27.1774 1226.26 -25.2343 1225.44 -25.424 1225.14C-25.4794 1225.03 -26.0716 1224.66 -26.719 1224.29C-27.3703 1223.95 -28.156 1223.41 -28.468 1223.12C-29.1948 1222.42 -30.334 1220.36 -30.5999 1219.27C-31.3621 1216.12 -30.0475 1211.91 -27.8294 1210.38C-25.8792 1209.04 -23.6478 1208.48 -21.4545 1208.75C-19.6715 1208.98 -16.838 1210.02 -14.7498 1211.19C-13.9406 1211.64 -13.0406 1212.13 -12.7564 1212.27C-12.4722 1212.41 -11.8406 1212.77 -11.3629 1213.07C-10.4904 1213.6 -8.6075 1214.65 -6.6575 1215.71C-6.07726 1216.01 -4.98777 1216.61 -4.22196 1217.04C-2.04689 1218.26 -0.160219 1219.18 0.550001 1219.37C1.29179 1219.57 3.05856 1219.47 4.15452 1219.17C4.55663 1219.06 4.93512 1218.97 4.98247 1218.99C5.14029 1219.03 8.43621 1218.22 10.0683 1217.75C10.8922 1217.51 11.8776 1217.12 12.2992 1216.87C12.9021 1216.51 13.0517 1216.33 13.2007 1215.78C13.3379 1215.27 13.306 1215.01 13.033 1214.51C12.7166 1213.92 11.0216 1211.98 10.7533 1211.91C10.6901 1211.89 10.54 1211.76 10.4452 1211.6C10.2594 1211.35 8.77041 1210.03 5.93481 1207.6C4.72238 1206.57 4.57632 1206.49 3.4084 1206.17C2.71397 1205.99 1.83425 1205.86 1.40832 1205.87C0.978463 1205.9 -0.0667193 1205.89 -0.922609 1205.86C-1.7785 1205.84 -3.0564 1205.81 -3.74662 1205.79C-4.44076 1205.8 -5.95139 1205.75 -7.10705 1205.71C-8.26271 1205.67 -9.77333 1205.62 -10.4675 1205.62C-15.9537 1205.58 -15.9537 1205.58 -18.5617 1204.9C-20.9015 1204.29 -21.0554 1204.23 -21.9162 1203.59C-23.1284 1202.69 -24.488 1200.88 -24.9554 1199.59C-25.823 1197.15 -25.4684 1194.37 -24.0244 1192.2C-22.3758 1189.71 -20.2006 1188.48 -16.5178 1187.93C-15.8475 1187.82 -15.2995 1187.67 -15.272 1187.57C-15.2446 1187.47 -15.5094 1187.13 -15.8609 1186.8C-17.5711 1185.23 -21.3517 1181.28 -22.1777 1180.2C-24.3593 1177.36 -25.1809 1174.05 -24.4084 1171.16C-23.6321 1168.27 -21.7542 1166.12 -18.7039 1164.58C-14.2152 1162.35 -8.44306 1163.66 -3.7744 1168.02C-3.2175 1168.53 -2.41571 1169.26 -2.00497 1169.62C-1.59815 1170 -0.764798 1170.74 -0.160544 1171.26C0.439789 1171.8 1.22951 1172.39 1.60055 1172.58C2.5084 1173.04 2.69358 1172.92 2.81806 1171.82C2.94235 1170.6 3.40111 1168.89 3.87292 1167.95C4.50196 1166.68 5.52194 1165.71 7.1495 1164.88C9.25388 1163.78 11.1742 1163.49 13.4781 1163.92C17.7744 1164.74 20.2867 1167.24 20.9598 1171.35C21.1907 1172.76 21.2032 1173.16 21.2828 1176.15C21.2921 1177.06 21.3301 1178.62 21.3671 1179.62C21.4389 1182.63 21.4739 1184.84 21.4602 1186.15C21.4318 1188.15 21.5378 1190.34 21.7287 1191.34C21.9196 1192.39 22.3504 1192.93 24.4831 1194.82C25.1703 1195.41 26.1973 1196.38 26.7858 1196.96C29.8432 1199.94 31.5719 1200.75 32.8087 1199.73C33.7501 1198.93 36.2678 1189.79 36.1147 1187.71C36.0787 1187.4 35.2086 1185.85 33.7457 1183.55C31.0808 1179.35 26.3081 1171.53 25.9322 1170.73C25.4692 1169.74 25.2473 1169.11 24.9656 1168.02C24.7116 1167.01 24.7271 1166.83 25.0952 1165.2C25.436 1163.68 25.5774 1163.34 26.1362 1162.51C27.7101 1160.18 30.9299 1158.58 33.7697 1158.71C36.4598 1158.83 39.0608 1160.05 40.886 1162.01C41.6169 1162.82 43.1135 1163.99 43.3303 1163.94C43.4407 1163.9 43.7822 1162.88 44.2253 1161.23C45.39 1156.95 46.2421 1154.59 47.1195 1153.27C48.1898 1151.67 49.2964 1150.57 50.5179 1149.87C54.0445 1147.81 58.2053 1147.69 62.0496 1149.51C65.2151 1151.01 67.8237 1154.6 68.1483 1157.87C68.3169 1159.7 68.2 1160.64 67.1734 1164.92C66.1585 1169.14 66.0383 1170.41 66.6538 1170.58C66.8274 1170.63 67.6316 1170.4 68.4081 1170.09C69.1846 1169.78 70.4303 1169.43 71.1559 1169.31C72.4688 1169.08 72.5004 1169.09 74.3746 1169.61C76.5842 1170.2 77.283 1170.62 78.8553 1172.26C81.1584 1174.65 81.8686 1177.37 80.8986 1180.04C80.3921 1181.49 79.2236 1183.33 78.4319 1183.95C77.9119 1184.37 73.5027 1187 71.8398 1187.9C64.3682 1191.92 60.2386 1194.27 59.6754 1194.79L58.9981 1195.43L57.7591 1200.11C56.5279 1204.71 56.5163 1204.81 56.648 1205.84C56.8079 1207.2 57.1951 1207.65 58.4104 1207.97C59.1719 1208.16 59.5939 1208.16 60.9976 1207.91C61.9202 1207.75 63.0833 1207.52 63.5683 1207.41C64.0729 1207.29 65.0467 1207.07 65.7367 1206.89C66.4385 1206.74 67.3926 1206.52 67.8736 1206.43C68.3428 1206.32 69.2454 1205.98 69.872 1205.66C71.0897 1205.03 71.318 1204.75 73.0094 1201.85C73.3909 1201.18 74.0243 1200.14 74.3862 1199.55C75.1061 1198.38 75.9675 1196.93 77.4702 1194.42C79.2954 1191.33 80.9442 1188.96 82.3184 1187.5C83.7122 1186.02 86.5383 1184.88 88.609 1184.98C92.1155 1185.15 95.499 1187.36 96.9473 1190.41C97.8733 1192.39 97.9227 1193.72 97.174 1196.64C96.6565 1198.63 96.6414 1199.07 97.0834 1199.25C97.5255 1199.43 98.3614 1199.28 104.169 1197.93C107.831 1197.08 109.669 1196.97 111.729 1197.49C114.179 1198.13 116.007 1199.39 117.872 1201.71C120.504 1205.02 120.94 1208.57 119.119 1212.21C118.549 1213.33 117.305 1214.94 116.541 1215.52C114.288 1217.24 113.657 1217.51 108.694 1218.86C104.444 1220.01 103.013 1220.55 103.006 1221.02C102.998 1221.17 103.378 1221.53 103.958 1221.89C106.378 1223.46 108.343 1226.48 108.433 1228.79C108.499 1230.19 107.678 1232.62 106.745 1233.77C105.773 1235 104.67 1235.96 103.602 1236.53C102.534 1237.11 100.315 1237.5 98.8393 1237.39C97.5928 1237.31 95.3712 1236.57 93.378 1235.61C92.557 1235.21 91.2466 1234.6 90.4573 1234.27C89.668 1233.93 88.48 1233.38 87.8247 1233.04C87.1734 1232.7 86.3327 1232.3 85.9538 1232.13C85.571 1231.99 84.4974 1231.45 83.5659 1230.95C80.2186 1229.17 79.37 1228.8 77.5866 1228.32C75.957 1227.9 75.7756 1227.89 74.6952 1228.07C74.0604 1228.16 73.0195 1228.39 72.3651 1228.56C71.7106 1228.73 70.7881 1228.95 70.2874 1229.05C67.4643 1229.61 65.0168 1230.67 64.5882 1231.51C64.3129 1232.03 64.3528 1232.32 64.7643 1233.12C65.2824 1234.09 68.1779 1236.99 71.3571 1239.7C72.9132 1241.03 73.1303 1241.17 74.0457 1241.41C74.5981 1241.56 75.6119 1241.69 76.306 1241.69C80.9285 1241.74 81.8711 1241.75 82.6837 1241.81C83.1807 1241.85 84.3206 1241.89 85.2001 1241.89C92.114 1241.91 94.954 1242.11 96.7454 1242.68C100.581 1243.9 102.987 1246.85 103.064 1250.41C103.107 1252.84 101.98 1255.66 100.448 1256.96C99.4196 1257.83 97.236 1258.72 95.0005 1259.17C92.5126 1259.68 92.4377 1259.7 92.9197 1260.24C93.1133 1260.47 93.5005 1260.85 93.7611 1261.08C94.0179 1261.32 94.717 1261.99 95.3017 1262.59C95.8902 1263.17 96.8856 1264.13 97.5255 1264.71C101.084 1268.03 102.599 1271.02 102.368 1274.22C102.194 1276.57 100.869 1279.12 98.6952 1281.24C97.6595 1282.26 95.2281 1283.57 93.8127 1283.87C90.6585 1284.53 86.8628 1283.54 83.8816 1281.28C83.2655 1280.8 82.693 1280.35 82.6179 1280.25C82.5586 1280.16 81.8753 1279.55 81.121 1278.9C80.3627 1278.25 79.6043 1277.55 79.4187 1277.36C78.6167 1276.5 76.9149 1275.28 76.1967 1275.05C75.4509 1274.8 75.4509 1274.8 75.3649 1275.25C74.6412 1279.03 74.6647 1278.94 73.8856 1280.08C72.5161 1282.03 70.534 1283.12 67.2022 1283.68L65.7275 1283.95L63.6758 1283.4C61.6359 1282.87 61.6043 1282.86 60.6487 1282.07C59.539 1281.16 57.9063 1278.73 57.5533 1277.46C57.1764 1276.09 56.8368 1273.31 56.8337 1271.31C56.8359 1270.22 56.8099 1268.74 56.789 1268C56.7549 1266.36 56.7387 1263.58 56.7777 1260.78C56.8267 1256.81 56.556 1255.23 55.659 1254.16C55.4298 1253.88 54.5648 1253.07 53.7276 1252.34C52.9061 1251.62 52.0017 1250.83 51.7488 1250.57C51.496 1250.32 50.5482 1249.5 49.6478 1248.76C48.2774 1247.62 47.8747 1247.36 47.1645 1247.17C46.253 1246.91 45.7799 1247.03 45.0947 1247.69C44.7718 1248.01 44.5442 1248.74 43.4029 1252.81C41.987 1257.84 41.8033 1258.9 42.1679 1260C42.267 1260.33 44.4182 1263.92 46.925 1267.95C52.3696 1276.67 52.7137 1277.28 53.1424 1279.02C53.3686 1279.94 53.2999 1281.4 52.9627 1282.66C52.1823 1285.51 49.5475 1287.89 46.291 1288.68C43.1174 1289.48 40.7261 1288.74 37.9415 1286.13C36.0219 1284.33 35.2478 1283.68 35.0231 1283.7C34.8496 1283.72 34.5748 1284.55 33.7316 1287.58C32.5237 1291.96 32.2725 1292.71 31.3992 1294.2C30.6952 1295.44 29.7345 1296.5 28.4149 1297.51C26.8155 1298.74 24.1548 1299.64 21.962 1299.68C20.838 1299.71 20.3488 1299.64 18.7902 1299.21C17.7841 1298.92 16.8134 1298.63 16.6515 1298.54Z" fill="#8A8F92"/>
</mask>
<g mask="url(#mask2_2130_2034)">
<rect x="-52.1748" y="1098.62" width="390.817" height="337.1" transform="rotate(15 -52.1748 1098.62)" fill="#61C9E2"/>
</g>
</g>
<defs>
<clipPath id="clip0_2130_2034">
<rect width="569" height="1715" fill="white"/>
</clipPath>
</defs>
</svg>
