<svg width="1920" height="821" viewBox="0 0 1920 821" fill="none" xmlns="http://www.w3.org/2000/svg">
<g clip-path="url(#clip0_2114_1355)">
<path d="M0 -203H1920V752.762L1836 782.89C1710.74 827.813 1574.5 832.022 1446.72 794.917C1351.28 767.205 1250.65 762.409 1153.01 780.919L1087.69 793.301C1005.24 808.931 920.843 811.491 837.595 800.886L708.718 784.468C629.177 774.335 548.412 780.27 471.207 801.92C354.874 834.543 231.395 831.236 116.975 792.432L0 752.762V-203Z" fill="#01AED8"/>
<mask id="mask0_2114_1355" style="mask-type:alpha" maskUnits="userSpaceOnUse" x="389" y="518" width="163" height="165">
<path d="M405.89 542.803C406.873 542.066 407.902 541.534 409.306 541.026C412.082 540.024 415.237 540.177 417.937 541.429C419.189 542.003 419.581 542.292 423.867 545.714C427.465 548.599 428.616 549.445 429.228 549.709C429.668 549.892 430.11 549.993 430.198 549.942C430.309 549.889 430.46 549.119 430.53 548.238C430.623 547.356 430.696 546.625 430.717 546.601C430.738 546.576 430.82 546.145 430.898 545.667C431.242 543.536 432.448 541.713 434.391 540.447C437.065 538.712 439.871 538.551 443.378 539.918C444.645 540.422 446.447 542.003 447.269 543.363C448.555 545.47 448.76 546.519 449.891 557.139C450.647 564.226 451.051 567.26 451.296 567.8C451.642 568.53 451.734 568.628 455.773 571.926C461.052 576.249 461.869 576.687 463.276 575.867C464.209 575.317 465.152 573.002 465.319 570.846C465.349 570.579 465.52 569.554 465.732 568.584C466.236 566.086 466.427 563.825 466.186 563.1C466.08 562.76 465.444 561.724 464.785 560.792C462.672 557.822 461.407 556.026 460.605 554.849C460.175 554.216 459.212 552.84 458.461 551.811C453.369 544.766 452.829 543.747 452.663 540.872C452.462 537.676 453.938 534.66 456.5 533.082C458.535 531.811 460.792 531.416 463.213 531.911C464.824 532.245 465.692 532.726 468.124 534.628C469.46 535.67 470.43 536.341 470.592 536.332C470.871 536.316 470.871 536.316 471.772 531.083C472.811 525.07 473.239 523.822 474.904 521.926C476.815 519.716 478.843 518.815 482.278 518.64C484.634 518.516 486.276 518.814 488.689 519.783C489.908 520.266 490.357 520.54 491.293 521.329C492.562 522.398 493.027 523.04 493.898 524.859C495.056 527.297 495.345 529.461 494.983 533.185C494.939 533.753 494.874 534.241 494.843 534.278C494.812 534.314 494.643 535.362 494.474 536.618C494.137 539.153 494.168 541.309 494.539 541.287C494.668 541.292 495.273 540.945 495.883 540.541C496.481 540.126 497.321 539.685 497.726 539.546C498.697 539.237 501.17 539.233 502.346 539.534C505.742 540.412 509.358 543.688 509.978 546.444C510.528 548.87 510.201 551.162 509.067 553.004C508.141 554.5 506.001 556.539 504.028 557.841C503.265 558.346 502.427 558.913 502.178 559.101C501.93 559.288 501.33 559.68 500.846 559.962C499.98 560.485 498.204 561.66 496.398 562.895C495.878 563.271 494.854 563.953 494.135 564.433C492.074 565.786 490.433 567.035 489.966 567.581C489.478 568.151 488.871 569.79 488.736 570.928C488.687 571.347 488.623 571.731 488.592 571.767C488.488 571.889 487.984 575.264 487.804 576.97C487.709 577.83 487.708 578.914 487.785 579.417C487.897 580.138 488.014 580.362 488.501 580.772C488.95 581.15 489.217 581.25 489.812 581.251C490.513 581.257 493.09 580.693 493.266 580.486C493.308 580.438 493.499 580.369 493.684 580.359C494.007 580.317 495.894 579.631 499.39 578.276C500.88 577.694 501.023 577.605 501.79 576.707C502.247 576.173 502.717 575.442 502.874 575.053C503.018 574.652 503.444 573.716 503.806 572.957C504.169 572.197 504.701 571.059 504.985 570.443C505.257 569.816 505.896 568.475 506.394 567.454C506.892 566.433 507.531 565.092 507.802 564.465C510.008 559.538 510.008 559.538 511.707 557.525C513.23 555.718 513.347 555.608 514.313 555.148C515.679 554.504 517.99 554.175 519.436 554.392C522.178 554.822 524.762 556.52 526.323 558.899C528.118 561.623 528.474 564.198 527.562 567.793C527.399 568.448 527.331 569.018 527.421 569.093C527.51 569.169 527.946 569.098 528.408 568.944C530.626 568.182 535.99 566.731 537.38 566.524C541.032 565.967 544.605 566.869 547.131 568.997C549.669 571.135 551.036 573.895 551.341 577.408C551.762 582.564 548.198 587.119 542.08 589.168C541.36 589.417 540.324 589.777 539.808 589.968C539.279 590.148 538.223 590.532 537.471 590.818C536.707 591.092 535.819 591.513 535.482 591.751C534.67 592.341 534.717 592.569 535.744 593.225C536.894 593.943 538.394 595.207 539.131 596.099C540.134 597.299 540.68 598.698 540.857 600.58C541.106 603.023 540.628 604.897 539.299 606.762C536.797 610.229 533.36 611.258 529.053 609.821C527.577 609.329 527.183 609.144 524.221 607.734C523.322 607.29 521.773 606.548 520.778 606.086C517.79 604.654 515.611 603.591 514.327 602.927C512.375 601.909 510.181 600.916 509.131 600.595C508.02 600.244 507.321 600.365 504.626 601.351C503.774 601.677 502.421 602.124 501.618 602.366C497.484 603.643 496.008 604.801 496.519 606.421C496.932 607.667 504.916 614.476 507.018 615.371C507.334 615.491 509.2 615.476 512.04 615.301C517.21 614.98 526.768 614.556 527.708 614.618C528.859 614.69 529.56 614.799 530.746 615.089C531.836 615.361 532.011 615.466 533.463 616.605C534.825 617.669 535.101 617.965 535.688 618.877C537.364 621.458 537.664 625.156 536.413 627.651C535.23 630.015 533.012 631.758 530.364 632.43C529.283 632.688 527.545 633.457 527.51 633.678C527.499 633.794 528.368 634.61 529.816 635.83C533.562 639.007 535.542 640.947 536.49 642.392C537.634 644.149 538.277 645.693 538.49 647.146C539.112 651.345 537.593 655.159 534.296 657.725C531.568 659.832 527.02 660.406 523.681 659.075C521.815 658.317 520.938 657.745 517.147 654.698C513.395 651.683 512.197 650.944 511.792 651.418C511.678 651.551 511.58 652.387 511.578 653.241C511.575 654.095 511.434 655.396 511.265 656.109C510.971 657.407 510.951 657.431 509.703 658.865C508.25 660.564 507.56 660.984 505.326 661.586C502.072 662.477 499.126 661.77 496.884 659.568C495.662 658.392 494.321 656.427 494.025 655.406C493.813 654.726 492.97 649.444 492.739 647.496C491.738 638.761 491.066 633.873 490.774 633.105L490.419 632.18L486.306 628.736C482.281 625.345 482.181 625.281 481.124 624.892C479.726 624.361 479.132 624.487 478.333 625.422C477.848 626.015 477.679 626.394 477.372 627.785C477.165 628.697 476.94 629.864 476.852 630.353C476.766 630.866 476.603 631.856 476.504 632.565C476.381 633.276 476.216 634.244 476.115 634.722C476.038 635.2 476.014 636.182 476.08 636.905C476.218 638.316 476.407 638.663 478.59 641.63C479.094 642.305 479.863 643.391 480.302 644.012C481.169 645.243 482.25 646.738 484.126 649.341C486.436 652.52 488.109 655.181 489.007 657.149C489.907 659.139 489.912 662.254 488.997 664.072C487.447 667.15 483.944 669.105 480.375 668.895C478.072 668.751 476.746 668.135 474.174 666.01C472.421 664.553 471.999 664.324 471.647 664.633C471.295 664.941 471.115 665.771 470.146 671.677C469.539 675.404 468.916 677.113 467.593 678.712C465.997 680.604 464.041 681.628 461.029 682.159C456.743 682.89 453.084 681.52 450.232 678.073C449.359 677.004 448.268 675.082 448 674.105C447.203 671.221 447.186 670.518 447.817 665.37C448.362 660.966 448.395 659.406 447.938 659.167C447.789 659.084 447.293 659.25 446.711 659.596C444.212 660.997 440.472 661.27 438.164 660.203C436.767 659.568 434.704 657.622 433.947 656.211C433.123 654.724 432.616 653.253 432.472 652.004C432.327 650.755 432.816 648.557 433.509 647.283C434.082 646.2 435.681 644.562 437.407 643.239C438.132 642.702 439.24 641.819 439.882 641.274C440.524 640.729 441.536 639.933 442.121 639.507C442.718 639.091 443.44 638.531 443.751 638.27C444.049 637.999 445.001 637.299 445.86 636.707C448.922 634.569 449.619 633.987 450.791 632.615C451.847 631.354 451.936 631.199 452.184 630.135C452.34 629.515 452.531 628.465 452.623 627.791C452.714 627.116 452.859 626.173 452.957 625.672C453.52 622.847 453.45 620.116 452.793 619.312C452.389 618.804 452.086 618.695 451.138 618.669C449.981 618.655 445.999 619.83 442.076 621.348C440.16 622.093 439.941 622.221 439.339 622.925C438.976 623.35 438.448 624.199 438.176 624.826C436.307 628.972 435.919 629.814 435.538 630.517C435.304 630.946 434.816 631.954 434.469 632.747C431.725 638.974 430.413 641.438 429.142 642.769C426.436 645.625 422.591 646.331 419.06 644.63C416.661 643.465 414.338 641.049 413.667 639.022C413.219 637.663 413.207 635.252 413.645 633.012C414.126 630.515 414.129 630.434 413.412 630.602C413.115 630.665 412.584 630.823 412.258 630.946C411.92 631.057 410.983 631.354 410.168 631.585C409.365 631.828 408.033 632.25 407.212 632.54C402.548 634.101 399.011 633.981 395.961 632.184C393.719 630.859 391.742 628.4 390.522 625.39C389.925 623.947 389.599 621.104 389.868 619.681C390.463 616.509 392.928 613.575 396.32 612.006C397.033 611.688 397.702 611.396 397.828 611.377C397.944 611.37 398.809 611.055 399.751 610.701C400.681 610.336 401.672 610.002 401.933 609.929C403.091 609.632 404.964 608.705 405.467 608.168C406.004 607.618 406.004 607.618 405.599 607.318C402.179 604.792 402.256 604.857 401.444 603.588C400.065 601.383 399.783 599.057 400.541 595.771L400.864 594.31L402.213 592.733C403.538 591.157 403.559 591.132 404.711 590.662C406.041 590.112 409.07 589.846 410.457 590.158C411.952 590.499 414.808 591.569 416.781 592.563C417.842 593.102 419.306 593.814 420.043 594.164C421.667 594.947 424.403 596.313 427.133 597.736C431.012 599.751 432.668 600.291 434.074 600.013C434.44 599.946 435.579 599.569 436.622 599.174C437.654 598.792 438.788 598.369 439.139 598.268C439.49 598.167 440.667 597.718 441.752 597.275C443.407 596.603 443.826 596.371 444.293 595.825C444.908 595.132 444.972 594.644 444.591 593.696C444.403 593.246 443.783 592.682 440.238 589.632C435.856 585.857 434.884 585.163 433.659 584.945C433.301 584.874 428.931 585.033 423.988 585.295C413.279 585.877 412.545 585.884 410.662 585.404C409.666 585.15 408.264 584.365 407.162 583.437C404.672 581.318 403.371 577.759 403.88 574.43C404.35 571.172 406.014 569.38 409.677 568.165C412.202 567.328 413.142 566.95 413.212 566.739C413.265 566.574 412.553 565.911 409.92 563.651C406.095 560.387 405.459 559.789 404.34 558.261C403.401 557.012 402.739 555.619 402.267 553.927C401.687 551.872 401.85 549.024 402.676 547.027C403.091 545.999 403.351 545.592 404.391 544.401C405.068 543.635 405.737 542.904 405.89 542.803Z" fill="#8A8F92"/>
</mask>
<g mask="url(#mask0_2114_1355)">
<rect x="629.284" y="584.297" width="383.267" height="374.322" transform="rotate(130.322 629.284 584.297)" fill="#61C9E2"/>
</g>
<mask id="mask1_2114_1355" style="mask-type:alpha" maskUnits="userSpaceOnUse" x="1437" y="18" width="164" height="152">
<path d="M1496.51 168.459C1495.39 167.914 1494.44 167.256 1493.33 166.278C1491.16 164.345 1489.86 161.677 1489.76 158.984C1489.71 157.738 1489.79 157.307 1490.94 152.51C1491.92 148.478 1492.16 147.216 1492.12 146.613C1492.09 146.183 1491.98 145.779 1491.89 145.725C1491.79 145.652 1491.02 145.808 1490.19 146.071C1489.35 146.316 1488.65 146.522 1488.62 146.514C1488.59 146.505 1488.16 146.595 1487.69 146.705C1485.6 147.196 1483.39 146.863 1481.36 145.716C1478.56 144.134 1477.14 141.869 1476.78 138.466C1476.65 137.233 1477.27 135.164 1478.13 133.987C1479.45 132.154 1480.31 131.601 1489.43 126.791C1495.52 123.581 1498.09 122.139 1498.47 121.74C1498.97 121.187 1499.02 121.075 1500.17 116.527C1501.68 110.578 1501.7 109.742 1500.32 108.876C1499.39 108.304 1496.86 108.367 1494.83 109.015C1494.57 109.088 1493.56 109.32 1492.59 109.499C1490.09 109.992 1487.95 110.659 1487.4 111.122C1487.14 111.334 1486.49 112.239 1485.95 113.124C1484.22 115.958 1483.16 117.661 1482.46 118.754C1482.08 119.34 1481.28 120.64 1480.68 121.638C1476.61 128.424 1475.94 129.243 1473.4 130.429C1470.59 131.761 1467.18 131.638 1464.58 130.092C1462.5 128.87 1461.11 127.146 1460.45 124.96C1460.02 123.504 1460.06 122.609 1460.68 119.902C1461.01 118.415 1461.18 117.367 1461.1 117.236C1460.96 117.012 1460.96 117.012 1455.8 118.174C1449.86 119.506 1448.54 119.607 1446.06 118.92C1443.18 118.143 1441.43 116.792 1439.71 114.011C1438.52 112.105 1438.04 110.637 1437.82 108.285C1437.7 107.099 1437.74 106.627 1438.03 105.565C1438.42 104.124 1438.79 103.504 1440.05 102.12C1441.73 100.272 1443.56 99.2434 1447.11 98.1845C1447.64 98.0142 1448.12 97.8897 1448.16 97.9022C1448.21 97.9147 1449.24 97.6719 1450.46 97.3543C1452.91 96.7087 1454.85 95.8965 1454.66 95.5969C1454.61 95.4888 1454.02 95.1142 1453.37 94.7561C1452.72 94.4127 1451.94 93.8779 1451.63 93.5928C1450.91 92.902 1449.77 90.8552 1449.51 89.7716C1448.76 86.6393 1450.08 82.4495 1452.3 80.9304C1454.25 79.59 1456.48 79.0254 1458.67 79.2926C1460.45 79.5139 1463.27 80.5426 1465.36 81.702C1466.16 82.1495 1467.06 82.6365 1467.34 82.7739C1467.63 82.9113 1468.26 83.2651 1468.73 83.5628C1469.6 84.0893 1471.48 85.1321 1473.43 86.177C1474.01 86.4705 1475.09 87.0699 1475.86 87.4904C1478.02 88.7038 1479.91 89.6073 1480.62 89.7948C1481.36 89.9906 1483.12 89.8958 1484.22 89.5927C1484.62 89.4806 1485 89.3935 1485.04 89.406C1485.2 89.4476 1488.49 88.634 1490.12 88.1606C1490.95 87.926 1491.93 87.5314 1492.35 87.2841C1492.96 86.9288 1493.11 86.75 1493.26 86.1969C1493.39 85.6875 1493.36 85.4296 1493.09 84.9366C1492.78 84.3541 1491.09 82.4255 1490.82 82.3547C1490.76 82.338 1490.61 82.2049 1490.51 82.0551C1490.33 81.8034 1488.85 80.4904 1486.02 78.0892C1484.81 77.0675 1484.67 76.9822 1483.5 76.6739C1482.81 76.4905 1481.93 76.3674 1481.5 76.3797C1481.08 76.4065 1480.03 76.3956 1479.18 76.3723C1478.32 76.349 1477.05 76.3235 1476.36 76.3127C1475.66 76.3166 1474.16 76.2763 1473 76.2363C1471.85 76.1962 1470.34 76.156 1469.65 76.1598C1464.17 76.1301 1464.17 76.1301 1461.57 75.4572C1459.23 74.855 1459.08 74.7988 1458.22 74.1662C1457.01 73.2693 1455.66 71.476 1455.19 70.1989C1454.33 67.7716 1454.69 65.0122 1456.14 62.8521C1457.79 60.372 1459.97 59.1377 1463.65 58.5821C1464.32 58.4785 1464.86 58.3269 1464.89 58.2251C1464.92 58.1232 1464.66 57.7882 1464.31 57.4616C1462.6 55.9031 1458.84 51.9896 1458.01 50.914C1455.84 48.093 1455.03 44.8048 1455.81 41.9374C1456.59 39.0554 1458.47 36.9164 1461.52 35.3831C1466.01 33.1538 1471.77 34.4439 1476.42 38.7634C1476.97 39.269 1477.77 39.9952 1478.18 40.353C1478.59 40.7255 1479.42 41.46 1480.02 41.9781C1480.62 42.5108 1481.41 43.0934 1481.78 43.2849C1482.68 43.7429 1482.87 43.6203 1482.99 42.5306C1483.12 41.3162 1483.58 39.6132 1484.06 38.6776C1484.69 37.4094 1485.71 36.447 1487.33 35.6139C1489.44 34.5168 1491.36 34.2287 1493.66 34.6499C1497.94 35.4567 1500.45 37.9285 1501.11 42.0194C1501.34 43.4212 1501.35 43.8142 1501.42 46.7819C1501.43 47.6886 1501.46 49.2421 1501.5 50.2341C1501.56 53.2308 1501.59 55.4227 1501.57 56.7287C1501.54 58.7168 1501.64 60.8963 1501.83 61.8821C1502.02 62.9303 1502.45 63.465 1504.57 65.3376C1505.26 65.9244 1506.28 66.8815 1506.87 67.4579C1509.91 70.4165 1511.64 71.2159 1512.87 70.2017C1513.82 69.4056 1516.35 60.3106 1516.2 58.2434C1516.17 57.9377 1515.3 56.3984 1513.85 54.1101C1511.2 49.9455 1506.45 42.1842 1506.08 41.3834C1505.62 40.4036 1505.4 39.7838 1505.12 38.696C1504.87 37.6936 1504.88 37.5106 1505.25 35.8928C1505.6 34.3769 1505.74 34.0401 1506.3 33.221C1507.88 30.8926 1511.1 29.2949 1513.93 29.4211C1516.62 29.5388 1519.21 30.74 1521.03 32.6874C1521.76 33.4884 1523.25 34.6474 1523.47 34.5955C1523.58 34.5623 1523.92 33.5456 1524.37 31.9008C1525.54 27.6403 1526.4 25.2928 1527.27 23.981C1528.35 22.3927 1529.45 21.2973 1530.68 20.5908C1534.2 18.5441 1538.36 18.4109 1542.19 20.2053C1545.35 21.6958 1547.95 25.2532 1548.26 28.5038C1548.43 30.3256 1548.31 31.2614 1547.27 35.5116C1546.25 39.7182 1546.13 40.9804 1546.74 41.1429C1546.91 41.1888 1547.72 40.9645 1548.49 40.6551C1549.27 40.3456 1550.51 39.9885 1551.24 39.8682C1552.55 39.638 1552.58 39.6463 1554.45 40.1567C1556.66 40.7401 1557.35 41.1584 1558.92 42.7896C1561.21 45.1594 1561.92 47.8569 1560.94 50.5163C1560.43 51.9572 1559.26 53.7846 1558.47 54.4019C1557.95 54.8259 1553.54 57.4503 1551.88 58.3521C1544.41 62.3663 1540.28 64.7059 1539.71 65.2276L1539.04 65.8595L1537.79 70.5214C1536.55 75.0918 1536.54 75.1978 1536.67 76.2148C1536.82 77.5666 1537.21 78.0119 1538.42 78.3327C1539.18 78.5182 1539.6 78.5204 1541 78.2674C1541.93 78.1056 1543.09 77.867 1543.57 77.7612C1544.08 77.645 1545.05 77.4188 1545.74 77.2424C1546.44 77.0846 1547.39 76.8688 1547.87 76.7775C1548.34 76.6675 1549.24 76.329 1549.87 76.0111C1551.09 75.3816 1551.32 75.0989 1553.01 72.209C1553.4 71.5458 1554.03 70.5126 1554.39 69.9221C1555.11 68.7558 1555.98 67.3151 1557.48 64.8119C1559.31 61.7392 1560.97 59.3838 1562.34 57.9224C1563.74 56.4508 1566.56 55.3104 1568.63 55.405C1572.13 55.5668 1575.5 57.7541 1576.94 60.7868C1577.86 62.7463 1577.91 64.0689 1577.15 66.9738C1576.63 68.9575 1576.62 69.39 1577.06 69.5691C1577.5 69.7481 1578.33 69.5946 1584.14 68.2436C1587.8 67.3865 1589.63 67.2792 1591.69 67.7918C1594.13 68.4231 1595.95 69.6696 1597.81 71.9706C1600.43 75.2535 1600.86 78.7828 1599.03 82.4025C1598.46 83.5148 1597.21 85.1197 1596.45 85.6974C1594.2 87.4099 1593.57 87.68 1588.61 89.0356C1584.36 90.1898 1582.93 90.7319 1582.92 91.1977C1582.91 91.3516 1583.29 91.7012 1583.87 92.0571C1586.28 93.6158 1588.24 96.6135 1588.32 98.9136C1588.38 100.303 1587.56 102.721 1586.62 103.862C1585.65 105.087 1584.55 106.043 1583.48 106.618C1582.41 107.194 1580.19 107.59 1578.72 107.481C1577.48 107.401 1575.26 106.675 1573.27 105.727C1572.45 105.324 1571.15 104.728 1570.36 104.395C1569.57 104.062 1568.39 103.515 1567.73 103.186C1567.08 102.842 1566.24 102.449 1565.87 102.286C1565.48 102.138 1564.41 101.606 1563.48 101.11C1560.15 99.3534 1559.3 98.9891 1557.52 98.5182C1555.89 98.1036 1555.71 98.0869 1554.63 98.2694C1554 98.3668 1552.96 98.5909 1552.31 98.7611C1551.65 98.9313 1550.73 99.1555 1550.23 99.2572C1547.41 99.8215 1544.96 100.875 1544.53 101.713C1544.26 102.232 1544.3 102.523 1544.71 103.318C1545.22 104.281 1548.1 107.15 1551.27 109.845C1552.82 111.16 1553.04 111.295 1553.95 111.537C1554.5 111.683 1555.52 111.81 1556.21 111.806C1560.83 111.842 1561.77 111.857 1562.58 111.915C1563.07 111.953 1564.21 111.989 1565.09 111.987C1571.99 111.989 1574.83 112.177 1576.62 112.744C1580.44 113.943 1582.84 116.87 1582.91 120.414C1582.95 122.826 1581.81 125.631 1580.28 126.926C1579.25 127.793 1577.07 128.682 1574.84 129.136C1572.35 129.649 1572.28 129.676 1572.76 130.208C1572.95 130.431 1573.33 130.814 1573.59 131.039C1573.85 131.278 1574.55 131.946 1575.13 132.537C1575.72 133.113 1576.71 134.062 1577.34 134.636C1580.89 137.93 1582.4 140.902 1582.16 144.084C1581.98 146.423 1580.65 148.958 1578.47 151.065C1577.44 152.086 1575.01 153.393 1573.59 153.69C1570.44 154.354 1566.65 153.383 1563.68 151.146C1563.07 150.671 1562.5 150.224 1562.42 150.126C1562.36 150.032 1561.68 149.431 1560.93 148.78C1560.17 148.143 1559.42 147.444 1559.23 147.255C1558.43 146.404 1556.74 145.19 1556.02 144.97C1555.28 144.726 1555.28 144.726 1555.19 145.171C1554.46 148.924 1554.48 148.837 1553.7 149.972C1552.33 151.918 1550.35 153.001 1547.02 153.571L1545.55 153.836L1543.5 153.295C1541.46 152.772 1541.43 152.763 1540.48 151.981C1539.37 151.08 1537.75 148.669 1537.4 147.406C1537.03 146.044 1536.69 143.288 1536.7 141.292C1536.7 140.217 1536.68 138.744 1536.66 138.006C1536.63 136.376 1536.62 133.612 1536.66 130.832C1536.72 126.884 1536.46 125.316 1535.56 124.253C1535.33 123.974 1534.47 123.169 1533.64 122.449C1532.82 121.734 1531.92 120.949 1531.67 120.695C1531.42 120.441 1530.47 119.63 1529.57 118.893C1528.21 117.768 1527.81 117.505 1527.1 117.318C1526.19 117.062 1525.71 117.186 1525.03 117.847C1524.71 118.167 1524.48 118.887 1523.33 122.935C1521.9 127.94 1521.72 128.998 1522.08 130.093C1522.18 130.415 1524.32 133.976 1526.81 137.974C1532.22 146.63 1532.57 147.236 1532.99 148.97C1533.21 149.887 1533.14 151.335 1532.8 152.587C1532.02 155.421 1529.38 157.796 1526.13 158.589C1522.96 159.388 1520.57 158.664 1517.8 156.073C1515.88 154.288 1515.11 153.647 1514.89 153.666C1514.71 153.682 1514.44 154.514 1513.59 157.518C1512.37 161.877 1512.12 162.621 1511.24 164.106C1510.54 165.338 1509.58 166.394 1508.26 167.402C1506.66 168.633 1504 169.536 1501.81 169.581C1500.68 169.611 1500.2 169.545 1498.64 169.118C1497.64 168.836 1496.67 168.549 1496.51 168.459Z" fill="#8A8F92"/>
</mask>
<g mask="url(#mask1_2114_1355)">
<rect x="1427.83" y="-30.3787" width="390.817" height="337.1" transform="rotate(15 1427.83 -30.3787)" fill="#61C9E2"/>
</g>
<mask id="mask2_2114_1355" style="mask-type:alpha" maskUnits="userSpaceOnUse" x="161" y="56" width="228" height="211">
<path d="M243.42 264.937C241.859 264.175 240.529 263.257 238.991 261.892C235.953 259.194 234.136 255.469 234.002 251.709C233.932 249.97 234.048 249.37 235.653 242.673C237.015 237.045 237.352 235.283 237.298 234.441C237.249 233.84 237.095 233.277 236.974 233.202C236.837 233.1 235.765 233.317 234.605 233.685C233.428 234.027 232.455 234.314 232.411 234.302C232.367 234.291 231.767 234.415 231.113 234.569C228.193 235.256 225.115 234.79 222.274 233.189C218.372 230.981 216.379 227.818 215.877 223.069C215.708 221.347 216.563 218.459 217.763 216.817C219.612 214.257 220.811 213.486 233.543 206.772C242.041 202.291 245.627 200.278 246.155 199.721C246.859 198.949 246.925 198.792 248.53 192.444C250.643 184.14 250.676 182.973 248.742 181.764C247.451 180.965 243.916 181.053 241.078 181.958C240.721 182.059 239.313 182.384 237.95 182.633C234.464 183.322 231.478 184.252 230.713 184.899C230.35 185.195 229.442 186.458 228.682 187.694C226.266 191.649 224.796 194.026 223.816 195.553C223.288 196.371 222.159 198.185 221.333 199.578C215.652 209.05 214.706 210.194 211.169 211.85C207.248 213.709 202.487 213.538 198.855 211.379C195.948 209.674 194.01 207.266 193.094 204.215C192.491 202.183 192.547 200.934 193.408 197.155C193.877 195.08 194.109 193.617 193.993 193.434C193.796 193.12 193.796 193.12 186.593 194.742C178.312 196.602 176.459 196.743 172.996 195.784C168.978 194.699 166.544 192.814 164.134 188.932C162.476 186.272 161.807 184.222 161.496 180.938C161.333 179.284 161.394 178.625 161.796 177.142C162.342 175.13 162.86 174.265 164.609 172.333C166.959 169.753 169.516 168.317 174.465 166.839C175.213 166.602 175.873 166.428 175.939 166.445C176.005 166.463 177.44 166.124 179.139 165.68C182.565 164.779 185.276 163.645 185.013 163.227C184.936 163.076 184.112 162.553 183.21 162.054C182.304 161.574 181.21 160.828 180.776 160.43C179.766 159.465 178.185 156.608 177.817 155.096C176.765 150.723 178.612 144.875 181.709 142.754C184.431 140.883 187.544 140.095 190.6 140.468C193.085 140.777 197.031 142.213 199.938 143.831C201.064 144.456 202.317 145.136 202.713 145.328C203.109 145.519 203.988 146.013 204.653 146.429C205.867 147.164 208.488 148.619 211.203 150.078C212.011 150.488 213.527 151.324 214.593 151.911C217.621 153.605 220.248 154.866 221.237 155.128C222.271 155.401 224.734 155.269 226.262 154.846C226.823 154.689 227.351 154.568 227.417 154.585C227.637 154.643 232.234 153.508 234.51 152.847C235.66 152.519 237.034 151.968 237.623 151.623C238.464 151.127 238.674 150.878 238.883 150.106C239.076 149.395 239.032 149.035 238.654 148.346C238.214 147.533 235.858 144.841 235.484 144.742C235.397 144.719 235.188 144.533 235.056 144.324C234.798 143.973 232.727 142.14 228.782 138.788C227.096 137.362 226.892 137.243 225.265 136.812C224.298 136.556 223.072 136.385 222.478 136.402C221.879 136.439 220.422 136.424 219.229 136.391C218.036 136.359 216.255 136.323 215.293 136.308C214.326 136.314 212.22 136.257 210.609 136.202C208.999 136.146 206.893 136.089 205.925 136.095C198.278 136.053 198.278 136.053 194.645 135.114C191.386 134.273 191.171 134.195 189.974 133.312C188.287 132.06 186.398 129.557 185.75 127.774C184.549 124.386 185.053 120.534 187.073 117.518C189.379 114.056 192.415 112.333 197.55 111.558C198.485 111.413 199.249 111.202 199.288 111.059C199.327 110.917 198.959 110.45 198.47 109.994C196.091 107.818 190.834 102.355 189.686 100.854C186.655 96.9161 185.521 92.326 186.607 88.3234C187.699 84.3004 190.323 81.3145 194.58 79.1742C200.845 76.0623 208.886 77.8631 215.379 83.8928C216.154 84.5985 217.269 85.6122 217.84 86.1118C218.406 86.6317 219.565 87.657 220.406 88.3802C221.241 89.1238 222.34 89.9371 222.856 90.2044C224.12 90.8437 224.379 90.6725 224.556 89.1515C224.733 87.4563 225.379 85.0791 226.039 83.773C226.92 82.0027 228.345 80.6593 230.617 79.4963C233.554 77.965 236.231 77.5627 239.441 78.1507C245.427 79.277 248.921 82.7274 249.846 88.4379C250.163 90.3946 250.179 90.9433 250.28 95.0858C250.29 96.3515 250.338 98.5201 250.386 99.9048C250.476 104.088 250.518 107.148 250.494 108.971C250.448 111.746 250.588 114.788 250.851 116.164C251.114 117.628 251.713 118.374 254.679 120.988C255.635 121.807 257.063 123.143 257.882 123.948C262.134 128.078 264.541 129.194 266.268 127.778C267.583 126.667 271.123 113.971 270.916 111.085C270.867 110.658 269.659 108.51 267.628 105.315C263.927 99.502 257.3 88.6679 256.779 87.55C256.137 86.1824 255.829 85.3172 255.44 83.7988C255.09 82.3994 255.112 82.1439 255.63 79.8857C256.11 77.7697 256.309 77.2995 257.09 76.1561C259.292 72.9059 263.785 70.6757 267.743 70.8517C271.493 71.0161 275.114 72.6928 277.652 75.4112C278.668 76.5293 280.75 78.1473 281.053 78.0748C281.207 78.0285 281.686 76.6092 282.309 74.3132C283.947 68.3659 285.142 65.089 286.37 63.2579C287.867 61.0407 289.413 59.5116 291.118 58.5254C296.041 55.6684 301.841 55.4825 307.193 57.9874C311.601 60.068 315.225 65.0338 315.667 69.5713C315.896 72.1144 315.73 73.4206 314.285 79.3536C312.856 85.2255 312.684 86.9875 313.542 87.2144C313.783 87.2784 314.905 86.9654 315.989 86.5334C317.072 86.1013 318.81 85.6029 319.821 85.435C321.652 85.1136 321.696 85.1253 324.307 85.8378C327.385 86.6521 328.358 87.236 330.544 89.513C333.746 92.821 334.727 96.5866 333.366 100.299C332.656 102.31 331.021 104.861 329.915 105.723C329.189 106.315 323.034 109.978 320.713 111.237C310.285 116.84 304.521 120.106 303.734 120.834L302.788 121.717L301.045 128.224C299.314 134.604 299.297 134.752 299.478 136.172C299.696 138.059 300.234 138.68 301.927 139.128C302.988 139.387 303.576 139.39 305.534 139.037C306.82 138.811 308.442 138.478 309.119 138.33C309.823 138.168 311.181 137.852 312.143 137.606C313.122 137.386 314.452 137.085 315.123 136.957C315.778 136.804 317.037 136.331 317.911 135.887C319.611 135.008 319.93 134.614 322.297 130.58C322.831 129.654 323.718 128.212 324.224 127.388C325.231 125.759 326.437 123.748 328.54 120.254C331.094 115.965 333.4 112.677 335.321 110.637C337.268 108.583 341.211 106.991 344.098 107.123C348.985 107.349 353.694 110.402 355.702 114.636C356.987 117.371 357.051 119.217 355.998 123.272C355.27 126.041 355.247 126.645 355.863 126.895C356.479 127.145 357.644 126.93 365.744 125.044C370.852 123.848 373.414 123.698 376.283 124.414C379.696 125.295 382.24 127.035 384.833 130.247C388.49 134.83 389.086 139.756 386.536 144.809C385.738 146.362 383.999 148.602 382.931 149.408C379.785 151.799 378.905 152.176 371.982 154.068C366.054 155.679 364.058 156.436 364.047 157.086C364.035 157.301 364.563 157.789 365.371 158.286C368.739 160.462 371.468 164.646 371.586 167.857C371.672 169.796 370.521 173.172 369.217 174.765C367.857 176.474 366.317 177.809 364.826 178.612C363.336 179.415 360.24 179.968 358.184 179.817C356.447 179.705 353.353 178.691 350.578 177.369C349.435 176.805 347.61 175.974 346.511 175.509C345.412 175.044 343.758 174.279 342.845 173.82C341.939 173.341 340.768 172.792 340.241 172.565C339.707 172.359 338.213 171.615 336.916 170.923C332.256 168.471 331.074 167.962 328.59 167.305C326.32 166.726 326.067 166.703 324.56 166.958C323.675 167.094 322.224 167.407 321.311 167.644C320.398 167.882 319.111 168.195 318.413 168.337C314.476 169.124 311.061 170.594 310.461 171.764C310.075 172.49 310.13 172.896 310.701 174.005C311.42 175.35 315.446 179.355 319.869 183.116C322.034 184.952 322.336 185.141 323.611 185.478C324.38 185.682 325.793 185.859 326.761 185.854C333.204 185.904 334.518 185.925 335.65 186.006C336.343 186.059 337.932 186.109 339.158 186.107C348.795 186.109 352.753 186.372 355.248 187.162C360.59 188.837 363.935 192.923 364.03 197.87C364.082 201.237 362.501 205.153 360.361 206.96C358.926 208.17 355.879 209.411 352.761 210.045C349.292 210.761 349.187 210.798 349.857 211.542C350.126 211.852 350.665 212.387 351.027 212.701C351.384 213.035 352.357 213.967 353.17 214.792C353.988 215.596 355.373 216.921 356.263 217.722C361.212 222.32 363.314 226.469 362.981 230.911C362.731 234.176 360.875 237.714 357.838 240.656C356.391 242.081 352.998 243.905 351.024 244.319C346.625 245.246 341.338 243.891 337.189 240.768C336.332 240.106 335.536 239.481 335.431 239.345C335.349 239.214 334.399 238.375 333.349 237.466C332.294 236.577 331.24 235.601 330.981 235.337C329.866 234.149 327.498 232.455 326.498 232.147C325.459 231.807 325.459 231.807 325.338 232.428C324.316 237.668 324.35 237.546 323.26 239.13C321.344 241.846 318.578 243.357 313.932 244.154L311.875 244.524L309.017 243.768C306.176 243.038 306.132 243.026 304.802 241.934C303.258 240.677 300.991 237.311 300.503 235.549C299.982 233.647 299.518 229.8 299.52 227.013C299.527 225.513 299.495 223.457 299.469 222.427C299.427 220.151 299.413 216.293 299.477 212.412C299.558 206.902 299.186 204.713 297.939 203.229C297.621 202.84 296.418 201.716 295.253 200.711C294.11 199.712 292.852 198.617 292.501 198.262C292.149 197.908 290.831 196.775 289.578 195.747C287.672 194.175 287.111 193.809 286.122 193.548C284.852 193.19 284.192 193.364 283.235 194.287C282.784 194.733 282.464 195.738 280.86 201.389C278.87 208.375 278.61 209.853 279.115 211.38C279.252 211.83 282.238 216.801 285.719 222.382C293.28 234.465 293.757 235.31 294.349 237.732C294.661 239.012 294.561 241.032 294.087 242.78C292.989 246.736 289.309 250.052 284.767 251.159C280.341 252.274 277.01 251.263 273.137 247.647C270.467 245.155 269.39 244.26 269.077 244.286C268.835 244.309 268.449 245.47 267.264 249.664C265.566 255.748 265.213 256.787 263.991 258.859C263.005 260.58 261.663 262.054 259.82 263.461C257.587 265.179 253.875 266.44 250.818 266.502C249.251 266.545 248.57 266.452 246.398 265.856C244.997 265.463 243.645 265.062 243.42 264.937Z" fill="#8A8F92"/>
</mask>
<g mask="url(#mask2_2114_1355)">
<rect x="147.548" y="-12.4058" width="545.545" height="470.561" transform="rotate(15 147.548 -12.4058)" fill="#61C9E2"/>
</g>
<mask id="mask3_2114_1355" style="mask-type:alpha" maskUnits="userSpaceOnUse" x="1357" y="549" width="161" height="178">
<path d="M1363.06 684.489C1362.57 683.271 1362.29 682.073 1362.14 680.507C1361.83 677.413 1362.78 674.306 1364.73 672.004C1365.63 670.935 1366.02 670.634 1370.55 667.436C1374.37 664.755 1375.51 663.872 1375.94 663.344C1376.23 662.963 1376.45 662.552 1376.42 662.448C1376.39 662.32 1375.65 661.924 1374.78 661.574C1373.92 661.201 1373.2 660.895 1373.18 660.867C1373.16 660.838 1372.75 660.619 1372.28 660.389C1370.22 659.367 1368.69 657.581 1367.91 655.237C1366.84 652.011 1367.38 649.153 1369.65 646.081C1370.48 644.974 1372.53 643.674 1374.11 643.285C1376.56 642.668 1377.67 642.796 1388.66 645.041C1395.99 646.538 1399.15 647.098 1399.76 647.025C1400.58 646.911 1400.7 646.85 1405.05 643.86C1410.75 639.953 1411.39 639.276 1410.92 637.609C1410.61 636.501 1408.51 634.821 1406.38 633.969C1406.12 633.854 1405.13 633.357 1404.2 632.837C1401.81 631.539 1399.58 630.629 1398.79 630.64C1398.42 630.638 1397.22 630.944 1396.11 631.307C1392.58 632.477 1390.45 633.171 1389.06 633.599C1388.31 633.827 1386.68 634.353 1385.46 634.777C1377.07 637.63 1375.9 637.846 1372.96 637.098C1369.69 636.283 1367.02 633.849 1366.08 630.784C1365.32 628.345 1365.49 625.963 1366.6 623.698C1367.35 622.194 1368.05 621.478 1370.58 619.651C1371.97 618.646 1372.89 617.89 1372.93 617.724C1372.98 617.441 1372.98 617.441 1367.93 614.876C1362.14 611.925 1360.99 611.101 1359.5 608.833C1357.75 606.219 1357.36 603.905 1358.05 600.414C1358.52 598.019 1359.24 596.471 1360.83 594.365C1361.62 593.3 1362.01 592.938 1363.05 592.253C1364.44 591.324 1365.21 591.063 1367.26 590.77C1370.01 590.387 1372.27 590.786 1375.93 592.331C1376.49 592.556 1376.97 592.776 1377 592.819C1377.03 592.862 1378.04 593.363 1379.26 593.932C1381.73 595.074 1383.91 595.728 1383.99 595.35C1384.02 595.223 1383.83 594.508 1383.57 593.769C1383.31 593.039 1383.07 592.059 1383.04 591.61C1382.97 590.541 1383.59 588.066 1384.19 586.986C1385.94 583.869 1390.16 581.294 1393.09 581.55C1395.68 581.771 1397.9 582.827 1399.47 584.546C1400.75 585.948 1402.26 588.736 1403.07 591.123C1403.39 592.047 1403.75 593.065 1403.88 593.373C1404 593.681 1404.24 594.406 1404.41 594.979C1404.71 596.011 1405.45 598.162 1406.24 600.36C1406.48 601 1406.91 602.241 1407.21 603.112C1408.06 605.604 1408.9 607.642 1409.33 608.282C1409.78 608.951 1411.28 610.079 1412.39 610.577C1412.8 610.758 1413.17 610.945 1413.2 610.987C1413.3 611.13 1416.57 612.707 1418.25 613.429C1419.09 613.797 1420.18 614.143 1420.71 614.226C1421.46 614.343 1421.72 614.297 1422.26 613.941C1422.75 613.612 1422.92 613.376 1423.07 612.781C1423.25 612.082 1423.34 609.326 1423.17 609.084C1423.14 609.027 1423.12 608.814 1423.15 608.625C1423.19 608.29 1422.98 606.184 1422.5 602.257C1422.29 600.582 1422.23 600.411 1421.52 599.358C1421.1 598.732 1420.48 598.029 1420.13 597.748C1419.76 597.477 1418.93 596.754 1418.25 596.15C1417.58 595.546 1416.57 594.652 1416.02 594.171C1415.46 593.701 1414.27 592.635 1413.36 591.813C1412.46 590.99 1411.27 589.925 1410.71 589.454C1406.3 585.682 1406.3 585.682 1404.7 583.343C1403.26 581.246 1403.18 581.094 1402.96 579.982C1402.66 578.41 1402.91 575.995 1403.5 574.617C1404.63 572.012 1406.99 569.967 1409.79 569.163C1412.99 568.233 1415.67 568.696 1419.06 570.751C1419.68 571.122 1420.24 571.371 1420.34 571.305C1420.44 571.24 1420.48 570.781 1420.44 570.27C1420.23 567.81 1420.13 561.984 1420.27 560.528C1420.64 556.7 1422.45 553.413 1425.23 551.563C1428.03 549.705 1431.16 549.214 1434.78 550.027C1440.08 551.245 1443.77 556.257 1444.29 563.026C1444.36 563.826 1444.46 564.975 1444.52 565.552C1444.57 566.139 1444.69 567.317 1444.78 568.159C1444.87 569.011 1445.06 570.033 1445.22 570.446C1445.61 571.445 1445.85 571.47 1446.77 570.652C1447.79 569.73 1449.44 568.632 1450.53 568.178C1451.99 567.557 1453.54 567.456 1455.48 567.877C1458.01 568.405 1459.77 569.478 1461.32 571.4C1464.18 575.004 1464.34 578.769 1461.81 582.62C1460.94 583.939 1460.65 584.274 1458.48 586.788C1457.8 587.546 1456.66 588.86 1455.95 589.707C1453.75 592.241 1452.12 594.081 1451.13 595.155C1449.61 596.783 1448.05 598.662 1447.46 599.61C1446.83 600.609 1446.77 601.347 1447.08 604.356C1447.2 605.312 1447.3 606.806 1447.34 607.686C1447.58 612.227 1448.38 614.071 1450.14 614.075C1451.5 614.058 1460.39 608.238 1461.82 606.42C1462.02 606.142 1462.48 604.272 1463.02 601.376C1464.01 596.103 1466 586.409 1466.3 585.489C1466.66 584.36 1466.95 583.695 1467.54 582.601C1468.09 581.596 1468.25 581.455 1469.76 580.366C1471.18 579.342 1471.55 579.159 1472.61 578.862C1475.64 578.007 1479.44 578.882 1481.64 580.926C1483.73 582.861 1484.92 585.633 1484.93 588.494C1484.91 589.658 1485.25 591.641 1485.46 591.746C1485.58 591.794 1486.62 591.184 1488.22 590.123C1492.37 587.387 1494.82 586.023 1496.52 585.535C1498.58 584.949 1500.3 584.797 1501.82 585.046C1506.21 585.758 1509.67 588.49 1511.42 592.603C1512.85 596.001 1512.28 600.731 1510.09 603.648C1508.86 605.273 1508.06 605.969 1504.03 608.791C1500.04 611.585 1498.99 612.549 1499.36 613.104C1499.47 613.261 1500.29 613.624 1501.15 613.898C1502.01 614.172 1503.28 614.727 1503.96 615.123C1505.19 615.829 1505.21 615.857 1506.34 617.56C1507.69 619.553 1507.93 620.377 1507.98 622.803C1508.05 626.341 1506.59 629.062 1503.8 630.604C1502.31 631.452 1499.99 632.169 1498.88 632.14C1498.15 632.136 1492.61 631.3 1490.59 630.912C1481.53 629.136 1476.43 628.255 1475.58 628.302L1474.56 628.364L1470.05 631.382C1465.61 634.329 1465.52 634.409 1464.86 635.342C1463.97 636.572 1463.95 637.206 1464.69 638.302C1465.16 638.976 1465.5 639.266 1466.83 640.015C1467.69 640.511 1468.81 641.108 1469.28 641.351C1469.78 641.599 1470.74 642.077 1471.43 642.402C1472.11 642.751 1473.04 643.224 1473.5 643.476C1473.96 643.706 1474.95 644.042 1475.69 644.206C1477.15 644.516 1477.55 644.438 1481.09 643.197C1481.9 642.908 1483.19 642.484 1483.92 642.242C1485.38 641.767 1487.17 641.161 1490.27 640.112C1494.05 638.812 1497.16 637.986 1499.37 637.713C1501.61 637.445 1504.75 638.43 1506.35 639.923C1509.06 642.452 1510.14 646.576 1509.03 650.08C1508.3 652.336 1507.34 653.467 1504.55 655.363C1502.63 656.654 1502.3 657.002 1502.52 657.453C1502.74 657.903 1503.53 658.347 1509.24 661.193C1512.84 662.985 1514.41 664.151 1515.68 665.983C1517.19 668.18 1517.72 670.462 1517.5 673.643C1517.15 678.162 1514.84 681.385 1510.64 683.142C1509.34 683.675 1507.13 684.156 1506.08 684.113C1502.97 683.993 1502.26 683.786 1497.23 681.52C1492.93 679.574 1491.36 679.046 1491.01 679.427C1490.88 679.549 1490.93 680.098 1491.13 680.789C1491.91 683.735 1491.23 687.562 1489.57 689.53C1488.58 690.726 1486.1 692.17 1484.48 692.479C1482.78 692.83 1481.16 692.869 1479.87 692.617C1478.57 692.365 1476.48 691.177 1475.37 690.079C1474.43 689.162 1473.18 687.042 1472.28 684.895C1471.93 683.999 1471.32 682.611 1470.93 681.796C1470.54 680.98 1470 679.715 1469.71 678.995C1469.45 678.265 1469.07 677.365 1468.88 676.971C1468.68 676.587 1468.22 675.412 1467.84 674.365C1466.46 670.623 1466.05 669.741 1464.96 668.133C1463.96 666.676 1463.83 666.538 1462.82 665.951C1462.23 665.599 1461.22 665.073 1460.56 664.767C1459.91 664.462 1458.99 664.017 1458.51 663.76C1455.81 662.299 1453.04 661.5 1452.06 661.902C1451.45 662.145 1451.26 662.414 1450.99 663.353C1450.69 664.506 1450.86 668.862 1451.4 673.267C1451.67 675.42 1451.74 675.68 1452.3 676.506C1452.63 677.004 1453.36 677.802 1453.92 678.273C1457.62 681.46 1458.37 682.116 1458.99 682.72C1459.36 683.09 1460.25 683.899 1460.96 684.498C1466.55 689.222 1468.7 691.318 1469.72 693.011C1471.91 696.625 1471.65 700.696 1469.04 703.685C1467.26 705.715 1464.23 707.27 1462.02 707.296C1460.54 707.313 1458.11 706.558 1455.96 705.408C1453.56 704.133 1453.48 704.105 1453.47 704.875C1453.46 705.192 1453.48 705.774 1453.52 706.138C1453.55 706.512 1453.61 707.543 1453.64 708.432C1453.68 709.312 1453.77 710.778 1453.85 711.691C1454.25 716.853 1453.23 720.352 1450.64 722.831C1448.74 724.651 1445.76 725.847 1442.42 726.11C1440.81 726.248 1437.87 725.671 1436.5 724.95C1433.45 723.346 1431.12 719.948 1430.4 716.058C1430.26 715.244 1430.13 714.482 1430.14 714.349C1430.17 714.231 1430.07 713.266 1429.95 712.211C1429.82 711.165 1429.73 710.068 1429.72 709.784C1429.72 708.531 1429.26 706.363 1428.84 705.689C1428.43 704.978 1428.43 704.978 1428.02 705.288C1424.61 707.905 1424.69 707.848 1423.21 708.257C1420.64 708.935 1418.22 708.478 1415.1 706.675L1413.71 705.888L1412.46 704.038C1411.21 702.211 1411.19 702.182 1411.01 700.881C1410.79 699.376 1411.29 696.262 1411.95 694.975C1412.68 693.588 1414.48 691.072 1415.98 689.415C1416.79 688.525 1417.88 687.287 1418.42 686.66C1419.62 685.286 1421.69 682.983 1423.82 680.705C1426.83 677.467 1427.79 675.982 1427.87 674.488C1427.89 674.101 1427.8 672.842 1427.67 671.673C1427.54 670.519 1427.4 669.251 1427.39 668.868C1427.38 668.485 1427.23 667.165 1427.05 665.939C1426.79 664.07 1426.67 663.577 1426.23 662.937C1425.69 662.102 1425.22 661.882 1424.16 661.962C1423.66 662.007 1422.94 662.448 1418.97 665.024C1414.05 668.206 1413.11 668.958 1412.58 670.114C1412.41 670.449 1411.47 674.87 1410.48 679.897C1408.35 690.791 1408.18 691.527 1407.21 693.258C1406.71 694.173 1405.56 695.326 1404.34 696.133C1401.58 697.95 1397.66 698.119 1394.43 696.552C1391.27 695.047 1389.89 692.813 1389.59 688.763C1389.38 685.972 1389.24 684.912 1389.05 684.774C1388.89 684.669 1388.04 685.171 1385.1 687.086C1380.84 689.874 1380.08 690.319 1378.25 690.953C1376.76 691.494 1375.19 691.713 1373.36 691.648C1371.14 691.575 1368.31 690.506 1366.51 689.046C1365.58 688.303 1365.23 687.914 1364.3 686.495C1363.7 685.575 1363.13 684.674 1363.06 684.489Z" fill="#8A8F92"/>
</mask>
<g mask="url(#mask3_2114_1355)">
<rect x="1457.33" y="476.362" width="412.192" height="378.86" transform="rotate(56.198 1457.33 476.362)" fill="#61C9E2"/>
</g>
<path d="M39.9482 762.846L0 753L82.5 783.5L155 804.5L209 817L266 825C290.294 826.997 314.71 827.049 339.012 825.155L341 825C373.617 823.003 406.03 818.471 437.943 811.444L444.5 810L470.5 802L436.872 794.56C421.647 791.192 406.708 786.643 392.189 780.956C374.437 774.001 356.062 768.752 337.315 765.281L322.673 762.569C297.278 757.866 271.505 755.5 245.678 755.5H237.784C213.66 755.5 189.602 758.014 166 763L157.425 764.812C139.524 768.594 121.277 770.5 102.981 770.5C81.7384 770.5 60.5737 767.93 39.9482 762.846Z" fill="url(#paint0_linear_2114_1355)"/>
<path d="M758.63 784.268L734.5 787.5L830.5 800.5L880 806L929.5 808L974.5 807L1019.5 804L1059.5 798L1103.5 791.5L1170 777.5L1129.5 775L1092 769.5L1051 767.5H1025.88C987.742 767.5 949.721 771.692 912.5 780L884.54 783.554C863.925 786.175 843.065 786.258 822.429 783.801C801.228 781.277 779.792 781.434 758.63 784.268Z" fill="url(#paint1_linear_2114_1355)"/>
<path d="M1408.12 784H1461.82C1486.51 784 1511.09 780.854 1534.98 774.638C1551.96 770.222 1569.3 767.352 1586.79 766.063L1607.91 764.507C1639.57 762.174 1671.38 762.723 1702.94 766.149L1720 768C1752.93 774.319 1786.39 777.5 1819.91 777.5H1822C1826.4 777.5 1849.83 775.167 1865 772L1830 785.5L1794.5 797L1734 812.5L1700.5 819L1667.5 822L1657.57 822.779C1613.4 826.243 1568.96 823.626 1525.5 815L1478.5 804L1433 791L1400.46 783.113C1400.31 783.076 1400.15 783.039 1400 783L1400.46 783.113C1402.97 783.702 1405.54 784 1408.12 784Z" fill="url(#paint2_linear_2114_1355)"/>
</g>
<defs>
<linearGradient id="paint0_linear_2114_1355" x1="82" y1="963" x2="313" y2="818" gradientUnits="userSpaceOnUse">
<stop stop-color="#45AEC7"/>
<stop offset="1" stop-color="#61C9E2"/>
</linearGradient>
<linearGradient id="paint1_linear_2114_1355" x1="966.5" y1="767" x2="970.5" y2="941.5" gradientUnits="userSpaceOnUse">
<stop stop-color="#61C9E2"/>
<stop offset="1" stop-color="#45AEC7"/>
</linearGradient>
<linearGradient id="paint2_linear_2114_1355" x1="1633" y1="766" x2="1660.5" y2="898" gradientUnits="userSpaceOnUse">
<stop stop-color="#61C9E2"/>
<stop offset="1" stop-color="#45AEC7"/>
</linearGradient>
<clipPath id="clip0_2114_1355">
<rect width="1920" height="821" fill="white"/>
</clipPath>
</defs>
</svg>
