<svg width="569" height="609" viewBox="0 0 569 609" fill="none" xmlns="http://www.w3.org/2000/svg">
<g clip-path="url(#clip0_4001_1199)">
<path d="M215.979 597.251L205.31 594.803C145.064 580.977 82.3208 582.397 22.7622 598.936L0 605.257V16.4138L39.3557 4.01556C80.6297 -8.987 124.979 -8.45813 165.931 5.52496C187.047 12.7348 209.206 16.4138 231.519 16.4138H289.523L354.307 13.267C371.955 12.4098 389.466 9.71844 406.557 5.23639C459.158 -8.55817 514.794 -5.1543 565.321 14.9498L569 16.4138V605.257L537.76 596.683C482.972 581.645 425.208 581.162 370.176 595.281C319.671 608.239 266.798 608.914 215.979 597.251Z" fill="#FF9900"/>
<path d="M197.793 424.195L201.307 426.93L202.649 425.592L205.517 422.768L207.525 420.619L209.224 418.696L211.101 416.408L212.653 413.918L213.386 412.388C213.641 411.855 213.84 411.298 213.981 410.724C214.169 409.955 214.25 409.163 214.221 408.372L214.216 408.225C214.182 407.313 214.002 406.413 213.681 405.559L213.638 405.443C213.338 404.644 212.908 403.9 212.364 403.241L212.107 402.93C211.683 402.415 211.168 401.982 210.589 401.651C209.849 401.228 209.02 400.982 208.169 400.933L208.078 400.928C207.485 400.894 206.89 400.952 206.314 401.1C205.605 401.283 204.938 401.599 204.348 402.032L204.089 402.222C203.627 402.561 203.206 402.953 202.834 403.389L201.757 404.653L200.428 406.348L198.684 404.291C198.047 403.541 197.27 402.922 196.397 402.468L196.023 402.275C195.108 401.8 194.084 401.57 193.053 401.607C191.857 401.651 190.701 402.053 189.736 402.762L189.576 402.879C189.032 403.279 188.554 403.762 188.161 404.311C187.449 405.306 187.036 406.483 186.973 407.705L186.937 408.416C186.878 409.553 187.04 410.689 187.412 411.764L187.5 412.016C187.864 413.065 188.396 414.048 189.077 414.925L190.371 416.593L193.664 420.195L197.793 424.195Z" fill="#FFB240"/>
<path d="M408.847 66.39L404.192 90.7594L427.559 80.479L412.092 99.8632L438.472 100.527L415.256 111.086L439.423 122.562L413.056 122.205L430.223 142.22L405.929 131.018L412.696 155.609L395.285 135.78L390.312 160.075L383.233 135.547L367.505 154.735L372.16 130.366L348.792 140.646L364.26 121.262L337.88 120.598L361.096 110.039L336.929 98.5632L363.296 98.9197L346.129 78.9046L370.423 90.1065L363.656 65.5162L381.067 85.3449L386.04 61.0498L393.119 85.5779L408.847 66.39Z" fill="#FFB240"/>
<path d="M0 25.5L30.0076 20.8855C85.5801 12.3396 142.093 11.8339 197.81 19.3838V19.3838C249.804 26.4294 302.509 26.4618 354.513 19.4803L358.063 19.0037C412.459 11.701 467.589 11.7399 521.975 19.1193L569 25.5V-787L549.219 -793.65C488.195 -814.164 421.85 -817.507 358.97 -803.693V-803.693C309.379 -792.799 257.306 -792.741 207.756 -803.821V-803.821C145.797 -817.676 81.2267 -814.305 21.0464 -794.075L0 -787V25.5Z" fill="#FFF7EB"/>
</g>
<defs>
<clipPath id="clip0_4001_1199">
<rect width="569" height="609" fill="white"/>
</clipPath>
</defs>
</svg>
