<svg width="1920" height="1042" viewBox="0 0 1920 1042" fill="none" xmlns="http://www.w3.org/2000/svg">
<g clip-path="url(#clip0_2064_24)">
<path d="M-74.5 517L2.01776 582.678C30.8702 607.443 62.9765 628.142 97.4427 644.199V644.199C225.058 703.654 374.065 694.648 493.591 620.258L615.473 544.401C644.584 526.283 676.734 513.584 710.368 506.918V506.918C784.397 492.246 861.222 507.627 923.895 549.67L967.356 578.825C1006.49 605.079 1049.86 624.393 1095.56 635.921L1140.55 647.273C1173.88 655.68 1208.5 657.627 1242.56 653.009L1245.1 652.665C1305.47 644.478 1361.11 615.509 1402.43 570.739L1435.35 535.081C1465.33 502.599 1479.95 458.818 1475.48 414.839V414.839C1471.04 371.047 1448.11 331.236 1412.46 305.422L1399.73 296.212C1348.57 259.165 1279.69 258.098 1227.39 293.541V293.541C1180.01 325.656 1155.01 381.911 1162.91 438.602L1163.93 445.858C1168.22 476.635 1181.27 505.528 1201.54 529.088L1221.51 552.317C1244.61 579.169 1272.82 601.143 1304.52 616.952L1506.98 717.944C1615.54 772.098 1744.78 764.021 1845.76 696.772V696.772C1901.34 659.752 1966.63 640 2033.42 640H2044.5" stroke="#FFF7EB" stroke-width="70"/>
<path d="M319.91 256.048L307.744 319.737L368.815 292.869L328.392 343.529L397.334 345.263L336.66 372.859L399.819 402.851L330.911 401.919L375.777 454.228L312.284 424.952L329.97 489.218L284.467 437.396L271.471 500.89L252.97 436.787L211.866 486.934L224.032 423.246L162.961 450.113L203.384 399.453L134.442 397.72L195.116 370.123L131.957 340.132L200.865 341.063L155.999 288.755L219.492 318.03L201.806 253.765L247.309 305.586L260.305 242.092L278.806 306.195L319.91 256.048Z" fill="#FF9900" fill-opacity="0.06"/>
</g>
<defs>
<clipPath id="clip0_2064_24">
<rect width="1920" height="1042" fill="white"/>
</clipPath>
</defs>
</svg>
