<svg width="1920" height="1042" viewBox="0 0 1920 1042" fill="none" xmlns="http://www.w3.org/2000/svg">
<g clip-path="url(#clip0_2064_24)">
<path d="M1986.5 1176L1961.57 1056.85C1941.09 959.01 1888.98 870.634 1813.28 805.361V805.361C1770.47 768.443 1721.15 739.825 1667.86 720.971L1320.93 598.238C1277.26 582.789 1244.23 546.485 1232.97 501.55V501.55C1214.66 428.5 1259.5 353.891 1332.2 334.212V334.212C1408.08 313.669 1487.46 358.781 1506.98 434.932L1515.59 468.522C1532.08 532.852 1510.78 600.975 1460.59 644.456L1426.09 674.342C1399.34 697.515 1367.95 714.718 1334.03 724.807L1326.35 727.091C1277.03 741.759 1224.67 742.857 1174.78 730.27L1150.2 724.07C1108.05 713.436 1068.05 695.62 1031.94 671.403L983.895 639.17C921.222 597.127 844.397 581.746 770.368 596.418V596.418C736.734 603.084 704.584 615.783 675.473 633.901L535.078 721.28C427.102 788.482 292.492 796.617 177.208 742.908V742.908C129.919 720.877 87.7259 689.256 53.3057 650.053L-96 480" stroke="#FFF7EB" stroke-width="70"/>
<path d="M319.954 256.048L307.788 319.737L368.859 292.869L328.436 343.529L397.378 345.263L336.704 372.859L399.863 402.851L330.955 401.919L375.821 454.228L312.328 424.952L330.014 489.218L284.511 437.396L271.515 500.89L253.014 436.787L211.91 486.934L224.076 423.246L163.005 450.113L203.428 399.453L134.486 397.72L195.159 370.123L132.001 340.132L200.909 341.063L156.043 288.755L219.536 318.03L201.85 253.765L247.353 305.586L260.349 242.092L278.85 306.195L319.954 256.048Z" fill="#FF9900" fill-opacity="0.06"/>
</g>
<defs>
<clipPath id="clip0_2064_24">
<rect width="1920" height="1042" fill="white"/>
</clipPath>
</defs>
</svg>
