<svg width="117" height="148" viewBox="0 0 117 148" fill="none" xmlns="http://www.w3.org/2000/svg">
<path d="M70.9103 8.18265L64.0114 44.299L98.6433 29.0631L75.7204 57.7911L114.816 58.7742L80.4092 74.4238L116.225 91.4312L77.149 90.9028L102.591 120.566L66.5856 103.964L76.6152 140.408L50.8112 111.021L43.4416 147.027L32.9502 110.676L9.64105 139.113L16.54 102.997L-18.092 118.233L4.83094 89.5046L-34.2646 88.5215L0.142162 72.8719L-35.6736 55.8645L3.40232 56.3929L-22.0399 26.7298L13.9657 43.3314L3.93615 6.88772L29.7401 36.2745L37.1097 0.268328L47.6012 36.6198L70.9103 8.18265Z" fill="#FFF7EB"/>
</svg>
