<svg width="1920" height="905" viewBox="0 0 1920 905" fill="none" xmlns="http://www.w3.org/2000/svg">
<g clip-path="url(#clip0_2291_1092)">
<path d="M0 10.5129L193.794 48.7404C261.53 62.1019 331.3 61.2904 398.707 46.3569L462.487 32.2269C527.183 17.894 594.084 16.5641 659.298 28.3145L856.285 63.8078C918.854 75.0815 982.999 74.319 1045.28 61.5613L1191.72 31.5663C1259.5 17.6819 1329.43 18.017 1397.08 32.5505L1511.79 57.1957C1584.35 72.7853 1659.48 72.025 1731.71 54.9702L1920 10.5129V1120H0V10.5129Z" fill="#FFF7EB"/>
<path d="M1988 203L1924.71 227.192C1870.61 247.873 1824.37 285.032 1792.53 333.419V333.419C1766.61 372.817 1751.2 418.194 1747.77 465.23L1741.21 555.298C1736.56 619.056 1708.83 678.933 1663.2 723.707V723.707C1648.78 737.855 1632.78 750.293 1615.51 760.774L1612.09 762.851C1565.59 791.075 1512.24 806 1457.84 806H1445.56C1400.63 806 1356.14 797.124 1314.65 779.882L1248 752.188L1180.39 730.27C1151.91 721.038 1126.19 704.849 1105.55 683.167V683.167C1087.4 664.109 1073.66 641.302 1065.28 616.356L1060.65 602.548C1055.6 587.502 1053.51 571.618 1054.51 555.778L1055.27 543.669C1057.57 506.986 1079.44 474.384 1112.51 458.336V458.336C1133.83 447.987 1158.1 445.39 1181.13 450.993L1186.23 452.235C1220.26 460.512 1248.76 483.648 1263.85 515.245L1272.65 533.663C1279.18 547.335 1283.74 561.868 1286.17 576.823L1286.7 580.096C1290.53 603.636 1289.71 627.699 1284.3 650.925L1277 682.219L1267.72 708.129C1254.98 743.69 1230.12 773.623 1197.5 792.67V792.67L1160.5 812.661L1148.32 817.241C1122.85 826.821 1096.42 833.663 1069.5 837.65V837.65L1053.12 839.365C1029.09 841.881 1004.88 842.215 980.793 840.363L942.286 837.402C893.104 833.621 845.477 818.444 803.174 793.074V793.074C781.139 779.859 760.788 764.021 742.566 745.906L678.5 682.219L618.5 605.753L537 491.803L482.762 417.143C460.734 386.821 433.915 360.29 403.356 338.592L392.795 331.092C369.747 314.727 344.227 302.158 317.205 293.863V293.863C302.099 289.227 286.608 285.952 270.917 284.078L258.57 282.603C229.612 279.144 200.11 278.927 171.1 281.905V281.905C139.008 285.2 107.171 292.483 76.8616 303.531V303.531C50.6955 313.07 25.6237 325.378 2.07336 340.245L-29 359.862" stroke="white" stroke-width="70"/>
<circle cx="1218.5" cy="183.5" r="20.5" fill="#FFF1DD"/>
<circle cx="1131" cy="305" r="30" fill="#FFF1DD"/>
<path d="M857.5 406L866.622 475.116L922 486.5L866.622 497.884L857.5 567L848.378 497.884L793 486.5L848.378 475.116L857.5 406Z" fill="#FFEFD8"/>
<path d="M921.5 496L926.506 529.212L951 536L926.506 542.788L921.5 576L916.494 542.788L892 536L916.494 529.212L921.5 496Z" fill="#FFEFD8"/>
<path d="M1359 241.906L1350.92 284.224L1391.5 266.372L1364.64 300.033L1410.45 301.185L1370.13 319.521L1412.1 339.449L1366.31 338.83L1396.12 373.587L1353.94 354.134L1365.69 396.836L1335.45 362.403L1326.82 404.592L1314.52 361.998L1287.21 395.319L1295.3 353.001L1254.72 370.853L1281.58 337.192L1235.77 336.04L1276.08 317.703L1234.12 297.775L1279.9 298.394L1250.09 263.638L1292.28 283.09L1280.53 240.388L1310.76 274.821L1319.4 232.632L1331.69 275.226L1359 241.906Z" fill="#FF9900" fill-opacity="0.06"/>
</g>
<defs>
<clipPath id="clip0_2291_1092">
<rect width="1920" height="905" fill="white"/>
</clipPath>
</defs>
</svg>
