<svg width="569" height="607" viewBox="0 0 569 607" fill="none" xmlns="http://www.w3.org/2000/svg">
<g clip-path="url(#clip0_2496_1810)">
<path d="M0 43.947L46.2683 29.5502C98.6797 13.2419 154.779 13.0344 207.309 28.9547V28.9547C257.703 44.2273 311.428 44.6708 362.067 30.2323L367.231 28.7597C432.443 10.1661 502.089 14.8045 564.259 41.882L569 43.947V626.245L542.302 619.164C507.087 609.825 470.056 609.748 434.802 618.942L429.129 620.421C395.08 629.3 359.238 628.579 325.575 618.337V618.337C296.587 609.518 265.913 607.738 236.1 613.145L203.527 619.053C177.383 623.794 150.534 622.984 124.723 616.675V616.675C93.1873 608.966 60.2001 609.489 28.925 618.194L0 626.245V43.947Z" fill="#FFF7EB"/>
<path d="M65.9395 440.515L59.8585 472.349L90.3843 458.92L70.1793 484.242L104.639 485.108L74.3121 498.902L105.881 513.893L71.4385 513.427L93.8641 539.573L62.1276 524.94L70.968 557.063L48.2235 531.16L41.7277 562.897L32.4802 530.856L11.9348 555.921L18.0157 524.087L-12.51 537.517L7.69498 512.195L-26.7651 511.328L3.56214 497.534L-28.007 482.543L6.43575 483.009L-15.9899 456.863L15.7467 471.496L6.90628 439.374L29.6507 465.276L36.1465 433.539L45.3941 465.58L65.9395 440.515Z" fill="#FFF1DD"/>
</g>
<defs>
<clipPath id="clip0_2496_1810">
<rect width="618" height="607" fill="white" transform="translate(-49)"/>
</clipPath>
</defs>
</svg>