<svg width="1920" height="1325" viewBox="0 0 1920 1325" fill="none" xmlns="http://www.w3.org/2000/svg">
<g clip-path="url(#clip0_2355_779)">
<path d="M0 237.981L58.3385 209.78C131.824 174.257 211.196 152.494 292.523 145.571C332.427 142.174 372.555 142.37 412.424 146.157L516.5 156.044L730.5 201.628L825.618 216.695C914.7 230.805 1005.4 231.445 1094.67 218.592L1212.5 201.628L1438 156.044L1481.8 150.496C1534.46 143.827 1587.66 142.674 1640.56 147.058C1712.49 153.018 1783.21 169.163 1850.6 195.009L1920 221.628L1943.5 1516.5H0V237.981Z" fill="#FFF7EB"/>
<path d="M442.17 1014.26L427.401 1091.58L501.542 1058.96L452.468 1120.46L536.165 1122.57L462.506 1156.07L539.182 1192.48L455.526 1191.35L509.994 1254.85L432.912 1219.31L454.383 1297.33L399.141 1234.42L383.364 1311.5L360.903 1233.68L311.002 1294.56L325.771 1217.24L251.63 1249.86L300.704 1188.36L217.006 1186.25L290.666 1152.75L213.99 1116.34L297.646 1117.47L243.178 1053.96L320.26 1089.51L298.789 1011.49L354.031 1074.4L369.808 997.315L392.269 1075.14L442.17 1014.26Z" fill="#FF9900" fill-opacity="0.06"/>
<path d="M1941 373L1813.26 552.582C1785.17 592.072 1752.8 628.332 1716.73 660.697L1705.56 670.715C1627.23 741.003 1531.8 789.468 1428.84 811.256L1378.79 821.846C1322.34 833.791 1263.91 832.698 1207.95 818.651L1112.46 794.683C1070.12 784.053 1034.18 756.125 1013.42 717.713L1001.37 695.41C981.448 658.538 983.482 613.683 1006.66 578.765V578.765C1030.72 542.524 1073.38 523.234 1116.48 529.111L1121.69 529.821C1163.53 535.527 1199.43 562.497 1216.56 601.095L1231.88 635.621C1253.61 684.572 1253.61 740.428 1231.88 789.379L1221.47 812.843C1200.36 860.4 1164.8 900.092 1119.83 926.271L1087.86 944.883C1032.61 977.052 969.816 994 905.881 994H772.241C718.201 994 664.283 988.888 611.207 978.732L356.72 930.035C325.31 924.025 293.403 921 261.424 921V921C166.704 921 73.8786 947.531 -6.5342 997.586L-57 1029" stroke="white" stroke-width="70"/>
<path d="M1526.02 280.337L1515.5 335.389L1568.29 312.165L1533.35 355.954L1592.95 357.453L1540.5 381.307L1595.09 407.232L1535.53 406.426L1574.31 451.641L1519.43 426.336L1534.72 481.886L1495.38 437.092L1484.15 491.976L1468.16 436.566L1432.63 479.913L1443.14 424.861L1390.36 448.085L1425.3 404.295L1365.7 402.796L1418.15 378.942L1363.56 353.018L1423.12 353.823L1384.34 308.608L1439.22 333.914L1423.93 278.363L1463.27 323.157L1474.5 268.273L1490.49 323.683L1526.02 280.337Z" fill="#FF9900" fill-opacity="0.06"/>
</g>
<defs>
<clipPath id="clip0_2355_779">
<rect width="1920" height="1325" fill="white"/>
</clipPath>
</defs>
</svg>
