<svg width="1920" height="1093" viewBox="0 0 1920 1093" fill="none" xmlns="http://www.w3.org/2000/svg">
<g clip-path="url(#clip0_2044_56)">
<path d="M-87 40L37.151 229.532C66.7438 274.709 105.179 313.426 150.138 343.348L171.105 357.302C209.088 382.581 251.117 401.175 295.371 412.28L300.965 413.683C342.715 424.159 385.881 427.828 428.8 424.547L571.21 413.662C590.046 412.223 608.757 409.45 627.202 405.366L689.132 391.653C722.219 384.327 753.041 369.101 778.966 347.276L787.458 340.128C819.78 312.918 841.469 275.179 848.708 233.553V233.553C853.182 207.828 851.99 181.436 845.215 156.218L842.845 147.396C839.3 134.202 833.858 121.593 826.688 109.964V109.964C807.336 78.576 776.463 56.0134 740.68 47.1082L731.131 44.7317C701.638 37.3919 670.626 38.5056 641.727 47.9146V47.9146C601.262 61.0893 567.542 89.6967 548 127.5V127.5V127.5C512.556 196.776 503.607 276.605 522.833 352.01L524.782 359.654C533.54 394.007 547.611 426.781 566.484 456.792L598.021 506.937C611.642 528.596 627.31 548.898 644.81 567.563L662.773 586.724C702.466 629.064 753.205 659.463 809.262 674.49V674.49C861.834 688.584 917.183 688.646 969.786 674.67L988.129 669.797C1033.4 657.77 1080.87 656.622 1126.67 666.447L1150.57 671.575C1183.98 678.741 1215.02 694.258 1240.8 716.677L1255.84 729.754C1287.28 757.09 1306.37 795.945 1308.79 837.533L1309.48 849.252C1312.8 906.301 1280.55 959.478 1228.43 982.9V982.9C1210.68 990.876 1191.44 995 1171.98 995H1170.72C1120.87 995 1074.58 969.144 1048.44 926.692L1047.03 924.413C1034.53 904.104 1027.1 881.08 1025.39 857.291L1023.71 834.072C1020 782.684 1032.68 731.444 1059.93 687.718L1095.43 630.75C1128.95 576.969 1178.64 535.191 1237.38 511.411L1240.09 510.314C1274.04 496.567 1310.33 489.5 1346.97 489.5V489.5C1393.61 489.5 1439.54 500.955 1480.71 522.859L1512 539.5L1520.25 544.953C1622.12 612.262 1749.15 629.362 1865.18 591.386L1956.5 561.5" stroke="#FFF7EB" stroke-width="70"/>
<path d="M1641.64 93.5573L1627.18 169.264L1699.78 137.327L1651.72 197.546L1733.68 199.607L1661.55 232.412L1736.63 268.063L1654.72 266.955L1708.05 329.135L1632.58 294.334L1653.6 370.728L1599.51 309.127L1584.06 384.603L1562.07 308.403L1513.21 368.013L1527.67 292.306L1455.08 324.243L1503.13 264.024L1421.17 261.963L1493.3 229.159L1418.22 193.508L1500.13 194.615L1446.8 132.436L1522.27 167.236L1501.25 90.8429L1555.34 152.443L1570.79 76.9674L1592.78 153.167L1641.64 93.5573Z" fill="#FF9900" fill-opacity="0.06"/>
<circle cx="1415.5" cy="93.5" r="11.5" fill="#FFF9F0"/>
<circle cx="1728.5" cy="422.5" r="21.5" fill="#FFF9F0"/>
<circle cx="1662" cy="45" r="27" fill="#FFF9F0"/>
</g>
<defs>
<clipPath id="clip0_2044_56">
<rect width="1920" height="1093" fill="white"/>
</clipPath>
</defs>
</svg>
