<svg width="173" height="168" viewBox="0 0 173 168" fill="none" xmlns="http://www.w3.org/2000/svg">
<path d="M121.361 9.72191L113.518 50.7789L152.887 33.4588L126.829 66.1166L171.272 67.2342L132.159 85.0246L172.874 104.359L128.453 103.758L157.375 137.479L116.444 118.606L127.846 160.035L98.512 126.628L90.1343 167.56L78.2076 126.236L51.7099 158.563L59.5526 117.506L20.1831 134.826L46.2418 102.168L1.79814 101.051L40.9116 83.2604L0.196401 63.9265L44.6177 64.5271L15.6951 30.8062L56.6262 49.6789L45.2246 8.24985L74.5584 41.6566L82.9361 0.724943L94.8628 42.0492L121.361 9.72191Z" fill="#FF9900" fill-opacity="0.06"/>
</svg>
