<svg width="1920" height="1111" viewBox="0 0 1920 1111" fill="none" xmlns="http://www.w3.org/2000/svg">
<g clip-path="url(#clip0_2044_56)">
<path d="M135 0L142.931 27.0145C148.303 45.3147 154.978 63.2073 162.903 80.5552L173.5 103.75V103.75C188.398 136.36 208.572 166.29 233.209 192.336L262.897 223.719C276.61 238.216 291.474 251.578 307.345 263.674V263.674C352.507 298.095 404.994 321.643 460.732 332.491L562.078 352.217C586.968 357.061 612.267 359.5 637.624 359.5H707.416C731.379 359.5 754.917 353.168 775.646 341.145V341.145C803.629 324.915 824.91 299.242 835.668 268.735L845.755 240.134C852.163 221.963 854.237 202.546 851.812 183.431V183.431C848.677 158.721 838.154 135.532 821.621 116.902L803.85 96.8759C788.223 79.2661 768.256 66.0567 745.936 58.5626V58.5626C723.381 50.9893 699.223 49.5211 675.917 54.3072L652.681 59.079C618.572 66.0833 588.528 86.0848 568.907 114.85V114.85C555.226 134.906 547.249 158.302 545.828 182.538L542.102 246.062C539.392 292.263 546.122 338.409 558.146 383.101C563.252 402.079 567 418.46 567 425C567 439.4 591 549 616 601L644.219 668.311C661.615 709.806 685.887 748.069 716.014 781.488L762 832.5L821.417 886.606C841.421 904.822 863.221 920.961 886.483 934.776L914.164 951.215C948.527 971.623 985.755 986.766 1024.61 996.139L1061.22 1004.97C1083.37 1010.31 1105.93 1013.76 1128.66 1015.26L1178.81 1018.57C1198.18 1019.85 1217.63 1018.47 1236.62 1014.47V1014.47C1261.67 1009.2 1285.56 999.449 1307.14 985.685L1338 966V966C1382.61 932.134 1415.88 885.513 1433.4 832.314L1438.89 815.655C1444.59 798.329 1447.5 780.204 1447.5 761.963V761.963C1447.5 708.139 1422.25 657.431 1379.3 624.99L1364.81 614.04C1327.93 586.186 1280.44 576.489 1235.6 587.655V587.655C1200.96 596.279 1170.43 616.741 1149.28 645.498L1133.03 667.603C1107.84 701.857 1092.68 742.446 1089.26 784.825L1087.63 804.905C1084.9 838.723 1087.92 872.761 1096.57 905.568L1097.66 909.718C1107.48 946.943 1123.82 982.13 1145.94 1013.64L1155.07 1026.63C1172.96 1052.12 1193.77 1075.44 1217.07 1096.1L1221.31 1099.86C1245.02 1120.88 1271.14 1139.01 1299.13 1153.86L1338 1174.5L1462.5 1224.5L1533.51 1246.16C1572.28 1257.98 1609.02 1275.63 1642.49 1298.5L1712 1346" stroke="#FFF7EB" stroke-width="70"/>
<path d="M1642.07 111.557L1627.61 187.264L1700.21 155.327L1652.16 215.546L1734.11 217.607L1661.99 250.412L1737.06 286.063L1655.15 284.955L1708.48 347.135L1633.01 312.334L1654.03 388.728L1599.94 327.127L1584.49 402.603L1562.5 326.403L1513.64 386.013L1528.1 310.306L1455.51 342.243L1503.56 282.024L1421.61 279.963L1493.73 247.159L1418.65 211.508L1500.56 212.615L1447.23 150.436L1522.71 185.236L1501.68 108.843L1555.77 170.443L1571.22 94.9674L1593.21 171.167L1642.07 111.557Z" fill="#FF9900" fill-opacity="0.06"/>
<circle cx="1415.5" cy="111.5" r="11.5" fill="#FFF9F0"/>
<circle cx="1728.5" cy="440.5" r="21.5" fill="#FFF9F0"/>
<circle cx="1662" cy="63" r="27" fill="#FFF9F0"/>
</g>
<defs>
<clipPath id="clip0_2044_56">
<rect width="1920" height="1111" fill="white"/>
</clipPath>
</defs>
</svg>