<svg width="1920" height="2423" viewBox="0 0 1920 2423" fill="none" xmlns="http://www.w3.org/2000/svg">
<g clip-path="url(#clip0_2114_1469)">
<path d="M1561 1743L1578.21 1718.34C1601.3 1685.27 1619.76 1649.2 1633.09 1611.14V1611.14C1649.58 1564.05 1658 1514.52 1658 1464.63V1434.5V1434.5C1658 1402.1 1652.19 1369.95 1640.86 1339.6L1636.44 1327.77C1620.96 1286.32 1597.57 1248.28 1567.56 1215.76L1508.58 1151.85C1478.66 1119.43 1444.58 1091.11 1407.22 1067.63L1380.1 1050.58C1354.09 1034.23 1326.63 1020.31 1298.06 1009L1259.18 993.606C1200.59 970.411 1138.14 958.5 1075.13 958.5H1041.41C994.728 958.5 948.304 951.578 903.652 937.96L885.302 932.363C829.486 915.34 778.225 885.953 735.332 846.388V846.388C701.709 815.373 673.831 778.661 652.985 737.943L631 695L582.062 561.723C567.858 523.038 545.406 487.906 516.266 458.766V458.766C468.947 411.447 406.441 382.351 339.769 376.609L290.998 372.408C170.02 361.988 59.5392 299.511 -11.7415 201.207L-67 125M1561 1743V1743C1535.13 1795.06 1484.61 1830.44 1426.85 1836.97L1407.04 1839.21C1384.84 1841.72 1362.37 1840.49 1340.57 1835.59L1305.25 1827.64C1251.9 1815.63 1209.96 1773.48 1197.55 1720.22V1720.22C1189.84 1687.14 1194.36 1651.99 1210.43 1622.07V1622.07C1237.11 1572.38 1291.07 1543.62 1347.2 1549.17L1374.38 1551.85C1437.97 1558.14 1493.51 1597.57 1520.41 1655.54L1561 1743ZM1561 1743L1566.31 1780.89C1572.06 1821.97 1570.47 1863.74 1561.62 1904.27V1904.27C1555.56 1931.99 1546.16 1958.87 1533.63 1984.32L1519.5 2013L1513.92 2023.44C1479.92 2087.04 1425.93 2137.68 1360.28 2167.54V2167.54C1317.59 2186.95 1271.23 2197 1224.33 2197H1196.7C1158.39 2197 1120.22 2192.17 1083.12 2182.62L1030.25 2169.02C954.794 2149.61 884.921 2112.83 826.202 2061.63L772.491 2014.79C649.086 1907.17 480.808 1866.8 322.008 1906.7L315.517 1908.33C232.878 1929.1 156.917 1970.64 94.8443 2029.01L85.9226 2037.4C54.4404 2067.01 26.9293 2100.57 4.0772 2137.25L-40 2208" stroke="#D7F7FF" stroke-width="70"/>
<mask id="mask0_2114_1469" style="mask-type:alpha" maskUnits="userSpaceOnUse" x="1609" y="580" width="340" height="323">
<path d="M1811.06 902.029C1808.44 902.1 1806.01 901.801 1802.99 901.049C1797.03 899.562 1791.97 895.847 1789.12 890.912C1787.8 888.635 1787.53 887.75 1784.93 877.671C1782.77 869.19 1781.97 866.598 1781.3 865.51C1780.81 864.74 1780.2 864.094 1779.99 864.077C1779.73 864.037 1778.46 865.077 1777.17 866.38C1775.84 867.659 1774.74 868.723 1774.68 868.738C1774.61 868.753 1773.9 869.338 1773.13 870.001C1769.72 872.958 1765.28 874.485 1760.36 874.328C1753.58 874.099 1748.68 871.261 1744.65 865.258C1743.21 863.073 1742.3 858.613 1742.74 855.578C1743.4 850.862 1744.45 848.992 1756.7 831.118C1764.87 819.188 1768.23 813.991 1768.54 812.877C1768.94 811.352 1768.91 811.096 1766.56 801.484C1763.5 788.899 1762.72 787.315 1759.28 787.049C1756.99 786.882 1752.34 789.469 1749.19 792.661C1748.78 793.046 1747.13 794.463 1745.49 795.749C1741.32 799.106 1738 802.436 1737.43 803.835C1737.16 804.485 1736.84 806.808 1736.7 808.992C1736.28 815.972 1736 820.178 1735.77 822.904C1735.64 824.368 1735.42 827.582 1735.3 830.023C1734.43 846.662 1733.97 848.853 1730.42 853.538C1726.51 858.763 1720.03 861.86 1713.65 861.509C1708.56 861.258 1704.27 859.392 1700.89 855.95C1698.64 853.652 1697.84 851.943 1696.31 846.286C1695.47 843.183 1694.74 841.063 1694.46 840.899C1693.97 840.618 1693.97 840.618 1685.5 847.819C1675.77 856.09 1673.39 857.574 1668.09 858.708C1661.96 860.064 1657.37 859.242 1651.41 855.732C1647.31 853.332 1644.97 851.057 1642.23 846.882C1640.84 844.782 1640.45 843.858 1639.94 841.593C1639.24 838.521 1639.32 837.002 1640.29 833.195C1641.6 828.103 1644 824.396 1649.56 818.962C1650.39 818.122 1651.15 817.429 1651.25 817.406C1651.35 817.383 1653.02 815.927 1654.98 814.148C1658.91 810.549 1661.73 807.139 1661.08 806.764C1660.87 806.615 1659.4 806.491 1657.85 806.452C1656.3 806.444 1654.31 806.209 1653.45 805.98C1651.41 805.396 1647.28 802.678 1645.72 800.911C1641.22 795.797 1639.54 786.684 1642.18 781.684C1644.49 777.279 1648.08 774.051 1652.43 772.415C1655.96 771.093 1662.25 770.258 1667.27 770.392C1669.22 770.441 1671.37 770.476 1672.04 770.456C1672.7 770.436 1674.23 770.483 1675.41 770.574C1677.55 770.709 1682.08 770.826 1686.74 770.881C1688.1 770.865 1690.72 770.925 1692.56 770.965C1697.8 771.116 1702.2 770.969 1703.71 770.628C1705.28 770.272 1708.47 768.374 1710.22 766.741C1710.85 766.14 1711.47 765.608 1711.57 765.585C1711.91 765.51 1717.24 760.78 1719.81 758.306C1721.11 757.065 1722.56 755.368 1723.1 754.495C1723.87 753.244 1723.97 752.764 1723.71 751.584C1723.46 750.498 1723.15 750.047 1722.16 749.391C1720.99 748.61 1715.94 746.655 1715.37 746.784C1715.24 746.814 1714.83 746.711 1714.51 746.523C1713.91 746.234 1709.85 745.228 1702.21 743.5C1698.95 742.77 1698.59 742.753 1696.12 743.313C1694.64 743.646 1692.89 744.273 1692.11 744.71C1691.33 745.179 1689.38 746.176 1687.76 746.966C1686.15 747.756 1683.74 748.952 1682.45 749.604C1681.16 750.287 1678.31 751.682 1676.12 752.733C1673.93 753.783 1671.08 755.178 1669.79 755.861C1659.55 761.147 1659.55 761.147 1654.04 762.428C1649.09 763.58 1648.75 763.625 1646.53 763.28C1643.39 762.783 1639.09 760.754 1636.97 758.821C1632.96 755.128 1630.91 749.623 1631.47 744.179C1632.1 737.937 1634.93 733.511 1641.24 728.887C1642.38 728.041 1643.26 727.224 1643.21 727.007C1643.16 726.789 1642.33 726.421 1641.36 726.153C1636.64 724.904 1625.76 721.267 1623.16 720.061C1616.33 716.91 1611.56 711.562 1610.18 705.449C1608.79 699.305 1610.18 693.477 1614.35 687.641C1620.51 679.103 1632.52 675.895 1645.45 679.426C1646.99 679.829 1649.19 680.406 1650.31 680.675C1651.43 680.976 1653.71 681.538 1655.34 681.918C1656.98 682.329 1659.03 682.65 1659.9 682.647C1662.04 682.619 1662.27 682.21 1661.43 680.051C1660.46 677.66 1659.64 674.029 1659.6 671.82C1659.52 668.837 1660.47 666.044 1662.68 662.902C1665.52 658.802 1668.81 656.394 1673.51 654.938C1682.3 652.264 1689.41 654.44 1694.68 661.433C1696.49 663.829 1696.9 664.552 1699.97 670.023C1700.88 671.709 1702.48 674.576 1703.52 676.395C1706.61 681.928 1708.83 685.992 1710.09 688.447C1711.99 692.192 1714.33 696.164 1715.66 697.821C1717.04 699.595 1718.37 700.175 1724.18 701.6C1726.04 702.028 1728.89 702.818 1730.55 703.322C1739.15 705.878 1743.16 705.689 1744.46 702.589C1745.43 700.184 1741.16 680.728 1738.85 677.012C1738.48 676.476 1735.34 674.445 1730.37 671.591C1721.31 666.399 1704.8 656.534 1703.31 655.403C1701.48 654.022 1700.46 653.079 1698.87 651.319C1697.41 649.692 1697.26 649.335 1696.35 645.952C1695.49 642.786 1695.43 642.019 1695.66 639.943C1696.3 634.057 1700.72 627.936 1706.13 625.407C1711.25 623.008 1717.27 622.721 1722.58 624.585C1724.73 625.371 1728.65 626.081 1729.01 625.773C1729.18 625.604 1728.82 623.37 1728.02 619.864C1726 610.764 1725.27 605.545 1725.62 602.238C1726.04 598.227 1727.03 595.101 1728.6 592.591C1733.15 585.331 1740.76 581.031 1749.68 580.644C1757.04 580.349 1765.39 584.46 1769.2 590.221C1771.3 593.464 1772.01 595.327 1774.28 604.273C1776.53 613.126 1777.54 615.603 1778.85 615.307C1779.22 615.224 1780.49 614.022 1781.63 612.687C1782.77 611.353 1784.74 609.472 1785.97 608.541C1788.19 606.832 1788.26 606.817 1792.25 605.947C1796.93 604.886 1798.64 604.988 1803.17 606.507C1809.79 608.696 1813.77 613.048 1814.58 618.964C1815.05 622.151 1814.68 626.706 1813.81 628.631C1813.26 629.929 1807.64 639.129 1805.43 642.434C1795.48 657.213 1790.09 665.608 1789.56 667.132L1788.92 668.973L1791.2 678.895C1793.41 688.639 1793.49 688.849 1794.74 690.622C1796.36 692.994 1797.52 693.449 1800.1 692.866C1801.7 692.471 1802.49 692.065 1804.85 690.225C1806.41 689.024 1808.34 687.446 1809.13 686.776C1809.96 686.067 1811.55 684.696 1812.66 683.695C1813.81 682.716 1815.37 681.384 1816.18 680.745C1816.94 680.083 1818.29 678.571 1819.14 677.366C1820.79 675.004 1820.94 674.253 1821.24 667.203C1821.3 665.592 1821.46 663.043 1821.55 661.587C1821.74 658.706 1821.93 655.173 1822.26 649.03C1822.64 641.508 1823.39 635.499 1824.51 631.429C1825.65 627.32 1829.79 622.437 1833.74 620.598C1840.42 617.486 1848.87 618.282 1854.55 622.542C1858.2 625.304 1859.59 627.729 1861.06 633.889C1862.04 638.102 1862.44 638.925 1863.44 638.829C1864.44 638.734 1865.84 637.633 1875.32 629.453C1881.29 624.285 1884.61 622.295 1888.94 621.248C1894.12 620.043 1898.75 620.594 1904.49 623.08C1912.61 626.655 1916.9 632.83 1917.07 641.37C1917.1 644.005 1916.37 648.216 1915.52 650.041C1913.01 655.436 1912.1 656.555 1904.2 663.922C1897.42 670.217 1895.3 672.624 1895.74 673.502C1895.88 673.797 1896.93 674.081 1898.36 674.182C1904.39 674.74 1911 678.432 1913.43 682.644C1914.92 685.178 1915.77 690.498 1915.16 693.54C1914.55 696.776 1913.44 699.637 1912.02 701.753C1910.6 703.868 1906.86 706.77 1904.01 708.003C1901.61 709.068 1896.76 709.872 1892.12 710.041C1890.19 710.086 1887.17 710.248 1885.37 710.394C1883.58 710.539 1880.83 710.672 1879.28 710.695C1877.73 710.687 1875.78 710.77 1874.92 710.836C1874.06 710.932 1871.54 710.981 1869.32 710.961C1861.36 710.936 1859.42 711.081 1855.64 711.937C1852.2 712.748 1851.85 712.893 1850.02 714.286C1848.93 715.087 1847.21 716.519 1846.16 717.474C1845.11 718.43 1843.62 719.747 1842.79 720.425C1838.09 724.228 1834.57 728.58 1834.6 730.564C1834.59 731.804 1834.96 732.309 1836.5 733.394C1838.41 734.69 1846.63 737.236 1855.19 739.179C1859.38 740.122 1859.92 740.164 1861.86 739.725C1863.03 739.46 1865.04 738.711 1866.33 738.028C1874.97 733.594 1876.74 732.704 1878.31 732.023C1879.27 731.609 1881.42 730.566 1883.06 729.707C1895.93 722.978 1901.4 720.566 1905.29 719.881C1913.6 718.39 1920.96 721.519 1924.59 728.07C1927.05 732.539 1927.71 738.881 1926.13 742.793C1925.07 745.414 1921.88 749.203 1918.17 752.229C1914.04 755.609 1913.93 755.732 1915.35 756.259C1915.93 756.486 1917.03 756.825 1917.73 756.992C1918.45 757.189 1920.4 757.757 1922.07 758.293C1923.74 758.797 1926.52 759.602 1928.28 760.053C1938.14 762.746 1943.88 766.829 1946.58 773.003C1948.56 777.546 1948.59 783.575 1946.62 789.632C1945.69 792.548 1942.46 797.359 1940.11 799.292C1934.9 803.604 1926.88 805.484 1919.13 804.204C1917.52 803.917 1916.01 803.638 1915.78 803.528C1915.57 803.411 1913.71 802.952 1911.67 802.468C1909.63 802.016 1907.53 801.447 1907 801.274C1904.67 800.464 1900.31 799.852 1898.75 800.139C1897.13 800.409 1897.13 800.409 1897.4 801.325C1899.75 809.047 1899.71 808.861 1899.38 811.742C1898.74 816.713 1896.12 820.667 1890.48 824.977L1888 826.909L1883.65 827.894C1879.34 828.902 1879.27 828.917 1876.72 828.385C1873.77 827.781 1868.36 824.862 1866.46 822.845C1864.42 820.665 1861.08 815.844 1859.11 812.114C1858.05 810.102 1856.55 807.374 1855.79 806.014C1854.12 802.999 1851.37 797.847 1848.71 792.611C1844.92 785.184 1842.87 782.515 1840.16 781.401C1839.46 781.103 1837.05 780.439 1834.79 779.908C1832.55 779.37 1830.1 778.784 1829.38 778.555C1828.66 778.327 1826.1 777.733 1823.7 777.232C1820.04 776.461 1819.03 776.363 1817.53 776.704C1815.58 777.112 1814.82 777.806 1814.2 779.709C1813.91 780.622 1814.19 782.188 1816.05 790.869C1818.34 801.605 1819.04 803.763 1820.8 805.453C1821.3 805.959 1828.8 810.524 1837.4 815.558C1856.05 826.441 1857.29 827.238 1859.79 830.064C1861.11 831.558 1862.41 834.331 1863.01 837C1864.35 843.059 1861.78 850.066 1856.5 854.718C1851.39 859.302 1846.22 860.275 1838.49 858.143C1833.16 856.674 1831.09 856.229 1830.69 856.483C1830.39 856.683 1830.69 858.505 1832.08 864.944C1834.12 874.269 1834.39 875.905 1834.22 879.53C1834.12 882.521 1833.37 885.431 1831.91 888.6C1830.15 892.457 1826.08 896.737 1822.05 898.955C1819.98 900.107 1819.01 900.458 1815.69 901.177C1813.54 901.631 1811.45 902.039 1811.06 902.029Z" fill="#8A8F92"/>
</mask>
<g mask="url(#mask0_2114_1469)">
<rect x="1487.97" y="597.856" width="820.761" height="707.95" transform="rotate(-12.7534 1487.97 597.856)" fill="#D7F7FF"/>
</g>
<path d="M1915.3 2192.48C1917.27 2189.44 1921.73 2189.44 1923.7 2192.48L1934.74 2209.53C1936.27 2211.89 1939.45 2212.52 1941.77 2210.93L1958.49 2199.4C1961.48 2197.34 1965.59 2199.05 1966.25 2202.61L1969.92 2222.59C1970.43 2225.36 1973.13 2227.16 1975.88 2226.57L1995.74 2222.32C1999.29 2221.56 2002.44 2224.71 2001.68 2228.26L1997.43 2248.12C1996.84 2250.87 1998.64 2253.57 2001.41 2254.08L2021.39 2257.75C2024.95 2258.41 2026.66 2262.52 2024.6 2265.51L2013.07 2282.23C2011.48 2284.55 2012.11 2287.73 2014.47 2289.26L2031.52 2300.3C2034.56 2302.27 2034.56 2306.73 2031.52 2308.7L2014.47 2319.74C2012.11 2321.27 2011.48 2324.45 2013.07 2326.77L2024.6 2343.49C2026.66 2346.48 2024.95 2350.59 2021.39 2351.25L2001.41 2354.92C1998.64 2355.43 1996.84 2358.13 1997.43 2360.88L2001.68 2380.74C2002.44 2384.29 1999.29 2387.44 1995.74 2386.68L1975.88 2382.43C1973.13 2381.84 1970.43 2383.64 1969.92 2386.41L1966.25 2406.39C1965.59 2409.95 1961.48 2411.66 1958.49 2409.6L1941.77 2398.07C1939.45 2396.48 1936.27 2397.11 1934.74 2399.47L1923.7 2416.52C1921.73 2419.56 1917.27 2419.56 1915.3 2416.52L1904.26 2399.47C1902.73 2397.11 1899.55 2396.48 1897.23 2398.07L1880.51 2409.6C1877.52 2411.66 1873.41 2409.95 1872.75 2406.39L1869.08 2386.41C1868.57 2383.64 1865.87 2381.84 1863.12 2382.43L1843.26 2386.68C1839.71 2387.44 1836.56 2384.29 1837.32 2380.74L1841.57 2360.88C1842.16 2358.13 1840.36 2355.43 1837.59 2354.92L1817.61 2351.25C1814.05 2350.59 1812.34 2346.48 1814.4 2343.49L1825.93 2326.77C1827.52 2324.45 1826.89 2321.27 1824.53 2319.74L1807.48 2308.7C1804.44 2306.73 1804.44 2302.27 1807.48 2300.3L1824.53 2289.26C1826.89 2287.73 1827.52 2284.55 1825.93 2282.23L1814.4 2265.51C1812.34 2262.52 1814.05 2258.41 1817.61 2257.75L1837.59 2254.08C1840.36 2253.57 1842.16 2250.87 1841.57 2248.12L1837.32 2228.26C1836.56 2224.71 1839.71 2221.56 1843.26 2222.32L1863.12 2226.57C1865.87 2227.16 1868.57 2225.36 1869.08 2222.59L1872.75 2202.61C1873.41 2199.05 1877.52 2197.34 1880.51 2199.4L1897.23 2210.93C1899.55 2212.52 1902.73 2211.89 1904.26 2209.53L1915.3 2192.48Z" fill="#D7F7FF"/>
<mask id="mask1_2114_1469" style="mask-type:alpha" maskUnits="userSpaceOnUse" x="903" y="1232" width="212" height="201">
<path d="M1029.15 1432.88C1027.52 1432.92 1026.01 1432.74 1024.13 1432.27C1020.42 1431.34 1017.27 1429.03 1015.5 1425.96C1014.68 1424.54 1014.51 1423.99 1012.9 1417.72C1011.55 1412.45 1011.05 1410.83 1010.64 1410.16C1010.33 1409.68 1009.96 1409.28 1009.82 1409.27C1009.66 1409.24 1008.87 1409.89 1008.07 1410.7C1007.24 1411.49 1006.56 1412.16 1006.52 1412.17C1006.47 1412.17 1006.03 1412.54 1005.56 1412.95C1003.43 1414.79 1000.67 1415.74 997.607 1415.64C993.394 1415.5 990.346 1413.73 987.837 1410C986.938 1408.64 986.376 1405.87 986.649 1403.98C987.057 1401.04 987.713 1399.88 995.331 1388.76C1000.41 1381.34 1002.51 1378.1 1002.7 1377.41C1002.94 1376.46 1002.93 1376.3 1001.47 1370.32C999.564 1362.49 999.078 1361.51 996.939 1361.34C995.515 1361.24 992.618 1362.85 990.66 1364.83C990.408 1365.07 989.381 1365.96 988.359 1366.76C985.767 1368.84 983.697 1370.92 983.347 1371.79C983.175 1372.19 982.977 1373.64 982.891 1375C982.626 1379.34 982.452 1381.95 982.311 1383.65C982.232 1384.56 982.094 1386.56 982.022 1388.08C981.475 1398.43 981.193 1399.79 978.985 1402.71C976.547 1405.96 972.518 1407.89 968.551 1407.67C965.385 1407.51 962.715 1406.35 960.61 1404.21C959.214 1402.78 958.711 1401.72 957.761 1398.2C957.236 1396.27 956.785 1394.95 956.608 1394.85C956.306 1394.67 956.306 1394.67 951.038 1399.15C944.98 1404.3 943.503 1405.22 940.205 1405.93C936.39 1406.77 933.538 1406.26 929.826 1404.07C927.277 1402.58 925.819 1401.17 924.115 1398.57C923.25 1397.26 923.01 1396.69 922.691 1395.28C922.259 1393.37 922.308 1392.42 922.91 1390.05C923.725 1386.88 925.217 1384.58 928.676 1381.2C929.192 1380.68 929.664 1380.24 929.726 1380.23C929.789 1380.22 930.831 1379.31 932.047 1378.2C934.496 1375.96 936.248 1373.84 935.845 1373.61C935.715 1373.52 934.8 1373.44 933.831 1373.42C932.867 1373.41 931.63 1373.26 931.094 1373.12C929.83 1372.76 927.259 1371.07 926.287 1369.97C923.488 1366.79 922.445 1361.12 924.083 1358.01C925.521 1355.27 927.758 1353.26 930.461 1352.24C932.661 1351.42 936.571 1350.9 939.698 1350.98C940.908 1351.01 942.248 1351.03 942.662 1351.02C943.075 1351.01 944.022 1351.04 944.758 1351.09C946.09 1351.18 948.908 1351.25 951.805 1351.28C952.657 1351.27 954.285 1351.31 955.429 1351.34C958.689 1351.43 961.427 1351.34 962.364 1351.13C963.342 1350.91 965.329 1349.73 966.413 1348.71C966.81 1348.33 967.194 1348 967.257 1347.99C967.465 1347.94 970.783 1345 972.383 1343.46C973.193 1342.69 974.092 1341.63 974.429 1341.09C974.909 1340.31 974.973 1340.01 974.807 1339.28C974.654 1338.6 974.459 1338.32 973.841 1337.92C973.119 1337.43 969.976 1336.21 969.622 1336.29C969.539 1336.31 969.283 1336.25 969.082 1336.13C968.713 1335.95 966.185 1335.33 961.433 1334.25C959.404 1333.8 959.183 1333.78 957.642 1334.13C956.726 1334.34 955.632 1334.73 955.146 1335C954.665 1335.29 953.448 1335.91 952.443 1336.41C951.438 1336.9 949.943 1337.64 949.137 1338.05C948.336 1338.47 946.563 1339.34 945.2 1339.99C943.838 1340.65 942.064 1341.52 941.263 1341.94C934.894 1345.23 934.894 1345.23 931.462 1346.03C928.385 1346.74 928.173 1346.77 926.789 1346.56C924.836 1346.25 922.165 1344.98 920.842 1343.78C918.352 1341.48 917.073 1338.06 917.423 1334.67C917.814 1330.79 919.576 1328.04 923.5 1325.16C924.212 1324.63 924.754 1324.12 924.724 1323.99C924.693 1323.85 924.181 1323.62 923.574 1323.46C920.641 1322.68 913.869 1320.42 912.254 1319.67C908.002 1317.71 905.038 1314.38 904.177 1310.58C903.312 1306.75 904.177 1303.13 906.77 1299.5C910.602 1294.19 918.074 1292.19 926.122 1294.39C927.076 1294.64 928.449 1295 929.144 1295.16C929.843 1295.35 931.257 1295.7 932.274 1295.94C933.295 1296.19 934.566 1296.39 935.112 1296.39C936.444 1296.37 936.583 1296.12 936.06 1294.78C935.461 1293.29 934.949 1291.03 934.923 1289.66C934.875 1287.8 935.467 1286.06 936.841 1284.11C938.606 1281.56 940.652 1280.06 943.578 1279.15C949.045 1277.49 953.467 1278.84 956.75 1283.19C957.875 1284.68 958.13 1285.13 960.039 1288.54C960.604 1289.59 961.599 1291.37 962.249 1292.5C964.167 1295.94 965.549 1298.47 966.332 1300C967.516 1302.33 968.973 1304.8 969.797 1305.83C970.66 1306.94 971.486 1307.3 975.101 1308.18C976.256 1308.45 978.03 1308.94 979.065 1309.25C984.415 1310.84 986.906 1310.73 987.717 1308.8C988.319 1307.3 985.667 1295.2 984.225 1292.89C983.996 1292.55 982.046 1291.29 978.952 1289.51C973.318 1286.28 963.042 1280.15 962.117 1279.44C960.981 1278.58 960.345 1278 959.353 1276.9C958.445 1275.89 958.351 1275.67 957.787 1273.56C957.254 1271.59 957.212 1271.11 957.357 1269.82C957.754 1266.16 960.504 1262.35 963.868 1260.78C967.055 1259.29 970.801 1259.11 974.106 1260.27C975.443 1260.76 977.885 1261.2 978.104 1261.01C978.211 1260.9 977.984 1259.51 977.491 1257.33C976.231 1251.67 975.781 1248.42 975.994 1246.37C976.261 1243.87 976.871 1241.93 977.853 1240.36C980.683 1235.85 985.418 1233.17 990.967 1232.93C995.544 1232.75 1000.74 1235.31 1003.11 1238.89C1004.42 1240.91 1004.85 1242.07 1006.27 1247.63C1007.67 1253.14 1008.3 1254.68 1009.11 1254.5C1009.34 1254.44 1010.14 1253.7 1010.84 1252.87C1011.55 1252.04 1012.78 1250.87 1013.54 1250.29C1014.92 1249.22 1014.97 1249.21 1017.45 1248.67C1020.36 1248.01 1021.43 1248.08 1024.25 1249.02C1028.36 1250.38 1030.84 1253.09 1031.34 1256.77C1031.64 1258.75 1031.4 1261.59 1030.86 1262.79C1030.52 1263.59 1027.02 1269.32 1025.65 1271.37C1019.46 1280.57 1016.11 1285.79 1015.78 1286.74L1015.38 1287.88L1016.8 1294.06C1018.17 1300.12 1018.22 1300.25 1019 1301.35C1020.01 1302.83 1020.73 1303.11 1022.33 1302.75C1023.33 1302.5 1023.82 1302.25 1025.29 1301.11C1026.26 1300.36 1027.46 1299.38 1027.95 1298.96C1028.47 1298.52 1029.46 1297.67 1030.15 1297.04C1030.86 1296.43 1031.83 1295.61 1032.34 1295.21C1032.81 1294.8 1033.65 1293.86 1034.18 1293.11C1035.2 1291.64 1035.3 1291.17 1035.49 1286.78C1035.52 1285.78 1035.62 1284.19 1035.68 1283.29C1035.8 1281.5 1035.91 1279.3 1036.12 1275.48C1036.35 1270.8 1036.82 1267.06 1037.52 1264.53C1038.23 1261.97 1040.8 1258.93 1043.26 1257.79C1047.42 1255.85 1052.67 1256.35 1056.21 1259C1058.48 1260.72 1059.34 1262.22 1060.26 1266.06C1060.87 1268.68 1061.12 1269.19 1061.74 1269.13C1062.36 1269.07 1063.23 1268.39 1069.13 1263.3C1072.85 1260.08 1074.91 1258.84 1077.61 1258.19C1080.83 1257.44 1083.71 1257.79 1087.28 1259.33C1092.33 1261.56 1095 1265.4 1095.11 1270.71C1095.13 1272.35 1094.67 1274.97 1094.14 1276.11C1092.58 1279.46 1092.01 1280.16 1087.1 1284.74C1082.88 1288.66 1081.56 1290.16 1081.83 1290.7C1081.92 1290.89 1082.57 1291.06 1083.46 1291.12C1087.22 1291.47 1091.33 1293.77 1092.84 1296.39C1093.77 1297.97 1094.3 1301.28 1093.91 1303.17C1093.54 1305.18 1092.85 1306.96 1091.96 1308.28C1091.08 1309.59 1088.75 1311.4 1086.98 1312.17C1085.49 1312.83 1082.47 1313.33 1079.58 1313.43C1078.38 1313.46 1076.5 1313.56 1075.38 1313.65C1074.27 1313.74 1072.56 1313.83 1071.6 1313.84C1070.63 1313.84 1069.42 1313.89 1068.88 1313.93C1068.35 1313.99 1066.78 1314.02 1065.4 1314.01C1060.45 1313.99 1059.24 1314.08 1056.89 1314.61C1054.75 1315.12 1054.53 1315.21 1053.39 1316.08C1052.71 1316.57 1051.64 1317.46 1050.99 1318.06C1050.34 1318.65 1049.41 1319.47 1048.89 1319.89C1045.97 1322.26 1043.78 1324.97 1043.79 1326.2C1043.79 1326.97 1044.02 1327.29 1044.98 1327.96C1046.17 1328.77 1051.28 1330.35 1056.61 1331.56C1059.21 1332.15 1059.55 1332.17 1060.76 1331.9C1061.49 1331.74 1062.74 1331.27 1063.54 1330.85C1068.91 1328.09 1070.01 1327.53 1070.99 1327.11C1071.59 1326.85 1072.93 1326.2 1073.95 1325.67C1081.95 1321.48 1085.35 1319.98 1087.77 1319.56C1092.95 1318.63 1097.53 1320.58 1099.78 1324.65C1101.31 1327.43 1101.72 1331.38 1100.74 1333.81C1100.08 1335.44 1098.1 1337.8 1095.79 1339.68C1093.22 1341.78 1093.15 1341.86 1094.04 1342.19C1094.4 1342.33 1095.08 1342.54 1095.52 1342.64C1095.96 1342.77 1097.18 1343.12 1098.22 1343.45C1099.25 1343.77 1100.98 1344.27 1102.08 1344.55C1108.21 1346.22 1111.79 1348.76 1113.47 1352.6C1114.7 1355.43 1114.71 1359.18 1113.49 1362.95C1112.91 1364.76 1110.9 1367.76 1109.44 1368.96C1106.2 1371.64 1101.21 1372.81 1096.39 1372.02C1095.38 1371.84 1094.45 1371.66 1094.3 1371.6C1094.17 1371.52 1093.01 1371.24 1091.74 1370.94C1090.48 1370.66 1089.17 1370.3 1088.84 1370.19C1087.39 1369.69 1084.68 1369.31 1083.71 1369.49C1082.7 1369.66 1082.7 1369.66 1082.87 1370.23C1084.33 1375.03 1084.3 1374.91 1084.1 1376.71C1083.7 1379.8 1082.07 1382.26 1078.56 1384.94L1077.02 1386.14L1074.31 1386.75C1071.63 1387.38 1071.59 1387.39 1070 1387.06C1068.17 1386.68 1064.8 1384.87 1063.62 1383.61C1062.35 1382.26 1060.27 1379.26 1059.04 1376.94C1058.39 1375.69 1057.46 1373.99 1056.98 1373.14C1055.94 1371.27 1054.23 1368.06 1052.58 1364.8C1050.22 1360.18 1048.94 1358.52 1047.25 1357.83C1046.82 1357.64 1045.32 1357.23 1043.91 1356.9C1042.52 1356.57 1041 1356.2 1040.55 1356.06C1040.1 1355.92 1038.51 1355.55 1037.01 1355.24C1034.74 1354.76 1034.11 1354.7 1033.17 1354.91C1031.96 1355.16 1031.49 1355.59 1031.1 1356.78C1030.92 1357.34 1031.1 1358.32 1032.26 1363.72C1033.68 1370.4 1034.12 1371.74 1035.21 1372.79C1035.52 1373.11 1040.19 1375.95 1045.54 1379.08C1057.14 1385.85 1057.91 1386.35 1059.47 1388.1C1060.29 1389.03 1061.1 1390.76 1061.47 1392.42C1062.31 1396.19 1060.71 1400.55 1057.42 1403.44C1054.24 1406.29 1051.03 1406.9 1046.22 1405.57C1042.9 1404.66 1041.62 1404.38 1041.37 1404.54C1041.18 1404.67 1041.37 1405.8 1042.23 1409.8C1043.5 1415.61 1043.66 1416.62 1043.56 1418.88C1043.5 1420.74 1043.03 1422.55 1042.12 1424.52C1041.03 1426.92 1038.5 1429.58 1035.99 1430.96C1034.7 1431.68 1034.1 1431.9 1032.03 1432.35C1030.69 1432.63 1029.39 1432.88 1029.15 1432.88Z" fill="#8A8F92"/>
</mask>
<g mask="url(#mask1_2114_1469)">
<rect x="828.144" y="1243.64" width="510.626" height="440.443" transform="rotate(-12.7534 828.144 1243.64)" fill="#D7F7FF"/>
</g>
<circle cx="58.9867" cy="1580.21" r="33.5" transform="rotate(23.1947 58.9867 1580.21)" fill="#D7F7FF"/>
<circle cx="116.753" cy="1454.28" r="16" transform="rotate(23.1947 116.753 1454.28)" fill="#D7F7FF"/>
<circle cx="161.929" cy="1559.58" r="26" transform="rotate(23.1947 161.929 1559.58)" fill="#D7F7FF"/>
<path d="M1442.3 200.481C1444.27 197.438 1448.73 197.438 1450.7 200.481L1455.95 208.597C1457.48 210.962 1460.67 211.595 1462.99 209.996L1470.95 204.509C1473.93 202.452 1478.05 204.156 1478.7 207.721L1480.45 217.231C1480.96 220.002 1483.66 221.805 1486.42 221.216L1495.87 219.193C1499.42 218.435 1502.57 221.583 1501.81 225.128L1499.78 234.584C1499.19 237.339 1501 240.037 1503.77 240.547L1513.28 242.297C1516.84 242.953 1518.55 247.067 1516.49 250.052L1511 258.013C1509.4 260.333 1510.04 263.516 1512.4 265.047L1520.52 270.303C1523.56 272.274 1523.56 276.726 1520.52 278.697L1512.4 283.953C1510.04 285.484 1509.4 288.667 1511 290.987L1516.49 298.948C1518.55 301.933 1516.84 306.047 1513.28 306.703L1503.77 308.453C1501 308.963 1499.19 311.661 1499.78 314.416L1501.81 323.872C1502.57 327.417 1499.42 330.565 1495.87 329.807L1486.42 327.784C1483.66 327.195 1480.96 328.998 1480.45 331.769L1478.7 341.279C1478.05 344.844 1473.93 346.548 1470.95 344.491L1462.99 339.004C1460.67 337.405 1457.48 338.038 1455.95 340.403L1450.7 348.519C1448.73 351.562 1444.27 351.562 1442.3 348.519L1437.05 340.403C1435.52 338.038 1432.33 337.405 1430.01 339.004L1422.05 344.491C1419.07 346.548 1414.95 344.844 1414.3 341.279L1412.55 331.769C1412.04 328.998 1409.34 327.195 1406.58 327.784L1397.13 329.807C1393.58 330.565 1390.43 327.417 1391.19 323.872L1393.22 314.416C1393.81 311.661 1392 308.963 1389.23 308.453L1379.72 306.703C1376.16 306.047 1374.45 301.933 1376.51 298.948L1382 290.987C1383.6 288.667 1382.96 285.484 1380.6 283.953L1372.48 278.697C1369.44 276.726 1369.44 272.274 1372.48 270.303L1380.6 265.047C1382.96 263.516 1383.6 260.333 1382 258.013L1376.51 250.052C1374.45 247.067 1376.16 242.953 1379.72 242.297L1389.23 240.547C1392 240.037 1393.81 237.339 1393.22 234.584L1391.19 225.128C1390.43 221.583 1393.58 218.435 1397.13 219.193L1406.58 221.216C1409.34 221.805 1412.04 220.002 1412.55 217.231L1414.3 207.721C1414.95 204.156 1419.07 202.452 1422.05 204.509L1430.01 209.996C1432.33 211.595 1435.52 210.962 1437.05 208.597L1442.3 200.481Z" fill="#D7F7FF"/>
<path d="M-5.69688 712.481C-3.72634 709.438 0.726334 709.438 2.69688 712.481L11.6047 726.237C13.1363 728.602 16.3188 729.235 18.639 727.636L32.1328 718.336C35.1179 716.279 39.2316 717.983 39.8877 721.548L42.8533 737.666C43.3632 740.437 46.0612 742.24 48.8167 741.65L64.8423 738.222C68.3874 737.464 71.5359 740.613 70.7776 744.158L67.3495 760.183C66.7601 762.939 68.5628 765.637 71.3341 766.147L87.4517 769.112C91.0171 769.768 92.7211 773.882 90.6638 776.867L81.364 790.361C79.765 792.681 80.398 795.864 82.7632 797.395L96.519 806.303C99.562 808.274 99.562 812.726 96.519 814.697L82.7632 823.605C80.398 825.136 79.765 828.319 81.364 830.639L90.6638 844.133C92.7211 847.118 91.0171 851.232 87.4517 851.888L71.3341 854.853C68.5628 855.363 66.7601 858.061 67.3495 860.817L70.7776 876.842C71.5359 880.387 68.3874 883.536 64.8423 882.778L48.8167 879.35C46.0612 878.76 43.3632 880.563 42.8533 883.334L39.8877 899.452C39.2316 903.017 35.1179 904.721 32.1328 902.664L18.639 893.364C16.3188 891.765 13.1363 892.398 11.6047 894.763L2.69688 908.519C0.726341 911.562 -3.72633 911.562 -5.69688 908.519L-14.6047 894.763C-16.1363 892.398 -19.3188 891.765 -21.639 893.364L-35.1328 902.664C-38.1179 904.721 -42.2316 903.017 -42.8877 899.452L-45.8533 883.334C-46.3632 880.563 -49.0612 878.76 -51.8166 879.35L-67.8423 882.778C-71.3874 883.536 -74.5359 880.387 -73.7776 876.842L-70.3495 860.817C-69.7601 858.061 -71.5628 855.363 -74.3341 854.853L-90.4517 851.888C-94.0171 851.232 -95.7211 847.118 -93.6638 844.133L-84.364 830.639C-82.765 828.319 -83.398 825.136 -85.7632 823.605L-99.519 814.697C-102.562 812.726 -102.562 808.274 -99.519 806.303L-85.7632 797.395C-83.398 795.864 -82.765 792.681 -84.364 790.361L-93.6638 776.867C-95.7211 773.882 -94.0171 769.768 -90.4517 769.112L-74.3341 766.147C-71.5628 765.637 -69.7601 762.939 -70.3495 760.183L-73.7776 744.158C-74.5359 740.613 -71.3874 737.464 -67.8423 738.222L-51.8166 741.65C-49.0612 742.24 -46.3632 740.437 -45.8533 737.666L-42.8877 721.548C-42.2316 717.983 -38.1179 716.279 -35.1328 718.336L-21.639 727.636C-19.3188 729.235 -16.1363 728.602 -14.6047 726.237L-5.69688 712.481Z" fill="#D7F7FF"/>
<path d="M301.803 2096.48C303.774 2093.44 308.226 2093.44 310.197 2096.48L321.768 2114.35C323.299 2116.71 326.482 2117.35 328.802 2115.75L346.33 2103.67C349.315 2101.61 353.429 2103.31 354.085 2106.88L357.937 2127.82C358.447 2130.59 361.145 2132.39 363.9 2131.8L384.717 2127.35C388.262 2126.59 391.41 2129.74 390.652 2133.28L386.199 2154.1C385.61 2156.86 387.412 2159.55 390.184 2160.06L411.12 2163.92C414.685 2164.57 416.389 2168.69 414.332 2171.67L402.252 2189.2C400.653 2191.52 401.286 2194.7 403.651 2196.23L421.519 2207.8C424.562 2209.77 424.562 2214.23 421.519 2216.2L403.651 2227.77C401.286 2229.3 400.653 2232.48 402.252 2234.8L414.332 2252.33C416.389 2255.31 414.685 2259.43 411.12 2260.08L390.184 2263.94C387.412 2264.45 385.61 2267.14 386.199 2269.9L390.652 2290.72C391.41 2294.26 388.262 2297.41 384.717 2296.65L363.9 2292.2C361.145 2291.61 358.447 2293.41 357.937 2296.18L354.085 2317.12C353.429 2320.69 349.315 2322.39 346.33 2320.33L328.802 2308.25C326.482 2306.65 323.299 2307.29 321.768 2309.65L310.197 2327.52C308.226 2330.56 303.774 2330.56 301.803 2327.52L290.232 2309.65C288.701 2307.29 285.518 2306.65 283.198 2308.25L265.67 2320.33C262.685 2322.39 258.571 2320.69 257.915 2317.12L254.063 2296.18C253.553 2293.41 250.855 2291.61 248.1 2292.2L227.283 2296.65C223.738 2297.41 220.59 2294.26 221.348 2290.72L225.801 2269.9C226.39 2267.14 224.588 2264.45 221.816 2263.94L200.88 2260.08C197.315 2259.43 195.611 2255.31 197.668 2252.33L209.748 2234.8C211.347 2232.48 210.714 2229.3 208.349 2227.77L190.481 2216.2C187.438 2214.23 187.438 2209.77 190.481 2207.8L208.349 2196.23C210.714 2194.7 211.347 2191.52 209.748 2189.2L197.668 2171.67C195.611 2168.69 197.315 2164.57 200.88 2163.92L221.816 2160.06C224.588 2159.55 226.39 2156.86 225.801 2154.1L221.348 2133.28C220.59 2129.74 223.738 2126.59 227.283 2127.35L248.1 2131.8C250.855 2132.39 253.553 2130.59 254.063 2127.82L257.915 2106.88C258.571 2103.31 262.685 2101.61 265.67 2103.67L283.198 2115.75C285.518 2117.35 288.701 2116.71 290.232 2114.35L301.803 2096.48Z" fill="#D7F7FF"/>
</g>
<defs>
<clipPath id="clip0_2114_1469">
<rect width="1969" height="2423" fill="white"/>
</clipPath>
</defs>
</svg>
