<svg width="30" height="30" viewBox="0 0 30 30" fill="none" xmlns="http://www.w3.org/2000/svg">
<g clip-path="url(#clip0_4001_239)">
<path d="M4.62275 0H25.3773C27.9302 0 30 2.06969 30 4.62278V25.3773C30 27.9303 27.9302 30 25.3773 30H4.62275C2.06969 30 0 27.9303 0 25.3772V4.62278C0 2.06969 2.06969 0 4.62275 0Z" fill="#FCBE62"/>
<path d="M9.29289 20.2929C8.90237 20.6834 8.90237 21.3166 9.29289 21.7071C9.68342 22.0976 10.3166 22.0976 10.7071 21.7071L9.29289 20.2929ZM22.25 9.75C22.25 9.19771 21.8023 8.75 21.25 8.75L12.25 8.75C11.6977 8.75 11.25 9.19771 11.25 9.75C11.25 10.3023 11.6977 10.75 12.25 10.75L20.25 10.75L20.25 18.75C20.25 19.3023 20.6977 19.75 21.25 19.75C21.8023 19.75 22.25 19.3023 22.25 18.75L22.25 9.75ZM10.7071 21.7071L21.9571 10.4571L20.5429 9.04289L9.29289 20.2929L10.7071 21.7071Z" fill="white"/>
</g>
<defs>
<clipPath id="clip0_4001_239">
<rect width="30" height="30" fill="white"/>
</clipPath>
</defs>
</svg>
