<svg width="30" height="30" viewBox="0 0 30 30" fill="none" xmlns="http://www.w3.org/2000/svg">
<g clip-path="url(#clip0_2020_1667)">
<path d="M4.62275 0H25.3773C27.9302 0 30 2.06969 30 4.62278V25.3773C30 27.9303 27.9302 30 25.3773 30H4.62275C2.06969 30 0 27.9303 0 25.3772V4.62278C0 2.06969 2.06969 0 4.62275 0Z" fill="url(#paint0_linear_2020_1667)"/>
<path d="M8.68934 19.9393C8.10355 20.5251 8.10355 21.4749 8.68934 22.0607C9.27513 22.6464 10.2249 22.6464 10.8107 22.0607L8.68934 19.9393ZM22.5 9.75C22.5 8.92157 21.8284 8.25 21 8.25L7.5 8.25C6.67157 8.25 6 8.92157 6 9.75C6 10.5784 6.67157 11.25 7.5 11.25H19.5V23.25C19.5 24.0784 20.1716 24.75 21 24.75C21.8284 24.75 22.5 24.0784 22.5 23.25L22.5 9.75ZM10.8107 22.0607L22.0607 10.8107L19.9393 8.68934L8.68934 19.9393L10.8107 22.0607Z" fill="white"/>
</g>
<defs>
<linearGradient id="paint0_linear_2020_1667" x1="23.25" y1="2.25" x2="8.625" y2="22.5" gradientUnits="userSpaceOnUse">
<stop stop-color="#FFCB7D"/>
<stop offset="1" stop-color="#FFB039"/>
</linearGradient>
<clipPath id="clip0_2020_1667">
<rect width="30" height="30" fill="white"/>
</clipPath>
</defs>
</svg>
