<svg width="30" height="30" viewBox="0 0 30 30" fill="none" xmlns="http://www.w3.org/2000/svg">
<g clip-path="url(#clip0_4001_248)">
<rect width="30" height="30" rx="7" fill="white"/>
<path d="M15.5 25C21.299 25 26 20.299 26 14.5C26 8.70101 21.299 4 15.5 4C9.70101 4 5 8.70101 5 14.5C5 20.299 9.70101 25 15.5 25Z" fill="url(#paint0_linear_4001_248)"/>
<path fill-rule="evenodd" clip-rule="evenodd" d="M9.74745 14.3866C12.8074 13.0577 14.8444 12.1747 15.8673 11.7463C18.7787 10.5311 19.3907 10.3212 19.7841 10.3125C19.8715 10.3125 20.0638 10.33 20.195 10.4349C20.2999 10.5223 20.3261 10.636 20.3436 10.7234C20.3611 10.8108 20.3786 10.9944 20.3611 11.1343C20.2037 12.7954 19.5218 16.8258 19.1721 18.6793C19.0235 19.4661 18.735 19.7284 18.4552 19.7546C17.8432 19.8071 17.3798 19.3525 16.7941 18.9678C15.8673 18.3645 15.3515 17.9886 14.451 17.3941C13.4106 16.7122 14.0838 16.3362 14.6783 15.7242C14.8357 15.5669 17.5197 13.1189 17.5722 12.9003C17.5809 12.8741 17.5809 12.7692 17.5197 12.7167C17.4585 12.6643 17.3711 12.6818 17.3012 12.6993C17.205 12.7167 15.7362 13.6959 12.8773 15.6281C12.4577 15.9166 12.0818 16.0565 11.7408 16.0477C11.3648 16.039 10.6479 15.8379 10.1059 15.663C9.45019 15.4532 8.92563 15.3396 8.96934 14.9724C8.99557 14.78 9.25785 14.5877 9.74745 14.3866Z" fill="white"/>
<rect width="30" height="30" rx="7" fill="url(#paint1_linear_4001_248)"/>
<path d="M15.5 25C21.299 25 26 20.299 26 14.5C26 8.70101 21.299 4 15.5 4C9.70101 4 5 8.70101 5 14.5C5 20.299 9.70101 25 15.5 25Z" fill="white"/>
<path fill-rule="evenodd" clip-rule="evenodd" d="M9.74745 14.3866C12.8074 13.0577 14.8444 12.1747 15.8673 11.7463C18.7787 10.5311 19.3907 10.3212 19.7841 10.3125C19.8715 10.3125 20.0638 10.33 20.195 10.4349C20.2999 10.5223 20.3261 10.636 20.3436 10.7234C20.3611 10.8108 20.3786 10.9944 20.3611 11.1343C20.2037 12.7954 19.5218 16.8258 19.1721 18.6793C19.0235 19.4661 18.735 19.7284 18.4552 19.7546C17.8432 19.8071 17.3798 19.3525 16.7941 18.9678C15.8673 18.3645 15.3515 17.9886 14.451 17.3941C13.4106 16.7122 14.0838 16.3362 14.6783 15.7242C14.8357 15.5669 17.5197 13.1189 17.5722 12.9003C17.5809 12.8741 17.5809 12.7692 17.5197 12.7167C17.4585 12.6643 17.3711 12.6818 17.3012 12.6993C17.205 12.7167 15.7362 13.6959 12.8773 15.6281C12.4577 15.9166 12.0818 16.0565 11.7408 16.0477C11.3648 16.039 10.6479 15.8379 10.1059 15.663C9.45019 15.4532 8.92563 15.3396 8.96934 14.9724C8.99557 14.78 9.25785 14.5877 9.74745 14.3866Z" fill="url(#paint2_linear_4001_248)"/>
</g>
<rect x="0.5" y="0.5" width="29" height="29" rx="6.5" stroke="#494949" stroke-opacity="0.1"/>
<defs>
<linearGradient id="paint0_linear_4001_248" x1="15.4913" y1="4" x2="15.4913" y2="24.8339" gradientUnits="userSpaceOnUse">
<stop stop-color="#2AABEE"/>
<stop offset="1" stop-color="#229ED9"/>
</linearGradient>
<linearGradient id="paint1_linear_4001_248" x1="15" y1="0" x2="15" y2="30" gradientUnits="userSpaceOnUse">
<stop stop-color="#2AABEE"/>
<stop offset="1" stop-color="#229ED9"/>
</linearGradient>
<linearGradient id="paint2_linear_4001_248" x1="14.6676" y1="10.3125" x2="14.6676" y2="19.7588" gradientUnits="userSpaceOnUse">
<stop stop-color="#2AABEE"/>
<stop offset="1" stop-color="#229ED9"/>
</linearGradient>
<clipPath id="clip0_4001_248">
<rect width="30" height="30" rx="7" fill="white"/>
</clipPath>
</defs>
</svg>
