<svg width="30" height="30" viewBox="0 0 30 30" fill="none" xmlns="http://www.w3.org/2000/svg">
<g clip-path="url(#clip0_2020_1659)">
<path d="M30 15C30 23.2875 23.2875 30 15 30C6.7125 30 0 23.2875 0 15C0 6.7125 6.7125 0 15 0C23.2875 0 30 6.7125 30 15Z" fill="url(#paint0_linear_2020_1659)"/>
<path d="M12.25 21.875C11.7625 21.875 11.85 21.6875 11.675 21.225L10.25 16.525L19.1 11L20.1375 11.275L19.275 13.625L12.25 21.875Z" fill="#C8DAEA"/>
<path d="M12.25 21.875C12.625 21.875 12.7875 21.7 13 21.5C13.325 21.1875 17.5 17.125 17.5 17.125L14.9375 16.5L12.5625 18L12.25 21.75V21.875Z" fill="#A9C9DD"/>
<path d="M12.4994 18.0486L18.5494 22.5111C19.2369 22.8861 19.7369 22.6986 19.9119 21.8736L22.3744 10.2736C22.6244 9.26109 21.9869 8.81109 21.3244 9.11109L6.87443 14.6861C5.88693 15.0861 5.89943 15.6361 6.69943 15.8736L10.4119 17.0361L18.9994 11.6236C19.3994 11.3736 19.7744 11.5111 19.4744 11.7861L12.4994 18.0486Z" fill="url(#paint1_linear_2020_1659)"/>
</g>
<defs>
<linearGradient id="paint0_linear_2020_1659" x1="19.3963" y1="4.74125" x2="11.8962" y2="22.241" gradientUnits="userSpaceOnUse">
<stop stop-color="#37AEE2"/>
<stop offset="1" stop-color="#1E96C8"/>
</linearGradient>
<linearGradient id="paint1_linear_2020_1659" x1="16.1233" y1="15.468" x2="19.2483" y2="20.468" gradientUnits="userSpaceOnUse">
<stop stop-color="#EFF7FC"/>
<stop offset="1" stop-color="white"/>
</linearGradient>
<clipPath id="clip0_2020_1659">
<rect width="30" height="30" fill="white"/>
</clipPath>
</defs>
</svg>
