<svg width="30" height="30" viewBox="0 0 30 30" fill="none" xmlns="http://www.w3.org/2000/svg">
<g clip-path="url(#clip0_2020_1664)">
<path d="M4.62275 0H25.3773C27.9302 0 30 2.06969 30 4.62278V25.3773C30 27.9303 27.9302 30 25.3773 30H4.62275C2.06969 30 0 27.9303 0 25.3772V4.62278C0 2.06969 2.06969 0 4.62275 0Z" fill="#4C75A3"/>
<path d="M14.7484 20.9996H15.9755C15.9755 20.9996 16.3461 20.9588 16.5356 20.7549C16.7098 20.5675 16.7043 20.2159 16.7043 20.2159C16.7043 20.2159 16.6802 18.5692 17.4443 18.3267C18.1979 18.0878 19.1653 19.9181 20.1906 20.622C20.966 21.1545 21.5552 21.038 21.5552 21.038L24.297 20.9996C24.297 20.9996 25.7313 20.9111 25.0512 19.7835C24.9955 19.6914 24.6549 18.9493 23.0125 17.4247C21.2931 15.829 21.5236 16.0872 23.5945 13.327C24.8557 11.646 25.3598 10.6198 25.2023 10.1804C25.0522 9.76165 24.1245 9.87224 24.1245 9.87224L21.0375 9.89134C21.0375 9.89134 20.8085 9.86015 20.6388 9.96165C20.4729 10.0609 20.3664 10.2929 20.3664 10.2929C20.3664 10.2929 19.8776 11.5936 19.2263 12.6999C17.8516 15.034 17.3019 15.1576 17.0772 15.0124C16.5544 14.6746 16.685 13.6555 16.685 12.9313C16.685 10.6691 17.0281 9.72599 16.0168 9.48181C15.6813 9.40084 15.4342 9.34727 14.5759 9.33852C13.4743 9.32734 12.5422 9.3419 12.0143 9.60052C11.6631 9.77252 11.3921 10.1557 11.5573 10.1778C11.7613 10.2049 12.2233 10.3025 12.4683 10.6357C12.7847 11.0662 12.7736 12.0327 12.7736 12.0327C12.7736 12.0327 12.9554 14.6956 12.3491 15.0263C11.933 15.2532 11.3622 14.79 10.1366 12.6723C9.50875 11.5876 9.03456 10.3884 9.03456 10.3884C9.03456 10.3884 8.94325 10.1644 8.78016 10.0444C8.58235 9.89912 8.30594 9.85306 8.30594 9.85306L5.37231 9.87221C5.37231 9.87221 4.932 9.88452 4.77022 10.076C4.62628 10.2465 4.75872 10.5986 4.75872 10.5986C4.75872 10.5986 7.05528 15.9718 9.65594 18.6796C12.0408 21.1626 14.7484 20.9996 14.7484 20.9996Z" fill="white"/>
</g>
<defs>
<clipPath id="clip0_2020_1664">
<rect width="30" height="30" fill="white"/>
</clipPath>
</defs>
</svg>
