<svg width="30" height="30" viewBox="0 0 30 30" fill="none" xmlns="http://www.w3.org/2000/svg">
<g clip-path="url(#clip0_4001_245)">
<rect x="2" y="7" width="26" height="17" fill="white"/>
<path d="M16.092 21.624C9.324 21.624 5.22 16.932 5.064 9.132H8.496C8.604 14.856 11.208 17.292 13.212 17.784V9.132H16.5V14.076C18.432 13.86 20.448 11.616 21.12 9.132H24.348C23.832 12.18 21.636 14.436 20.088 15.36C21.636 16.104 24.144 18.072 25.104 21.624H21.552C20.808 19.248 18.96 17.412 16.5 17.16V21.624H16.092ZM14.388 30H15.636C22.416 30 25.812 30 27.912 27.9C30 25.788 30 22.392 30 15.636V14.364C30 7.596 30 4.212 27.912 2.1C25.812 0 22.416 0 15.636 0H14.388C7.608 0 4.212 0 2.1 2.1C-0.0119986 4.2 1.51499e-06 7.608 1.51499e-06 14.364V15.636C1.51499e-06 22.404 1.49012e-06 25.788 2.1 27.9C4.2 30.012 7.608 30 14.388 30Z" fill="#2777FF"/>
</g>
<defs>
<clipPath id="clip0_4001_245">
<rect width="30" height="30" rx="7" fill="white"/>
</clipPath>
</defs>
</svg>
