<svg width="30" height="30" viewBox="0 0 30 30" fill="none" xmlns="http://www.w3.org/2000/svg">
<g clip-path="url(#clip0_2020_1655)">
<path d="M29.9979 22.4172C29.9979 22.5815 29.9929 22.9377 29.983 23.2129C29.9589 23.8862 29.9055 24.7551 29.8248 25.1509C29.7034 25.7458 29.5203 26.3073 29.2815 26.7747C28.999 27.3276 28.6387 27.8228 28.2105 28.2502C27.7832 28.6768 27.2884 29.0357 26.7364 29.3171C26.2666 29.5565 25.7016 29.7397 25.1033 29.8605C24.7113 29.9396 23.849 29.992 23.18 30.0158C22.9046 30.0256 22.5482 30.0306 22.3846 30.0306L7.61234 30.0282C7.44808 30.0282 7.09189 30.0232 6.8167 30.0133C6.14337 29.9892 5.27454 29.9358 4.87865 29.8551C4.28375 29.7337 3.72222 29.5506 3.25487 29.3119C2.70198 29.0293 2.20678 28.669 1.77937 28.2408C1.3528 27.8135 0.993857 27.3188 0.71252 26.7667C0.473047 26.2969 0.289824 25.7319 0.169033 25.1336C0.0899316 24.7417 0.0375781 23.8794 0.0137598 23.2103C0.00397461 22.9349 -0.000976562 22.5786 -0.000976562 22.415L0.00136719 7.64265C0.00136719 7.47838 0.00637695 7.12216 0.01625 6.84697C0.0404199 6.17364 0.0937695 5.30481 0.174482 4.90896C0.295801 4.31405 0.478906 3.75252 0.717705 3.28515C1.00021 2.73229 1.3606 2.23705 1.78877 1.80964C2.21604 1.38311 2.7108 1.02413 3.26284 0.742764C3.73268 0.50335 4.29772 0.320127 4.896 0.199336C5.2879 0.120205 6.15025 0.0678516 6.81928 0.0440625C7.09473 0.034248 7.45106 0.0292969 7.61466 0.0292969L22.3869 0.0316699C22.5512 0.0316699 22.9074 0.0366797 23.1826 0.0465527C23.8559 0.0707227 24.7247 0.124072 25.1207 0.204785C25.7155 0.326104 26.2771 0.509209 26.7444 0.748008C27.2973 1.03052 27.7925 1.3909 28.2199 1.81907C28.6464 2.24634 29.0054 2.74107 29.2868 3.29314C29.5262 3.76298 29.7095 4.328 29.8302 4.92627C29.9093 5.3182 29.9617 6.18053 29.9855 6.84958C29.9953 7.12503 30.0003 7.48134 30.0003 7.64499L29.9979 22.4172Z" fill="url(#paint0_linear_2020_1655)"/>
<path d="M22.9489 7.1267C20.9178 5.09388 18.2166 3.9738 15.3387 3.97266C9.40892 3.97266 4.58281 8.79691 4.58044 14.7267C4.57968 16.6222 5.07506 18.4724 6.01648 20.1033L4.49023 25.6765L10.1933 24.1809C11.7647 25.0377 13.5338 25.4892 15.3344 25.49H15.3388C21.268 25.49 26.0945 20.6651 26.0969 14.7353C26.0981 11.8616 24.9801 9.15952 22.9489 7.1267ZM15.3388 23.6736H15.3351C13.7306 23.673 12.1569 23.2421 10.7841 22.4276L10.4575 22.2339L7.07322 23.1214L7.97656 19.8228L7.7639 19.4846C6.86882 18.0614 6.39608 16.4164 6.39679 14.7274C6.39872 9.79884 10.41 5.78906 15.3423 5.78906C17.7306 5.78997 19.9757 6.72103 21.6639 8.41061C23.3521 10.1002 24.2814 12.3461 24.2805 14.7346C24.2785 19.6636 20.2673 23.6736 15.3388 23.6736ZM20.2435 16.9788C19.9747 16.8443 18.6531 16.1942 18.4067 16.1045C18.1603 16.0148 17.9812 15.97 17.8019 16.2391C17.6227 16.5081 17.1076 17.1134 16.9507 17.2927C16.7939 17.472 16.6371 17.4945 16.3683 17.3599C16.0995 17.2254 15.2334 16.9417 14.2066 16.0262C13.4076 15.3137 12.868 14.4336 12.7112 14.1646C12.5544 13.8955 12.6946 13.7501 12.8291 13.6161C12.95 13.4958 13.0979 13.3023 13.2323 13.1454C13.3667 12.9885 13.4115 12.8763 13.5011 12.697C13.5908 12.5176 13.5459 12.3607 13.4787 12.2262C13.4115 12.0917 12.8739 10.769 12.6499 10.231C12.4317 9.70696 12.2101 9.77786 12.0451 9.76963C11.8885 9.76184 11.7091 9.76019 11.5299 9.76019C11.3507 9.76019 11.0595 9.82743 10.8131 10.0965C10.5667 10.3655 9.87227 11.0156 9.87227 12.3383C9.87227 13.661 10.8355 14.9388 10.9699 15.1181C11.1043 15.2975 12.8654 18.0118 15.5619 19.1758C16.2033 19.4527 16.704 19.618 17.0944 19.7419C17.7383 19.9463 18.3243 19.9175 18.7875 19.8483C19.304 19.7712 20.3779 19.1983 20.6019 18.5706C20.8259 17.9428 20.8259 17.4048 20.7587 17.2927C20.6915 17.1806 20.5123 17.1134 20.2435 16.9788Z" fill="white"/>
</g>
<defs>
<linearGradient id="paint0_linear_2020_1655" x1="14.9996" y1="0.0292969" x2="14.9996" y2="30.0306" gradientUnits="userSpaceOnUse">
<stop stop-color="#61FD7D"/>
<stop offset="1" stop-color="#2BB826"/>
</linearGradient>
<clipPath id="clip0_2020_1655">
<rect width="30" height="30" fill="white"/>
</clipPath>
</defs>
</svg>
