<svg width="30" height="30" viewBox="0 0 30 30" fill="none" xmlns="http://www.w3.org/2000/svg">
<g clip-path="url(#clip0_4001_242)">
<path d="M25.5 0H4.5C2.01472 0 0 2.01472 0 4.5V25.5C0 27.9853 2.01472 30 4.5 30H25.5C27.9853 30 30 27.9853 30 25.5V4.5C30 2.01472 27.9853 0 25.5 0Z" fill="#45D354"/>
<path d="M18.0469 15.9961C17.8711 15.8789 17.6953 15.8203 17.5195 16.0547L16.8164 16.9922C16.6406 17.1094 16.5234 17.168 16.2891 17.0508C15.4102 16.582 14.1797 16.0547 13.125 14.2969C13.0664 14.0625 13.1836 13.9453 13.3008 13.8281L13.8281 13.0078C13.9453 12.8906 13.8867 12.7734 13.8281 12.6562L13.125 10.957C12.9492 10.4883 12.7734 10.5469 12.5977 10.5469H12.1289C12.0117 10.5469 11.7773 10.6055 11.543 10.8398C10.2539 12.1289 10.7812 13.9453 11.7188 15.1172C11.8945 15.3516 13.0664 17.4609 15.5859 18.5742C17.4609 19.3945 17.8711 19.2773 18.3984 19.1602C19.043 19.1016 19.6875 18.5742 19.9805 18.0469C20.0391 17.8711 20.332 17.1094 20.0977 16.9922M15.4688 22.5C13.0664 22.5 11.25 21.2109 11.25 21.2109L8.37891 21.9727L9.08203 19.1602C9.08203 19.1602 7.91016 17.3438 7.91016 15.0586C7.91016 10.8398 11.3672 7.32422 15.6445 7.32422C19.6289 7.32422 23.0273 10.4297 23.0273 14.7656C23.0273 18.9844 19.6289 22.4414 15.4688 22.5ZM6.15234 24.1992L11.0156 22.8516C12.4241 23.5726 13.9939 23.9207 15.5752 23.8624C17.1564 23.8042 18.6964 23.3416 20.048 22.5189C21.3997 21.6962 22.5178 20.5407 23.2959 19.1629C24.0739 17.785 24.4858 16.2308 24.4922 14.6484C24.4922 9.60938 20.5078 5.56641 15.4688 5.56641C13.8514 5.57054 12.2633 5.99832 10.8628 6.80713C9.46216 7.61595 8.29789 8.77758 7.48591 10.1763C6.67392 11.5751 6.24254 13.1622 6.23473 14.7795C6.22692 16.3968 6.64296 17.988 7.44141 19.3945" fill="white"/>
</g>
<defs>
<clipPath id="clip0_4001_242">
<rect width="30" height="30" rx="7" fill="white"/>
</clipPath>
</defs>
</svg>
