<svg width="569" height="865" viewBox="0 0 569 865" fill="none" xmlns="http://www.w3.org/2000/svg">
<g clip-path="url(#clip0_2514_1495)">
<path d="M569 1.33228V827.937L524.634 845.326C472.777 865.651 415.069 865.14 363.579 843.899C311.427 822.385 252.579 822.287 200.253 843.377C147.04 864.826 87.158 864.538 34.2593 842.324L0 827.937V0.799011L34.1946 12.0469C88.9707 30.0648 147.964 30.7955 203.169 14.1399L213.282 11.0887C263.043 -3.92413 316.261 -2.93732 365.43 13.91C414.436 30.7012 467.467 31.7388 517.093 16.8773L569 1.33228Z" fill="#FF9900"/>
<path d="M298.433 280.212L293.191 307.654L319.505 296.078L302.088 317.905L331.793 318.652L305.65 330.543L332.863 343.465L303.173 343.064L322.504 365.602L295.147 352.988L302.768 380.678L283.161 358.35L277.562 385.708L269.59 358.088L251.88 379.694L257.122 352.253L230.808 363.829L248.225 342.001L218.52 341.255L244.663 329.364L217.45 316.442L247.14 316.843L227.809 294.305L255.166 306.919L247.545 279.229L267.151 301.557L272.751 274.199L280.722 301.819L298.433 280.212Z" fill="#FFB240"/>
<circle cx="121.978" cy="526.979" r="8.26144" transform="rotate(115.008 121.978 526.979)" fill="#FFB240"/>
<circle cx="82.7716" cy="553.657" r="11.6937" transform="rotate(115.008 82.7716 553.657)" fill="#FFB240"/>
<circle cx="80.5312" cy="499.531" r="14.6962" transform="rotate(115.008 80.5312 499.531)" fill="#FFB240"/>
</g>
<defs>
<clipPath id="clip0_2514_1495">
<rect width="569" height="865" fill="white"/>
</clipPath>
</defs>
</svg>
