<svg width="1920" height="1071" viewBox="0 0 1920 1071" fill="none" xmlns="http://www.w3.org/2000/svg">
<g clip-path="url(#clip0_2406_1353)">
<path d="M57.9217 16.0704L0 25.1116V1071L81.0725 1049.33C187.392 1020.91 298.657 1016.19 407 1035.51L428.787 1039.93C530.17 1060.49 634.338 1063.42 736.716 1048.58L830.025 1035.06C914.578 1022.81 1000.44 1022.66 1085.04 1034.61L1196.16 1050.32C1293.07 1064.01 1391.57 1061.81 1487.77 1043.8L1532 1035.51C1628.36 1016.22 1727.88 1019.43 1822.8 1044.91L1920 1071V25.1116L1828.07 9.94929C1772.1 0.717101 1714.96 1.07785 1659.11 11.0161L1578.59 25.3437C1494.21 40.3574 1407.83 40.1211 1323.54 24.6461L1263.62 13.6454C1200.3 2.02238 1135.22 4.38001 1072.91 20.5532C1003.36 38.6091 930.443 39.4179 860.503 22.9091L821.695 13.749C772.082 2.03829 720.607 0.522261 670.391 9.29274L583.442 24.4787C494.251 40.0562 402.947 38.9975 314.141 21.3561C229.705 4.58281 142.977 2.79365 57.9217 16.0704Z" fill="#FFF7EB"/>
<path d="M264 525.582L225.043 516.241C199.523 510.123 175.191 499.826 153.031 485.767L138.857 476.775C109.255 457.995 85.73 431.037 71.1305 399.165L67.3388 390.888C61.1593 377.397 57.354 362.941 56.0903 348.157L55.5507 341.843C51.0602 289.304 81.2856 239.958 130.129 220.087V220.087C177.395 200.858 231.65 213.519 265.523 251.683L267.854 254.309C278.519 266.324 286.774 280.277 292.17 295.409L295.87 305.784C304.847 330.953 308.174 357.789 305.617 384.388L303.802 403.261C300.954 432.879 293.179 461.813 280.799 488.87L264 525.582ZM264 525.582L302.315 534.769C338.977 543.559 376.547 548 414.249 548V548C500.489 548 585.136 524.769 659.295 480.75L691.342 461.727C719.049 445.281 748.281 431.551 778.63 420.73L854.031 393.844C897.239 378.438 943.096 371.847 988.894 374.46V374.46C1063.27 378.705 1134.26 407.029 1191.12 455.159L1274.86 526.031C1301.45 548.529 1331.49 566.581 1363.84 579.489V579.489C1401.93 594.691 1442.57 602.5 1483.59 602.5H1495.72C1528.77 602.5 1561.68 598.259 1593.65 589.88L1607.32 586.296C1648.6 575.477 1688.31 559.376 1725.47 538.391L1731.92 534.75C1754.6 521.936 1776.26 507.369 1796.67 491.18L1810.68 480.073C1873.31 430.415 1923.13 366.466 1955.95 293.586L1974 253.5M264 525.582L212.218 560.793C176.565 585.036 134.446 598 91.3306 598V598C62.7311 598 34.419 592.294 8.05238 581.215L-71 548" stroke="white" stroke-width="70"/>
<path d="M1361.43 803.265L1351.99 852.682L1399.37 831.835L1368.01 871.143L1421.5 872.488L1374.43 893.901L1423.43 917.172L1369.96 916.449L1404.78 957.036L1355.51 934.321L1369.23 984.186L1333.93 943.977L1323.84 993.243L1309.49 943.504L1277.59 982.414L1287.03 932.997L1239.65 953.844L1271.01 914.536L1217.52 913.191L1264.6 891.778L1215.59 868.507L1269.06 869.23L1234.25 828.642L1283.51 851.358L1269.79 801.493L1305.1 841.702L1315.18 792.436L1329.54 842.175L1361.43 803.265Z" fill="white"/>
</g>
<defs>
<clipPath id="clip0_2406_1353">
<rect width="1920" height="1071" fill="white"/>
</clipPath>
</defs>
</svg>
