<svg width="1920" height="945" viewBox="0 0 1920 945" fill="none" xmlns="http://www.w3.org/2000/svg">
<g clip-path="url(#clip0_2392_1165)">
<path d="M2158.5 859.5L2091.96 692.038C2066.99 629.204 2027.78 573.023 1977.42 527.918L1936.04 490.864C1882.57 442.978 1813.31 416.5 1741.53 416.5V416.5C1712.01 416.5 1682.67 420.982 1654.5 429.791L1648.36 431.713C1595.29 448.308 1538.93 451.382 1484.37 440.657L1396.06 423.295C1373.14 418.789 1350.99 410.987 1330.31 400.133L1305.76 387.251C1276.35 371.816 1252.48 347.211 1237.8 317.411V317.411C1231.33 304.271 1226.72 290.176 1224.19 275.748V275.748C1210.48 197.372 1258.73 121.388 1335.46 100.336V100.336C1403.65 81.6276 1475.94 111.569 1510.83 173.071L1513.88 178.448C1525.49 198.905 1532.52 221.639 1534.48 245.078L1534.82 249.196C1539.65 306.887 1516.63 363.413 1472.87 401.318L1432.14 436.596C1401.4 463.226 1365.34 482.997 1326.35 494.591V494.591C1277.03 509.259 1224.67 510.357 1174.78 497.77L1150.2 491.57C1108.05 480.936 1068.05 463.12 1031.94 438.903L983.895 406.67C921.222 364.627 844.397 349.246 770.368 363.918V363.918C736.734 370.584 704.584 383.283 675.473 401.401L535.078 488.78C427.102 555.982 292.492 564.117 177.208 510.408V510.408C129.919 488.377 87.7259 456.756 53.3057 417.553L-96 247.5" stroke="#FFF7EB" stroke-width="70"/>
<circle cx="262.173" cy="166.882" r="16" transform="rotate(110.585 262.173 166.882)" fill="#FFF7EB"/>
<circle cx="200.11" cy="226.893" r="21" transform="rotate(110.585 200.11 226.893)" fill="#FFF7EB"/>
<circle cx="186.113" cy="136.179" r="28" transform="rotate(110.585 186.113 136.179)" fill="#FFF7EB"/>
<path d="M1613.95 602.048L1601.79 665.737L1662.86 638.869L1622.44 689.529L1691.38 691.263L1630.7 718.859L1693.86 748.851L1624.95 747.919L1669.82 800.228L1606.33 770.952L1624.01 835.218L1578.51 783.396L1565.51 846.89L1547.01 782.787L1505.91 832.934L1518.07 769.246L1457 796.113L1497.43 745.453L1428.48 743.72L1489.16 716.123L1426 686.132L1494.91 687.063L1450.04 634.755L1513.54 664.03L1495.85 599.765L1541.35 651.586L1554.35 588.092L1572.85 652.195L1613.95 602.048Z" fill="#FF9900" fill-opacity="0.06"/>
</g>
<defs>
<clipPath id="clip0_2392_1165">
<rect width="1920" height="945" fill="white"/>
</clipPath>
</defs>
</svg>
