<svg width="1920" height="819" viewBox="0 0 1920 819" fill="none" xmlns="http://www.w3.org/2000/svg">
<g clip-path="url(#clip0_2362_992)">
<path d="M44.3657 41.5351L0 61.1054V976H1920V43.1235L1761.85 54.2381C1697.2 58.7815 1632.25 52.0192 1569.93 34.255C1490.79 11.6981 1407.64 6.93926 1326.44 20.3198L1217.77 38.2267C1125.92 53.363 1032.13 52.3517 940.628 35.2385L850.571 18.396C785.64 6.25239 718.946 7.09555 654.342 20.8767L606.608 31.0592C513.456 50.9303 417.504 54.0067 323.271 40.1437L237.682 27.5524C173.564 9.73593 105.253 14.6769 44.3657 41.5351Z" fill="#FFF7EB"/>
<path d="M264 530.582L225.043 521.241C199.523 515.123 175.191 504.826 153.031 490.767L138.857 481.775C109.255 462.995 85.73 436.037 71.1305 404.165L67.3388 395.888C61.1593 382.397 57.354 367.941 56.0903 353.157L55.5507 346.843C51.0602 294.304 81.2856 244.958 130.129 225.087V225.087C177.395 205.858 231.65 218.519 265.523 256.683L267.854 259.309C278.519 271.324 286.774 285.277 292.17 300.409L295.87 310.784C304.847 335.953 308.174 362.789 305.617 389.388L303.802 408.261C300.954 437.879 293.179 466.813 280.799 493.87L264 530.582ZM264 530.582L302.315 539.769C338.977 548.559 376.547 553 414.249 553V553C500.489 553 585.136 529.769 659.295 485.75L691.342 466.727C719.049 450.281 748.281 436.551 778.63 425.73L854.031 398.844C897.239 383.438 943.096 376.847 988.894 379.46V379.46C1063.27 383.705 1134.26 412.029 1191.12 460.159L1274.86 531.031C1301.45 553.529 1331.49 571.581 1363.84 584.489V584.489C1401.93 599.691 1442.57 607.5 1483.59 607.5H1495.72C1528.77 607.5 1561.68 603.259 1593.65 594.88L1607.32 591.296C1648.6 580.477 1688.31 564.376 1725.47 543.391L1731.92 539.75C1754.6 526.936 1776.26 512.369 1796.67 496.18L1810.68 485.073C1873.31 435.415 1923.13 371.466 1955.95 298.586L1974 258.5M264 530.582L212.218 565.793C176.565 590.036 134.446 603 91.3306 603V603C62.7311 603 34.419 597.294 8.05238 586.215L-71 553" stroke="white" stroke-width="70"/>
<path d="M963.252 590.16L952.129 648.392L1007.97 623.827L971.007 670.146L1034.04 671.731L978.567 696.963L1036.31 724.385L973.311 723.533L1014.33 771.36L956.279 744.593L972.45 803.352L930.845 755.971L918.963 814.025L902.047 755.414L864.465 801.264L875.589 743.033L819.75 767.598L856.71 721.279L793.674 719.694L849.15 694.461L791.403 667.04L854.406 667.891L813.385 620.064L871.438 646.832L855.267 588.072L896.872 635.454L908.754 577.4L925.67 636.011L963.252 590.16Z" fill="white"/>
</g>
<defs>
<clipPath id="clip0_2362_992">
<rect width="1920" height="819" fill="white"/>
</clipPath>
</defs>
</svg>
