<svg width="569" height="753" viewBox="0 0 569 753" fill="none" xmlns="http://www.w3.org/2000/svg">
<g clip-path="url(#clip0_2496_2104)">
<path d="M569 742.018V0.000107713L527.158 9.95687C469.21 23.7462 409.013 25.2238 350.458 14.2941L348.174 13.8678C299.051 4.69876 248.673 4.51839 199.486 13.3354C135.187 24.8615 69.0709 20.9745 6.56514 1.99361L0 0V742.018L57.0804 758.163C107.73 772.489 161.175 773.804 212.468 761.985C254.962 752.193 299.034 751.394 341.855 759.638L354.81 762.133C415.728 773.861 478.603 770.304 537.809 751.778L569 742.018Z" fill="#FFF7EB"/>
<path d="M70.9103 72.5633L64.0114 108.68L98.6433 93.4438L75.7204 122.172L114.816 123.155L80.4092 138.804L116.225 155.812L77.149 155.283L102.591 184.947L66.5856 168.345L76.6152 204.789L50.8112 175.402L43.4416 211.408L32.9502 175.056L9.64105 203.494L16.54 167.377L-18.092 182.613L4.83094 153.885L-34.2646 152.902L0.142162 137.252L-35.6736 120.245L3.40232 120.773L-22.0399 91.1104L13.9657 107.712L3.93615 71.2683L29.7401 100.655L37.1097 64.6489L47.6012 101L70.9103 72.5633Z" fill="#FFF1DD"/>
<path d="M384.18 578.563L377.281 614.68L411.913 599.444L388.99 628.172L428.085 629.155L393.679 644.804L429.494 661.812L390.419 661.283L415.861 690.947L379.855 674.345L389.885 710.789L364.081 681.402L356.711 717.408L346.22 681.056L322.911 709.494L329.809 673.377L295.178 688.613L318.1 659.885L279.005 658.902L313.412 643.252L277.596 626.245L316.672 626.773L291.23 597.11L327.235 613.712L317.206 577.268L343.01 606.655L350.379 570.649L360.871 607L384.18 578.563Z" fill="#FFF1DD"/>
</g>
<defs>
<clipPath id="clip0_2496_2104">
<rect width="569" height="753" fill="white"/>
</clipPath>
</defs>
</svg>
