<svg width="1920" height="991" viewBox="0 0 1920 991" fill="none" xmlns="http://www.w3.org/2000/svg">
<g clip-path="url(#clip0_2406_1327)">
<path d="M2158.5 917.5L2091.96 750.038C2066.99 687.204 2027.78 631.023 1977.42 585.918L1936.04 548.864C1882.57 500.978 1813.31 474.5 1741.53 474.5V474.5C1712.01 474.5 1682.67 478.982 1654.5 487.791L1648.36 489.713C1595.29 506.308 1538.93 509.382 1484.37 498.657L1396.06 481.295C1373.14 476.789 1350.99 468.987 1330.31 458.133L1305.76 445.251C1276.35 429.816 1252.48 405.211 1237.8 375.411V375.411C1231.33 362.271 1226.72 348.176 1224.19 333.748V333.748C1210.48 255.372 1258.73 179.388 1335.46 158.336V158.336C1403.65 139.628 1475.94 169.569 1510.83 231.071L1513.88 236.448C1525.49 256.905 1532.52 279.639 1534.48 303.078L1534.82 307.196C1539.65 364.887 1516.63 421.413 1472.87 459.318L1432.14 494.596C1401.4 521.226 1365.34 540.997 1326.35 552.591V552.591C1277.03 567.259 1224.67 568.357 1174.78 555.77L1150.2 549.57C1108.05 538.936 1068.05 521.12 1031.94 496.903L983.895 464.67C921.222 422.627 844.397 407.246 770.368 421.918V421.918C736.734 428.584 704.584 441.283 675.473 459.401L535.078 546.78C427.102 613.982 292.492 622.117 177.208 568.408V568.408C129.919 546.377 87.7259 514.756 53.3057 475.553L-96 305.5" stroke="#FFF7EB" stroke-width="70"/>
<circle cx="262.173" cy="224.882" r="16" transform="rotate(110.585 262.173 224.882)" fill="#FFF7EB"/>
<circle cx="200.11" cy="284.893" r="21" transform="rotate(110.585 200.11 284.893)" fill="#FFF7EB"/>
<circle cx="186.111" cy="194.179" r="28" transform="rotate(110.585 186.111 194.179)" fill="#FFF7EB"/>
<path d="M1613.95 660.048L1601.79 723.737L1662.86 696.869L1622.44 747.529L1691.38 749.263L1630.7 776.859L1693.86 806.851L1624.95 805.919L1669.82 858.228L1606.33 828.952L1624.01 893.218L1578.51 841.396L1565.51 904.89L1547.01 840.787L1505.91 890.934L1518.07 827.246L1457 854.113L1497.43 803.453L1428.48 801.72L1489.16 774.123L1426 744.132L1494.91 745.063L1450.04 692.755L1513.54 722.03L1495.85 657.765L1541.35 709.586L1554.35 646.092L1572.85 710.195L1613.95 660.048Z" fill="#FF9900" fill-opacity="0.06"/>
</g>
<defs>
<clipPath id="clip0_2406_1327">
<rect width="1920" height="991" fill="white"/>
</clipPath>
</defs>
</svg>
