<svg width="1920" height="976" viewBox="0 0 1920 976" fill="none" xmlns="http://www.w3.org/2000/svg">
<path d="M0 103.742C0 103.742 53.2781 79.4318 111.5 59.7593C144.345 48.6613 179.142 38.1464 205.95 30.346C236.893 21.3424 268.494 14.9168 300.394 10.3417L316.001 8.10319C353.619 2.70792 391.574 0 429.577 0H481L579 9.56149L677.5 29.1626L781.5 54.0224L894.5 82.7069L1012.5 101.352L1061.65 107.28C1102.8 112.242 1144.31 113.444 1185.67 110.871C1226.14 108.355 1266.31 102.235 1305.69 92.584L1346 82.7069L1481.5 54.0224L1495.76 52.257C1578.36 42.0297 1662.08 45.4446 1743.57 62.3654C1785.78 71.1298 1827.17 83.471 1867.28 99.2554L1920 119.997V850.017L1828.34 875.895C1769.97 892.373 1709.92 902.161 1649.33 905.069L1561.51 909.284C1514.93 911.52 1468.23 909.678 1421.97 903.779L1280 885.676L1171.59 869.114C1104.14 858.809 1035.65 857.176 967.789 864.253L843 877.267L678.5 907.065L537 926.509H417.5L257 912.645L168.052 901.804C130.398 897.215 93.1186 889.954 56.4948 880.076L0 864.837V103.742Z" fill="#FFF7EB"/>
<path d="M344.5 665.673L353.622 734.789L409 746.173L353.622 757.558L344.5 826.673L335.378 757.558L280 746.173L335.378 734.789L344.5 665.673Z" fill="white"/>
<path d="M429 760.673L434.77 798.867L463 806.673L434.77 814.48L429 852.673L423.23 814.48L395 806.673L423.23 798.867L429 760.673Z" fill="white"/>
<path d="M1580 122.098L1588.91 185.633L1643 196.098L1588.91 206.563L1580 270.098L1571.09 206.563L1517 196.098L1571.09 185.633L1580 122.098Z" fill="white"/>
<path d="M1651 212.098L1654.44 239.589L1678 243.598L1654.44 247.607L1651 275.098L1647.56 247.607L1624 243.598L1647.56 239.589L1651 212.098Z" fill="white"/>
<path d="M1624 131.098L1626.96 149.676L1643 153.098L1626.96 156.52L1624 175.098L1621.04 156.52L1605 153.098L1621.04 149.676L1624 131.098Z" fill="white"/>
<path d="M124.5 913.532L116.238 841.117C113.088 813.507 112.823 785.645 115.449 757.981L119.704 713.15C122.888 679.592 130.302 646.572 141.769 614.873L151.133 588.987C157.702 570.828 165.578 553.168 174.698 536.146L176.017 533.684C198.486 491.748 228.374 454.236 264.231 422.967L267.458 420.152C302.182 389.871 342.246 366.329 385.598 350.731V350.731C406.49 343.214 428.016 337.59 449.915 333.925L484.221 328.185C506.036 324.535 528.116 322.7 550.234 322.7H585.452C617.808 322.7 649.821 329.327 679.517 342.172V342.172C705.3 353.325 728.895 368.973 749.199 388.387L760.164 398.871C765.381 403.859 770.223 409.226 774.65 414.926V414.926C794.646 440.673 805.5 472.345 805.5 504.944V508.79C805.5 519.202 804.443 529.587 802.345 539.785L800.177 550.322C795.813 571.533 785.604 591.1 770.703 606.814V606.814C763.271 614.652 754.781 621.415 745.479 626.906L743.283 628.203C706.624 649.845 661.874 652.825 622.67 636.233L617.489 634.04C582.553 619.255 554.776 591.405 540.08 556.431L536.69 548.362C523.854 517.813 520.398 484.136 526.761 451.617L527.404 448.33C530.125 434.426 534.496 420.896 540.425 408.028L563 359.034V359.034C594.021 299.401 641.422 249.863 699.63 216.244L783.5 167.804L932.5 107.567L1096 58.8032" stroke="white" stroke-width="70"/>
<path d="M176 975L103.5 975.5L99 959L86 886.545L158.5 900.038L165 932.522L176 975Z" fill="#FFF7EB"/>
</svg>
