<svg width="1920" height="975" viewBox="0 0 1920 975" fill="none" xmlns="http://www.w3.org/2000/svg">
<g clip-path="url(#clip0_2044_65)">
<path d="M0 82.7069L87.4119 56.5072C134.04 42.5316 181.846 32.8408 230.236 27.5555L235.895 26.9374C320.424 17.7049 405.885 22.0078 489.06 39.6841L561.724 55.1267C647.055 73.2615 735.448 71.1685 819.826 49.0151C909.849 25.3796 1004.35 24.6012 1094.75 46.7506L1105.92 49.4869C1195.13 71.3457 1288.15 72.5758 1377.91 53.0838L1438.76 39.87C1520.74 22.0675 1606.22 17.3916 1689.69 25.776C1753.39 32.1741 1817 46.2868 1877.36 67.6288L1920 82.7069V850.017L1828.34 875.895C1769.97 892.373 1709.92 902.161 1649.33 905.069L1561.51 909.284C1514.93 911.52 1468.23 909.678 1421.97 903.779L1280 885.676L1171.59 869.114C1104.14 858.809 1035.65 857.176 967.789 864.253L843 877.267L678.5 907.065L537 926.509H417.5L257 912.645L168.053 901.804C130.398 897.215 93.1186 889.954 56.4948 880.076L0 864.837V82.7069Z" fill="#FFF7EB"/>
<path d="M344.5 666L353.622 735.116L409 746.5L353.622 757.884L344.5 827L335.378 757.884L280 746.5L335.378 735.116L344.5 666Z" fill="white"/>
<path d="M429 761L434.77 799.194L463 807L434.77 814.806L429 853L423.23 814.806L395 807L423.23 799.194L429 761Z" fill="white"/>
<path d="M1580 122L1588.91 185.535L1643 196L1588.91 206.465L1580 270L1571.09 206.465L1517 196L1571.09 185.535L1580 122Z" fill="white"/>
<path d="M1651 212L1654.44 239.491L1678 243.5L1654.44 247.509L1651 275L1647.56 247.509L1624 243.5L1647.56 239.491L1651 212Z" fill="white"/>
<path d="M1624 131L1626.96 149.578L1643 153L1626.96 156.422L1624 175L1621.04 156.422L1605 153L1621.04 149.578L1624 131Z" fill="white"/>
<path d="M-101 805.5L33.1499 722.029C63.4726 703.162 90.1796 679.027 112.012 650.764V650.764C132.851 623.786 148.936 593.45 159.574 561.063L165.91 541.775C180.749 496.597 206.307 455.685 240.399 422.534V422.534C282.815 381.29 336.669 353.776 394.945 343.577L417.5 339.63L484.722 328.382C506.536 324.732 528.616 322.897 550.734 322.897H593.873C621.004 322.897 647.846 328.454 672.747 339.224L675.264 340.313C703.967 352.728 729.116 372.113 748.431 396.708V396.708C771.611 426.225 785.419 462.008 788.075 499.445L790.237 529.922C792.639 563.79 781.023 597.158 758.108 622.213V622.213C727.265 655.936 680.347 669.919 636.074 658.583L629.74 656.961C588.109 646.301 554.066 616.414 538.106 576.514L527.2 549.249C516.878 523.445 512.773 495.575 515.215 467.891V467.891C516.73 450.722 520.743 433.866 527.126 417.857L538.37 389.654C546.435 369.426 556.562 350.082 568.59 331.928V331.928C596.461 289.862 633.965 255.053 677.988 230.39L702.204 216.824C756.006 186.683 816.048 169.39 877.639 166.297L916.01 164.369C973.332 161.49 1030.6 170.98 1083.93 192.195L1140 214.5L1201.39 248.659C1245.73 273.328 1284.96 306.206 1317.01 345.54L1381.27 424.414C1426.81 480.304 1487.37 522.008 1555.83 544.608V544.608C1655.14 577.394 1763.6 567.572 1855.4 517.478L1897.7 494.398C1926.79 478.527 1953.79 459.105 1978.08 436.576L1996.5 419.5" stroke="white" stroke-width="70"/>
</g>
<defs>
<clipPath id="clip0_2044_65">
<rect width="1920" height="975" fill="white"/>
</clipPath>
</defs>
</svg>