<svg width="1920" height="1000" viewBox="0 0 1920 1000" fill="none" xmlns="http://www.w3.org/2000/svg">
<g clip-path="url(#clip0_2364_1065)">
<path d="M1572.36 145.331L1567.16 213.509L1627.97 178.119L1591.61 235.993L1664.06 229.639L1603.75 265.747L1673.49 289.689L1601.17 296.878L1654.38 346.373L1584.38 323.221L1610.53 388.465L1556.71 339.557L1550.61 407.629L1523.63 342.651L1486.5 400.068L1491.7 331.891L1430.9 367.281L1467.25 309.407L1394.8 315.76L1455.11 279.653L1385.38 255.711L1457.69 248.521L1404.48 199.026L1474.48 222.179L1448.33 156.934L1502.15 205.843L1508.25 137.77L1535.23 202.748L1572.36 145.331Z" fill="#FFF7EB"/>
<path d="M-44.5 140.5L4.16474 226.379C28.2777 268.931 58.0299 308.03 92.6141 342.614L106.917 356.917C177.852 427.852 269.23 474.779 368.21 491.103L373.813 492.027C395.901 495.669 418.249 497.5 440.635 497.5H520.688C563.889 497.5 605.756 482.527 639.159 455.13L654.947 442.181C709.053 397.804 727.839 323.3 701.244 258.575L697.171 248.664C676.3 197.869 628.056 163.624 573.219 160.68V160.68C535.32 158.645 498.18 171.839 470.059 197.327L457.051 209.118C418.493 244.066 396.5 293.682 396.5 345.722V366.943C396.5 391.165 400.289 415.238 407.73 438.289L431.841 512.976C452.106 575.753 491.479 630.63 544.457 669.936V669.936C582.661 698.281 626.762 717.649 673.482 726.603L687.71 729.329C726.336 736.732 765.877 738.092 804.92 733.362L973 713H982.666C1073.56 713 1163.78 728.489 1249.47 758.802L1299.5 776.5V776.5C1393.09 818.778 1498.69 826.33 1597.35 797.8L1615.93 792.425C1652.41 781.875 1686.98 765.595 1718.36 744.194V744.194C1804.19 685.636 1911.22 667.208 2011.7 693.684L2085 713" stroke="#FFF7EB" stroke-width="70"/>
</g>
<defs>
<clipPath id="clip0_2364_1065">
<rect width="1920" height="1000" fill="white"/>
</clipPath>
</defs>
</svg>
