<svg width="1920" height="1024" viewBox="0 0 1920 1024" fill="none" xmlns="http://www.w3.org/2000/svg">
<g clip-path="url(#clip0_2159_1435)">
<path d="M0 19.5011L56.4949 39.9893C141.384 70.7749 233.027 77.9969 321.69 60.8885L458.248 34.5386C518.334 22.9447 580.037 22.479 640.29 33.1647L892.498 77.8927C926.756 83.9681 961.554 86.4513 996.327 85.3018L1231.41 77.5308C1268.02 76.3207 1304.65 79.1365 1340.64 85.9275L1458.7 108.204C1489.27 113.971 1520.3 116.874 1551.41 116.874H1644.6C1706.19 116.874 1767.25 105.494 1824.71 83.3077L1920 46.513V1156H0V19.5011Z" fill="#FFF7EB"/>
<path d="M1582 85L1624.79 110.068C1667.46 135.064 1704.47 168.663 1733.45 208.731V208.731C1751.08 233.098 1765.55 259.598 1776.53 287.598L1798 342.386L1807.32 378.51C1819.93 427.373 1820.85 478.519 1810 527.803V527.803L1796.98 564.582C1784.79 598.995 1765.59 630.501 1740.6 657.107L1739.43 658.353C1729.49 668.922 1718.64 678.587 1707 687.232V687.232L1612.5 752.203L1590.62 765.38C1553.52 787.726 1512.64 803.079 1470 810.677V810.677V810.677C1411.91 822.487 1351.8 819.664 1295.08 802.463L1248 788.187L1180.39 766.27C1151.91 757.038 1126.19 740.849 1105.55 719.167V719.167C1087.4 700.109 1073.66 677.302 1065.28 652.356L1060.65 638.548C1055.6 623.502 1053.51 607.618 1054.51 591.778L1055.27 579.669C1057.57 542.986 1079.44 510.384 1112.51 494.336V494.336C1133.83 483.987 1158.1 481.39 1181.13 486.993L1186.23 488.235C1220.26 496.512 1248.76 519.648 1263.85 551.245L1272.65 569.662C1279.18 583.335 1283.74 597.868 1286.17 612.823L1286.7 616.096C1290.53 639.636 1289.71 663.699 1284.3 686.925L1277 718.219L1267.72 744.129C1254.98 779.69 1230.12 809.623 1197.5 828.669V828.669L1160.5 848.661L1148.32 853.241C1122.85 862.821 1096.42 869.663 1069.5 873.649V873.649L1053.12 875.365C1029.09 877.881 1004.88 878.215 980.793 876.363L942.286 873.402C893.104 869.621 845.477 854.444 803.174 829.074V829.074C781.139 815.859 760.788 800.021 742.566 781.906L678.5 718.219L618.5 641.753L537 527.803L482.762 453.143C460.734 422.821 433.915 396.29 403.357 374.592L392.795 367.092C369.747 350.727 344.227 338.158 317.205 329.863V329.863C302.099 325.227 286.608 321.952 270.918 320.077L258.57 318.603C229.612 315.144 200.11 314.927 171.1 317.905V317.905C139.008 321.2 107.171 328.483 76.8616 339.531V339.531C50.6955 349.07 25.6237 361.378 2.07337 376.245L-29 395.862" stroke="white" stroke-width="70"/>
<path d="M1378 -32.5L1511 50.5L1590 90" stroke="#FFF7EB" stroke-width="70"/>
<path d="M1590.32 58.3452L1593 54C1614.92 63.299 1635.63 75.2221 1654.68 89.5081L1660 93.5L1698 119.471H1589H1571C1572.31 97.8158 1578.95 76.8196 1590.32 58.3452Z" fill="#FFF7EB"/>
<circle cx="1218.5" cy="219.5" r="20.5" fill="#FFF1DD"/>
<circle cx="1131" cy="341" r="30" fill="#FFF1DD"/>
<path d="M857.5 442L866.622 511.116L922 522.5L866.622 533.884L857.5 603L848.378 533.884L793 522.5L848.378 511.116L857.5 442Z" fill="#FFEFD8"/>
<path d="M921.5 532L926.506 565.212L951 572L926.506 578.788L921.5 612L916.494 578.788L892 572L916.494 565.212L921.5 532Z" fill="#FFEFD8"/>
<path d="M1359 277.906L1350.92 320.224L1391.5 302.372L1364.64 336.033L1410.45 337.185L1370.13 355.521L1412.1 375.449L1366.31 374.83L1396.12 409.587L1353.94 390.134L1365.69 432.836L1335.45 398.403L1326.82 440.592L1314.52 397.998L1287.21 431.319L1295.3 389.001L1254.72 406.853L1281.58 373.192L1235.77 372.04L1276.08 353.703L1234.12 333.775L1279.9 334.394L1250.09 299.638L1292.28 319.09L1280.53 276.388L1310.76 310.821L1319.4 268.632L1331.69 311.226L1359 277.906Z" fill="#FF9900" fill-opacity="0.06"/>
</g>
<defs>
<clipPath id="clip0_2159_1435">
<rect width="1920" height="1024" fill="white"/>
</clipPath>
</defs>
</svg>
