<svg width="1920" height="1215" viewBox="0 0 1920 1215" fill="none" xmlns="http://www.w3.org/2000/svg">
<g clip-path="url(#clip0_2114_1441)">
<path d="M87.4224 74.0715L0 85.6053V1158L209.297 1196.43C264.7 1206.6 321.425 1207.34 377.075 1198.61L555.148 1170.68C608.693 1162.28 663.247 1162.65 716.675 1171.76L861.88 1196.52C921.141 1206.62 981.739 1205.96 1040.76 1194.56L1147.13 1174.01C1201.99 1163.41 1258.24 1162.08 1313.53 1170.08L1524.37 1200.57C1575.81 1208.01 1628.09 1207.39 1679.34 1198.72L1920 1158V61L1832.03 83.7741C1760.24 102.359 1685.22 104.743 1612.4 90.7545L1579.83 84.498C1498.76 68.9265 1415.78 65.9947 1333.82 75.8069L1133.13 99.8333C1065.65 107.912 997.42 107.359 930.083 98.1889L769.953 76.3821C695.165 66.1974 619.208 68.4416 545.153 83.024L513.41 89.2745C437.37 104.248 358.992 102.594 283.652 84.4266C219.435 68.9417 152.913 65.4313 87.4224 74.0715Z" fill="#01AED8"/>
<path d="M1716.5 69.5L1688.27 87.4265C1642.72 116.351 1592.8 137.712 1540.42 150.682L1502.5 160.073L1389.5 174.003L1226 182.361L1174.24 190.898C1125.68 198.907 1078.57 214.043 1034.43 235.817L1009.5 248.111L910.845 307.946C901.295 313.738 892.189 320.234 883.603 327.378V327.378C867.283 340.958 852.849 356.952 840.962 374.543V374.543C832.727 386.728 825.612 399.802 819.878 413.344L818.482 416.641C811.188 433.864 806.05 451.921 803.184 470.403L802.823 472.728C801.277 482.699 800.5 492.775 800.5 502.865V513.103C800.5 537.072 806.112 560.708 816.888 582.118L827.146 602.501C843.627 635.25 875.278 657.693 911.637 662.411V662.411C921.5 663.691 931.492 663.633 941.34 662.24L942.22 662.115C952.692 660.633 962.914 657.739 972.609 653.512L974.383 652.738C986.393 647.501 997.552 640.495 1007.49 631.953L1010 629.793L1012.29 627.331C1020.75 618.218 1028.37 608.369 1035.08 597.901L1036.07 596.363C1048.59 576.825 1057.6 555.245 1062.68 532.601V532.601C1065.88 518.317 1067.5 503.723 1067.5 489.084V472.526C1067.5 445.435 1061.77 418.652 1050.68 393.935V393.935C1041.95 374.491 1030.05 356.636 1015.46 341.101L992.5 316.647L951.296 281.145C907.115 243.08 856.535 213.15 801.903 192.746V192.746C734.453 167.555 662.305 157.436 590.527 163.099L530 167.874L441.527 181.959C355.028 195.73 273.665 231.981 205.581 287.084L188.899 300.585C150.184 331.919 116.367 368.862 88.57 410.19L62.8785 448.387C39.9934 482.412 19.7581 518.146 2.35153 555.273L-58 684" stroke="#61C9E2" stroke-width="70"/>
<circle cx="146.5" cy="892.5" r="33.5" fill="#61C9E2"/>
<circle cx="150" cy="754" r="16" fill="#61C9E2"/>
<circle cx="233" cy="833" r="26" fill="#61C9E2"/>
<path d="M1735.5 99L1720.51 99.4251C1683.57 100.473 1646.08 100.518 1610.5 90.5C1610.04 90.3691 1609.31 90.1627 1609.31 90.1627L1611.5 89L1628.5 80.3365L1650.5 68.5L1666.11 58.0952C1671.69 54.3711 1676.97 50.2047 1681.89 45.6363C1690.95 37.2236 1699.38 28.1531 1707.1 18.4989L1723.5 -2L1778 -3L1806.5 -7.5L1810 -8.5L1795.5 13.5L1771 55.5L1754 80.3365L1743 93L1735.5 99Z" fill="#D7F7FF"/>
</g>
<defs>
<clipPath id="clip0_2114_1441">
<rect width="1920" height="1215" fill="white"/>
</clipPath>
</defs>
</svg>
