<svg width="1920" height="1225" viewBox="0 0 1920 1225" fill="none" xmlns="http://www.w3.org/2000/svg">
<g clip-path="url(#clip0_2114_1441)">
<path d="M87.4224 74.0715L0 85.6053V1158L209.297 1196.43C264.7 1206.6 321.425 1207.34 377.075 1198.61L555.148 1170.68C608.693 1162.28 663.247 1162.65 716.675 1171.76L861.88 1196.52C921.141 1206.62 981.739 1205.96 1040.76 1194.56L1147.13 1174.01C1201.99 1163.41 1258.24 1162.08 1313.53 1170.08L1524.37 1200.57C1575.81 1208.01 1628.09 1207.39 1679.34 1198.72L1920 1158V61L1832.03 83.7741C1760.24 102.359 1685.22 104.743 1612.4 90.7545L1579.83 84.498C1498.76 68.9265 1415.78 65.9947 1333.82 75.8069L1133.13 99.8333C1065.65 107.912 997.42 107.359 930.083 98.1889L769.953 76.3821C695.165 66.1974 619.208 68.4416 545.153 83.024L513.41 89.2745C437.37 104.248 358.992 102.594 283.652 84.4266C219.435 68.9417 152.913 65.4313 87.4224 74.0715Z" fill="#01AED8"/>
<path d="M1711 70L1692.16 82.5799C1644.08 114.683 1590.81 138.205 1534.69 152.101L1502.5 160.073L1389.5 174.003L1226 182.361L1174.24 190.898C1125.68 198.907 1078.57 214.043 1034.43 235.817L1009.5 248.111L910.845 307.946C901.295 313.738 892.189 320.234 883.603 327.378V327.378C867.283 340.958 852.849 356.952 840.962 374.543V374.543C832.727 386.728 825.612 399.802 819.878 413.344L818.482 416.641C811.188 433.864 806.05 451.921 803.184 470.403L802.823 472.728C801.277 482.699 800.5 492.775 800.5 502.865V513.103C800.5 537.072 806.112 560.708 816.888 582.118L827.146 602.501C843.627 635.25 875.278 657.693 911.637 662.411V662.411C921.5 663.691 931.492 663.633 941.34 662.24L942.22 662.115C952.692 660.633 962.914 657.739 972.609 653.512L974.383 652.738C986.393 647.501 997.552 640.495 1007.49 631.953L1010 629.793L1012.29 627.331C1020.75 618.218 1028.37 608.369 1035.08 597.901L1036.07 596.363C1048.59 576.825 1057.6 555.245 1062.68 532.601V532.601C1065.88 518.317 1067.5 503.723 1067.5 489.084V472.526C1067.5 445.435 1061.77 418.652 1050.68 393.935V393.935C1041.95 374.491 1030.05 356.636 1015.46 341.101L992.5 316.647L951.296 281.145C907.115 243.08 856.535 213.15 801.903 192.746V192.746C734.453 167.555 662.305 157.436 590.527 163.099L530 167.874L441.527 181.959C355.028 195.73 273.665 231.981 205.581 287.084L188.899 300.585C150.184 331.919 116.367 368.862 88.57 410.19L62.8785 448.387C39.9934 482.412 19.7581 518.146 2.35153 555.273L-58 684" stroke="#61C9E2" stroke-width="70"/>
<path d="M1609 90.5L1628.5 80.3365L1650.5 68.5L1666.86 57.5922C1671.95 54.2029 1676.75 50.4111 1681.23 46.2534C1690.73 37.4338 1699.46 27.822 1707.32 17.5219L1723 -3L1752 0.5L1803.5 -0.5L1784.5 33L1771 54L1768.63 57.2806C1757.57 72.6103 1744.96 86.7583 1731 99.5L1721.96 99.7054C1684.09 100.566 1646.23 97.481 1609 90.5Z" fill="#D7F7FF"/>
<circle cx="146.5" cy="892.5" r="33.5" fill="#61C9E2"/>
<circle cx="150" cy="754" r="16" fill="#61C9E2"/>
<circle cx="233" cy="833" r="26" fill="#61C9E2"/>
<mask id="mask0_2114_1441" style="mask-type:alpha" maskUnits="userSpaceOnUse" x="1509" y="984" width="158" height="154">
<path d="M1598.32 1137.33C1597.09 1137.29 1595.96 1137.08 1594.56 1136.64C1591.8 1135.78 1589.53 1133.89 1588.33 1131.5C1587.77 1130.39 1587.67 1129.97 1586.73 1125.16C1585.95 1121.12 1585.65 1119.88 1585.36 1119.35C1585.16 1118.98 1584.89 1118.66 1584.79 1118.64C1584.67 1118.62 1584.04 1119.07 1583.4 1119.65C1582.74 1120.21 1582.2 1120.68 1582.17 1120.68C1582.13 1120.69 1581.78 1120.94 1581.41 1121.23C1579.72 1122.53 1577.59 1123.12 1575.29 1122.91C1572.11 1122.61 1569.89 1121.15 1568.16 1118.21C1567.55 1117.15 1567.25 1115.03 1567.54 1113.62C1567.98 1111.42 1568.52 1110.57 1574.77 1102.52C1578.94 1097.15 1580.66 1094.8 1580.84 1094.28C1581.07 1093.58 1581.06 1093.46 1580.23 1088.88C1579.14 1082.89 1578.82 1082.12 1577.21 1081.9C1576.14 1081.76 1573.88 1082.84 1572.31 1084.25C1572.11 1084.42 1571.3 1085.04 1570.49 1085.6C1568.44 1087.06 1566.79 1088.53 1566.48 1089.17C1566.34 1089.47 1566.12 1090.55 1566 1091.58C1565.6 1094.84 1565.35 1096.81 1565.17 1098.08C1565.07 1098.77 1564.88 1100.27 1564.76 1101.41C1563.88 1109.2 1563.61 1110.22 1561.81 1112.32C1559.83 1114.66 1556.7 1115.93 1553.71 1115.59C1551.33 1115.33 1549.37 1114.34 1547.88 1112.63C1546.89 1111.49 1546.55 1110.66 1545.99 1107.96C1545.68 1106.48 1545.4 1105.47 1545.27 1105.38C1545.05 1105.24 1545.05 1105.24 1540.88 1108.38C1536.08 1111.99 1534.92 1112.62 1532.4 1113.01C1529.48 1113.48 1527.35 1112.96 1524.65 1111.15C1522.79 1109.91 1521.75 1108.77 1520.58 1106.74C1519.99 1105.71 1519.84 1105.27 1519.66 1104.19C1519.42 1102.73 1519.5 1102.02 1520.06 1100.26C1520.81 1097.9 1522.04 1096.23 1524.8 1093.83C1525.22 1093.46 1525.59 1093.16 1525.64 1093.15C1525.69 1093.14 1526.51 1092.5 1527.48 1091.72C1529.43 1090.14 1530.85 1088.62 1530.55 1088.43C1530.46 1088.35 1529.77 1088.25 1529.04 1088.19C1528.31 1088.14 1527.39 1087.98 1526.99 1087.85C1526.05 1087.51 1524.19 1086.12 1523.5 1085.25C1521.53 1082.72 1521 1078.4 1522.37 1076.12C1523.58 1074.12 1525.36 1072.7 1527.45 1072.06C1529.14 1071.54 1532.12 1071.32 1534.47 1071.52C1535.39 1071.6 1536.4 1071.67 1536.71 1071.68C1537.02 1071.69 1537.73 1071.76 1538.29 1071.83C1539.29 1071.96 1541.41 1072.14 1543.6 1072.29C1544.24 1072.32 1545.47 1072.42 1546.33 1072.49C1548.79 1072.71 1550.86 1072.76 1551.57 1072.64C1552.32 1072.52 1553.87 1071.72 1554.74 1071C1555.05 1070.74 1555.36 1070.5 1555.41 1070.5C1555.56 1070.47 1558.2 1068.4 1559.48 1067.31C1560.12 1066.76 1560.85 1066 1561.13 1065.61C1561.52 1065.04 1561.59 1064.82 1561.49 1064.26C1561.41 1063.74 1561.27 1063.52 1560.82 1063.19C1560.3 1062.79 1557.98 1061.73 1557.71 1061.77C1557.65 1061.78 1557.46 1061.72 1557.31 1061.63C1557.04 1061.47 1555.16 1060.89 1551.62 1059.87C1550.11 1059.43 1549.95 1059.41 1548.77 1059.61C1548.07 1059.72 1547.22 1059.97 1546.85 1060.15C1546.47 1060.35 1545.52 1060.77 1544.74 1061.09C1543.96 1061.42 1542.8 1061.91 1542.17 1062.18C1541.55 1062.47 1540.17 1063.04 1539.12 1063.48C1538.06 1063.91 1536.68 1064.48 1536.06 1064.77C1531.1 1066.97 1531.1 1066.97 1528.48 1067.41C1526.12 1067.82 1525.96 1067.83 1524.93 1067.6C1523.47 1067.28 1521.51 1066.21 1520.56 1065.25C1518.79 1063.4 1517.98 1060.76 1518.39 1058.22C1518.86 1055.3 1520.31 1053.3 1523.4 1051.31C1523.96 1050.94 1524.4 1050.58 1524.38 1050.48C1524.36 1050.38 1523.99 1050.18 1523.54 1050.03C1521.36 1049.31 1516.35 1047.3 1515.16 1046.66C1512.04 1044.99 1509.95 1042.35 1509.47 1039.44C1508.99 1036.52 1509.8 1033.82 1511.92 1031.19C1515.05 1027.36 1520.78 1026.19 1526.76 1028.2C1527.47 1028.43 1528.49 1028.77 1529 1028.92C1529.52 1029.1 1530.57 1029.42 1531.33 1029.65C1532.09 1029.89 1533.04 1030.09 1533.45 1030.12C1534.46 1030.16 1534.57 1029.98 1534.24 1028.94C1533.85 1027.79 1533.57 1026.06 1533.61 1025.03C1533.66 1023.62 1534.18 1022.34 1535.31 1020.92C1536.75 1019.08 1538.36 1018.04 1540.61 1017.49C1544.81 1016.47 1548.09 1017.69 1550.37 1021.12C1551.15 1022.3 1551.33 1022.65 1552.62 1025.3C1553 1026.12 1553.67 1027.51 1554.11 1028.39C1555.4 1031.08 1556.33 1033.05 1556.85 1034.24C1557.64 1036.05 1558.63 1037.98 1559.21 1038.79C1559.81 1039.66 1560.42 1039.97 1563.1 1040.8C1563.96 1041.06 1565.28 1041.51 1566.05 1041.79C1570.02 1043.23 1571.9 1043.25 1572.6 1041.83C1573.12 1040.73 1571.66 1031.48 1570.67 1029.67C1570.52 1029.4 1569.1 1028.36 1566.85 1026.89C1562.74 1024.2 1555.26 1019.11 1554.59 1018.53C1553.77 1017.83 1553.32 1017.36 1552.62 1016.49C1551.98 1015.69 1551.92 1015.52 1551.59 1013.9C1551.27 1012.39 1551.26 1012.03 1551.43 1011.06C1551.89 1008.32 1554.14 1005.56 1556.75 1004.53C1559.22 1003.54 1562.05 1003.58 1564.5 1004.6C1565.48 1005.03 1567.31 1005.47 1567.48 1005.34C1567.57 1005.26 1567.46 1004.2 1567.18 1002.53C1566.48 998.204 1566.29 995.734 1566.54 994.191C1566.86 992.319 1567.4 990.879 1568.21 989.744C1570.55 986.462 1574.24 984.655 1578.44 984.721C1581.91 984.787 1585.71 986.95 1587.34 989.761C1588.24 991.342 1588.52 992.236 1589.33 996.5C1590.14 1000.72 1590.55 1001.91 1591.17 1001.81C1591.35 1001.78 1591.98 1001.25 1592.55 1000.66C1593.13 1000.06 1594.1 999.232 1594.71 998.829C1595.79 998.088 1595.83 998.083 1597.72 997.785C1599.95 997.418 1600.75 997.513 1602.84 998.352C1605.89 999.564 1607.63 1001.72 1607.85 1004.52C1607.98 1006.03 1607.68 1008.16 1607.22 1009.04C1606.92 1009.63 1604.03 1013.79 1602.9 1015.28C1597.81 1021.95 1595.05 1025.74 1594.76 1026.44L1594.41 1027.29L1595.2 1032.01C1595.97 1036.64 1596 1036.74 1596.54 1037.61C1597.24 1038.77 1597.77 1039.02 1598.99 1038.81C1599.75 1038.67 1600.14 1038.5 1601.3 1037.71C1602.06 1037.19 1603.01 1036.5 1603.4 1036.21C1603.81 1035.9 1604.6 1035.3 1605.15 1034.86C1605.71 1034.43 1606.48 1033.85 1606.88 1033.57C1607.26 1033.28 1607.93 1032.61 1608.37 1032.07C1609.2 1031 1609.29 1030.65 1609.63 1027.35C1609.71 1026.6 1609.85 1025.41 1609.94 1024.72C1610.11 1023.38 1610.29 1021.72 1610.62 1018.85C1611 1015.33 1611.52 1012.53 1612.16 1010.65C1612.81 1008.75 1614.89 1006.57 1616.8 1005.82C1620.02 1004.54 1623.97 1005.15 1626.51 1007.31C1628.15 1008.71 1628.74 1009.89 1629.25 1012.82C1629.6 1014.82 1629.77 1015.22 1630.24 1015.2C1630.71 1015.19 1631.4 1014.71 1636.08 1011.13C1639.02 1008.87 1640.63 1008.03 1642.7 1007.66C1645.17 1007.24 1647.32 1007.62 1649.95 1008.95C1653.66 1010.86 1655.5 1013.87 1655.35 1017.89C1655.29 1019.13 1654.83 1021.08 1654.38 1021.92C1653.05 1024.38 1652.59 1024.88 1648.67 1028.12C1645.32 1030.89 1644.25 1031.96 1644.44 1032.38C1644.49 1032.53 1644.98 1032.69 1645.65 1032.77C1648.47 1033.2 1651.47 1035.12 1652.49 1037.17C1653.12 1038.4 1653.37 1040.92 1653 1042.33C1652.62 1043.83 1652.02 1045.15 1651.3 1046.1C1650.57 1047.05 1648.73 1048.31 1647.36 1048.81C1646.2 1049.24 1643.9 1049.49 1641.72 1049.44C1640.82 1049.41 1639.39 1049.4 1638.54 1049.42C1637.7 1049.43 1636.4 1049.42 1635.68 1049.39C1634.95 1049.34 1634.03 1049.33 1633.62 1049.33C1633.22 1049.35 1632.03 1049.31 1630.99 1049.24C1627.25 1049 1626.34 1049.02 1624.54 1049.31C1622.9 1049.6 1622.73 1049.66 1621.83 1050.26C1621.3 1050.61 1620.46 1051.23 1619.94 1051.65C1619.42 1052.07 1618.68 1052.65 1618.27 1052.94C1615.96 1054.6 1614.18 1056.54 1614.14 1057.47C1614.11 1058.06 1614.26 1058.3 1614.96 1058.86C1615.82 1059.52 1619.6 1060.94 1623.57 1062.09C1625.51 1062.65 1625.76 1062.69 1626.69 1062.53C1627.25 1062.44 1628.21 1062.15 1628.83 1061.86C1633.01 1060.02 1633.87 1059.65 1634.62 1059.37C1635.09 1059.21 1636.13 1058.78 1636.92 1058.42C1643.15 1055.62 1645.78 1054.64 1647.63 1054.42C1651.58 1053.96 1654.95 1055.63 1656.47 1058.81C1657.49 1060.97 1657.63 1063.97 1656.78 1065.76C1656.21 1066.96 1654.61 1068.65 1652.78 1069.97C1650.75 1071.44 1650.69 1071.5 1651.34 1071.78C1651.61 1071.91 1652.12 1072.1 1652.44 1072.2C1652.77 1072.31 1653.67 1072.63 1654.44 1072.93C1655.21 1073.21 1656.5 1073.67 1657.31 1073.93C1661.86 1075.46 1664.45 1077.54 1665.54 1080.52C1666.34 1082.7 1666.19 1085.53 1665.1 1088.32C1664.58 1089.67 1662.93 1091.84 1661.77 1092.68C1659.2 1094.56 1655.39 1095.22 1651.79 1094.4C1651.04 1094.22 1650.34 1094.05 1650.23 1093.99C1650.14 1093.93 1649.28 1093.66 1648.33 1093.38C1647.38 1093.11 1646.41 1092.78 1646.17 1092.69C1645.1 1092.24 1643.07 1091.83 1642.33 1091.93C1641.56 1092.01 1641.56 1092.01 1641.66 1092.45C1642.55 1096.14 1642.54 1096.05 1642.3 1097.39C1641.86 1099.71 1640.52 1101.49 1637.75 1103.36L1636.54 1104.2L1634.47 1104.54C1632.41 1104.89 1632.38 1104.9 1631.2 1104.58C1629.83 1104.21 1627.37 1102.69 1626.54 1101.69C1625.64 1100.61 1624.2 1098.25 1623.38 1096.45C1622.94 1095.47 1622.32 1094.15 1621.99 1093.49C1621.3 1092.03 1620.15 1089.53 1619.04 1087C1617.47 1083.41 1616.58 1082.1 1615.34 1081.5C1615.02 1081.34 1613.91 1080.96 1612.86 1080.65C1611.83 1080.33 1610.69 1079.99 1610.36 1079.86C1610.03 1079.74 1608.84 1079.38 1607.73 1079.08C1606.03 1078.62 1605.56 1078.55 1604.84 1078.66C1603.92 1078.8 1603.54 1079.11 1603.2 1079.98C1603.04 1080.4 1603.13 1081.15 1603.76 1085.27C1604.53 1090.38 1604.8 1091.41 1605.58 1092.25C1605.8 1092.5 1609.2 1094.86 1613.1 1097.46C1621.55 1103.09 1622.11 1103.5 1623.2 1104.89C1623.78 1105.63 1624.32 1106.97 1624.52 1108.24C1624.98 1111.12 1623.58 1114.34 1620.98 1116.38C1618.44 1118.39 1615.99 1118.7 1612.42 1117.48C1609.96 1116.65 1609 1116.38 1608.81 1116.49C1608.66 1116.57 1608.75 1117.44 1609.22 1120.5C1609.92 1124.93 1610 1125.71 1609.82 1127.41C1609.69 1128.81 1609.26 1130.15 1608.49 1131.6C1607.55 1133.36 1605.52 1135.26 1603.57 1136.19C1602.57 1136.67 1602.1 1136.81 1600.52 1137.06C1599.5 1137.21 1598.51 1137.34 1598.32 1137.33Z" fill="#8A8F92"/>
</mask>
<g mask="url(#mask0_2114_1441)">
<rect x="1455.25" y="985.567" width="386.044" height="332.983" transform="rotate(-9.36332 1455.25 985.567)" fill="#61C9E2"/>
</g>
</g>
<defs>
<clipPath id="clip0_2114_1441">
<rect width="1920" height="1225" fill="white"/>
</clipPath>
</defs>
</svg>
