<svg width="165" height="159" viewBox="0 0 165 159" fill="none" xmlns="http://www.w3.org/2000/svg">
<g clip-path="url(#clip0_2114_1465)">
<path d="M107.311 21.251C119.851 19.3407 131.144 29.0567 131.127 41.7418C131.119 48.3343 134.251 54.5367 139.561 58.4432C149.78 65.9599 150.895 80.8155 141.913 89.7735C137.246 94.429 135.075 101.029 136.067 107.547C137.978 120.087 128.262 131.38 115.577 131.364C108.984 131.355 102.782 134.487 98.8751 139.798C91.3584 150.016 76.5028 151.131 67.5448 142.15C62.8893 137.482 56.2888 135.311 49.7715 136.304C37.231 138.214 25.9379 128.498 25.9545 115.813C25.9632 109.22 22.8311 103.018 17.5206 99.1114C7.30241 91.5947 6.18722 76.739 15.1687 67.7811C19.8365 63.1256 22.0075 56.5251 21.0147 50.0077C19.1044 37.4673 28.8204 26.1742 41.5055 26.1908C48.0981 26.1995 54.3005 23.0674 58.2069 17.7569C65.7236 7.53866 80.5793 6.42348 89.5372 15.405C94.1927 20.0727 100.793 22.2437 107.311 21.251Z" fill="white"/>
</g>
<defs>
<clipPath id="clip0_2114_1465">
<rect width="165" height="159" fill="white"/>
</clipPath>
</defs>
</svg>
