<svg width="1920" height="1038" viewBox="0 0 1920 1038" fill="none" xmlns="http://www.w3.org/2000/svg">
<g clip-path="url(#clip0_2364_927)">
<path d="M43.7978 208.979L0 227.001V965.706L151.54 999.941C262.667 1025.05 377.76 1027.11 489.715 1006C593.298 986.465 700.699 986.96 804.174 1007.06C908.739 1027.36 1017.26 1027.92 1121.96 1008.3L1143.67 1004.23C1241.66 985.868 1342.25 986.349 1440.06 1005.65C1548.14 1026.98 1659.5 1025.3 1766.89 1000.73L1920 965.706V210.227L1761.45 220.621C1697 224.846 1632.3 218.537 1569.88 201.94C1490.65 180.875 1407.91 176.43 1326.88 188.887L1208.67 207.058C1122.76 220.265 1035.26 219.382 949.632 204.442L844.168 186.043C783.387 175.439 721.168 176.177 660.655 188.218L597.538 200.778C510.295 218.138 420.768 220.827 332.64 208.733L237.682 195.702C173.321 179.019 105.284 183.678 43.7978 208.979Z" fill="#FFF7EB"/>
<path d="M264 700.582L225.043 691.241C199.523 685.123 175.191 674.826 153.031 660.767L138.857 651.775C109.255 632.995 85.73 606.037 71.1305 574.165L67.3388 565.888C61.1593 552.397 57.354 537.941 56.0903 523.157L55.5507 516.843C51.0602 464.304 81.2856 414.958 130.129 395.087V395.087C177.395 375.858 231.65 388.519 265.523 426.683L267.854 429.309C278.519 441.324 286.774 455.277 292.17 470.409L295.87 480.784C304.847 505.953 308.174 532.789 305.617 559.388L303.802 578.261C300.954 607.879 293.179 636.813 280.799 663.87L264 700.582ZM264 700.582L302.315 709.769C338.977 718.559 376.547 723 414.249 723V723C500.489 723 585.136 699.769 659.295 655.75L691.342 636.727C719.049 620.281 748.281 606.551 778.63 595.73L854.031 568.844C897.239 553.438 943.096 546.847 988.894 549.46V549.46C1063.27 553.705 1134.26 582.029 1191.12 630.159L1274.86 701.031C1301.45 723.529 1331.49 741.581 1363.84 754.489V754.489C1401.93 769.691 1442.57 777.5 1483.59 777.5H1495.72C1528.77 777.5 1561.68 773.259 1593.65 764.88L1607.32 761.296C1648.6 750.477 1688.31 734.376 1725.47 713.391L1731.92 709.75C1754.6 696.936 1776.26 682.369 1796.67 666.18L1810.68 655.073C1873.31 605.415 1923.13 541.466 1955.95 468.586L1974 428.5M264 700.582L212.218 735.793C176.565 760.036 134.446 773 91.3306 773V773C62.7311 773 34.419 767.294 8.05238 756.215L-71 723" stroke="white" stroke-width="70"/>
<path d="M1569.25 257.16L1558.13 315.392L1613.97 290.827L1577.01 337.146L1640.04 338.731L1584.57 363.963L1642.31 391.385L1579.31 390.533L1620.33 438.36L1562.28 411.593L1578.45 470.352L1536.85 422.971L1524.96 481.025L1508.05 422.414L1470.47 468.264L1481.59 410.033L1425.75 434.598L1462.71 388.279L1399.67 386.694L1455.15 361.461L1397.4 334.04L1460.41 334.891L1419.38 287.064L1477.44 313.832L1461.27 255.072L1502.87 302.454L1514.75 244.4L1531.67 303.011L1569.25 257.16Z" fill="white"/>
</g>
<defs>
<clipPath id="clip0_2364_927">
<rect width="1920" height="1038" fill="white"/>
</clipPath>
</defs>
</svg>
