<svg width="1920" height="253" viewBox="0 0 1920 253" fill="none" xmlns="http://www.w3.org/2000/svg">
<g clip-path="url(#clip0_2653_1331)">
<path d="M0 -1.5L1920 0V797.159L1827.21 828.817C1706.23 870.089 1576.01 876.165 1451.72 846.336C1350.29 821.995 1244.6 821.49 1142.94 844.862L1124.1 849.191C1018.6 873.448 909.111 874.801 803.034 853.159L722.687 836.767C634.281 818.73 542.861 821.874 455.902 845.943C347.388 875.978 232.421 873.301 125.422 838.248L0 797.159V-1.5Z" fill="#FF9900"/>
<path d="M-65.5 153L-53.0897 145.183C-10.8915 118.604 38.4187 104.5 88.2901 104.5V104.5C116.733 104.5 145.24 109.165 172.173 118.31V118.31C215.933 133.168 254.945 159.417 285.194 194.356L288.611 198.302C298.52 209.748 307.461 221.993 315.485 234.832C325.075 250.175 335.741 266.926 339 271M287.5 305.5V305.5C347.821 260.093 414.649 224.049 485.727 198.585L539 179.5L557.753 174.4C624.551 156.233 693.667 148.039 762.86 150.085V150.085C828.299 152.019 893.146 163.091 955.519 182.98L1031.96 207.354C1071.92 220.098 1110.83 235.966 1148.3 254.811L1180.5 271" stroke="#FFB240" stroke-width="70"/>
<path d="M1627.13 17.7362L1612.05 96.7064L1687.77 63.3924L1637.65 126.207L1723.13 128.357L1647.9 162.576L1726.21 199.763L1640.77 198.608L1696.4 263.467L1617.67 227.167L1639.6 306.853L1583.18 242.597L1567.07 321.326L1544.13 241.842L1493.16 304.022L1508.25 225.051L1432.52 258.365L1482.64 195.55L1397.16 193.401L1472.39 159.182L1394.08 121.995L1479.52 123.15L1423.89 58.2904L1502.62 94.5906L1480.69 14.9048L1537.11 79.1604L1553.22 0.431228L1576.16 79.9155L1627.13 17.7362Z" fill="#FFB240"/>
</g>
<defs>
<clipPath id="clip0_2653_1331">
<rect width="1920" height="253" fill="white"/>
</clipPath>
</defs>
</svg>
