<svg width="569" height="995" viewBox="0 0 569 995" fill="none" xmlns="http://www.w3.org/2000/svg">
<g clip-path="url(#clip0_2348_945)">
<rect width="569" height="995" fill="url(#paint0_linear_2348_945)"/>
<path d="M569 992V10L527.006 20.8079C469.264 35.669 408.907 37.2598 350.462 25.4608L348.182 25.0006C299.122 15.0962 248.597 14.9016 199.462 24.4278C135.328 36.862 69.08 32.6883 7.01387 12.3035L0 9.99988V992L21.8528 984.62C83.9865 963.635 150.68 960.064 214.699 974.294L221.391 975.781C269.427 986.458 319.245 986.223 367.178 975.093C430.506 960.389 496.772 964.778 557.607 987.706L569 992Z" fill="#FF9900"/>
<path d="M70.9103 82.1826L64.0114 118.299L98.6433 103.063L75.7204 131.791L114.816 132.774L80.4092 148.424L116.225 165.431L77.149 164.903L102.591 194.566L66.5856 177.964L76.6152 214.408L50.8112 185.021L43.4416 221.027L32.9502 184.676L9.64105 213.113L16.54 176.997L-18.092 192.233L4.83094 163.505L-34.2646 162.521L0.142162 146.872L-35.6736 129.865L3.40232 130.393L-22.0399 100.73L13.9657 117.331L3.93615 80.8877L29.7401 110.275L37.1097 74.2683L47.6012 110.62L70.9103 82.1826Z" fill="#FFB240"/>
<path d="M324.18 855.183L317.281 891.299L351.913 876.063L328.99 904.791L368.085 905.774L333.679 921.424L369.494 938.431L330.419 937.903L355.861 967.566L319.855 950.964L329.885 987.408L304.081 958.021L296.711 994.027L286.22 957.676L262.911 986.113L269.809 949.997L235.178 965.233L258.1 936.505L219.005 935.521L253.412 919.872L217.596 902.865L256.672 903.393L231.23 873.73L267.235 890.331L257.206 853.888L283.01 883.275L290.379 847.268L300.871 883.62L324.18 855.183Z" fill="#FFB240"/>
</g>
<defs>
<linearGradient id="paint0_linear_2348_945" x1="284.5" y1="0" x2="284.5" y2="995" gradientUnits="userSpaceOnUse">
<stop stop-color="#FFF7EB"/>
<stop offset="1" stop-color="#FFF7EB" stop-opacity="0"/>
</linearGradient>
<clipPath id="clip0_2348_945">
<rect width="569" height="995" fill="white"/>
</clipPath>
</defs>
</svg>
