<svg width="1920" height="915" viewBox="0 0 1920 915" fill="none" xmlns="http://www.w3.org/2000/svg">
<path d="M0 67.7247L125.018 37.5938C227.981 12.7784 334.846 8.65472 439.415 25.4621L498.378 34.9392C584.219 48.7363 671.734 48.4484 757.482 34.0867L819.464 23.7056C913.074 8.02699 1008.73 9.13185 1101.95 26.9685L1121.22 30.6554C1208.14 47.2854 1297.21 49.3791 1384.81 36.8512L1489.61 21.8644C1590.6 7.42149 1693.43 12.4293 1792.54 36.6179L1920 67.7247V850.5L1802.71 884.651C1691.01 917.172 1572.25 916.294 1461.05 882.127L1430.45 872.724C1328.51 841.402 1219.21 843.58 1118.6 878.938C1016.02 914.989 904.465 916.53 800.928 883.325L777.181 875.71C672.914 842.271 561.249 839.41 455.406 867.465L414.413 878.33C276.962 914.763 131.345 904.984 0 850.5V67.7247Z" fill="#FF9900"/>
<path d="M1989.5 344.5L1904.93 420.929C1881.81 441.829 1855.35 458.719 1826.66 470.9V470.9C1785.49 488.378 1740.72 495.732 1696.12 492.345L1645.5 488.5L1605.86 480.95C1511.23 462.925 1413.48 487.901 1339.1 549.114V549.114C1321.41 563.664 1302.24 576.3 1281.9 586.812L1255.31 600.554C1223.96 616.752 1190.28 627.954 1155.47 633.754L1149.82 634.697C1075 647.166 998.18 632.91 932.817 594.425L900.861 575.61C849.002 545.076 811.07 495.55 795.102 437.528L790.358 420.292C777.009 371.786 783.59 319.957 808.637 276.326L816.287 263.001C835.973 228.709 868.323 203.506 906.388 192.805V192.805C947.813 181.159 992.24 187.738 1028.51 210.891L1032.35 213.338C1068.6 236.48 1094.1 273.154 1103.18 315.199L1105.32 325.149C1108.1 338.013 1109.5 351.136 1109.5 364.296V369.089C1109.5 414.047 1096.24 458.2 1071.56 495.782V495.782C1047.12 533.022 1012.35 562.607 971.625 580.673L946.525 591.809C910.476 607.803 871.818 617.108 832.439 619.269L780.499 622.119C745.644 624.032 710.687 621.468 676.483 614.49V614.49C612.112 601.357 551.859 572.889 500.838 531.501L435.5 478.5L383.648 427.808C317.255 362.899 225.725 330.39 133.263 338.877V338.877C92.7991 342.591 53.4276 354.056 17.2956 372.647L-48.5 406.5" stroke="#FFB240" stroke-width="70"/>
</svg>
