<svg width="569" height="720" viewBox="0 0 569 720" fill="none" xmlns="http://www.w3.org/2000/svg">
<path d="M0 699.198L53.5864 711.327C101.614 722.198 151.558 721.293 199.161 708.69V708.69C247.717 695.834 298.694 695.154 347.575 706.71L360.84 709.845C416.859 723.088 475.238 722.697 531.074 708.703L569 699.198V23.1122L545.161 15.4964C486.921 -3.10889 424.562 -4.59116 365.504 11.226L362.084 12.1419C309.301 26.2782 253.697 26.0285 201.044 11.4186V11.4186C143.626 -4.51351 82.8063 -3.34114 26.0449 14.7919L0 23.1122V699.198Z" fill="#FF9900"/>
<path d="M344.272 220.917L332.026 252.749L366.149 244.545L340.492 266.994L376.018 274.33L342.033 282.949L371.925 304.373L336.343 297.454L354.681 328.722L324.549 307.637L327.701 342.556L318.344 327.019L308.987 311.481L296.329 343.135L292.74 308.224L266.779 330.343L279.025 298.511L244.902 306.715L270.559 284.267L235.033 276.93L269.018 268.312L239.125 246.888L274.708 253.806L256.369 222.538L286.502 243.623L283.349 208.704L302.064 239.779L314.721 208.126L318.311 243.036L344.272 220.917Z" fill="#FFB240"/>
<ellipse cx="18.8996" cy="17.9227" rx="18.8996" ry="17.9227" transform="matrix(-0.188911 -0.981994 -0.981994 0.188911 70.543 628.579)" fill="#FFB240"/>
<ellipse cx="9.0267" cy="8.56011" rx="9.0267" ry="8.56011" transform="matrix(-0.188911 -0.981994 -0.981994 0.188911 115.928 594.58)" fill="#FFB240"/>
<ellipse cx="14.6684" cy="13.9102" rx="14.6684" ry="13.9102" transform="matrix(-0.188911 -0.981994 -0.981994 0.188911 82.2812 568.105)" fill="#FFB240"/>
</svg>
