<svg width="1920" height="977" viewBox="0 0 1920 977" fill="none" xmlns="http://www.w3.org/2000/svg">
<g clip-path="url(#clip0_2114_1500)">
<path d="M0 141.543L50.7448 117.528C110.021 89.4754 172.537 68.8565 236.872 56.1401C317.799 40.1439 400.72 36.8264 482.667 46.3062L570.5 56.467L795 111.828L949.234 128.678C1027.32 137.208 1106.23 134.192 1183.44 119.726L1282.5 101.166L1410.38 76.8932C1481.79 63.339 1554.72 59.5801 1627.15 65.7202L1632.49 66.1734C1703.84 72.2223 1774.06 87.823 1841.25 112.557L1920 141.543V920.173L1858.09 931.863C1752.77 951.752 1644.53 950.273 1539.79 927.515L1506 920.173L1452.07 909.939C1361.7 892.793 1269.05 891.358 1178.2 905.699L1086.5 920.173L975.846 944.03C920.439 955.976 863.919 962 807.239 962H728.002C667.859 962 607.908 955.218 549.285 941.782L455 920.173L347.678 903.524C264.415 890.607 179.635 890.925 96.4716 904.465L0 920.173V141.543Z" fill="#D7F7FF"/>
<path d="M-115.5 208L-68.8084 382.047C-55.397 432.039 -32.4104 478.953 -1.12361 520.187L19 546.709L58.075 588.298C68.0053 598.867 78.8564 608.532 90.5 617.178V617.178L185 682.149L206.877 695.325C243.978 717.671 284.862 733.024 327.5 740.623V740.623V740.623C385.587 752.432 445.699 749.609 502.424 732.408L549.5 718.133L617.11 696.215C645.586 686.984 671.31 670.794 691.952 649.113V649.113C710.096 630.054 723.84 607.247 732.216 582.301L736.851 568.493C741.902 553.447 743.988 537.563 742.992 521.723L742.231 509.614C739.926 472.932 718.056 440.33 684.99 424.282V424.282C663.665 413.932 639.401 411.336 616.369 416.939L611.267 418.18C577.242 426.457 548.741 449.594 533.646 481.191L524.848 499.608C518.316 513.28 513.765 527.813 511.332 542.769L510.8 546.041C506.97 569.582 507.787 593.644 513.203 616.87L520.5 648.164L529.781 674.075C542.518 709.635 567.381 739.568 600 758.615V758.615L637 778.606L649.179 783.186C674.654 792.766 701.076 799.608 728 803.595V803.595L744.384 805.31C768.412 807.827 792.619 808.161 816.707 806.308L855.214 803.348C904.396 799.566 952.023 784.39 994.326 759.019V759.019C1016.36 745.804 1036.71 729.966 1054.93 711.852L1119 648.164L1179 571.698L1260.5 457.748L1309.45 390.371C1334.98 355.226 1366.06 324.475 1401.48 299.326L1439.5 272.331L1470.93 251.382C1488.25 239.836 1506.9 230.426 1526.47 223.357V223.357C1554.61 213.196 1584.3 208 1614.21 208H1624.22C1649.32 208 1674.32 210.995 1698.71 216.921L1707.53 219.064C1748.25 228.957 1787.19 245.38 1822.72 267.599V267.599C1872.52 298.752 1914.83 340.756 1946.28 390.371L1989 457.748" stroke="white" stroke-width="70"/>
<circle cx="1700.5" cy="668.5" r="20.5" fill="white"/>
<circle cx="1764.5" cy="555.5" r="33.5" fill="white"/>
<path d="M1884 649.906L1875.92 692.224L1916.5 674.372L1889.64 708.033L1935.45 709.185L1895.13 727.521L1937.1 747.449L1891.31 746.83L1921.12 781.587L1878.94 762.134L1890.69 804.836L1860.45 770.403L1851.82 812.592L1839.52 769.998L1812.21 803.319L1820.3 761.001L1779.72 778.853L1806.58 745.192L1760.77 744.04L1801.08 725.703L1759.12 705.775L1804.9 706.394L1775.09 671.638L1817.28 691.09L1805.53 648.388L1835.76 682.821L1844.4 640.632L1856.69 683.226L1884 649.906Z" fill="#D7F7FF"/>
<path d="M48.246 191.654L37.4439 248.203L91.6694 224.347L55.7775 269.329L116.992 270.868L63.119 295.372L119.198 322.001L58.0144 321.174L97.8508 367.619L41.4746 341.625L57.1785 398.687L16.7756 352.674L5.23659 409.052L-11.1906 352.134L-47.6872 396.66L-36.8851 340.11L-91.1105 363.966L-55.2187 318.984L-116.433 317.445L-62.5602 292.942L-118.639 266.312L-57.4555 267.139L-97.292 220.694L-40.9158 246.688L-56.6197 189.626L-16.2168 235.639L-4.67776 179.262L11.7494 236.179L48.246 191.654Z" fill="#D7F7FF"/>
</g>
<defs>
<clipPath id="clip0_2114_1500">
<rect width="1920" height="977" fill="white"/>
</clipPath>
</defs>
</svg>
