<svg width="1920" height="780" viewBox="0 0 1920 780" fill="none" xmlns="http://www.w3.org/2000/svg">
<g clip-path="url(#clip0_2291_825)">
<path d="M0 -4H1920V707.159L1827.21 738.817C1706.23 780.089 1576.01 786.165 1451.72 756.336C1350.29 731.995 1244.6 731.49 1142.94 754.862L1124.1 759.191C1018.6 783.448 909.111 784.801 803.034 763.159L722.687 746.767C634.281 728.73 542.861 731.874 455.902 755.943C347.388 785.978 232.421 783.301 125.422 748.248L0 707.159V-4Z" fill="#FF9900"/>
<path d="M-25 70.5V70.5C57.679 51.4451 144.429 62.137 220.006 100.697L224.084 102.777C257.504 119.828 288.334 141.648 314.782 168.259C320.905 174.42 325.65 179.312 327 181C328.558 182.948 347.432 204.914 358.341 217.598C363.447 223.535 368.147 229.79 372.427 236.348L375.584 241.186C389.639 262.721 398.094 287.424 400.182 313.055L400.881 321.631C401.951 334.766 400.606 347.986 396.912 360.636L395.906 364.079C389.504 386.001 375.642 404.997 356.718 417.782V417.782C311.099 448.6 248.968 435.649 219.302 389.273V389.273C203.61 364.741 199.583 334.45 208.374 306.687L209.372 303.536C212.112 294.882 215.961 286.618 220.823 278.952L223.829 274.212C234.177 257.894 247.611 243.755 263.378 232.586L267.132 229.927C280.64 220.359 295.46 212.795 311.132 207.468L351.793 193.647C376.54 185.235 402.041 179.233 427.942 175.722L444.011 173.544C497.561 166.287 552.071 171.928 603 190V190V190C676.74 217.937 739.647 268.665 782.577 334.809L798.036 358.628C821.231 394.367 849.308 426.69 881.45 454.658L901.131 471.783C932.558 499.128 967.635 521.969 1005.35 539.65V539.65C1052.43 561.716 1102.97 575.604 1154.78 579.98C1168.67 581.153 1179.55 582 1182 582C1187.63 582 1244.52 582 1291.49 572.121C1303.9 569.51 1315.55 564.299 1326.54 557.962L1349.75 544.574C1383.79 524.947 1405.23 489.099 1406.43 449.83L1406.52 446.81C1408.43 384.525 1358.45 333 1296.14 333V333C1251.3 333 1209.95 359.806 1195.9 402.389C1192.62 412.318 1190.17 420.889 1189.5 426V426C1182.26 481.054 1204.17 535.789 1243.39 575.101C1246.88 578.603 1250.41 582.137 1253.95 585.67C1294 625.65 1349.01 647 1405.6 647V647C1446.49 647 1487.09 636.08 1522.35 615.37L1535.81 607.461C1559.45 593.576 1585.15 583.546 1611.95 577.749V577.749C1665.28 566.214 1720.88 571.875 1770.79 593.92L1782.95 599.292C1844.82 626.62 1914.12 632.162 1979.54 615.01L2063.5 593" stroke="#FFB240" stroke-width="70"/>
<path d="M1760.13 5.73624L1745.05 84.7064L1820.77 51.3924L1770.65 114.207L1856.13 116.357L1780.9 150.576L1859.21 187.763L1773.77 186.608L1829.4 251.467L1750.67 215.167L1772.6 294.853L1716.18 230.597L1700.07 309.326L1677.13 229.842L1626.16 292.022L1641.25 213.051L1565.52 246.365L1615.64 183.55L1530.16 181.401L1605.39 147.182L1527.08 109.995L1612.52 111.15L1556.89 46.2904L1635.62 82.5906L1613.69 2.90484L1670.11 67.1604L1686.22 -11.5688L1709.16 67.9155L1760.13 5.73624Z" fill="#FFB240"/>
<circle cx="331.061" cy="604.799" r="16" transform="rotate(23.9444 331.061 604.799)" fill="#FFB240"/>
<circle cx="387.332" cy="670.271" r="21" transform="rotate(23.9444 387.332 670.271)" fill="#FFB240"/>
<circle cx="295.953" cy="678.93" r="28" transform="rotate(23.9444 295.953 678.93)" fill="#FFB240"/>
</g>
<defs>
<clipPath id="clip0_2291_825">
<rect width="1920" height="780" fill="white"/>
</clipPath>
</defs>
</svg>
