<svg width="569" height="707" viewBox="0 0 569 707" fill="none" xmlns="http://www.w3.org/2000/svg">
<g clip-path="url(#clip0_2496_1537)">
<path d="M0 -14H569V685.947L545.353 692.861C486.795 709.984 424.755 711.351 365.5 696.825L362.051 695.98C309.139 683.009 253.849 683.239 201.047 696.649V696.649C143.431 711.282 82.9467 710.2 25.8913 693.518L0 685.947V-14Z" fill="#FF9900"/>
<path d="M311.937 86.5645L316.213 120.13L342.161 96.9139L330.309 128.591L364.792 118.289L339.159 141.803L375.348 146.457L341.012 157.151L371.739 175.838L335.5 171.594L354.679 200.613L323.714 182.271L327.547 215.875L307.99 187.068L295.717 218.601L291.441 185.035L265.493 208.252L277.345 176.575L242.862 186.876L268.495 163.362L232.306 158.709L266.642 148.015L235.915 129.328L272.154 133.572L252.975 104.553L283.94 122.895L280.107 89.2908L299.664 118.097L311.937 86.5645Z" fill="#FFB240"/>
<path d="M77.3234 544.385L71.9099 572.725L99.0852 560.77L81.0979 583.312L111.776 584.084L84.7771 596.364L112.881 609.709L82.2189 609.295L102.183 632.571L73.9299 619.544L81.8 648.141L61.552 625.081L55.7692 653.335L47.5366 624.81L29.2463 647.124L34.6598 618.784L7.48456 630.74L25.4719 608.197L-5.20585 607.426L21.7926 595.146L-6.31148 581.8L24.3509 582.215L4.38669 558.939L32.6398 571.966L24.7697 543.369L45.0177 566.428L50.8006 538.175L59.0331 566.699L77.3234 544.385Z" fill="#FFB240"/>
</g>
<defs>
<clipPath id="clip0_2496_1537">
<rect width="569" height="707" fill="white"/>
</clipPath>
</defs>
</svg>
