<svg width="1920" height="1003" viewBox="0 0 1920 1003" fill="none" xmlns="http://www.w3.org/2000/svg">
<g clip-path="url(#clip0_2072_12)">
<path d="M-148 639L-35.1538 665.11C-25.4162 667.363 -15.4539 668.5 -5.45911 668.5V668.5C9.40638 668.5 24.1646 665.984 38.1903 661.058L101 639L144.619 618.266C189.717 596.83 237.176 580.763 286.022 570.396V570.396C329.554 561.158 373.934 556.5 418.436 556.5H446.776C489.192 556.5 531.54 559.873 573.42 566.588L694.5 586L795.844 609.086C814.568 613.351 832.818 619.478 850.323 627.374L866.197 634.534C914.972 656.534 954.909 694.329 979.564 741.817L996.203 773.868C1009.06 798.624 1013.56 826.872 1009.04 854.397V854.397C995.662 935.879 910.38 984.117 833.653 953.601L821.962 948.951C784.503 934.052 755.325 903.669 741.954 865.637L737.569 853.163C724.9 817.127 724.853 777.856 737.434 741.79L752.233 699.366C759.389 678.851 768.777 659.183 780.227 640.718L783.862 634.856C826.38 566.286 890.734 514.017 966.566 486.462L1016 468.5V468.5C1074.07 443.755 1136.54 431 1199.66 431H1298L1400 441L1521 456.5H1595.13C1646 456.5 1696.48 447.732 1744.37 430.58V430.58C1789.82 414.303 1832.3 390.701 1870.12 360.708L1897.5 339L1934.5 302" stroke="#FFF9F0" stroke-width="70"/>
<path d="M817.742 152.095L808.338 201.323L855.543 180.556L824.298 219.713L877.587 221.053L830.689 242.384L879.507 265.566L826.245 264.846L860.924 305.278L811.847 282.649L825.518 332.323L790.346 292.268L780.301 341.346L766.001 291.797L734.23 330.558L743.633 281.33L696.428 302.097L727.673 262.94L674.385 261.6L721.282 240.269L672.464 217.087L725.726 217.807L691.047 177.376L740.124 200.004L726.454 150.33L761.625 190.385L771.67 141.308L785.971 190.856L817.742 152.095Z" fill="#FF9900" fill-opacity="0.06"/>
<circle cx="1383.02" cy="801.017" r="19.3885" transform="rotate(-125.218 1383.02 801.017)" fill="#FFF7EB"/>
<circle cx="1282.72" cy="840.718" r="28.5" transform="rotate(-125.218 1282.72 840.718)" fill="#FFF7EB"/>
<circle cx="1292.84" cy="722.836" r="41.5" transform="rotate(-125.218 1292.84 722.836)" fill="#FFF7EB"/>
</g>
<defs>
<clipPath id="clip0_2072_12">
<rect width="1921" height="1003" fill="white"/>
</clipPath>
</defs>
</svg>
