<svg width="1920" height="1003" viewBox="0 0 1920 1003" fill="none" xmlns="http://www.w3.org/2000/svg">
<g clip-path="url(#clip0_2072_12)">
<path d="M-148 639L-35.1538 665.11C-25.4162 667.363 -15.4539 668.5 -5.45911 668.5V668.5C9.40638 668.5 24.1646 665.984 38.1903 661.058L101 639L144.619 618.266C189.717 596.83 237.176 580.763 286.022 570.396V570.396C329.554 561.158 373.934 556.5 418.436 556.5H446.776C489.192 556.5 531.54 559.873 573.42 566.588L694.5 586L761.199 601.194C802.749 610.659 842.334 627.286 878.18 650.33L923.865 679.699C954.609 699.463 978.865 727.828 993.618 761.267L1000.12 776.015C1010.48 799.497 1013.79 825.485 1009.63 850.811V850.811C995.948 934.135 908.738 983.464 830.276 952.258L821.962 948.951C784.503 934.052 755.325 903.669 741.954 865.637L737.569 853.163C724.9 817.127 724.853 777.856 737.434 741.79L752.233 699.366C759.389 678.851 768.777 659.183 780.227 640.718L783.862 634.856C826.38 566.286 890.734 514.017 966.566 486.462L1016 468.5V468.5C1074.07 443.755 1136.54 431 1199.66 431H1298L1400 441L1521 456.5H1595.13C1646 456.5 1696.48 447.732 1744.37 430.58V430.58C1789.82 414.303 1832.3 390.701 1870.12 360.708L1897.5 339L1934.5 302" stroke="#FFF9F0" stroke-width="70"/>
<path d="M818.23 152.095L808.826 201.323L856.031 180.556L824.786 219.713L878.075 221.053L831.177 242.384L879.995 265.566L826.734 264.846L861.412 305.278L812.335 282.649L826.006 332.323L790.834 292.268L780.789 341.346L766.489 291.797L734.718 330.558L744.121 281.33L696.917 302.097L728.161 262.94L674.873 261.6L721.77 240.269L672.952 217.087L726.214 217.807L691.536 177.376L740.612 200.004L726.942 150.33L762.114 190.385L772.159 141.308L786.459 190.856L818.23 152.095Z" fill="#FF9900" fill-opacity="0.06"/>
<circle cx="1382.66" cy="800.979" r="19.3885" transform="rotate(-125.218 1382.66 800.979)" fill="#FFF7EB"/>
<circle cx="1282.85" cy="840.281" r="28.5" transform="rotate(-125.218 1282.85 840.281)" fill="#FFF7EB"/>
<circle cx="1292.97" cy="723.163" r="41.5" transform="rotate(-125.218 1292.97 723.163)" fill="#FFF7EB"/>
</g>
<defs>
<clipPath id="clip0_2072_12">
<rect width="1921" height="1003" fill="white"/>
</clipPath>
</defs>
</svg>
