<svg width="1920" height="919" viewBox="0 0 1920 919" fill="none" xmlns="http://www.w3.org/2000/svg">
<path d="M0 78.5L111.84 52.6445C222.027 27.1711 336.363 25.3495 447.306 47.2998L488.679 55.4856C565.805 70.7452 644.759 74.5523 722.995 66.7841L877.714 51.422C930.772 46.1539 984.223 46.2032 1037.27 51.5694L1185.13 66.5262C1263.61 74.4651 1342.84 70.7529 1420.23 55.5101L1466.14 46.4681C1574.86 25.0563 1686.84 26.4632 1794.99 50.5998L1920 78.5V850.5L1773.83 883.436C1669.91 906.852 1562.08 906.871 1458.15 883.491C1361.43 861.733 1261.25 860.223 1163.92 879.057L1107.7 889.936C1008.47 909.138 906.491 909.361 807.174 890.594L743.509 878.563C645.501 860.043 544.772 861.388 447.293 882.519C336.557 906.523 221.805 904.957 111.765 877.94L0 850.5V78.5Z" fill="#FFF7EB"/>
<path d="M1595.01 102.237L1590.74 158.24L1640.69 129.17L1610.83 176.709L1670.34 171.491L1620.8 201.151L1678.08 220.817L1618.68 226.723L1662.39 267.38L1604.89 248.362L1626.37 301.956L1582.16 261.781L1577.15 317.698L1554.99 264.323L1524.49 311.487L1528.76 255.484L1478.81 284.554L1508.67 237.015L1449.16 242.233L1498.7 212.573L1441.42 192.907L1500.82 187.001L1457.11 146.344L1514.61 165.362L1493.13 111.768L1537.34 151.943L1542.35 96.0259L1564.51 149.401L1595.01 102.237Z" fill="white"/>
<path d="M107.5 125L116.622 194.116L172 205.5L116.622 216.884L107.5 286L98.3783 216.884L43 205.5L98.3783 194.116L107.5 125Z" fill="white"/>
<path d="M171.5 215L176.506 248.212L201 255L176.506 261.788L171.5 295L166.494 261.788L142 255L166.494 248.212L171.5 215Z" fill="white"/>
<path d="M-267 414.5L-179.571 505.886C-85.929 603.766 37.9566 667.245 172.1 686.083L227.214 693.823C268.017 699.553 309.544 697.313 349.493 687.226L374.633 680.878C416.997 670.182 455.428 647.618 485.412 615.838L504.805 595.283C532.547 565.879 548 526.982 548 486.556V458.077C548 397.843 504.845 346.263 445.556 335.633V335.633C389.391 325.563 333.577 354.995 310.162 407.029L301.437 426.417C297.819 434.457 294.909 442.797 292.741 451.343L291.302 457.013C273.31 527.906 291.981 603.053 340.795 657.52C362.04 681.225 384.867 706.781 405.501 730.065C435.679 764.117 474.868 789.052 518.679 801.335V801.335C545.017 808.72 572.457 811.373 599.722 809.173L606.251 808.646C648.161 805.263 688.687 792.062 724.55 770.113L826.553 707.682C860.467 686.925 895.939 668.831 932.652 653.561L1038.8 609.411C1081.65 591.587 1127.1 580.779 1173.39 577.402V577.402C1235.72 572.855 1298.3 581.875 1356.81 603.841L1418.5 627L1558.7 679.273C1599.9 694.634 1643.52 702.5 1687.49 702.5V702.5C1757.7 702.5 1826.45 682.449 1885.66 644.706L2035 549.5" stroke="white" stroke-width="70"/>
</svg>
