<svg width="1920" height="1132" viewBox="0 0 1920 1132" fill="none" xmlns="http://www.w3.org/2000/svg">
<g clip-path="url(#clip0_2367_879)">
<path d="M57.818 17.7264L0 27.2635V1132.5L81.4081 1109.5C187.36 1079.58 298.807 1074.61 407 1095L420.479 1097.89C527.268 1120.77 637.33 1124.03 745.284 1107.5L822.953 1095.6C912.144 1081.95 1002.88 1081.78 1092.12 1095.11L1188.04 1109.43C1290.25 1124.7 1394.32 1122.24 1495.7 1102.18L1532 1095C1628.22 1074.64 1727.95 1078.03 1822.56 1104.86L1920 1132.5V27.2635L1832.73 12.0532C1773.72 1.7681 1713.35 2.16961 1654.48 13.2386L1578.61 27.5041C1494.3 43.3581 1407.75 43.1088 1323.53 26.7696L1263.78 15.1784C1200.45 2.89179 1135.13 5.3783 1072.92 22.4445C1003.48 41.4938 930.3 42.3457 860.432 24.9184L821.691 15.2551C772.139 2.89524 720.514 1.29602 670.293 10.5651L583.51 26.5821C494.362 43.0356 402.859 41.9188 314.139 23.2944C229.78 5.58553 142.866 3.69749 57.818 17.7264Z" fill="#FFF7EB"/>
<path d="M264 525.582L225.043 516.241C199.523 510.123 175.191 499.826 153.031 485.767L138.857 476.775C109.255 457.995 85.73 431.037 71.1305 399.165L67.3388 390.888C61.1593 377.397 57.354 362.941 56.0903 348.157L55.5507 341.843C51.0602 289.304 81.2856 239.958 130.129 220.087V220.087C177.395 200.858 231.65 213.519 265.523 251.683L267.854 254.309C278.519 266.324 286.774 280.277 292.17 295.409L295.87 305.784C304.847 330.953 308.174 357.789 305.617 384.388L303.802 403.261C300.954 432.879 293.179 461.813 280.799 488.87L264 525.582ZM264 525.582L302.315 534.769C338.977 543.559 376.547 548 414.249 548V548C500.489 548 585.136 524.769 659.295 480.75L691.342 461.727C719.049 445.281 748.281 431.551 778.63 420.73L854.031 393.844C897.239 378.438 943.096 371.847 988.894 374.46V374.46C1063.27 378.705 1134.26 407.029 1191.12 455.159L1274.86 526.031C1301.45 548.529 1331.49 566.581 1363.84 579.489V579.489C1401.93 594.691 1442.57 602.5 1483.59 602.5H1495.72C1528.77 602.5 1561.68 598.259 1593.65 589.88L1607.32 586.296C1648.6 575.477 1688.31 559.376 1725.47 538.391L1731.92 534.75C1754.6 521.936 1776.26 507.369 1796.67 491.18L1810.68 480.073C1873.31 430.415 1923.13 366.466 1955.95 293.586L1974 253.5M264 525.582L212.218 560.793C176.565 585.036 134.446 598 91.3306 598V598C62.7311 598 34.419 592.294 8.05238 581.215L-71 548" stroke="white" stroke-width="70"/>
<path d="M1361.43 803.265L1351.99 852.682L1399.37 831.835L1368.01 871.143L1421.5 872.488L1374.42 893.901L1423.43 917.172L1369.96 916.449L1404.77 957.036L1355.51 934.321L1369.23 984.186L1333.93 943.977L1323.84 993.243L1309.49 943.504L1277.59 982.414L1287.03 932.997L1239.65 953.844L1271.01 914.536L1217.52 913.191L1264.6 891.778L1215.59 868.507L1269.06 869.23L1234.24 828.642L1283.51 851.358L1269.79 801.493L1305.09 841.702L1315.18 792.436L1329.53 842.175L1361.43 803.265Z" fill="white"/>
</g>
<defs>
<clipPath id="clip0_2367_879">
<rect width="1920" height="1132" fill="white"/>
</clipPath>
</defs>
</svg>
