<svg width="569" height="775" viewBox="0 0 569 775" fill="none" xmlns="http://www.w3.org/2000/svg">
<g clip-path="url(#clip0_4001_743)">
<rect width="569" height="775" fill="#D7F7FF"/>
<path d="M569 775V0.000122509C500.816 22.642 427.151 27.5175 356.499 14.4775C305.073 4.98574 251.704 5.04234 200.34 14.8689C141.797 26.0691 81.5427 24.7115 23.5633 10.8858L0 5.26687V775H569Z" fill="#01AED8"/>
<path d="M58.5 607L60.3844 629.702L79 632L60.3844 634.298L58.5 657L56.6156 634.298L38 632L56.6156 629.702L58.5 607Z" fill="#61C9E2"/>
<path d="M79 635L80.2445 648.303L90 650L80.2445 651.697L79 665L77.7555 651.697L68 650L77.7555 648.303L79 635Z" fill="#61C9E2"/>
</g>
<defs>
<clipPath id="clip0_4001_743">
<rect width="569" height="775" fill="white"/>
</clipPath>
</defs>
</svg>
