<svg width="1919" height="790" viewBox="0 0 1919 790" fill="none" xmlns="http://www.w3.org/2000/svg">
<g clip-path="url(#clip0_2114_1634)">
<rect width="1920" height="790" transform="translate(-1)" fill="#D7F7FF"/>
<path d="M706.257 76.0045L462.053 18.1117L393.461 11.3619C316.887 3.8267 239.628 7.3777 164.069 21.9052L-1 53.6423V790H1919V91.7475L1904.09 84.7332C1810.58 40.7358 1709.44 15.2725 1606.24 9.75095L1531.87 5.77171C1460.28 1.94129 1388.5 7.75113 1318.46 23.0452L1061.46 79.1634C944.32 104.742 822.926 103.663 706.257 76.0045Z" fill="#01AED8"/>
<path d="M1311 426L1319.34 488.676L1370 499L1319.34 509.324L1311 572L1302.66 509.324L1252 499L1302.66 488.676L1311 426Z" fill="#61C9E2"/>
<path d="M1376.5 499L1382.19 536.363L1410 544L1382.19 551.637L1376.5 589L1370.81 551.637L1343 544L1370.81 536.363L1376.5 499Z" fill="#61C9E2"/>
</g>
<defs>
<clipPath id="clip0_2114_1634">
<rect width="1920" height="790" fill="white" transform="translate(-1)"/>
</clipPath>
</defs>
</svg>
