<svg width="1920" height="1057" viewBox="0 0 1920 1057" fill="none" xmlns="http://www.w3.org/2000/svg">
<g clip-path="url(#clip0_2056_69)">
<path d="M0 147.906C0 147.906 52.2781 125.491 110.5 105.804C149.909 92.4784 192.128 79.9927 219.985 72.0313C240.941 66.0426 262.336 61.7768 283.939 58.8925L380.5 46H480L578 55.5687L676.5 75.1844L885 116.33L1076.5 134.51H1293L1507 116.33H1675.01C1718.48 116.33 1761.77 122 1803.78 133.197L1920 164.173V904.5L1785.64 940.757C1728.39 956.204 1669.6 965.24 1610.36 967.696L1573.71 969.216C1521.03 971.4 1468.27 968.372 1416.19 960.175L1414.08 959.843C1330.55 946.697 1245.47 946.876 1162.01 960.372L1087 972.5L891 1014.5L764.604 1023.32C719.947 1026.43 675.107 1025.8 630.557 1021.41L474 1006L317.536 986.659C241.572 977.268 164.653 978.828 89.1322 991.291L0 1006V147.906Z" fill="#FFF7EB"/>
<path d="M1582 84.9451L1624.79 110.013C1667.46 135.009 1704.47 168.609 1733.45 208.676V208.676C1751.08 233.043 1765.55 259.543 1776.53 287.544L1798 342.331L1807.32 378.455C1819.93 427.318 1820.85 478.464 1810 527.748V527.748L1796.98 564.527C1784.79 598.94 1765.59 630.446 1740.6 657.052L1739.43 658.298C1729.49 668.867 1718.64 678.532 1707 687.177V687.177L1612.5 752.149L1590.62 765.325C1553.52 787.671 1512.64 803.024 1470 810.623V810.623V810.623C1411.91 822.432 1351.8 819.609 1295.08 802.408L1248 788.133L1180.39 766.215C1151.91 756.983 1126.19 740.794 1105.55 719.112V719.112C1087.4 700.054 1073.66 677.247 1065.28 652.301L1060.65 638.493C1055.6 623.447 1053.51 607.563 1054.51 591.723L1055.27 579.614C1057.57 542.932 1079.44 510.329 1112.51 494.281V494.281C1133.83 483.932 1158.1 481.335 1181.13 486.938L1186.23 488.18C1220.26 496.457 1248.76 519.593 1263.85 551.19L1272.65 569.608C1279.18 583.28 1283.74 597.813 1286.17 612.769L1286.7 616.041C1290.53 639.581 1289.71 663.644 1284.3 686.87L1277 718.164L1267.72 744.074C1254.98 779.635 1230.12 809.568 1197.5 828.615V828.615L1160.5 848.606L1148.32 853.186C1122.85 862.766 1096.42 869.608 1069.5 873.595V873.595L1053.12 875.31C1029.09 877.826 1004.88 878.16 980.793 876.308L942.286 873.347C893.104 869.566 845.477 854.389 803.174 829.019V829.019C781.139 815.804 760.788 799.966 742.566 781.851L678.5 718.164L618.5 641.698L537 527.748L482.762 453.088C460.734 422.766 433.915 396.235 403.357 374.537L392.795 367.037C369.747 350.672 344.227 338.103 317.205 329.809V329.809C302.099 325.172 286.608 321.897 270.918 320.023L258.57 318.548C229.612 315.089 200.11 314.872 171.1 317.85V317.85C139.008 321.145 107.171 328.428 76.8616 339.477V339.477C50.6955 349.015 25.6237 361.323 2.07337 376.19L-29 395.807" stroke="white" stroke-width="70"/>
<path d="M1187 -38.5V-38.5C1226.5 -12.9535 1269.16 7.33925 1313.9 21.8663L1325 25.4716L1378.5 40.9647L1434.5 52.4596L1477.48 59.5828C1513.09 65.4834 1548.07 74.6424 1582 86.9442V86.9442" stroke="#FFF7EB" stroke-width="70"/>
<path d="M1590.32 58.3042L1593 53.959C1616.6 62.9283 1639.15 74.4411 1660.25 88.2938L1662 89.4432L1698 119.43H1589H1571C1572.31 97.7748 1578.95 76.7785 1590.32 58.3042Z" fill="#FFF7EB"/>
<circle cx="1218.5" cy="219.5" r="20.5" fill="#FFF1DD"/>
<circle cx="1131" cy="341" r="30" fill="#FFF1DD"/>
<path d="M857.5 442L866.622 511.116L922 522.5L866.622 533.884L857.5 603L848.378 533.884L793 522.5L848.378 511.116L857.5 442Z" fill="#FFEFD8"/>
<path d="M921.5 532.122L926.506 565.334L951 572.122L926.506 578.91L921.5 612.122L916.494 578.91L892 572.122L916.494 565.334L921.5 532.122Z" fill="#FFEFD8"/>
<path d="M1358.79 277.906L1350.71 320.224L1391.29 302.372L1364.43 336.033L1410.24 337.185L1369.92 355.521L1411.89 375.449L1366.1 374.83L1395.91 409.587L1353.73 390.134L1365.48 432.836L1335.24 398.403L1326.61 440.592L1314.32 397.998L1287 431.319L1295.09 389.001L1254.51 406.853L1281.37 373.192L1235.56 372.04L1275.87 353.703L1233.91 333.775L1279.69 334.394L1249.88 299.638L1292.07 319.09L1280.32 276.388L1310.55 310.821L1319.19 268.632L1331.48 311.226L1358.79 277.906Z" fill="#FF9900" fill-opacity="0.06"/>
</g>
<defs>
<clipPath id="clip0_2056_69">
<rect width="1920" height="1057" fill="white"/>
</clipPath>
</defs>
</svg>
