<svg width="1920" height="1057" viewBox="0 0 1920 1057" fill="none" xmlns="http://www.w3.org/2000/svg">
<g clip-path="url(#clip0_2056_69)">
<path d="M0 148.906C0 148.906 52.2781 126.491 110.5 106.804C149.909 93.4784 192.128 80.9927 219.985 73.0313C240.941 67.0426 262.336 62.7768 283.939 59.8925L380.5 47H480L578 56.5687L676.5 76.1844L885 117.33L1076.5 135.51H1293L1507 117.33H1675.01C1718.48 117.33 1761.77 123 1803.78 134.197L1920 165.173V905.5L1785.64 941.757C1728.39 957.204 1669.6 966.24 1610.36 968.696L1573.71 970.216C1521.03 972.4 1468.27 969.372 1416.19 961.175L1414.08 960.843C1330.55 947.697 1245.47 947.876 1162.01 961.372L1087 973.5L891 1015.5L764.604 1024.32C719.947 1027.43 675.107 1026.8 630.557 1022.41L474 1007L317.536 987.659C241.572 978.268 164.653 979.828 89.1322 992.291L0 1007V148.906Z" fill="#FFF7EB"/>
<path d="M-29 395.862L2.07336 376.245C25.6237 361.378 50.6955 349.07 76.8616 339.531V339.531C107.171 328.482 139.008 321.2 171.1 317.905V317.905C200.11 314.927 229.612 315.144 258.57 318.603L270.917 320.077C286.608 321.952 302.099 325.227 317.205 329.863V329.863C344.227 338.158 369.747 350.727 392.795 367.092L403.356 374.592C433.915 396.29 460.734 422.821 482.762 453.143L537 527.803L618.5 641.753L678.5 718.219L742.566 781.906C760.788 800.021 781.139 815.859 803.174 829.074V829.074C845.477 854.444 893.104 869.621 942.286 873.402L980.793 876.363C1004.88 878.215 1029.09 877.881 1053.12 875.365L1069.5 873.649V873.649C1096.42 869.663 1122.85 862.821 1148.32 853.241L1160.5 848.661L1197.5 828.669V828.669C1230.35 809.49 1256.4 780.548 1272.03 745.871L1273.34 742.97C1280.74 726.55 1285.81 709.174 1288.39 691.349L1290.54 676.551C1291.84 667.529 1292.5 658.424 1292.5 649.307V635.871C1292.5 608.208 1284.55 581.128 1269.59 557.859L1267.1 553.992C1248.74 525.423 1220.12 504.981 1187.14 496.874L1180.53 495.25C1159.95 490.192 1138.35 491.2 1118.33 498.154V498.154C1078.93 511.841 1050.69 546.682 1045.47 588.064L1045.1 590.99C1042.74 609.706 1045.04 628.717 1051.79 646.33L1059.9 667.481C1066.26 684.044 1075.33 699.428 1086.76 712.997V712.997C1106.81 736.808 1133.41 754.216 1163.25 763.064L1192.98 771.875C1229.23 782.623 1267.38 785.412 1304.81 780.05L1328.86 776.605C1352.54 773.213 1375.77 767.142 1398.08 758.511L1430.18 746.097C1456.67 735.851 1480.28 719.349 1499.01 697.998V697.998C1513.22 681.803 1524.33 663.14 1531.8 642.934L1554.5 581.5L1569.51 547.083C1586.62 507.852 1612.24 472.916 1644.51 444.802V444.802C1672.9 420.077 1705.84 401.14 1741.49 389.058L1754.8 384.546C1792.02 371.934 1831.04 365.5 1870.34 365.5H1940" stroke="white" stroke-width="70"/>
<circle cx="1218.5" cy="219.5" r="20.5" fill="#FFF1DD"/>
<circle cx="1131" cy="341" r="30" fill="#FFF1DD"/>
<path d="M857.5 442L866.622 511.116L922 522.5L866.622 533.884L857.5 603L848.378 533.884L793 522.5L848.378 511.116L857.5 442Z" fill="#FFEFD8"/>
<path d="M921.5 532L926.506 565.212L951 572L926.506 578.788L921.5 612L916.494 578.788L892 572L916.494 565.212L921.5 532Z" fill="#FFEFD8"/>
<path d="M1359 277.906L1350.92 320.224L1391.5 302.372L1364.64 336.033L1410.45 337.185L1370.13 355.521L1412.1 375.449L1366.31 374.83L1396.12 409.587L1353.94 390.134L1365.69 432.836L1335.45 398.403L1326.82 440.592L1314.52 397.998L1287.21 431.319L1295.3 389.001L1254.72 406.853L1281.58 373.192L1235.77 372.04L1276.08 353.703L1234.12 333.775L1279.9 334.394L1250.09 299.638L1292.28 319.09L1280.53 276.388L1310.76 310.821L1319.4 268.632L1331.69 311.226L1359 277.906Z" fill="#FF9900" fill-opacity="0.06"/>
</g>
<defs>
<clipPath id="clip0_2056_69">
<rect width="1920" height="1057" fill="white"/>
</clipPath>
</defs>
</svg>
