<svg width="1920" height="253" viewBox="0 0 1920 253" fill="none" xmlns="http://www.w3.org/2000/svg">
<g clip-path="url(#clip0_2590_1252)">
<path d="M0 -1.5L1920 0V797.159L1827.21 828.817C1706.23 870.089 1576.01 876.165 1451.72 846.336C1350.29 821.995 1244.6 821.49 1142.94 844.862L1124.1 849.191C1018.6 873.448 909.111 874.801 803.034 853.159L722.687 836.767C634.281 818.73 542.861 821.874 455.902 845.943C347.388 875.978 232.421 873.301 125.422 838.248L0 797.159V-1.5Z" fill="#FF9900"/>
<path d="M-65 158.774L-50.0077 148.244C-9.00969 119.45 39.8706 104 89.9699 104V104C119.432 104 148.649 109.346 176.203 119.777L177.427 120.24C220.578 136.577 258.383 164.505 286.68 200.949L294.505 211.027C303.979 223.229 312.463 236.162 320.01 249.641C329.938 267.375 341.295 287.299 344.694 292.037M292.533 331V331C353.588 279.754 422.424 238.571 496.447 209.001L547.262 188.701L566.919 182.741C634.049 162.383 704.065 153.176 774.177 155.487V155.487C840.264 157.665 905.617 170.049 967.919 192.201L1043.37 219.029C1085.96 234.17 1127.18 252.892 1166.6 274.995L1197 292.037" stroke="#FFB240" stroke-width="70"/>
<path d="M1627.13 17.7362L1612.05 96.7064L1687.77 63.3924L1637.65 126.207L1723.13 128.357L1647.9 162.576L1726.21 199.763L1640.77 198.608L1696.4 263.467L1617.67 227.167L1639.6 306.853L1583.18 242.597L1567.07 321.326L1544.13 241.842L1493.16 304.022L1508.25 225.051L1432.52 258.365L1482.64 195.55L1397.16 193.401L1472.39 159.182L1394.08 121.995L1479.52 123.15L1423.89 58.2904L1502.62 94.5906L1480.69 14.9048L1537.11 79.1604L1553.22 0.431228L1576.16 79.9155L1627.13 17.7362Z" fill="#FFB240"/>
</g>
<defs>
<clipPath id="clip0_2590_1252">
<rect width="1920" height="253" fill="white"/>
</clipPath>
</defs>
</svg>
