<svg width="1920" height="894" viewBox="0 0 1920 894" fill="none" xmlns="http://www.w3.org/2000/svg">
<g clip-path="url(#clip0_2427_1202)">
<path d="M61.4235 13.3807L0 21.9161V953L86.3193 925.806C190.479 892.991 301.979 891.462 407 921.409L412.932 922.48C524.636 942.645 639.145 941.497 750.422 919.097L787.148 911.704C905.829 887.814 1028.11 888.113 1146.67 912.583L1207.74 925.188C1296.81 943.571 1388.51 945.329 1478.22 930.374L1504.33 926.022C1522.75 922.951 1540.92 918.524 1558.69 912.779C1633.7 888.529 1714.4 888.226 1789.58 911.913L1920 953V21.9161L1819 7.0856C1768.96 -0.262262 1718.09 0.025351 1668.13 7.93863L1578.15 22.1924C1493.93 35.5341 1408.11 35.3237 1323.95 21.5694L1263.32 11.6604C1200.05 1.31955 1135.37 3.42575 1072.9 17.8609C1003.14 33.9823 930.701 34.7062 860.631 19.9823L821.703 11.8023C771.979 1.3539 720.774 -1.09673e-05 670.567 7.80619L579.838 21.9129C492.875 35.434 404.278 34.5131 317.615 19.1871L310.849 17.9906C228.46 3.42039 144.295 1.86485 61.4235 13.3807Z" fill="#FFF7EB"/>
<path d="M264 696.582L225.043 687.241C199.523 681.123 175.191 670.826 153.031 656.767L138.857 647.775C109.255 628.995 85.73 602.037 71.1305 570.165L67.3388 561.888C61.1593 548.397 57.354 533.941 56.0903 519.157L55.5507 512.843C51.0602 460.304 81.2856 410.958 130.129 391.087V391.087C177.395 371.858 231.65 384.519 265.523 422.683L267.854 425.309C278.519 437.324 286.774 451.277 292.17 466.409L295.87 476.784C304.847 501.953 308.174 528.789 305.617 555.388L303.802 574.261C300.954 603.879 293.179 632.813 280.799 659.87L264 696.582ZM264 696.582L302.315 705.769C338.977 714.559 376.547 719 414.249 719V719C500.489 719 585.136 695.769 659.295 651.75L691.342 632.727C719.049 616.281 748.281 602.551 778.63 591.73L854.031 564.844C897.239 549.438 943.096 542.847 988.894 545.46V545.46C1063.27 549.705 1134.26 578.029 1191.12 626.159L1274.86 697.031C1301.45 719.529 1331.49 737.581 1363.84 750.489V750.489C1401.93 765.691 1442.57 773.5 1483.59 773.5H1495.72C1528.77 773.5 1561.68 769.259 1593.65 760.88L1607.32 757.296C1648.6 746.477 1688.31 730.376 1725.47 709.391L1731.92 705.75C1754.6 692.936 1776.26 678.369 1796.67 662.18L1810.68 651.073C1873.31 601.415 1923.13 537.466 1955.95 464.586L1974 424.5M264 696.582L212.218 731.793C176.565 756.036 134.446 769 91.3306 769V769C62.7311 769 34.419 763.294 8.05238 752.215L-71 719" stroke="white" stroke-width="70"/>
<path d="M1478.61 537.178L1472.39 569.753L1503.63 556.011L1482.95 581.922L1518.22 582.809L1487.18 596.924L1519.49 612.263L1484.24 611.787L1507.19 638.541L1474.71 623.567L1483.76 656.437L1460.49 629.932L1453.84 662.408L1444.38 629.621L1423.35 655.269L1429.58 622.695L1398.34 636.436L1419.02 610.526L1383.75 609.639L1414.79 595.524L1382.48 580.184L1417.73 580.661L1394.78 553.907L1427.25 568.88L1418.21 536.01L1441.48 562.515L1448.13 530.04L1457.59 562.827L1478.61 537.178Z" fill="white"/>
<path d="M1706.43 119.041L1697.68 164.859L1741.61 145.531L1712.53 181.976L1762.13 183.223L1718.48 203.076L1763.92 224.652L1714.34 223.982L1746.62 261.613L1700.94 240.552L1713.67 286.786L1680.93 249.505L1671.58 295.183L1658.27 249.067L1628.7 285.143L1637.45 239.325L1593.52 258.653L1622.6 222.208L1573 220.961L1616.65 201.107L1571.21 179.531L1620.79 180.202L1588.51 142.57L1634.19 163.632L1621.46 117.398L1654.2 154.679L1663.55 109.001L1676.86 155.117L1706.43 119.041Z" fill="white"/>
<circle cx="743.21" cy="832.212" r="28" transform="rotate(115.008 743.21 832.212)" fill="white"/>
<circle cx="802.907" cy="739.909" r="21" transform="rotate(115.008 802.907 739.909)" fill="white"/>
<circle cx="876.263" cy="816.264" r="16" transform="rotate(115.008 876.263 816.264)" fill="white"/>
</g>
<defs>
<clipPath id="clip0_2427_1202">
<rect width="1920" height="894" fill="white"/>
</clipPath>
</defs>
</svg>
