<svg width="569" height="999" viewBox="0 0 569 999" fill="none" xmlns="http://www.w3.org/2000/svg">
<path d="M569 992V10L527.006 20.8079C469.264 35.669 408.907 37.2598 350.462 25.4608L348.182 25.0006C299.122 15.0962 248.597 14.9016 199.462 24.4278C135.328 36.862 69.08 32.6883 7.01387 12.3035L0 9.99988V992L21.8528 984.62C83.9865 963.635 150.68 960.064 214.699 974.294L221.391 975.781C269.427 986.458 319.245 986.223 367.178 975.093C430.506 960.389 496.772 964.778 557.607 987.706L569 992Z" fill="#FF9900"/>
<path d="M70.9112 82.1826L64.0123 118.299L98.6443 103.063L75.7214 131.791L114.817 132.774L80.4101 148.424L116.226 165.431L77.15 164.903L102.592 194.566L66.5866 177.964L76.6161 214.408L50.8122 185.021L43.4426 221.027L32.9511 184.676L9.64203 213.113L16.5409 176.997L-18.091 192.233L4.83192 163.505L-34.2636 162.521L0.143138 146.872L-35.6726 129.865L3.4033 130.393L-22.0389 100.73L13.9667 117.331L3.93712 80.8877L29.7411 110.275L37.1107 74.2683L47.6021 110.62L70.9112 82.1826Z" fill="#FFB240"/>
<path d="M323.91 859.183L317.011 895.299L351.643 880.063L328.72 908.791L367.816 909.774L333.409 925.424L369.225 942.431L330.149 941.903L355.591 971.566L319.586 954.964L329.615 991.408L303.811 962.021L296.442 998.027L285.95 961.676L262.641 990.113L269.54 953.997L234.908 969.233L257.831 940.505L218.735 939.521L253.142 923.872L217.326 906.865L256.402 907.393L230.96 877.73L266.966 894.331L256.936 857.888L282.74 887.275L290.11 851.268L300.601 887.62L323.91 859.183Z" fill="#FFB240"/>
</svg>
