<svg width="1920" height="930" viewBox="0 0 1920 930" fill="none" xmlns="http://www.w3.org/2000/svg">
<g clip-path="url(#clip0_2071_29)">
<path d="M44.4019 99.6144L0 119.231V859C84.2112 893.201 177.879 896.148 264.074 867.309L277.815 862.711C356.192 836.488 440.566 833.977 520.364 855.492L561.186 866.499C646.516 889.506 736.08 891.99 822.555 873.749L902.761 856.829C1009.96 834.217 1120.8 835.312 1227.53 860.038L1272.26 870.401C1360.46 890.833 1452.27 889.725 1539.95 867.17C1622.25 845.997 1708.27 843.706 1791.59 860.466L1921 886.5V101.212L1762.78 112.349C1698.09 116.902 1633.1 110.126 1570.75 92.3255C1491.57 69.7231 1408.36 64.9546 1327.12 78.3632L1218.54 96.2829C1126.56 111.464 1032.62 110.45 940.986 93.286L851.108 76.4512C786.083 64.2715 719.287 65.1172 654.591 78.9392L607.056 89.0947C513.771 109.025 417.673 112.11 323.301 98.2055L237.806 85.6089C173.66 67.7575 105.307 72.7073 44.4019 99.6144Z" fill="#FF9900"/>
<path d="M264 590.582L225.043 581.241C199.523 575.123 175.191 564.826 153.031 550.767L138.857 541.775C109.255 522.995 85.73 496.037 71.1305 464.165L67.3388 455.888C61.1593 442.397 57.354 427.941 56.0903 413.157L55.5507 406.843C51.0602 354.304 81.2856 304.958 130.129 285.087V285.087C177.395 265.858 231.65 278.519 265.523 316.683L267.854 319.309C278.519 331.324 286.774 345.277 292.17 360.409L295.87 370.784C304.847 395.953 308.174 422.789 305.617 449.388L303.802 468.261C300.954 497.879 293.179 526.813 280.799 553.87L264 590.582ZM264 590.582L302.315 599.769C338.977 608.559 376.547 613 414.249 613V613C500.489 613 585.136 589.769 659.295 545.75L691.342 526.727C719.049 510.281 748.281 496.551 778.63 485.73L827.735 468.22C888.297 446.626 952.573 437.387 1016.77 441.05V441.05C1074.12 444.324 1130.43 457.842 1183.03 480.966L1273.09 520.564C1322.7 542.376 1375.53 555.978 1429.5 560.837L1475.12 564.944C1527.05 569.619 1579.4 566.142 1630.26 554.638L1679.5 543.5L1779.5 513L1906 469.5L1974.5 446M264 590.582L212.218 625.793C176.565 650.036 134.446 663 91.3306 663V663C62.7311 663 34.419 657.294 8.05238 646.215L-71 613" stroke="#FFB240" stroke-width="70"/>
</g>
<defs>
<clipPath id="clip0_2071_29">
<rect width="1920" height="930" fill="white"/>
</clipPath>
</defs>
</svg>
