<svg width="153" height="148" viewBox="0 0 153 148" fill="none" xmlns="http://www.w3.org/2000/svg">
<path d="M107.18 8.18265L100.281 44.299L134.913 29.0631L111.99 57.7911L151.085 58.7742L116.679 74.4238L152.494 91.4312L113.419 90.9028L138.861 120.566L102.855 103.964L112.885 140.408L87.0808 111.021L79.7112 147.027L69.2197 110.676L45.9106 139.113L52.8095 102.997L18.1775 118.233L41.1005 89.5046L2.00494 88.5215L36.4117 72.8719L0.595946 55.8645L39.6719 56.3929L14.2296 26.7298L50.2352 43.3314L40.2057 6.88772L66.0096 36.2745L73.3792 0.268328L83.8707 36.6198L107.18 8.18265Z" fill="#FFB240"/>
</svg>
