<svg width="1920" height="930" viewBox="0 0 1920 930" fill="none" xmlns="http://www.w3.org/2000/svg">
<g clip-path="url(#clip0_2071_29)">
<path d="M44.4019 99.9025L0 119.519V806.5L42.8896 823.52C104.827 848.099 172.834 848.796 237.806 834C269.111 826.871 305.809 821.324 340.037 817.139C416.063 807.842 492.882 815.307 567.485 832.65L584.322 836.565C691.94 861.583 803.574 864.039 912.188 843.776L959.191 835.008C1060.12 816.179 1163.73 816.954 1264.37 837.29L1325.15 849.574C1406.43 865.999 1490.29 864.74 1571.04 845.883C1633.25 831.356 1697.44 827.243 1760.99 833.712L1921 850V101.5L1760.84 112.773C1697.43 117.236 1633.74 110.594 1572.61 93.1467C1492.28 70.2136 1407.75 66.0214 1325.54 80.8927L1250.26 94.5099C1158.79 111.056 1065.13 111.534 973.497 95.922L847.197 74.4045C784.703 63.7574 720.754 65.0919 658.758 78.337L607.056 89.3828C513.771 109.313 417.673 112.398 323.301 98.4936L237.806 85.897C173.66 68.0456 105.307 72.9954 44.4019 99.9025Z" fill="#FF9900"/>
<path d="M264 590.582L225.043 581.241C199.523 575.123 175.191 564.826 153.031 550.767L134.952 539.298C107.898 522.134 86.3989 497.498 73.0561 468.369V468.369C63.1354 446.711 58 423.169 58 399.347V377.504C58 368.89 59.3774 360.332 62.08 352.153V352.153C71.2884 324.285 94.8843 303.602 123.718 298.124L142.897 294.48C165.128 290.256 188.113 292.745 208.925 301.631L221.5 307L224.322 308.359C257.008 324.097 281.832 352.523 293.023 387.03V387.03C297.314 400.261 299.5 414.084 299.5 427.994V451.569C299.5 492.048 290.782 532.052 273.939 568.861L264 590.582ZM264 590.582L302.315 599.769C338.977 608.559 376.547 613 414.249 613V613C500.489 613 585.136 589.769 659.295 545.75L691.342 526.727C719.049 510.281 748.281 496.551 778.63 485.73L827.735 468.22C888.297 446.626 952.573 437.387 1016.77 441.05V441.05C1074.12 444.324 1130.43 457.842 1183.03 480.966L1273.09 520.564C1322.7 542.376 1375.53 555.978 1429.5 560.837L1475.12 564.944C1527.05 569.619 1579.4 566.142 1630.26 554.638L1679.5 543.5L1779.5 513L1906 469.5L1974.5 446M264 590.582L212.218 625.793C176.565 650.036 134.446 663 91.3306 663V663C62.7311 663 34.419 657.294 8.05238 646.215L-71 613" stroke="#FFB240" stroke-width="70"/>
</g>
<defs>
<clipPath id="clip0_2071_29">
<rect width="1920" height="930" fill="white"/>
</clipPath>
</defs>
</svg>
