<svg width="1920" height="1030" viewBox="0 0 1920 1030" fill="none" xmlns="http://www.w3.org/2000/svg">
<g clip-path="url(#clip0_2364_906)">
<path d="M2158.5 859.5L2091.96 692.038C2066.99 629.204 2027.78 573.023 1977.42 527.918L1936.04 490.864C1882.57 442.978 1813.31 416.5 1741.53 416.5V416.5C1712.01 416.5 1682.67 420.982 1654.5 429.791L1648.36 431.713C1595.29 448.308 1538.93 451.382 1484.37 440.657L1396.06 423.295C1373.14 418.789 1350.99 410.987 1330.31 400.133L1305.76 387.251C1276.35 371.816 1252.48 347.211 1237.8 317.411V317.411C1231.33 304.271 1226.72 290.176 1224.19 275.748V275.748C1210.48 197.372 1258.73 121.388 1335.46 100.336V100.336C1403.65 81.6276 1475.94 111.569 1510.83 173.071L1513.88 178.448C1525.49 198.905 1532.52 221.639 1534.48 245.078L1534.82 249.196C1539.65 306.887 1516.63 363.413 1472.87 401.318L1432.14 436.596C1401.4 463.226 1365.34 482.997 1326.35 494.591V494.591C1277.03 509.259 1224.67 510.357 1174.78 497.77L1150.2 491.57C1108.05 480.936 1068.05 463.12 1031.94 438.903L983.895 406.67C921.222 364.627 844.397 349.246 770.368 363.918V363.918C736.734 370.584 704.584 383.283 675.473 401.401L535.078 488.78C427.102 555.982 292.492 564.117 177.208 510.408V510.408C129.919 488.377 87.7259 456.756 53.3057 417.553L-96 247.5" stroke="#FFF7EB" stroke-width="70"/>
<circle cx="503.222" cy="171.258" r="16" transform="rotate(115.008 503.222 171.258)" fill="#FFF7EB"/>
<circle cx="436.716" cy="226.303" r="21" transform="rotate(115.008 436.716 226.303)" fill="#FFF7EB"/>
<circle cx="429.757" cy="134.78" r="28" transform="rotate(115.008 429.757 134.78)" fill="#FFF7EB"/>
<path d="M963.953 727.048L951.787 790.737L1012.86 763.869L972.435 814.529L1041.38 816.263L980.703 843.859L1043.86 873.851L974.954 872.919L1019.82 925.228L956.327 895.952L974.013 960.218L928.51 908.396L915.514 971.89L897.013 907.787L855.909 957.934L868.075 894.246L807.004 921.113L847.427 870.453L778.485 868.72L839.159 841.123L776 811.132L844.908 812.063L800.042 759.755L863.535 789.03L845.849 724.765L891.352 776.586L904.348 713.092L922.849 777.195L963.953 727.048Z" fill="#FF9900" fill-opacity="0.06"/>
</g>
<defs>
<clipPath id="clip0_2364_906">
<rect width="1920" height="1030" fill="white"/>
</clipPath>
</defs>
</svg>
