<svg width="569" height="747" viewBox="0 0 569 747" fill="none" xmlns="http://www.w3.org/2000/svg">
<path d="M569 738.654V18.8084L496.812 27.0161C454.136 31.8684 410.975 30.3292 368.753 22.4495C317.558 12.8952 265.058 12.6764 213.785 21.8036L208.413 22.76C165.282 30.4377 121.279 31.9411 77.7249 27.2249L0 18.8086V738.654L36.5624 728.49C89.5174 713.768 145.542 714.212 198.257 729.77L202.12 730.91C255.334 746.616 312.014 746.172 364.976 729.634C414.539 714.158 467.428 712.756 517.743 725.585L569 738.654Z" fill="#01AED8"/>
<mask id="mask0_2143_3283" style="mask-type:alpha" maskUnits="userSpaceOnUse" x="306" y="551" width="91" height="86">
<path d="M359.772 636.56C359.077 636.579 358.436 636.5 357.636 636.301C356.057 635.907 354.718 634.924 353.966 633.618C353.615 633.015 353.543 632.781 352.856 630.113C352.283 627.869 352.071 627.183 351.895 626.895C351.765 626.691 351.605 626.52 351.548 626.516C351.48 626.505 351.142 626.78 350.801 627.125C350.45 627.464 350.16 627.745 350.142 627.749C350.124 627.753 349.936 627.908 349.733 628.083C348.83 628.866 347.655 629.27 346.352 629.229C344.559 629.168 343.263 628.417 342.195 626.828C341.813 626.25 341.574 625.069 341.69 624.266C341.864 623.018 342.143 622.523 345.383 617.792C347.546 614.635 348.436 613.26 348.518 612.965C348.622 612.561 348.616 612.494 347.994 609.949C347.184 606.619 346.978 606.199 346.068 606.129C345.462 606.085 344.229 606.77 343.396 607.614C343.289 607.716 342.852 608.091 342.417 608.432C341.315 609.32 340.434 610.201 340.285 610.572C340.212 610.744 340.128 611.358 340.091 611.937C339.979 613.784 339.905 614.897 339.844 615.619C339.811 616.006 339.752 616.857 339.722 617.503C339.489 621.907 339.369 622.486 338.43 623.726C337.393 625.109 335.679 625.929 333.991 625.836C332.644 625.77 331.508 625.276 330.613 624.365C330.019 623.756 329.805 623.304 329.401 621.807C329.178 620.986 328.986 620.425 328.911 620.381C328.782 620.307 328.782 620.307 326.541 622.213C323.964 624.402 323.335 624.794 321.932 625.095C320.309 625.453 319.096 625.236 317.517 624.307C316.433 623.672 315.812 623.07 315.087 621.965C314.719 621.409 314.618 621.164 314.482 620.565C314.298 619.752 314.319 619.35 314.575 618.342C314.922 616.995 315.556 616.014 317.028 614.575C317.247 614.353 317.448 614.169 317.475 614.163C317.501 614.157 317.945 613.772 318.462 613.301C319.504 612.349 320.249 611.446 320.078 611.347C320.022 611.308 319.633 611.275 319.221 611.264C318.811 611.262 318.284 611.2 318.057 611.139C317.519 610.985 316.425 610.266 316.012 609.798C314.821 608.444 314.377 606.032 315.074 604.709C315.685 603.543 316.637 602.689 317.787 602.256C318.723 601.906 320.386 601.685 321.716 601.721C322.232 601.734 322.802 601.743 322.977 601.737C323.153 601.732 323.556 601.745 323.869 601.769C324.436 601.804 325.635 601.835 326.867 601.85C327.229 601.846 327.922 601.862 328.409 601.872C329.796 601.912 330.96 601.873 331.359 601.783C331.775 601.689 332.621 601.187 333.081 600.754C333.25 600.595 333.414 600.454 333.44 600.448C333.529 600.428 334.94 599.177 335.621 598.522C335.966 598.193 336.348 597.744 336.491 597.513C336.696 597.182 336.723 597.055 336.652 596.743C336.587 596.455 336.504 596.336 336.242 596.162C335.934 595.956 334.597 595.438 334.447 595.472C334.411 595.48 334.303 595.453 334.217 595.403C334.06 595.327 332.985 595.061 330.963 594.603C330.1 594.41 330.006 594.405 329.35 594.554C328.96 594.642 328.495 594.808 328.288 594.924C328.084 595.048 327.566 595.311 327.139 595.52C326.711 595.73 326.075 596.046 325.732 596.219C325.391 596.399 324.637 596.769 324.057 597.047C323.478 597.325 322.723 597.694 322.382 597.875C319.673 599.274 319.673 599.274 318.213 599.613C316.904 599.918 316.814 599.929 316.225 599.838C315.394 599.707 314.258 599.17 313.695 598.658C312.636 597.681 312.092 596.224 312.241 594.783C312.407 593.131 313.157 591.96 314.826 590.736C315.129 590.512 315.359 590.296 315.346 590.238C315.333 590.181 315.116 590.083 314.858 590.012C313.609 589.681 310.729 588.719 310.042 588.4C308.233 587.566 306.972 586.15 306.606 584.533C306.238 582.906 306.606 581.364 307.709 579.819C309.339 577.56 312.517 576.711 315.941 577.645C316.347 577.752 316.931 577.905 317.227 577.976C317.524 578.055 318.126 578.204 318.558 578.305C318.993 578.414 319.533 578.498 319.766 578.498C320.332 578.49 320.391 578.382 320.169 577.811C319.914 577.178 319.697 576.217 319.685 575.632C319.665 574.843 319.917 574.103 320.501 573.272C321.252 572.187 322.123 571.549 323.367 571.164C325.693 570.456 327.574 571.032 328.971 572.883C329.449 573.517 329.558 573.708 330.37 575.156C330.61 575.603 331.034 576.362 331.31 576.843C332.126 578.307 332.714 579.383 333.047 580.033C333.551 581.024 334.17 582.075 334.521 582.514C334.888 582.983 335.239 583.137 336.777 583.514C337.269 583.627 338.024 583.836 338.464 583.97C340.74 584.646 341.799 584.596 342.144 583.775C342.401 583.139 341.272 577.99 340.659 577.006C340.561 576.864 339.732 576.327 338.416 575.571C336.019 574.197 331.647 571.586 331.254 571.287C330.771 570.922 330.5 570.672 330.078 570.206C329.692 569.776 329.652 569.681 329.412 568.786C329.185 567.948 329.167 567.745 329.229 567.195C329.398 565.638 330.568 564.018 331.999 563.348C333.354 562.713 334.948 562.638 336.354 563.131C336.923 563.339 337.962 563.527 338.055 563.445C338.101 563.4 338.004 562.809 337.794 561.881C337.258 559.473 337.067 558.092 337.157 557.216C337.271 556.155 337.53 555.327 337.948 554.663C339.152 552.742 341.166 551.604 343.527 551.501C345.474 551.423 347.685 552.511 348.691 554.036C349.249 554.894 349.435 555.387 350.036 557.755C350.631 560.098 350.901 560.753 351.246 560.675C351.344 560.653 351.681 560.335 351.983 559.982C352.285 559.629 352.806 559.131 353.132 558.884C353.718 558.432 353.736 558.428 354.792 558.198C356.032 557.917 356.485 557.944 357.684 558.346C359.436 558.925 360.488 560.077 360.702 561.643C360.828 562.487 360.729 563.692 360.499 564.201C360.354 564.545 358.866 566.98 358.281 567.855C355.647 571.766 354.222 573.988 354.081 574.391L353.912 574.879L354.515 577.505C355.099 580.084 355.121 580.139 355.451 580.608C355.881 581.236 356.188 581.357 356.87 581.202C357.293 581.098 357.502 580.99 358.127 580.503C358.54 580.185 359.05 579.768 359.261 579.59C359.48 579.403 359.9 579.04 360.194 578.775C360.499 578.516 360.913 578.163 361.126 577.994C361.328 577.819 361.685 577.419 361.91 577.1C362.346 576.475 362.385 576.276 362.465 574.41C362.481 573.984 362.524 573.309 362.548 572.924C362.599 572.161 362.648 571.226 362.736 569.6C362.835 567.61 363.034 566.019 363.33 564.942C363.633 563.855 364.728 562.562 365.773 562.075C367.542 561.252 369.778 561.463 371.281 562.59C372.247 563.321 372.616 563.963 373.003 565.593C373.265 566.708 373.37 566.926 373.634 566.901C373.899 566.875 374.27 566.584 376.779 564.419C378.359 563.051 379.237 562.525 380.384 562.248C381.755 561.929 382.98 562.074 384.498 562.732C386.649 563.679 387.782 565.313 387.828 567.573C387.837 568.27 387.643 569.385 387.417 569.868C386.753 571.296 386.513 571.592 384.421 573.542C382.629 575.208 382.065 575.845 382.183 576.077C382.219 576.155 382.497 576.231 382.875 576.257C384.473 576.405 386.222 577.382 386.865 578.497C387.259 579.167 387.484 580.575 387.322 581.381C387.162 582.237 386.868 582.994 386.492 583.554C386.116 584.114 385.126 584.882 384.371 585.208C383.736 585.49 382.453 585.703 381.224 585.748C380.715 585.76 379.915 585.803 379.439 585.841C378.964 585.88 378.236 585.915 377.828 585.921C377.417 585.919 376.901 585.941 376.672 585.958C376.445 585.984 375.778 585.997 375.19 585.991C373.084 585.985 372.571 586.023 371.57 586.25C370.66 586.464 370.566 586.503 370.081 586.871C369.794 587.083 369.34 587.462 369.062 587.715C368.784 587.968 368.388 588.317 368.168 588.496C366.924 589.503 365.993 590.654 366 591.179C366 591.508 366.096 591.641 366.505 591.929C367.011 592.272 369.184 592.945 371.451 593.46C372.56 593.709 372.702 593.72 373.216 593.604C373.526 593.534 374.059 593.336 374.399 593.155C376.685 591.981 377.153 591.746 377.569 591.566C377.823 591.456 378.394 591.18 378.827 590.953C382.232 589.172 383.68 588.533 384.71 588.352C386.911 587.957 388.859 588.786 389.819 590.52C390.468 591.702 390.643 593.381 390.226 594.416C389.945 595.11 389.101 596.112 388.119 596.913C387.027 597.808 386.997 597.841 387.373 597.98C387.527 598.04 387.817 598.13 388.004 598.174C388.192 598.226 388.711 598.377 389.152 598.518C389.592 598.652 390.33 598.865 390.794 598.984C393.405 599.697 394.925 600.777 395.639 602.412C396.163 603.614 396.17 605.21 395.648 606.813C395.404 607.584 394.547 608.858 393.927 609.369C392.547 610.511 390.424 611.008 388.374 610.669C387.947 610.593 387.548 610.519 387.486 610.49C387.432 610.459 386.939 610.338 386.398 610.21C385.859 610.09 385.303 609.94 385.163 609.894C384.546 609.679 383.392 609.518 382.981 609.593C382.55 609.665 382.55 609.665 382.624 609.907C383.244 611.951 383.233 611.902 383.145 612.664C382.977 613.98 382.283 615.026 380.791 616.167L380.134 616.679L378.982 616.939C377.841 617.206 377.824 617.21 377.149 617.069C376.368 616.909 374.936 616.137 374.434 615.603C373.893 615.026 373.008 613.75 372.487 612.763C372.208 612.23 371.812 611.508 371.61 611.148C371.168 610.35 370.441 608.987 369.736 607.601C368.732 605.635 368.191 604.929 367.472 604.634C367.286 604.555 366.651 604.38 366.051 604.239C365.46 604.097 364.81 603.942 364.62 603.881C364.429 603.821 363.751 603.663 363.116 603.531C362.148 603.327 361.881 603.301 361.483 603.391C360.967 603.499 360.766 603.683 360.601 604.186C360.525 604.428 360.601 604.843 361.093 607.14C361.699 609.981 361.884 610.553 362.348 611C362.481 611.134 364.468 612.342 366.743 613.674C371.679 616.555 372.006 616.766 372.668 617.513C373.019 617.909 373.362 618.643 373.522 619.349C373.875 620.953 373.196 622.807 371.799 624.039C370.444 625.252 369.077 625.509 367.032 624.945C365.621 624.556 365.073 624.439 364.967 624.506C364.886 624.559 364.967 625.041 365.335 626.745C365.874 629.213 365.945 629.646 365.901 630.606C365.875 631.397 365.677 632.167 365.29 633.006C364.822 634.027 363.747 635.159 362.679 635.747C362.133 636.051 361.875 636.144 360.996 636.335C360.427 636.455 359.875 636.563 359.772 636.56Z" fill="#8A8F92"/>
</mask>
<g mask="url(#mask0_2143_3283)">
<rect x="274" y="556" width="217.226" height="187.369" transform="rotate(-12.7534 274 556)" fill="#61C9E2"/>
</g>
<mask id="mask1_2143_3283" style="mask-type:alpha" maskUnits="userSpaceOnUse" x="-34" y="41" width="107" height="102">
<path d="M29.5802 142.456C28.7585 142.479 27.9986 142.385 27.0524 142.149C25.183 141.683 23.5967 140.519 22.7065 138.973C22.2914 138.259 22.2066 137.982 21.3926 134.824C20.714 132.167 20.464 131.354 20.2545 131.013C20.1007 130.772 19.9116 130.57 19.8443 130.565C19.7642 130.552 19.3639 130.878 18.9602 131.286C18.5439 131.687 18.2004 132.02 18.1794 132.025C18.1584 132.03 17.9354 132.213 17.6957 132.421C16.6267 133.347 15.2357 133.826 13.6922 133.776C11.5704 133.705 10.0352 132.815 8.77162 130.934C8.31902 130.25 8.03578 128.852 8.17329 127.901C8.37904 126.424 8.70945 125.838 12.5459 120.237C15.1063 116.499 16.1598 114.871 16.2572 114.521C16.3806 114.044 16.3734 113.964 15.6366 110.952C14.6779 107.008 14.4333 106.512 13.3561 106.429C12.6387 106.376 11.1796 107.187 10.1933 108.187C10.0663 108.308 9.54948 108.752 9.03433 109.155C7.72902 110.206 6.68641 111.25 6.51007 111.688C6.42384 111.892 6.32401 112.62 6.2805 113.304C6.1471 115.491 6.05956 116.809 5.98834 117.663C5.94884 118.122 5.87917 119.129 5.84278 119.894C5.56769 125.108 5.4254 125.794 4.31351 127.262C3.08562 128.9 1.05634 129.87 -0.941841 129.76C-2.53609 129.681 -3.88111 129.096 -4.94103 128.018C-5.64415 127.298 -5.89764 126.762 -6.37598 124.99C-6.64021 124.017 -6.86767 123.353 -6.95648 123.302C-7.10873 123.214 -7.10873 123.214 -9.76193 125.47C-12.8132 128.062 -13.5569 128.527 -15.2182 128.882C-17.1395 129.307 -18.5758 129.049 -20.4453 127.95C-21.7289 127.198 -22.4635 126.485 -23.3219 125.176C-23.7574 124.519 -23.878 124.229 -24.0387 123.519C-24.2566 122.557 -24.232 122.081 -23.9287 120.888C-23.5182 119.293 -22.7668 118.131 -21.0246 116.428C-20.7645 116.165 -20.527 115.948 -20.4956 115.941C-20.4641 115.934 -19.939 115.477 -19.3266 114.92C-18.0935 113.792 -17.2109 112.724 -17.4139 112.606C-17.4796 112.56 -17.9404 112.521 -18.4282 112.509C-18.9138 112.506 -19.5368 112.432 -19.8066 112.361C-20.4433 112.178 -21.7385 111.326 -22.2276 110.772C-23.6376 109.17 -24.1627 106.314 -23.3377 104.748C-22.6138 103.367 -21.4868 102.356 -20.1256 101.843C-19.0177 101.429 -17.0485 101.167 -15.4735 101.21C-14.8638 101.225 -14.1889 101.236 -13.9808 101.229C-13.7727 101.223 -13.2954 101.238 -12.9251 101.266C-12.2541 101.309 -10.8348 101.345 -9.37568 101.363C-8.94688 101.358 -8.12684 101.376 -7.55072 101.389C-5.90843 101.436 -4.52987 101.39 -4.05796 101.283C-3.56508 101.172 -2.56417 100.577 -2.01858 100.065C-1.81868 99.877 -1.62487 99.7105 -1.59341 99.7033C-1.48854 99.6796 0.182381 98.1975 0.988066 97.4223C1.39615 97.0335 1.84904 96.5017 2.01864 96.2282C2.26062 95.8362 2.29273 95.6858 2.2091 95.3163C2.13208 94.976 2.03394 94.8347 1.72284 94.6291C1.35878 94.3844 -0.224062 93.7717 -0.402338 93.812C-0.444286 93.8215 -0.572845 93.7893 -0.674346 93.7305C-0.860258 93.6397 -2.13317 93.3247 -4.52674 92.783C-5.54861 92.5544 -5.66008 92.5489 -6.43611 92.7246C-6.89753 92.829 -7.44841 93.0252 -7.69298 93.1624C-7.93534 93.3092 -8.54811 93.6217 -9.05433 93.8691C-9.56055 94.1166 -10.3135 94.4914 -10.7193 94.6957C-11.1228 94.9097 -12.016 95.347 -12.7022 95.676C-13.3884 96.0051 -14.2816 96.4424 -14.6851 96.6564C-17.8931 98.3126 -17.8931 98.3126 -19.6212 98.714C-21.1711 99.075 -21.2781 99.089 -21.9751 98.981C-22.9584 98.8253 -24.3039 98.1895 -24.9701 97.5839C-26.2242 96.4266 -26.8682 94.7018 -26.6921 92.9959C-26.4954 91.04 -25.6076 89.6534 -23.6315 88.2044C-23.2726 87.9392 -22.9998 87.6832 -23.0152 87.6152C-23.0306 87.5471 -23.2883 87.4317 -23.594 87.3475C-25.0715 86.9562 -28.4823 85.8168 -29.2955 85.4387C-31.4371 84.4516 -32.9298 82.7758 -33.3634 80.8604C-33.7991 78.9352 -33.3636 77.1092 -32.0577 75.2804C-30.1277 72.6051 -26.3645 71.6 -22.3108 72.7063C-21.8302 72.8326 -21.1389 73.0135 -20.7891 73.0978C-20.437 73.1919 -19.7247 73.368 -19.2127 73.4872C-18.6984 73.6161 -18.0584 73.7165 -17.783 73.7155C-17.1125 73.7069 -17.0423 73.5786 -17.3056 72.9022C-17.6075 72.1528 -17.865 71.0152 -17.8783 70.3232C-17.9025 69.3883 -17.6045 68.5134 -16.9123 67.5288C-16.0235 66.2441 -14.9927 65.4895 -13.5195 65.0334C-10.7657 64.1955 -8.53891 64.8771 -6.8854 67.0685C-6.31861 67.8192 -6.19018 68.0457 -5.22893 69.7599C-4.94398 70.2883 -4.44296 71.1868 -4.11555 71.7566C-3.14989 73.4903 -2.45377 74.7638 -2.05917 75.5331C-1.46287 76.7064 -0.729208 77.9509 -0.314018 78.4702C0.120462 79.026 0.536434 79.2079 2.35724 79.6543C2.93881 79.7885 3.83264 80.0359 4.35348 80.194C7.04818 80.9946 8.30258 80.9356 8.71107 79.9641C9.01455 79.2106 7.67883 73.1143 6.95228 71.95C6.83706 71.7819 5.8552 71.1455 4.29683 70.2512C1.45921 68.6243 -3.71616 65.5334 -4.18223 65.1789C-4.75421 64.7462 -5.07463 64.4508 -5.57423 63.8995C-6.03137 63.3897 -6.07875 63.2777 -6.36278 62.2177C-6.63141 61.2257 -6.65277 60.9852 -6.57948 60.3349C-6.37955 58.4907 -4.99474 56.5725 -3.3 55.78C-1.69525 55.0284 0.191595 54.9387 1.85614 55.5227C2.52923 55.769 3.75916 55.9915 3.86959 55.8949C3.92371 55.8418 3.8094 55.1419 3.56072 54.0432C2.92639 51.1919 2.69959 49.5567 2.80681 48.5206C2.94122 47.2636 3.24872 46.2843 3.74317 45.4977C5.16851 43.2229 7.55343 41.8756 10.3481 41.7541C12.6533 41.6616 15.2709 42.9499 16.4622 44.7552C17.1221 45.7711 17.3424 46.3549 18.0541 49.158C18.7591 51.932 19.0781 52.7082 19.4871 52.6156C19.6024 52.5895 20.0022 52.2128 20.3596 51.7946C20.7169 51.3764 21.3332 50.7872 21.7191 50.4954C22.4137 49.96 22.4347 49.9553 23.6848 49.6825C25.153 49.3502 25.6894 49.3822 27.109 49.8581C29.1823 50.5438 30.428 51.9075 30.6823 53.7614C30.8312 54.76 30.7132 56.1871 30.4418 56.7902C30.2694 57.1972 28.5075 60.0798 27.8159 61.1154C24.697 65.7463 23.0103 68.3767 22.8428 68.8542L22.6426 69.431L23.3574 72.5401C24.0484 75.5931 24.0743 75.6588 24.4646 76.2144C24.9746 76.9576 25.3376 77.1003 26.1451 76.9175C26.6463 76.7939 26.893 76.6665 27.6335 76.09C28.1216 75.7138 28.7262 75.2192 28.9763 75.0093C29.2347 74.7872 29.7328 74.3577 30.0807 74.0438C30.4412 73.7373 30.931 73.3198 31.1834 73.1196C31.423 72.9121 31.8449 72.4384 32.1123 72.061C32.6282 71.3207 32.6742 71.0855 32.7695 68.8765C32.7875 68.3716 32.8383 67.5731 32.8673 67.1167C32.9275 66.2139 32.9857 65.107 33.0902 63.1822C33.2071 60.8252 33.4424 58.9424 33.7932 57.6671C34.1522 56.3797 35.4484 54.8495 36.685 54.2732C38.7794 53.2983 41.4265 53.5476 43.2058 54.8825C44.3498 55.7479 44.7863 56.5077 45.2452 58.4379C45.555 59.7578 45.6796 60.0158 45.9925 59.9859C46.3054 59.956 46.7455 59.611 49.7151 57.048C51.5864 55.4285 52.6249 54.805 53.9838 54.477C55.6071 54.0994 57.0572 54.272 58.8541 55.051C61.4006 56.1714 62.7425 58.1061 62.797 60.782C62.8075 61.6076 62.577 62.9272 62.3095 63.4988C61.5236 65.1894 61.2392 65.54 58.7631 67.8483C56.6409 69.8209 55.9738 70.575 56.1132 70.8501C56.1562 70.9426 56.485 71.0317 56.9331 71.0631C58.8248 71.238 60.8945 72.3948 61.6563 73.7147C62.1226 74.5086 62.3897 76.1756 62.1975 77.1287C62.0081 78.1427 61.6598 79.0392 61.2146 79.7021C60.7693 80.3651 59.5971 81.2744 58.7034 81.6606C57.9521 81.9942 56.4327 82.2461 54.9785 82.2993C54.3753 82.3132 53.4277 82.3641 52.8648 82.4097C52.3019 82.4554 51.4404 82.497 50.957 82.5042C50.4714 82.5017 49.8599 82.5277 49.5889 82.5481C49.3201 82.5783 48.5299 82.5936 47.834 82.5876C45.3407 82.5795 44.7337 82.6249 43.5487 82.8931C42.4707 83.1473 42.3598 83.1929 41.7861 83.6294C41.446 83.8801 40.9082 84.3289 40.579 84.6283C40.2499 84.9277 39.7811 85.3404 39.5205 85.5527C38.0485 86.7445 36.946 88.1082 36.9544 88.7298C36.9542 89.1182 37.0672 89.2766 37.552 89.6166C38.1511 90.0228 40.7238 90.8203 43.4082 91.4291C44.7208 91.7248 44.8891 91.7379 45.4974 91.6002C45.8644 91.5171 46.4948 91.2824 46.8983 91.0684C49.6045 89.6791 50.1587 89.4003 50.6506 89.1868C50.952 89.0573 51.6276 88.7306 52.14 88.4613C56.1716 86.3529 57.8856 85.597 59.1048 85.3823C61.711 84.9151 64.0165 85.8958 65.1536 87.9485C65.9224 89.3485 66.1297 91.3357 65.6355 92.5617C65.3032 93.383 64.3041 94.57 63.1407 95.5181C61.8481 96.5773 61.8128 96.616 62.258 96.7809C62.4395 96.8523 62.7832 96.9585 63.0045 97.0106C63.228 97.0725 63.8415 97.2505 64.3645 97.4183C64.8854 97.5764 65.7582 97.8285 66.3083 97.9698C69.3987 98.8137 71.1985 100.093 72.0443 102.028C72.6641 103.451 72.6728 105.34 72.0551 107.238C71.7658 108.152 70.751 109.659 70.0172 110.265C68.3828 111.616 65.8703 112.205 63.4425 111.804C62.937 111.714 62.4653 111.627 62.3913 111.592C62.3279 111.555 61.7441 111.412 61.1035 111.26C60.4651 111.118 59.8075 110.94 59.6408 110.886C58.9109 110.632 57.5446 110.44 57.0579 110.53C56.5479 110.615 56.5479 110.615 56.6349 110.902C57.3699 113.322 57.3567 113.263 57.2524 114.166C57.0537 115.724 56.2317 116.962 54.4649 118.313L53.6869 118.918L52.3236 119.227C50.973 119.543 50.952 119.548 50.1536 119.381C49.2288 119.191 47.5336 118.277 46.9386 117.645C46.2989 116.962 45.2514 115.451 44.6342 114.283C44.304 113.652 43.835 112.797 43.5952 112.371C43.0727 111.426 42.2113 109.812 41.3769 108.171C40.1887 105.844 39.5475 105.008 38.6968 104.659C38.4772 104.565 37.7246 104.358 37.0145 104.191C36.3148 104.023 35.5457 103.839 35.32 103.767C35.0944 103.696 34.2915 103.509 33.5395 103.353C32.3934 103.111 32.0778 103.08 31.6059 103.187C30.9955 103.315 30.758 103.532 30.5622 104.129C30.4727 104.415 30.5617 104.906 31.1443 107.626C31.8616 110.99 32.0808 111.666 32.6306 112.195C32.7878 112.354 35.1399 113.784 37.834 115.362C43.6769 118.772 44.0642 119.021 44.8489 119.907C45.2635 120.375 45.6696 121.244 45.8589 122.08C46.2776 123.979 45.4737 126.174 43.8193 127.632C42.2152 129.068 40.5975 129.373 38.1753 128.705C36.5057 128.245 35.8569 128.106 35.7315 128.185C35.6355 128.248 35.7317 128.819 36.1662 130.836C36.8055 133.758 36.8885 134.271 36.8369 135.407C36.8065 136.344 36.5719 137.255 36.1131 138.248C35.5599 139.457 34.287 140.798 33.0222 141.493C32.3763 141.854 32.0705 141.964 31.0301 142.189C30.3567 142.332 29.7021 142.459 29.5802 142.456Z" fill="#8A8F92"/>
</mask>
<g mask="url(#mask1_2143_3283)">
<rect x="-72" y="47" width="257.175" height="221.828" transform="rotate(-12.7534 -72 47)" fill="#61C9E2"/>
</g>
</svg>
