<svg width="569" height="822" viewBox="0 0 569 822" fill="none" xmlns="http://www.w3.org/2000/svg">
<g clip-path="url(#clip0_4016_1062)">
<path d="M569 819.871V10.6649L496.796 18.7654C454.124 23.5527 410.981 22.0337 368.752 14.2573C317.547 4.82813 265.07 4.61212 213.79 13.6195L208.414 14.5637C165.277 22.1406 121.29 23.6243 77.7403 18.9712L0 10.665V819.871L37.7273 807.181C90.9812 789.267 148.672 789.518 201.768 807.893C254.444 826.123 311.655 826.518 364.577 809.017L368.109 807.849C423.597 789.499 483.595 790.009 538.763 809.299L569 819.871Z" fill="#01AED8"/>
<mask id="mask0_4016_1062" style="mask-type:alpha" maskUnits="userSpaceOnUse" x="306" y="678" width="91" height="86">
<path d="M359.797 763.462C359.103 763.481 358.461 763.401 357.662 763.202C356.084 762.808 354.744 761.826 353.991 760.521C353.641 759.919 353.569 759.686 352.88 757.022C352.305 754.782 352.094 754.097 351.917 753.809C351.787 753.606 351.627 753.435 351.57 753.43C351.502 753.42 351.165 753.694 350.824 754.038C350.473 754.376 350.183 754.657 350.165 754.661C350.148 754.665 349.959 754.819 349.757 754.994C348.855 755.775 347.681 756.177 346.378 756.135C344.586 756.073 343.29 755.323 342.222 753.736C341.839 753.158 341.599 751.98 341.715 751.178C341.888 749.933 342.166 749.439 345.402 744.719C347.562 741.569 348.45 740.196 348.532 739.902C348.636 739.499 348.63 739.432 348.006 736.892C347.195 733.567 346.988 733.148 346.078 733.077C345.473 733.033 344.241 733.715 343.409 734.558C343.302 734.66 342.866 735.034 342.431 735.373C341.33 736.259 340.45 737.138 340.301 737.508C340.229 737.68 340.145 738.293 340.108 738.87C339.997 740.714 339.924 741.825 339.864 742.545C339.831 742.932 339.773 743.781 339.743 744.426C339.513 748.821 339.394 749.4 338.456 750.637C337.42 752.017 335.707 752.834 334.02 752.74C332.674 752.673 331.538 752.179 330.643 751.269C330.049 750.662 329.834 750.21 329.43 748.715C329.206 747.895 329.014 747.335 328.939 747.292C328.81 747.217 328.81 747.217 326.571 749.118C323.997 751.302 323.369 751.693 321.967 751.992C320.345 752.349 319.132 752.131 317.553 751.203C316.469 750.568 315.848 749.966 315.123 748.863C314.755 748.308 314.653 748.064 314.517 747.465C314.332 746.654 314.353 746.252 314.608 745.247C314.954 743.902 315.587 742.923 317.057 741.488C317.277 741.267 317.477 741.084 317.504 741.078C317.53 741.072 317.973 740.687 318.49 740.217C319.53 739.268 320.275 738.367 320.103 738.268C320.048 738.229 319.659 738.196 319.247 738.185C318.837 738.183 318.311 738.12 318.083 738.059C317.545 737.905 316.451 737.186 316.038 736.719C314.847 735.367 314.402 732.959 315.098 731.639C315.708 730.476 316.659 729.623 317.808 729.192C318.743 728.843 320.405 728.624 321.735 728.66C322.25 728.674 322.82 728.683 322.995 728.678C323.171 728.673 323.574 728.686 323.887 728.71C324.453 728.746 325.652 728.778 326.883 728.793C327.245 728.789 327.938 728.805 328.424 728.816C329.811 728.857 330.975 728.819 331.373 728.729C331.789 728.635 332.634 728.135 333.094 727.703C333.263 727.545 333.426 727.404 333.453 727.398C333.541 727.379 334.951 726.13 335.631 725.477C335.975 725.149 336.357 724.701 336.5 724.471C336.704 724.14 336.732 724.013 336.661 723.702C336.595 723.415 336.513 723.296 336.25 723.122C335.942 722.916 334.606 722.398 334.455 722.432C334.42 722.44 334.311 722.413 334.225 722.363C334.068 722.287 332.993 722.02 330.972 721.562C330.109 721.369 330.015 721.364 329.36 721.512C328.971 721.6 328.506 721.765 328.299 721.88C328.095 722.004 327.578 722.267 327.15 722.475C326.723 722.684 326.088 722.999 325.745 723.171C325.405 723.351 324.651 723.72 324.072 723.997C323.492 724.274 322.739 724.642 322.398 724.822C319.691 726.217 319.691 726.217 318.232 726.554C316.923 726.857 316.833 726.869 316.245 726.778C315.414 726.646 314.278 726.109 313.715 725.598C312.656 724.622 312.111 723.167 312.259 721.729C312.424 720.08 313.172 718.911 314.84 717.691C315.143 717.467 315.373 717.252 315.36 717.194C315.347 717.137 315.129 717.04 314.871 716.968C313.623 716.638 310.743 715.675 310.056 715.356C308.248 714.522 306.986 713.109 306.619 711.493C306.25 709.87 306.617 708.331 307.718 706.79C309.346 704.535 312.523 703.69 315.946 704.625C316.352 704.732 316.936 704.885 317.231 704.956C317.528 705.035 318.13 705.184 318.562 705.285C318.996 705.394 319.537 705.479 319.769 705.478C320.335 705.471 320.395 705.363 320.172 704.793C319.917 704.161 319.699 703.202 319.687 702.618C319.666 701.83 319.917 701.092 320.501 700.263C321.25 699.18 322.12 698.545 323.364 698.161C325.688 697.456 327.569 698.032 328.966 699.88C329.445 700.514 329.554 700.705 330.366 702.151C330.607 702.596 331.031 703.354 331.307 703.835C332.124 705.297 332.712 706.371 333.046 707.02C333.55 708.009 334.17 709.059 334.521 709.497C334.888 709.966 335.239 710.12 336.777 710.497C337.268 710.611 338.023 710.82 338.462 710.953C340.738 711.63 341.797 711.581 342.141 710.762C342.397 710.127 341.266 704.986 340.652 704.004C340.554 703.862 339.725 703.325 338.409 702.57C336.012 701.197 331.641 698.588 331.247 698.289C330.764 697.924 330.493 697.674 330.071 697.209C329.685 696.779 329.645 696.685 329.405 695.791C329.177 694.954 329.159 694.752 329.22 694.203C329.388 692.649 330.556 691.032 331.987 690.365C333.341 689.732 334.934 689.658 336.34 690.151C336.908 690.359 337.947 690.547 338.04 690.466C338.086 690.421 337.989 689.831 337.778 688.905C337.241 686.5 337.048 685.121 337.138 684.248C337.251 683.188 337.51 682.363 337.927 681.7C339.129 679.783 341.142 678.648 343.501 678.547C345.448 678.471 347.658 679.558 348.665 681.081C349.223 681.938 349.409 682.43 350.012 684.794C350.608 687.133 350.878 687.788 351.223 687.71C351.321 687.688 351.658 687.371 351.96 687.018C352.261 686.666 352.781 686.17 353.107 685.924C353.693 685.473 353.711 685.469 354.766 685.24C356.005 684.96 356.458 684.988 357.657 685.39C359.408 685.969 360.46 687.119 360.676 688.683C360.802 689.525 360.704 690.728 360.475 691.236C360.329 691.579 358.844 694.008 358.26 694.881C355.63 698.784 354.207 701.001 354.066 701.403L353.897 701.889L354.503 704.511C355.088 707.086 355.11 707.141 355.44 707.61C355.871 708.236 356.177 708.357 356.859 708.203C357.282 708.099 357.49 707.992 358.115 707.507C358.527 707.19 359.037 706.773 359.248 706.596C359.466 706.409 359.886 706.047 360.18 705.783C360.484 705.525 360.897 705.173 361.11 705.004C361.312 704.829 361.668 704.43 361.894 704.112C362.329 703.488 362.368 703.29 362.447 701.428C362.462 701.002 362.504 700.329 362.529 699.944C362.579 699.183 362.627 698.25 362.714 696.627C362.812 694.64 363.009 693.052 363.305 691.977C363.607 690.892 364.701 689.603 365.744 689.118C367.512 688.297 369.747 688.508 371.25 689.635C372.216 690.365 372.585 691.006 372.974 692.634C373.236 693.747 373.342 693.964 373.606 693.939C373.87 693.914 374.241 693.624 376.747 691.465C378.326 690.1 379.202 689.575 380.349 689.299C381.72 688.982 382.944 689.128 384.462 689.786C386.612 690.732 387.746 692.364 387.794 694.62C387.803 695.316 387.609 696.429 387.384 696.911C386.721 698.336 386.481 698.631 384.392 700.576C382.602 702.238 382.039 702.873 382.157 703.105C382.193 703.183 382.471 703.258 382.849 703.285C384.446 703.434 386.194 704.41 386.838 705.523C387.232 706.193 387.459 707.599 387.297 708.402C387.138 709.257 386.844 710.013 386.469 710.571C386.093 711.13 385.104 711.896 384.35 712.221C383.716 712.502 382.433 712.713 381.205 712.757C380.696 712.769 379.896 712.811 379.421 712.849C378.946 712.887 378.218 712.922 377.81 712.928C377.4 712.925 376.884 712.947 376.655 712.964C376.428 712.989 375.761 713.002 375.174 712.996C373.068 712.988 372.556 713.026 371.556 713.251C370.646 713.465 370.552 713.504 370.068 713.871C369.781 714.082 369.327 714.461 369.049 714.713C368.772 714.965 368.376 715.313 368.156 715.491C366.914 716.495 365.984 717.645 365.992 718.169C365.992 718.496 366.087 718.63 366.497 718.917C367.003 719.259 369.175 719.933 371.442 720.448C372.55 720.698 372.692 720.709 373.206 720.594C373.516 720.524 374.048 720.326 374.388 720.146C376.672 718.976 377.14 718.742 377.555 718.562C377.81 718.453 378.38 718.178 378.812 717.951C382.215 716.176 383.662 715.539 384.691 715.359C386.891 714.967 388.838 715.795 389.799 717.526C390.449 718.707 390.625 720.383 390.209 721.416C389.929 722.108 389.086 723.108 388.104 723.907C387.013 724.799 386.984 724.832 387.36 724.971C387.513 725.032 387.803 725.121 387.99 725.165C388.179 725.218 388.697 725.368 389.138 725.51C389.578 725.643 390.315 725.857 390.78 725.976C393.389 726.689 394.91 727.769 395.625 729.4C396.149 730.601 396.157 732.194 395.637 733.793C395.393 734.564 394.537 735.834 393.918 736.344C392.539 737.482 390.418 737.978 388.368 737.638C387.941 737.562 387.543 737.488 387.481 737.459C387.427 737.428 386.934 737.306 386.393 737.178C385.854 737.058 385.299 736.908 385.158 736.862C384.542 736.647 383.388 736.485 382.977 736.561C382.547 736.632 382.547 736.632 382.62 736.874C383.242 738.914 383.231 738.865 383.143 739.626C382.977 740.939 382.283 741.983 380.792 743.121L380.136 743.631L378.985 743.89C377.845 744.156 377.827 744.16 377.153 744.019C376.372 743.858 374.941 743.086 374.438 742.553C373.897 741.977 373.012 740.703 372.49 739.717C372.211 739.185 371.815 738.464 371.612 738.105C371.17 737.308 370.442 735.947 369.737 734.563C368.732 732.6 368.19 731.895 367.472 731.6C367.286 731.521 366.651 731.345 366.051 731.205C365.46 731.062 364.811 730.907 364.62 730.846C364.43 730.786 363.752 730.628 363.117 730.495C362.149 730.291 361.883 730.265 361.484 730.355C360.969 730.462 360.769 730.645 360.604 731.148C360.528 731.389 360.604 731.803 361.097 734.097C361.705 736.933 361.89 737.503 362.355 737.95C362.487 738.084 364.474 739.291 366.75 740.623C371.685 743.501 372.012 743.712 372.675 744.459C373.025 744.854 373.368 745.587 373.529 746.292C373.883 747.893 373.206 749.744 371.81 750.972C370.456 752.182 369.091 752.438 367.046 751.873C365.636 751.484 365.088 751.366 364.982 751.433C364.901 751.486 364.982 751.968 365.35 753.669C365.892 756.133 365.962 756.565 365.919 757.523C365.894 758.313 365.697 759.081 365.31 759.918C364.844 760.937 363.77 762.067 362.702 762.652C362.157 762.956 361.899 763.049 361.021 763.238C360.452 763.357 359.9 763.465 359.797 763.462Z" fill="#8A8F92"/>
</mask>
<g mask="url(#mask0_4016_1062)">
<rect x="274" y="682.9" width="217.226" height="187.369" transform="rotate(-12.7534 274 682.9)" fill="#61C9E2"/>
</g>
<mask id="mask1_4016_1062" style="mask-type:alpha" maskUnits="userSpaceOnUse" x="-27" y="41" width="107" height="102">
<path d="M36.61 142.165C35.7887 142.187 35.0291 142.093 34.0831 141.857C32.2143 141.39 30.6278 140.227 29.737 138.683C29.3216 137.971 29.2367 137.694 28.4209 134.541C27.7408 131.888 27.4903 131.077 27.2807 130.737C27.1268 130.496 26.9376 130.294 26.8703 130.288C26.7903 130.276 26.3904 130.601 25.9872 131.008C25.5713 131.408 25.2282 131.74 25.2072 131.745C25.1863 131.75 24.9634 131.932 24.724 132.139C23.6561 133.064 22.2661 133.54 20.7232 133.49C18.6023 133.417 17.0672 132.528 15.8029 130.65C15.3501 129.966 15.066 128.571 15.2028 127.622C15.4074 126.147 15.7373 125.563 19.5682 119.975C22.1249 116.245 23.1768 114.621 23.2739 114.272C23.3969 113.795 23.3897 113.715 22.6511 110.708C21.6902 106.772 21.4453 106.276 20.3686 106.192C19.6515 106.139 18.1936 106.948 17.2084 107.945C17.0816 108.066 16.5653 108.508 16.0506 108.91C14.7466 109.959 13.7052 111 13.5292 111.438C13.4432 111.641 13.3439 112.367 13.3009 113.05C13.169 115.233 13.0824 116.549 13.0118 117.401C12.9727 117.859 12.9037 118.865 12.8679 119.628C12.5965 124.832 12.4547 125.517 11.3443 126.981C10.1181 128.615 8.09039 129.582 6.09303 129.471C4.49944 129.391 3.15463 128.807 2.09445 127.729C1.39116 127.01 1.13742 126.476 0.658075 124.706C0.393306 123.735 0.165495 123.072 0.0766863 123.021C-0.0755565 122.933 -0.0755565 122.933 -2.72602 125.183C-5.77419 127.768 -6.5172 128.232 -8.17753 128.585C-10.0977 129.008 -11.5335 128.75 -13.4029 127.651C-14.6865 126.899 -15.4212 126.187 -16.2801 124.881C-16.7158 124.224 -16.8366 123.935 -16.9977 123.226C-17.2161 122.265 -17.1918 121.79 -16.8896 120.6C-16.4803 119.007 -15.7301 117.849 -13.9898 116.15C-13.73 115.888 -13.4928 115.671 -13.4613 115.664C-13.4299 115.657 -12.9053 115.202 -12.2936 114.645C-11.0619 113.521 -10.1804 112.455 -10.3834 112.337C-10.449 112.291 -10.9096 112.252 -11.3972 112.239C-11.8826 112.236 -12.5054 112.162 -12.7751 112.091C-13.4117 111.908 -14.7069 111.057 -15.1961 110.504C-16.6066 108.903 -17.1334 106.052 -16.3098 104.489C-15.5872 103.112 -14.4614 102.103 -13.1011 101.592C-11.9941 101.18 -10.0259 100.92 -8.45164 100.963C-7.84212 100.979 -7.16751 100.99 -6.95955 100.984C-6.7516 100.978 -6.27446 100.993 -5.90433 101.021C-5.23358 101.064 -3.81486 101.102 -2.35641 101.12C-1.92782 101.115 -1.10813 101.134 -0.532256 101.147C1.10932 101.196 2.48723 101.151 2.95885 101.044C3.45143 100.933 4.45149 100.341 4.99648 99.83C5.19616 99.6421 5.38977 99.476 5.42122 99.4689C5.52602 99.4453 7.19518 97.967 7.99997 97.1938C8.40761 96.806 8.85992 96.2755 9.02927 96.0026C9.27087 95.6114 9.30286 95.4614 9.21902 95.0925C9.1418 94.7528 9.04361 94.6116 8.73251 94.4062C8.36845 94.1617 6.78589 93.549 6.60773 93.5892C6.5658 93.5986 6.43728 93.5664 6.33578 93.5076C6.14989 93.4168 4.87734 93.1016 2.48448 92.5592C1.46291 92.3303 1.35149 92.3248 0.575929 92.4996C0.114788 92.6035 -0.435714 92.799 -0.680075 92.9357C-0.92223 93.0822 -1.53451 93.3936 -2.04033 93.6403C-2.54616 93.8869 -3.29854 94.2606 -3.70397 94.4642C-4.1072 94.6776 -4.99969 95.1134 -5.68534 95.4414C-6.37098 95.7694 -7.26348 96.2053 -7.66671 96.4186C-10.8721 98.0696 -10.8721 98.0696 -12.5992 98.4691C-14.1481 98.8284 -14.2551 98.8423 -14.9518 98.734C-15.9347 98.578 -17.2801 97.9424 -17.9464 97.3375C-19.2008 96.1814 -19.8456 94.4593 -19.6707 92.7566C-19.4755 90.8044 -18.589 89.4209 -16.6148 87.976C-16.2563 87.7115 -15.9838 87.4562 -15.9992 87.3882C-16.0147 87.3203 -16.2723 87.2049 -16.5779 87.1207C-18.0551 86.7291 -21.4651 85.5895 -22.2781 85.2115C-24.4195 84.2247 -25.9127 82.551 -26.3473 80.6387C-26.7842 78.7167 -26.3501 76.8944 -25.0461 75.0698C-23.1188 72.4007 -19.3579 71.4 -15.3053 72.5071C-14.8248 72.6335 -14.1337 72.8145 -13.784 72.8989C-13.432 72.9931 -12.7199 73.1693 -12.208 73.2886C-11.6939 73.4177 -11.0541 73.5184 -10.7788 73.5175C-10.1086 73.5094 -10.0386 73.3813 -10.3022 72.706C-10.6045 71.9578 -10.8627 70.8221 -10.8765 70.1313C-10.9013 69.1981 -10.604 68.325 -9.9128 67.3427C-9.02527 66.061 -7.99542 65.3084 -6.52319 64.8542C-3.77123 64.0197 -1.54495 64.7016 0.109306 66.89C0.676354 67.6398 0.804878 67.8659 1.76687 69.5777C2.05205 70.1053 2.55346 71.0025 2.88111 71.5715C3.84752 73.3027 4.5442 74.5743 4.93915 75.3424C5.53598 76.5141 6.27016 77.7568 6.68552 78.2754C7.12019 78.8305 7.5361 79.0123 9.35639 79.4592C9.93778 79.5935 10.8314 79.8411 11.3521 79.9992C14.0461 80.8002 15.2999 80.7422 15.7076 79.7727C16.0104 79.0208 14.6711 72.9348 13.9441 71.7721C13.8288 71.6042 12.847 70.9683 11.2887 70.0746C8.45122 68.4487 3.27607 65.3599 2.80996 65.0058C2.23795 64.5735 1.91747 64.2784 1.41772 63.7277C0.960436 63.2185 0.912999 63.1068 0.628372 62.0485C0.35919 61.0581 0.337678 60.818 0.410491 60.169C0.609071 58.3283 1.99195 56.4145 3.68537 55.6247C5.28889 54.8755 7.17483 54.7872 8.83902 55.3713C9.51197 55.6176 10.7415 55.8405 10.8518 55.7442C10.9059 55.6912 10.7911 54.9926 10.5418 53.8957C9.90583 51.0492 9.67802 49.4168 9.78448 48.3826C9.91797 47.128 10.2247 46.1507 10.7183 45.3659C12.1415 43.0962 14.5244 41.753 17.3178 41.6336C19.6218 41.5429 22.2392 42.8306 23.4312 44.6334C24.0915 45.6479 24.3121 46.2308 25.0253 49.0293C25.7319 51.7987 26.0513 52.5736 26.46 52.4815C26.5753 52.4555 26.9747 52.0798 27.3316 51.6626C27.6885 51.2454 28.304 50.6577 28.6896 50.3667C29.3835 49.8328 29.4045 49.8281 30.6539 49.5567C32.1212 49.226 32.6573 49.2582 34.0766 49.7343C36.1495 50.4201 37.3956 51.7822 37.651 53.6328C37.8005 54.6298 37.6835 56.0541 37.4127 56.656C37.2406 57.0621 35.4815 59.9382 34.7909 60.9714C31.6765 65.5918 29.9925 68.2163 29.8254 68.6927L29.6257 69.2684L30.3422 72.3722C31.035 75.4202 31.0609 75.4858 31.4515 76.0406C31.9617 76.7828 32.3247 76.9255 33.1317 76.7436C33.6325 76.6205 33.8791 76.4935 34.6188 75.9186C35.1064 75.5434 35.7104 75.0502 35.9603 74.8408C36.2184 74.6193 36.716 74.1908 37.0635 73.8778C37.4237 73.5722 37.913 73.1558 38.1651 72.9561C38.4045 72.7491 38.8259 72.2765 39.0929 71.9C39.6081 71.1614 39.6538 70.9266 39.7476 68.7218C39.7653 68.2178 39.8155 67.4207 39.8442 66.9653C39.9037 66.0641 39.9611 64.9593 40.0642 63.0381C40.1795 60.6855 40.4134 58.8062 40.7631 57.5335C41.1211 56.2487 42.4157 54.7222 43.6513 54.1478C45.7441 53.1761 48.3902 53.4267 50.1697 54.7604C51.3137 55.625 51.7506 56.3837 52.2106 58.3107C52.5211 59.6285 52.6458 59.8861 52.9586 59.8564C53.2713 59.8267 53.711 59.4828 56.6775 56.9264C58.5469 55.3111 59.5844 54.6895 60.9425 54.363C62.5648 53.9872 64.0144 54.1605 65.811 54.9393C68.3572 56.0593 69.6998 57.9915 69.756 60.6625C69.7671 61.4866 69.5376 62.8036 69.2706 63.374C68.4862 65.061 68.2021 65.4107 65.7288 67.7131C63.6089 69.6807 62.9426 70.433 63.0821 70.7076C63.1252 70.8 63.4539 70.8892 63.9018 70.9209C65.7927 71.0967 67.8624 72.2528 68.6247 73.5708C69.0913 74.3636 69.3594 76.0277 69.168 76.979C68.9793 77.9909 68.6318 78.8856 68.1872 79.547C67.7426 80.2085 66.5716 81.1153 65.6785 81.5002C64.9278 81.8327 63.4092 82.0831 61.9558 82.1352C61.3529 82.1486 60.4057 82.1988 59.8431 82.244C59.2805 82.2891 58.4194 82.3301 57.9362 82.337C57.4508 82.3342 56.8396 82.3597 56.5688 82.3799C56.3002 82.4098 55.5103 82.4246 54.8147 82.4181C52.3225 82.4083 51.7158 82.4532 50.5315 82.7202C49.4542 82.9732 49.3433 83.0186 48.7702 83.4539C48.4304 83.7039 47.8931 84.1515 47.5644 84.4501C47.2356 84.7487 46.7673 85.1604 46.507 85.3721C45.0364 86.5607 43.9354 87.9211 43.9442 88.5416C43.9442 88.9294 44.0573 89.0876 44.5421 89.4273C45.1412 89.8331 47.7133 90.631 50.3969 91.2404C51.7091 91.5365 51.8774 91.5496 52.4852 91.4126C52.8521 91.33 53.482 91.0961 53.8852 90.8828C56.5892 89.4979 57.143 89.22 57.6345 89.0072C57.9357 88.8781 58.6108 88.5524 59.1227 88.284C63.1511 86.1822 64.8638 85.4288 66.0823 85.2154C68.687 84.7508 70.9921 85.7313 72.1301 87.781C72.8996 89.179 73.1081 91.1627 72.615 92.3861C72.2834 93.2057 71.2856 94.3898 70.1233 95.3354C68.832 96.3918 68.7967 96.4304 69.2419 96.5953C69.4234 96.6667 69.767 96.7729 69.9882 96.8251C70.2116 96.887 70.825 97.0651 71.3479 97.2329C71.8686 97.3911 72.7413 97.6434 73.2912 97.7848C76.3807 98.6293 78.1806 99.9073 79.0273 101.839C79.6479 103.26 79.6578 105.146 79.0417 107.04C78.7532 107.952 77.7399 109.456 77.0068 110.06C75.3741 111.407 72.8631 111.994 70.4361 111.592C69.9308 111.502 69.4592 111.414 69.3853 111.38C69.3218 111.343 68.7382 111.199 68.0978 111.047C67.4596 110.905 66.8021 110.727 66.6355 110.673C65.9058 110.419 64.54 110.227 64.0535 110.316C63.5438 110.4 63.5438 110.4 63.6309 110.687C64.3673 113.102 64.3541 113.044 64.2504 113.945C64.0529 115.5 63.2321 116.736 61.467 118.083L60.6898 118.686L59.3273 118.994C57.9775 119.308 57.9566 119.313 57.1584 119.146C56.2339 118.956 54.5388 118.042 53.9437 117.411C53.3038 116.729 52.2557 115.22 51.6379 114.053C51.3075 113.423 50.8381 112.57 50.5982 112.144C50.0753 111.201 49.2131 109.589 48.378 107.951C47.1887 105.627 46.5472 104.792 45.6966 104.443C45.4771 104.349 44.7247 104.141 44.0148 103.975C43.3153 103.806 42.5464 103.622 42.3208 103.551C42.0952 103.479 41.2926 103.293 40.5408 103.135C39.3951 102.894 39.0796 102.863 38.608 102.969C37.9979 103.096 37.7607 103.313 37.5654 103.908C37.4761 104.194 37.5654 104.684 38.1496 107.399C38.8689 110.757 39.0884 111.432 39.6383 111.961C39.7955 112.12 42.1476 113.549 44.8416 115.126C50.6842 118.533 51.0714 118.783 51.8564 119.667C52.2712 120.135 52.6777 121.002 52.8675 121.837C53.2872 123.732 52.4852 125.923 50.8326 127.378C49.2302 128.81 47.6134 129.113 45.1919 128.445C43.5227 127.984 42.874 127.845 42.7488 127.924C42.6528 127.986 42.7494 128.557 43.1851 130.571C43.8261 133.487 43.9094 133.999 43.8586 135.133C43.8289 136.068 43.595 136.978 43.1371 137.969C42.585 139.175 41.3135 140.513 40.0498 141.206C39.4044 141.566 39.0988 141.675 38.0591 141.9C37.3861 142.041 36.7319 142.168 36.61 142.165Z" fill="#8A8F92"/>
</mask>
<g mask="url(#mask1_4016_1062)">
<rect x="-65" y="47" width="257.175" height="221.828" transform="rotate(-12.7534 -65 47)" fill="#61C9E2"/>
</g>
</g>
<defs>
<clipPath id="clip0_4016_1062">
<rect width="569" height="822" fill="white"/>
</clipPath>
</defs>
</svg>
