<svg width="1920" height="1000" viewBox="0 0 1920 1000" fill="none" xmlns="http://www.w3.org/2000/svg">
<g clip-path="url(#clip0_2355_734)">
<rect width="1920" height="1000" fill="url(#paint0_linear_2355_734)"/>
<path d="M587.667 69.0614L518.401 45.3543C482.216 32.9694 445.189 23.1952 407.605 16.1072L383.859 11.6289C346.368 4.55839 308.299 1 270.147 1H250.9C210.741 1 170.751 6.1971 131.925 16.4618C106.023 23.3098 80.7612 32.3812 56.42 43.5751L1 69.0614V945.888L3.26113 946.619C81.3882 971.883 165.528 971.627 243.5 945.888L264.72 939.203C325.476 920.063 388.801 910.325 452.5 910.325L542.5 920.5L623 940.5L713 958.756L824 978.5L854.587 981.963C921.629 989.552 989.519 981.612 1053 958.756L1091.31 944.787C1124.02 932.86 1157.84 924.246 1192.27 919.073C1230.97 913.259 1270.19 911.828 1309.21 914.805L1311.62 914.989C1340.16 917.168 1368.49 921.604 1396.32 928.257L1491.5 951L1604 984.526C1662.89 994.434 1723.05 994.079 1781.82 983.476L1793 981.458L1921 945.888V69.0614L1878.39 55.2858C1833.55 40.7903 1787.52 30.2848 1740.83 23.8919L1690.5 17L1659.67 12.6864C1599.42 4.2563 1538.4 2.72639 1477.81 8.12629L1454.5 10.2033L1376.93 19.0873C1332.39 24.1887 1288.35 33.0253 1245.29 45.5038L1164 69.0614L1075.38 99.0349C1032.91 113.4 989.045 123.241 944.508 128.393C890.393 134.653 835.698 133.945 781.764 126.286L779.312 125.937C725.526 118.299 672.897 104.011 622.633 83.3996L587.667 69.0614Z" fill="#FF9900"/>
<path d="M2080.5 799L1944.8 644.362C1878.51 568.814 1782.87 525.5 1682.36 525.5V525.5C1617.41 525.5 1553.75 543.618 1498.53 577.817L1433.02 618.384C1415.7 629.114 1397.62 638.577 1378.93 646.7L1360.39 654.754C1320.54 672.074 1284.58 697.245 1254.67 728.766V728.766C1223.25 761.88 1185.17 787.969 1142.94 805.317L1102.89 821.77C1067.75 836.21 1031.07 846.596 993.566 852.727L978.432 855.201C938.624 861.71 898.174 863.377 857.965 860.167L799.5 855.5L737.264 842.708C694.604 833.94 653.273 819.636 614.319 800.16L549 767.5L489.78 727.417C453.09 702.582 419.862 672.981 390.971 639.391L351.5 593.5L312.914 543.922C283.966 506.729 263.219 463.829 252.036 418.044L250.319 411.015C245.125 389.748 242.5 367.936 242.5 346.044V318.905C242.5 286.588 251.395 254.832 268.153 227.2V227.2C282.177 204.075 301.364 184.442 324.173 169.91L325.212 169.248C342.592 158.176 361.845 150.365 382.027 146.199L396.073 143.299C436.861 134.88 479.276 145.169 511.672 171.342V171.342C535.858 190.883 552.805 217.96 559.808 248.256L564.282 267.61C569.389 289.704 570.639 312.514 567.976 335.034L567.338 340.429C562.535 381.06 546.886 419.65 522.032 452.15L513.006 463.954C501.035 479.608 487.457 493.966 472.494 506.791L455.905 521.01C410.03 560.331 357.282 590.832 300.318 610.975L289.062 614.955C266.384 622.975 243.156 629.347 219.56 634.023L194.626 638.963C162.619 645.306 130.068 648.5 97.4378 648.5H84.5655C58.2297 648.5 31.935 646.419 5.9269 642.277L-90 627" stroke="#FFB240" stroke-width="70"/>
</g>
<defs>
<linearGradient id="paint0_linear_2355_734" x1="960" y1="0" x2="960" y2="1000" gradientUnits="userSpaceOnUse">
<stop stop-color="#FFF7EB"/>
<stop offset="1" stop-color="white" stop-opacity="0"/>
</linearGradient>
<clipPath id="clip0_2355_734">
<rect width="1920" height="1000" fill="white"/>
</clipPath>
</defs>
</svg>
