<svg width="1920" height="1135" viewBox="0 0 1920 1135" fill="none" xmlns="http://www.w3.org/2000/svg">
<g clip-path="url(#clip0_2056_97)">
<circle cx="193.017" cy="863.017" r="19.3885" transform="rotate(26.5979 193.017 863.017)" fill="#FFF7EB"/>
<circle cx="125.244" cy="927.244" r="28.5" transform="rotate(26.5979 125.244 927.244)" fill="#FFF7EB"/>
<circle cx="224.689" cy="990.689" r="41.5" transform="rotate(26.5979 224.689 990.689)" fill="#FFF7EB"/>
<path d="M1954 1023.5L1895.42 962.043C1827.33 890.614 1739.12 840.816 1642.86 819.134V819.134C1594.06 808.145 1543.65 804.482 1493.78 808.379L1402.01 815.551C1347.38 819.821 1293.82 833.064 1243.49 854.747V854.747C1188.61 878.39 1138.42 911.7 1095.32 953.089L1074.73 972.867C1039.86 1006.35 999.291 1033.35 954.94 1052.6V1052.6C885.054 1082.92 808.055 1093 732.719 1081.69L702.064 1077.09C655.338 1070.08 610.082 1055.44 568.1 1033.76V1033.76C529.259 1013.7 493.69 987.862 462.611 957.121L413.102 908.15C385.466 880.814 361.187 850.281 340.78 817.197V817.197C317.37 779.244 299.261 738.267 286.955 695.407L265.915 622.123C253.036 577.262 246.501 530.819 246.501 484.146L246.501 360.199C246.501 330.53 250.419 300.991 258.153 272.348L269.794 229.236C292.083 146.692 354.384 80.8875 435.587 54.1211L455.456 47.5719C503.384 31.7735 555.506 34.6147 601.433 55.5294L605.366 57.3204C660.234 82.3066 700.178 131.615 713.233 190.473V190.473C719.015 216.538 719.296 243.521 714.061 269.701L702.963 325.188C696.043 359.787 683.027 392.881 664.523 422.924V422.924C625.287 486.628 563.501 533.221 491.464 553.431L440.046 567.856C401.862 578.568 362.39 584 322.732 584L301.543 584C251.465 584 201.672 576.477 153.829 561.683L25.5007 522" stroke="#FFF7EB" stroke-width="70"/>
<path d="M1374.33 324.65L1362.25 387.889L1422.89 361.211L1382.75 411.514L1451.21 413.235L1390.96 440.638L1453.68 470.417L1385.25 469.492L1429.8 521.432L1366.76 492.363L1384.32 556.176L1339.14 504.72L1326.23 567.766L1307.86 504.115L1267.05 553.908L1279.13 490.669L1218.49 517.347L1258.63 467.044L1190.17 465.323L1250.42 437.92L1187.7 408.141L1256.12 409.066L1211.57 357.126L1274.62 386.195L1257.06 322.382L1302.24 373.838L1315.15 310.792L1333.52 374.443L1374.33 324.65Z" fill="#FF9900" fill-opacity="0.06"/>
</g>
<defs>
<clipPath id="clip0_2056_97">
<rect width="1920" height="1135" fill="white"/>
</clipPath>
</defs>
</svg>
