<svg width="1920" height="1135" viewBox="0 0 1920 1135" fill="none" xmlns="http://www.w3.org/2000/svg">
<g clip-path="url(#clip0_2056_97)">
<circle cx="192.656" cy="863.017" r="19.3885" transform="rotate(26.5979 192.656 863.017)" fill="#FFF7EB"/>
<circle cx="125.724" cy="927.244" r="28.5" transform="rotate(26.5979 125.724 927.244)" fill="#FFF7EB"/>
<circle cx="224.527" cy="990.689" r="41.5" transform="rotate(26.5979 224.527 990.689)" fill="#FFF7EB"/>
<path d="M1954.31 1023.54L1895.73 962.078C1827.64 890.65 1739.43 840.852 1643.16 819.169V819.169C1594.37 808.18 1543.96 804.517 1494.09 808.414L1402.5 815.572C1347.75 819.851 1294.07 833.123 1243.63 854.854L1199.57 873.836C1173.78 884.949 1148.96 898.216 1125.4 913.496L1042.53 967.219C1015.57 984.699 986.991 999.539 957.183 1011.53L943.321 1017.11C872.386 1045.66 795.849 1057.55 719.597 1051.88L672.472 1048.38C642.246 1046.13 612.352 1040.62 583.312 1031.94V1031.94C526.095 1014.84 473.18 985.744 428.095 946.584L397.859 920.321C359.838 887.297 327.024 848.717 300.529 805.889L293.22 794.074C276.114 766.424 261.747 737.171 250.321 706.732L233.891 662.961C212.802 606.779 202 547.26 202 487.251L202 438L218.758 296.582C221.237 275.661 227.075 255.191 235.978 236.098V236.098C256.239 192.65 291.713 157.878 335.615 138.62L344.725 134.623C363.702 126.298 384.2 122 404.923 122V122C447.31 122 487.923 140.182 516.334 171.638V171.638C541.427 199.419 555.5 235.724 555.5 273.16L555.5 277.359C555.5 293.037 553.225 308.632 548.747 323.656L545.226 335.467C531.822 380.438 503.296 419.398 464.474 445.759V445.759C424.772 472.717 376.824 484.786 329.091 479.837L312.29 478.095C273.63 474.087 236.438 461.117 203.669 440.215L166.812 416.705C143.656 401.935 121.952 385.004 101.991 366.139L58.7835 325.304C-5.35717 264.686 -44.2148 182.064 -49.9998 94.0003V94.0003" stroke="#FFF7EB" stroke-width="70"/>
<path d="M1592.24 85.1183L1580.06 148.885L1641.2 121.985L1600.73 172.707L1669.76 174.443L1609.01 202.074L1672.24 232.102L1603.25 231.169L1648.17 283.542L1584.6 254.23L1602.31 318.575L1556.75 266.69L1543.74 330.262L1525.21 266.08L1484.06 316.289L1496.24 252.522L1435.09 279.422L1475.57 228.7L1406.54 226.965L1467.29 199.334L1404.05 169.305L1473.04 170.238L1428.12 117.865L1491.7 147.177L1473.99 82.832L1519.55 134.717L1532.56 71.1448L1551.08 135.327L1592.24 85.1183Z" fill="#FF9900" fill-opacity="0.06"/>
</g>
<defs>
<clipPath id="clip0_2056_97">
<rect width="1920" height="1135" fill="white"/>
</clipPath>
</defs>
</svg>
