<svg width="125" height="130" viewBox="0 0 125 130" fill="none" xmlns="http://www.w3.org/2000/svg">
<path d="M84.9405 7.51496L78.8595 39.3491L109.385 25.9197L89.1802 51.2415L123.64 52.108L93.3131 65.9021L124.882 80.8929L90.4395 80.4273L112.865 106.573L81.1286 91.94L89.9689 124.063L67.2245 98.1602L60.7287 129.897L51.4812 97.8558L30.9357 122.921L37.0167 91.0872L6.49094 104.517L26.696 79.1948L-7.76413 78.3283L22.5631 64.5342L-9.00606 49.5434L25.4367 50.009L3.01112 23.863L34.7476 38.4963L25.9073 6.37358L48.6517 32.2761L55.1475 0.539021L64.395 32.5805L84.9405 7.51496Z" fill="#FF9900" fill-opacity="0.06"/>
</svg>
