<svg width="1920" height="1185" viewBox="0 0 1920 1185" fill="none" xmlns="http://www.w3.org/2000/svg">
<g clip-path="url(#clip0_2355_779)">
<path d="M0 97.9806L58.3385 69.7797C131.824 34.2565 211.196 12.4944 292.523 5.5707C332.427 2.17354 372.555 2.36985 412.424 6.15724L516.5 16.0441L730.5 61.6285L825.618 76.6948C914.7 90.8052 1005.4 91.4448 1094.67 78.5924L1212.5 61.6285L1438 16.0441L1481.8 10.4962C1534.46 3.8267 1587.66 2.67427 1640.56 7.05766C1712.49 13.0184 1783.21 29.1635 1850.6 55.0093L1920 81.6275L1943.5 1376.5H0V97.9806Z" fill="#FFF7EB"/>
<path d="M442.17 874.258L427.401 951.578L501.542 918.96L452.468 980.462L536.165 982.567L462.506 1016.07L539.182 1052.48L455.526 1051.35L509.994 1114.85L432.912 1079.31L454.383 1157.33L399.141 1094.42L383.364 1171.5L360.903 1093.68L311.002 1154.56L325.771 1077.24L251.63 1109.86L300.704 1048.36L217.006 1046.25L290.666 1012.75L213.99 976.338L297.646 977.469L243.178 913.965L320.26 949.506L298.789 871.486L354.031 934.398L369.808 857.315L392.269 935.138L442.17 874.258Z" fill="#FF9900" fill-opacity="0.06"/>
<path d="M1941 233L1813.26 412.582C1785.17 452.072 1752.8 488.332 1716.73 520.697L1705.56 530.715C1627.23 601.003 1531.8 649.468 1428.84 671.256L1378.79 681.846C1322.34 693.791 1263.91 692.698 1207.95 678.651L1112.46 654.683C1070.12 644.053 1034.18 616.125 1013.42 577.713L1001.37 555.41C981.448 518.538 983.482 473.683 1006.66 438.765V438.765C1030.72 402.524 1073.38 383.234 1116.48 389.111L1121.69 389.821C1163.53 395.527 1199.43 422.497 1216.56 461.095L1231.88 495.621C1253.61 544.572 1253.61 600.428 1231.88 649.379L1221.47 672.843C1200.36 720.4 1164.8 760.092 1119.83 786.271L1087.86 804.883C1032.61 837.052 969.816 854 905.881 854H772.241C718.201 854 664.283 848.888 611.207 838.732L356.72 790.035C325.31 784.025 293.403 781 261.424 781V781C166.704 781 73.8786 807.531 -6.5342 857.586L-57 889" stroke="white" stroke-width="70"/>
<path d="M1526.02 140.337L1515.5 195.389L1568.29 172.165L1533.35 215.954L1592.95 217.453L1540.5 241.307L1595.09 267.232L1535.53 266.426L1574.31 311.641L1519.43 286.336L1534.72 341.886L1495.38 297.092L1484.15 351.976L1468.16 296.566L1432.63 339.913L1443.14 284.861L1390.36 308.085L1425.3 264.295L1365.7 262.796L1418.15 238.942L1363.56 213.018L1423.12 213.823L1384.34 168.608L1439.22 193.914L1423.93 138.363L1463.27 183.157L1474.5 128.273L1490.49 183.683L1526.02 140.337Z" fill="#FF9900" fill-opacity="0.06"/>
</g>
<defs>
<clipPath id="clip0_2355_779">
<rect width="1920" height="1185" fill="white"/>
</clipPath>
</defs>
</svg>
