<svg width="1920" height="1188" viewBox="0 0 1920 1188" fill="none" xmlns="http://www.w3.org/2000/svg">
<g clip-path="url(#clip0_2417_1363)">
<rect width="1920" height="1188" fill="url(#paint0_linear_2417_1363)"/>
<path d="M0 49L201.377 13.6959C253.136 4.62203 306.001 3.76385 358.026 11.153L554.293 39.0285C600.864 45.6431 648.137 45.6526 694.711 39.0568L898.127 10.2494C946.12 3.4526 994.848 3.67087 1042.78 10.8974L1223.62 38.163C1271.29 45.3499 1319.75 45.6054 1367.49 38.9217L1561.43 11.7698C1617.08 3.97901 1673.64 5.62431 1728.74 16.6366L1920 54.86V1132.16L1822.78 1157.73C1705.89 1188.48 1583.42 1191.4 1465.19 1166.24C1359.57 1143.77 1250.41 1143.67 1144.75 1165.96L1130.61 1168.94C1019.36 1192.4 904.505 1193.07 792.986 1170.91L746.627 1161.7C648.653 1142.23 547.667 1143.72 450.311 1166.08C340.365 1191.33 225.975 1189.92 116.681 1161.99L0 1132.16V49Z" fill="#FF9900"/>
<circle cx="401.087" cy="293.483" r="16" transform="rotate(116.355 401.087 293.483)" fill="#FFB240"/>
<circle cx="333.302" cy="346.95" r="21" transform="rotate(116.355 333.302 346.95)" fill="#FFB240"/>
<circle cx="328.5" cy="255.288" r="28" transform="rotate(116.355 328.5 255.288)" fill="#FFB240"/>
<path d="M1785.3 766.643L1785.12 767.577L1785.99 767.194L1845.2 741.145L1806.04 790.217L1805.42 791.003L1806.42 791.029L1873.19 792.708L1814.5 819.404L1813.52 819.85L1814.49 820.311L1875.58 849.32L1808.96 848.419L1807.85 848.404L1808.57 849.244L1851.95 899.814L1790.54 871.498L1789.56 871.047L1789.84 872.085L1806.95 934.254L1762.89 884.066L1762.22 883.31L1762.02 884.296L1749.43 945.801L1731.49 883.649L1731.23 882.734L1730.63 883.47L1690.77 932.096L1702.57 870.339L1702.74 869.405L1701.87 869.788L1642.66 895.838L1681.82 846.765L1682.45 845.979L1681.44 845.953L1614.67 844.274L1673.37 817.578L1674.34 817.132L1673.37 816.671L1612.28 787.662L1678.9 788.563L1680.01 788.578L1679.29 787.738L1635.91 737.168L1697.33 765.484L1698.3 765.935L1698.02 764.898L1680.91 702.728L1724.98 752.916L1725.64 753.672L1725.84 752.686L1738.43 691.181L1756.37 753.334L1756.63 754.248L1757.24 753.512L1797.09 704.886L1785.3 766.643Z" fill="#FFB240" stroke="#FFB240"/>
<path d="M2081.5 422.5L1881.29 375.552C1843.02 366.577 1803.54 363.906 1764.41 367.644L1749.38 369.079C1681.92 375.522 1618.32 403.495 1567.99 448.866V448.866C1522.64 489.744 1466.41 516.597 1406.11 526.174L1392.23 528.379C1350.07 535.074 1307.07 534.286 1265.19 526.053L1157.06 504.795C1134.14 500.289 1111.99 492.487 1091.31 481.633L1066.76 468.751C1037.35 453.316 1013.48 428.711 998.805 398.911V398.911C992.334 385.771 987.718 371.676 985.193 357.248V357.248C971.478 278.872 1019.73 202.888 1096.46 181.836V181.836C1164.65 163.128 1236.94 193.069 1271.83 254.571L1274.88 259.948C1286.49 280.405 1293.52 303.139 1295.48 326.578L1295.82 330.696C1300.65 388.387 1277.63 444.913 1233.87 482.818L1193.14 518.096C1162.4 544.726 1126.34 564.497 1087.35 576.091V576.091C1038.03 590.759 985.668 591.857 935.776 579.27L911.197 573.07C869.048 562.436 829.045 544.62 792.945 520.403L744.895 488.17C682.222 446.127 605.397 430.746 531.368 445.418V445.418C497.734 452.084 465.584 464.783 436.473 482.901L296.078 570.28C188.102 637.482 53.4924 645.617 -61.7915 591.908V591.908C-109.081 569.877 -151.274 538.256 -185.694 499.053L-335 329" stroke="#FFB240" stroke-width="70"/>
</g>
<defs>
<linearGradient id="paint0_linear_2417_1363" x1="960" y1="0" x2="960" y2="1188" gradientUnits="userSpaceOnUse">
<stop stop-color="#FFF7EB"/>
<stop offset="1" stop-color="#99948D" stop-opacity="0"/>
</linearGradient>
<clipPath id="clip0_2417_1363">
<rect width="1920" height="1188" fill="white"/>
</clipPath>
</defs>
</svg>
