<svg width="569" height="771" viewBox="0 0 569 771" fill="none" xmlns="http://www.w3.org/2000/svg">
<g clip-path="url(#clip0_2505_1067)">
<path d="M-10 -384.97L29.8752 -394.725C84.3246 -408.046 141.179 -408.077 195.643 -394.816L205.35 -392.452C256.517 -379.994 310.011 -380.738 360.812 -394.614V-394.614C409.819 -408.001 461.361 -409.173 510.926 -398.028L569 -384.97V35.9564L537.977 47.4878C483.124 67.8771 422.937 68.8363 367.462 50.2053L361.452 48.1871C309.922 30.881 254.018 31.7529 203.053 50.6576V50.6576C153.527 69.0281 99.2954 70.385 48.9135 54.5145L-10 35.9564V-384.97Z" fill="#FFF9F0"/>
<path d="M212.038 746.421L204.761 749.486C153.839 770.931 96.4515 771.097 45.4063 749.948L2.276 732.078L0 1.08063L34.5182 15.3461C88.3723 37.6026 148.685 38.4946 203.174 17.8403L212.826 14.1815C262.205 -4.53601 316.927 -3.32684 365.431 17.5535C413.777 38.3658 468.306 39.6375 517.57 21.1016L569 1.75067V732.078L512.677 753.93C464.803 772.504 411.43 770.784 364.852 749.167C316.576 726.761 261.087 725.764 212.038 746.421Z" fill="#FF9900"/>
<path d="M65.4643 585.953L61.108 608.759L82.9766 599.139L68.5017 617.279L93.1889 617.9L71.4625 627.782L94.0786 638.521L69.4038 638.188L85.4695 656.919L62.7335 646.436L69.0668 669.448L52.7727 650.892L48.1191 673.628L41.4941 650.674L26.7754 668.63L31.1318 645.824L9.26317 655.445L23.738 637.305L-0.949148 636.684L20.7773 626.802L-1.83887 616.063L22.8359 616.396L6.77023 597.665L29.5062 608.148L23.173 585.136L39.4671 603.692L44.1207 580.956L50.7456 603.91L65.4643 585.953Z" fill="#FFB240"/>
<path d="M421.777 72.9534L417.42 95.7594L439.289 86.1386L424.814 104.279L449.501 104.9L427.775 114.782L450.391 125.521L425.716 125.188L441.782 143.919L419.046 133.436L425.379 156.448L409.085 137.892L404.432 160.628L397.807 137.674L383.088 155.63L387.444 132.824L365.576 142.445L380.051 124.305L355.363 123.684L377.09 113.802L354.474 103.063L379.148 103.396L363.083 84.6652L385.819 95.1484L379.486 72.1358L395.78 90.6923L400.433 67.9559L407.058 90.9103L421.777 72.9534Z" fill="#FFB240"/>
</g>
<defs>
<clipPath id="clip0_2505_1067">
<rect width="569" height="771" fill="white"/>
</clipPath>
</defs>
</svg>
