<svg width="1920" height="1185" viewBox="0 0 1920 1185" fill="none" xmlns="http://www.w3.org/2000/svg">
<g clip-path="url(#clip0_2291_866)">
<path d="M2211.5 808.5L2192.36 819.843C2043.08 908.295 1850.13 852.599 1770.95 698.201L1742.9 643.503C1708.58 576.585 1639.7 534.5 1564.5 534.5V534.5L1403.25 517.025C1375.66 514.035 1348.88 505.88 1324.31 492.986L1305.76 483.251C1276.35 467.816 1252.48 443.211 1237.8 413.411V413.411C1231.33 400.271 1226.72 386.176 1224.19 371.748V371.748C1210.48 293.372 1258.73 217.388 1335.46 196.336V196.336C1403.65 177.628 1475.94 207.569 1510.83 269.071L1513.88 274.448C1525.49 294.905 1532.52 317.639 1534.48 341.078L1534.82 345.196C1539.65 402.887 1516.63 459.413 1472.87 497.318L1432.14 532.596C1401.4 559.226 1365.34 578.997 1326.35 590.591V590.591C1277.03 605.259 1224.67 606.357 1174.78 593.77L1150.2 587.57C1108.05 576.936 1068.05 559.12 1031.94 534.903L983.895 502.67C921.222 460.627 844.397 445.246 770.368 459.918V459.918C736.734 466.584 704.584 479.283 675.473 497.401L535.078 584.78C427.102 651.982 292.492 660.117 177.208 606.408V606.408C129.919 584.377 87.7259 552.756 53.3057 513.553L-96 343.5" stroke="#FFF7EB" stroke-width="70"/>
<path d="M319.91 119.048L307.744 182.737L368.815 155.869L328.392 206.529L397.334 208.263L336.66 235.859L399.819 265.851L330.911 264.919L375.777 317.228L312.284 287.952L329.97 352.218L284.467 300.396L271.471 363.89L252.97 299.787L211.866 349.934L224.032 286.246L162.961 313.113L203.384 262.453L134.442 260.72L195.116 233.123L131.957 203.132L200.865 204.063L155.999 151.755L219.492 181.03L201.806 116.765L247.309 168.586L260.305 105.092L278.806 169.195L319.91 119.048Z" fill="#FF9900" fill-opacity="0.06"/>
</g>
<defs>
<clipPath id="clip0_2291_866">
<rect width="1920" height="1185" fill="white"/>
</clipPath>
</defs>
</svg>
