<svg width="1920" height="932" viewBox="0 0 1920 932" fill="none" xmlns="http://www.w3.org/2000/svg">
<g clip-path="url(#clip0_2159_1268)">
<path d="M1986.5 1034.5L1961.57 915.346C1941.09 817.51 1888.98 729.134 1813.28 663.861V663.861C1770.47 626.943 1721.15 598.325 1667.86 579.471L1320.93 456.738C1277.26 441.289 1244.23 404.985 1232.97 360.05V360.05C1214.66 287 1259.5 212.391 1332.2 192.712V192.712C1408.08 172.169 1487.46 217.281 1506.98 293.432L1515.59 327.022C1532.08 391.352 1510.78 459.475 1460.59 502.956L1426.09 532.842C1399.34 556.015 1367.95 573.218 1334.03 583.307L1326.35 585.591C1277.03 600.259 1224.67 601.357 1174.78 588.77L1150.2 582.57C1108.05 571.936 1068.05 554.12 1031.94 529.903L983.895 497.67C921.222 455.627 844.397 440.246 770.368 454.918V454.918C736.734 461.584 704.584 474.283 675.473 492.401L535.078 579.78C427.102 646.982 292.492 655.117 177.208 601.408V601.408C129.919 579.377 87.7259 547.756 53.3057 508.553L-96 338.5" stroke="#FFF7EB" stroke-width="70"/>
<path d="M319.91 114.048L307.744 177.737L368.815 150.869L328.392 201.529L397.334 203.263L336.66 230.859L399.819 260.851L330.911 259.919L375.777 312.228L312.284 282.952L329.97 347.218L284.467 295.396L271.471 358.89L252.97 294.787L211.866 344.934L224.032 281.246L162.961 308.113L203.384 257.453L134.442 255.72L195.116 228.123L131.957 198.132L200.865 199.063L155.999 146.755L219.492 176.03L201.806 111.765L247.309 163.586L260.305 100.092L278.806 164.195L319.91 114.048Z" fill="#FF9900" fill-opacity="0.06"/>
</g>
<defs>
<clipPath id="clip0_2159_1268">
<rect width="1920" height="932" fill="white"/>
</clipPath>
</defs>
</svg>
