<svg width="1920" height="716" viewBox="0 0 1920 716" fill="none" xmlns="http://www.w3.org/2000/svg">
<path d="M399.01 44.2366L394.738 100.24L444.689 71.1697L414.826 118.709L474.337 113.491L424.798 143.151L482.081 162.817L422.679 168.723L466.388 209.38L408.887 190.362L430.366 243.956L386.155 203.781L381.15 259.698L358.985 206.323L328.487 253.487L332.759 197.484L282.808 226.554L312.67 179.015L253.16 184.233L302.698 154.573L245.416 134.907L304.818 129.001L261.108 88.3441L318.61 107.362L297.13 53.7677L341.341 93.9432L346.347 38.0259L368.511 91.4014L399.01 44.2366Z" fill="#FFF7EB"/>
<path d="M1965.5 558L1893.81 480.191C1871.43 455.91 1845.07 435.644 1815.85 420.274V420.274C1787.81 405.525 1757.53 395.489 1726.23 390.568L1701.53 386.685C1644.28 377.683 1585.73 381.998 1530.41 399.297L1527.43 400.229C1493.99 410.686 1462.28 426.02 1433.32 445.737V445.737C1415.48 457.887 1396.56 468.389 1376.82 477.113L1352.31 487.94C1320.12 502.157 1285.33 509.5 1250.14 509.5H1237.52C1191.71 509.5 1147.11 494.832 1110.24 467.645L1106.8 465.109C1087.44 450.83 1070.93 433.038 1058.15 412.66L1046.74 394.476C1027.05 363.111 1020.6 325.224 1028.79 289.112L1031.29 278.13C1038.72 245.352 1060.08 217.445 1089.77 201.7V201.7C1107.93 192.075 1128.32 187.471 1148.85 188.363L1157.16 188.724C1197.86 190.494 1235.96 209.184 1262.28 240.28L1269.77 249.143C1284.77 266.865 1296.04 287.432 1302.89 309.61L1305.03 316.525C1316.45 353.444 1317.36 392.814 1307.66 430.221L1296.05 474.989C1288.49 504.111 1273.14 530.623 1251.64 551.672V551.672C1226.23 576.56 1193.47 592.594 1158.22 597.396L1106.18 604.487C1041.56 613.291 975.799 602.4 917.475 573.238L880.69 554.845C843.734 536.367 809.452 512.965 778.782 485.279L769.527 476.924C744.903 454.696 718.137 434.962 689.622 418.012L641.06 389.145C595.203 361.887 542.844 347.5 489.497 347.5V347.5C453.142 347.5 417.097 354.183 383.159 367.217L361.122 375.679C322.581 390.48 286.408 410.832 253.75 436.09L201.5 476.5V476.5C138.991 519.801 64.7588 543 -11.2829 543H-75" stroke="#FFF7EB" stroke-width="70"/>
<circle cx="1409.22" cy="630.931" r="33.5" transform="rotate(18.0155 1409.22 630.931)" fill="#FFF7EB"/>
<circle cx="1446.11" cy="528.642" r="16" transform="rotate(18.0155 1446.11 528.642)" fill="#FFF7EB"/>
<circle cx="1509.88" cy="601.1" r="26" transform="rotate(18.0155 1509.88 601.1)" fill="#FFF7EB"/>
</svg>
