<svg width="1920" height="2070" viewBox="0 0 1920 2070" fill="none" xmlns="http://www.w3.org/2000/svg">
<g clip-path="url(#clip0_2070_23)">
<path d="M1511.5 1485.5L1528.71 1460.84C1551.8 1427.77 1570.26 1391.7 1583.59 1353.64V1353.64C1600.08 1306.55 1608.5 1257.02 1608.5 1207.13V1177V1177C1608.5 1144.6 1602.69 1112.45 1591.36 1082.1L1586.94 1070.27C1571.46 1028.82 1548.07 990.775 1518.06 958.258L1459.08 894.35C1429.16 861.926 1395.08 833.605 1357.72 810.125L1330.6 793.076C1304.59 776.727 1277.13 762.81 1248.56 751.501L1209.68 736.106C1151.09 712.911 1088.64 701 1025.63 701H991.911C945.228 701 898.804 694.078 854.152 680.46L835.802 674.863C779.986 657.84 728.725 628.453 685.832 588.888V588.888C652.209 557.873 624.331 521.161 603.485 480.443L581.5 437.5L530.033 297.333C517.494 263.187 497.677 232.177 471.956 206.456V206.456C421.988 156.488 353.257 129.924 282.673 133.298L224.153 136.096C170.324 138.67 116.556 129.859 66.3633 110.239L-66 58.5M1511.5 1485.5V1485.5C1485.63 1537.56 1435.11 1572.94 1377.35 1579.47L1357.54 1581.71C1335.34 1584.22 1312.87 1582.99 1291.07 1578.09L1255.75 1570.14C1202.4 1558.13 1160.46 1515.98 1148.05 1462.72V1462.72C1140.34 1429.64 1144.86 1394.49 1160.93 1364.57V1364.57C1187.61 1314.88 1241.57 1286.12 1297.7 1291.67L1324.88 1294.35C1388.47 1300.64 1444.01 1340.07 1470.91 1398.04L1511.5 1485.5ZM1511.5 1485.5L1514.59 1507.61C1521.75 1558.69 1515.74 1610.75 1497.14 1658.86V1658.86C1491.06 1674.59 1483.67 1689.79 1475.06 1704.29L1462.76 1725.01C1454.28 1739.29 1447.42 1754.48 1442.31 1770.28V1770.28C1423 1829.98 1379.46 1878.8 1322.34 1904.78L1300.68 1914.63C1264.64 1931.02 1225.52 1939.5 1185.93 1939.5H1147.2C1108.89 1939.5 1070.72 1934.67 1033.62 1925.12L980.747 1911.52C905.294 1892.11 835.421 1855.33 776.702 1804.13L711.453 1747.23C595.276 1645.91 436.855 1607.9 287.355 1645.47V1645.47C191.552 1669.55 105.75 1723.15 42.1017 1798.69L-58 1917.5" stroke="#FFF7EB" stroke-width="70"/>
</g>
<defs>
<clipPath id="clip0_2070_23">
<rect width="1920" height="2070" fill="white"/>
</clipPath>
</defs>
</svg>
