<svg width="1920" height="2070" viewBox="0 0 1920 2070" fill="none" xmlns="http://www.w3.org/2000/svg">
<g clip-path="url(#clip0_2070_23)">
<path d="M1511.5 1486L1528.71 1461.34C1551.8 1428.27 1570.26 1392.2 1583.59 1354.14V1354.14C1600.08 1307.05 1608.5 1257.52 1608.5 1207.63V1177.5V1177.5C1608.5 1145.1 1602.69 1112.95 1591.36 1082.6L1586.94 1070.77C1571.46 1029.32 1548.07 991.275 1518.06 958.758L1459.08 894.85C1429.16 862.426 1395.08 834.105 1357.72 810.625L1330.6 793.576C1304.59 777.227 1277.13 763.31 1248.56 752.001L1209.68 736.606C1151.09 713.411 1088.64 701.5 1025.63 701.5H991.911C945.228 701.5 898.804 694.578 854.152 680.96L835.802 675.363C779.986 658.34 728.725 628.953 685.832 589.388V589.388C652.209 558.373 624.331 521.661 603.485 480.943L581.5 438L530.033 297.833C517.494 263.687 497.677 232.677 471.956 206.956V206.956C421.988 156.988 353.257 130.424 282.673 133.798L224.153 136.596C170.324 139.17 116.556 130.359 66.3633 110.739L-66 59M1511.5 1486V1486C1485.63 1538.06 1435.11 1573.44 1377.35 1579.97L1357.54 1582.21C1335.34 1584.72 1312.87 1583.49 1291.07 1578.59L1255.75 1570.64C1202.4 1558.63 1160.46 1516.48 1148.05 1463.22V1463.22C1140.34 1430.14 1144.86 1394.99 1160.93 1365.07V1365.07C1187.61 1315.38 1241.57 1286.62 1297.7 1292.17L1324.88 1294.85C1388.47 1301.14 1444.01 1340.57 1470.91 1398.54L1511.5 1486ZM1511.5 1486L1514.59 1508.11C1521.75 1559.19 1515.74 1611.25 1497.14 1659.36V1659.36C1491.06 1675.09 1483.67 1690.29 1475.06 1704.79L1462.76 1725.51C1454.28 1739.79 1447.42 1754.98 1442.31 1770.78V1770.78C1423 1830.48 1379.46 1879.3 1322.34 1905.28L1300.68 1915.13C1264.64 1931.52 1225.52 1940 1185.93 1940H1147.2C1108.89 1940 1070.72 1935.17 1033.62 1925.62L980.747 1912.02C905.294 1892.61 835.421 1855.83 776.702 1804.63L711.453 1747.73C595.276 1646.41 436.855 1608.4 287.355 1645.97V1645.97C191.552 1670.05 105.75 1723.65 42.1017 1799.19L-58 1918" stroke="#FFF7EB" stroke-width="70"/>
<path d="M1364.95 147.048L1352.79 210.737L1413.86 183.869L1373.44 234.529L1442.38 236.263L1381.7 263.859L1444.86 293.851L1375.96 292.919L1420.82 345.228L1357.33 315.952L1375.01 380.218L1329.51 328.396L1316.51 391.89L1298.01 327.787L1256.91 377.934L1269.08 314.246L1208 341.113L1248.43 290.453L1179.49 288.72L1240.16 261.123L1177 231.132L1245.91 232.063L1201.04 179.755L1264.54 209.03L1246.85 144.765L1292.35 196.586L1305.35 133.092L1323.85 197.195L1364.95 147.048Z" fill="#FF9900" fill-opacity="0.06"/>
<path d="M640.954 670.048L628.788 733.737L689.859 706.869L649.436 757.529L718.378 759.263L657.704 786.859L720.863 816.851L651.955 815.919L696.821 868.228L633.328 838.952L651.014 903.218L605.511 851.396L592.515 914.89L574.014 850.787L532.91 900.934L545.076 837.246L484.005 864.113L524.428 813.453L455.486 811.72L516.159 784.123L453.001 754.132L521.909 755.063L477.043 702.755L540.536 732.03L522.85 667.765L568.353 719.586L581.349 656.092L599.85 720.195L640.954 670.048Z" fill="#FF9900" fill-opacity="0.06"/>
<path d="M533.954 1764.05L521.788 1827.74L582.859 1800.87L542.436 1851.53L611.378 1853.26L550.704 1880.86L613.863 1910.85L544.955 1909.92L589.821 1962.23L526.328 1932.95L544.014 1997.22L498.511 1945.4L485.515 2008.89L467.014 1944.79L425.91 1994.93L438.076 1931.25L377.005 1958.11L417.428 1907.45L348.486 1905.72L409.159 1878.12L346.001 1848.13L414.909 1849.06L370.043 1796.75L433.536 1826.03L415.85 1761.76L461.353 1813.59L474.349 1750.09L492.85 1814.19L533.954 1764.05Z" fill="#FF9900" fill-opacity="0.06"/>
</g>
<defs>
<clipPath id="clip0_2070_23">
<rect width="1920" height="2070" fill="white"/>
</clipPath>
</defs>
</svg>
