<svg width="1920" height="1085" viewBox="0 0 1920 1085" fill="none" xmlns="http://www.w3.org/2000/svg">
<g clip-path="url(#clip0_2114_1419)">
<path d="M1737.5 1122L1783.78 1049.23C1803.49 1018.23 1818.66 984.58 1828.82 949.288V949.288C1843.13 899.606 1847.17 846.792 1840.89 795.475V795.475C1834.11 740.012 1815.45 685.819 1786.37 638.109L1768.32 608.495C1742.23 565.697 1710.44 526.647 1673.82 492.419L1614 436.5L1605.85 430.131C1541.11 379.545 1462.67 349.571 1380.7 344.092V344.092C1330.33 340.726 1279.78 346.688 1231.58 361.677L1176.09 378.934C1152.51 386.264 1130.27 397.32 1110.19 411.683V411.683C1087.26 428.089 1067.52 448.551 1051.94 472.058L1043.63 484.606C1029.6 505.79 1018.19 528.604 1009.68 552.545L1007.16 559.624C992.825 599.91 985.5 642.354 985.5 685.114V732.525C985.5 763.382 992.976 793.78 1007.29 821.117L1012.32 830.725C1023.92 852.883 1040.92 871.758 1061.75 885.602V885.602C1093.08 906.423 1131.14 914.597 1168.25 908.477L1181.52 906.289C1196.71 903.784 1211.31 898.516 1224.61 890.746V890.746C1253.36 873.937 1274.28 846.425 1282.81 814.228L1292 779.5L1297.82 732.483C1302.16 697.384 1295.37 661.808 1278.39 630.784V630.784C1259.71 596.648 1229.8 570.021 1193.73 555.415L1148.94 537.278C1135.33 531.767 1121.34 527.248 1107.08 523.758L963 488.5L921.275 483.701C845.255 474.957 768.322 478.519 693.435 494.249L688.266 495.335C621.472 509.364 557.181 533.405 497.569 566.641L477.097 578.056C458.065 588.667 439.944 600.835 422.92 614.436L399.977 632.764C372.946 654.359 341.775 670.184 308.39 679.262V679.262C266.818 690.567 223.05 691.076 181.226 680.742L159.718 675.427C102.879 661.383 50.6529 632.838 8.14075 592.58L-59 529" stroke="#D7F7FF" stroke-width="70"/>
<mask id="mask0_2114_1419" style="mask-type:alpha" maskUnits="userSpaceOnUse" x="102" y="814" width="259" height="252">
<path d="M248.64 1065.64C246.608 1065.57 244.747 1065.23 242.446 1064.51C237.901 1063.09 234.156 1059.98 232.185 1056.04C231.265 1054.22 231.096 1053.52 229.549 1045.61C228.263 1038.95 227.765 1036.91 227.298 1036.04C226.953 1035.42 226.516 1034.89 226.351 1034.87C226.155 1034.83 225.12 1035.57 224.064 1036.52C222.977 1037.45 222.081 1038.22 222.029 1038.23C221.976 1038.24 221.399 1038.66 220.777 1039.13C218.003 1041.27 214.501 1042.24 210.699 1041.9C205.473 1041.41 201.814 1038.99 198.97 1034.16C197.954 1032.41 197.459 1028.92 197.937 1026.59C198.661 1022.97 199.562 1021.58 209.849 1008.31C216.714 999.464 219.552 995.598 219.844 994.751C220.218 993.59 220.212 993.391 218.834 985.85C217.044 975.979 216.513 974.718 213.867 974.355C212.104 974.121 208.385 975.908 205.805 978.232C205.473 978.511 204.133 979.532 202.803 980.45C199.428 982.855 196.702 985.278 196.203 986.335C195.96 986.824 195.607 988.606 195.4 990.289C194.751 995.666 194.342 998.906 194.042 1001C193.877 1002.13 193.558 1004.61 193.356 1006.49C191.915 1019.31 191.464 1020.99 188.505 1024.45C185.235 1028.31 180.085 1030.41 175.17 1029.84C171.247 1029.42 168.013 1027.78 165.555 1024.96C163.925 1023.08 163.378 1021.72 162.457 1017.28C161.947 1014.84 161.482 1013.17 161.271 1013.03C160.908 1012.79 160.908 1012.79 154.03 1017.97C146.121 1023.92 144.218 1024.96 140.066 1025.59C135.262 1026.36 131.755 1025.51 127.302 1022.52C124.244 1020.48 122.535 1018.61 120.608 1015.26C119.63 1013.57 119.374 1012.84 119.082 1011.07C118.685 1008.66 118.815 1007.49 119.738 1004.59C120.984 1000.71 123.008 997.954 127.557 994.007C128.237 993.395 128.855 992.893 128.934 992.88C129.012 992.868 130.375 991.819 131.968 990.532C135.176 987.93 137.51 985.421 137.026 985.102C136.871 984.977 135.74 984.814 134.538 984.713C133.339 984.635 131.813 984.363 131.157 984.146C129.613 983.601 126.541 981.31 125.415 979.872C122.169 975.711 121.291 968.587 123.556 964.842C125.544 961.541 128.473 959.21 131.908 958.144C134.702 957.283 139.6 956.925 143.481 957.26C144.984 957.387 146.648 957.512 147.162 957.527C147.677 957.542 148.852 957.648 149.762 957.773C151.412 957.975 154.909 958.273 158.508 958.529C159.567 958.579 161.588 958.745 163.008 958.861C167.054 959.218 170.463 959.305 171.643 959.111C172.876 958.907 175.433 957.586 176.854 956.403C177.375 955.967 177.878 955.585 177.956 955.572C178.219 955.528 182.559 952.115 184.661 950.32C185.725 949.42 186.92 948.174 187.378 947.524C188.033 946.591 188.134 946.225 187.982 945.301C187.842 944.45 187.62 944.087 186.882 943.534C186.02 942.877 182.203 941.133 181.757 941.207C181.652 941.224 181.34 941.126 181.098 940.966C180.652 940.714 177.557 939.751 171.729 938.064C169.24 937.35 168.966 937.321 167.025 937.641C165.871 937.831 164.483 938.235 163.859 938.537C163.24 938.864 161.682 939.546 160.396 940.083C159.111 940.619 157.198 941.434 156.167 941.879C155.139 942.348 152.871 943.297 151.13 944.009C149.388 944.72 147.12 945.669 146.093 946.138C137.933 949.757 137.933 949.757 133.61 950.494C129.732 951.159 129.466 951.178 127.762 950.809C125.358 950.281 122.13 948.516 120.575 946.924C117.649 943.884 116.312 939.533 116.996 935.349C117.767 930.551 120.161 927.259 125.249 923.972C126.174 923.369 126.884 922.778 126.856 922.607C126.828 922.437 126.209 922.115 125.467 921.862C121.878 920.681 113.627 917.37 111.675 916.318C106.534 913.569 103.096 909.215 102.306 904.424C101.512 899.609 102.854 895.167 106.344 890.844C111.498 884.524 120.932 882.594 130.774 885.917C131.942 886.299 133.622 886.846 134.473 887.105C135.328 887.389 137.06 887.928 138.306 888.297C139.556 888.69 141.121 889.032 141.801 889.069C143.457 889.146 143.649 888.84 143.098 887.132C142.463 885.238 141.993 882.393 142.062 880.683C142.139 878.373 143.002 876.257 144.854 873.928C147.236 870.888 149.89 869.176 153.592 868.266C160.511 866.601 165.907 868.608 169.667 874.258C170.956 876.194 171.24 876.771 173.362 881.143C173.988 882.488 175.093 884.779 175.817 886.233C177.947 890.653 179.479 893.897 180.34 895.854C181.64 898.836 183.269 902.015 184.218 903.357C185.209 904.793 186.209 905.302 190.637 906.67C192.053 907.086 194.222 907.827 195.485 908.294C202.018 910.664 205.122 910.701 206.272 908.363C207.132 906.548 204.726 891.308 203.104 888.328C202.844 887.897 200.514 886.182 196.798 883.748C190.033 879.318 177.713 870.933 176.614 869.99C175.266 868.839 174.519 868.063 173.366 866.629C172.313 865.304 172.212 865.021 171.666 862.363C171.148 859.876 171.131 859.279 171.406 857.685C172.169 853.163 175.867 848.631 180.166 846.924C184.236 845.303 188.906 845.358 192.928 847.042C194.553 847.748 197.556 848.477 197.843 848.255C197.984 848.132 197.804 846.388 197.351 843.64C196.203 836.511 195.882 832.442 196.298 829.901C196.814 826.818 197.716 824.446 199.051 822.577C202.901 817.172 208.984 814.195 215.899 814.304C221.601 814.413 227.873 817.975 230.549 822.604C232.029 825.208 232.487 826.681 233.834 833.703C235.168 840.652 235.842 842.614 236.865 842.445C237.153 842.398 238.195 841.527 239.138 840.547C240.081 839.567 241.688 838.203 242.683 837.539C244.476 836.319 244.528 836.311 247.653 835.82C251.325 835.215 252.644 835.372 256.078 836.754C261.095 838.75 263.97 842.297 264.326 846.91C264.547 849.396 264.048 852.9 263.29 854.349C262.805 855.329 258.035 862.185 256.177 864.64C247.803 875.612 243.256 881.857 242.773 883.011L242.194 884.405L243.504 892.183C244.763 899.819 244.817 899.984 245.699 901.413C246.849 903.321 247.724 903.727 249.743 903.394C250.998 903.162 251.626 902.883 253.538 901.569C254.797 900.712 256.362 899.58 257.01 899.098C257.68 898.588 258.972 897.601 259.876 896.877C260.811 896.173 262.081 895.214 262.733 894.757C263.354 894.28 264.465 893.173 265.18 892.28C266.561 890.529 266.709 889.955 267.267 884.518C267.386 883.274 267.628 881.311 267.766 880.189C268.047 877.969 268.352 875.246 268.891 870.511C269.524 864.712 270.38 860.099 271.432 857.003C272.507 853.879 275.929 850.292 279.065 849.05C284.377 846.951 290.873 847.953 295.069 851.507C297.766 853.81 298.732 855.749 299.582 860.58C300.154 863.883 300.424 864.538 301.2 864.509C301.977 864.481 303.113 863.694 310.817 857.803C315.672 854.08 318.326 852.693 321.727 852.082C325.789 851.388 329.342 852.026 333.663 854.211C339.784 857.348 342.813 862.319 342.556 868.931C342.461 870.97 341.699 874.193 340.956 875.564C338.769 879.622 338.016 880.445 331.567 885.78C326.042 890.338 324.285 892.101 324.589 892.801C324.682 893.035 325.48 893.303 326.581 893.446C331.224 894.155 336.163 897.312 337.85 900.681C338.885 902.708 339.3 906.861 338.687 909.185C338.071 911.66 337.08 913.822 335.885 915.393C334.689 916.964 331.663 919.036 329.401 919.859C327.498 920.572 323.711 920.972 320.115 920.89C318.624 920.837 316.278 920.824 314.882 920.854C313.486 920.884 311.354 920.861 310.16 920.808C308.962 920.731 307.449 920.706 306.778 920.717C306.11 920.752 304.157 920.674 302.441 920.558C296.289 920.173 294.784 920.196 291.82 920.685C289.123 921.155 288.842 921.251 287.363 922.244C286.487 922.814 285.094 923.843 284.238 924.533C283.382 925.224 282.165 926.174 281.49 926.66C277.683 929.386 274.763 932.59 274.693 934.125C274.636 935.084 274.891 935.491 276.038 936.401C277.457 937.491 283.69 939.836 290.226 941.731C293.422 942.652 293.835 942.709 295.357 942.458C296.275 942.307 297.865 941.82 298.892 941.351C305.773 938.318 307.182 937.711 308.427 937.256C309.19 936.98 310.905 936.272 312.209 935.683C322.467 931.069 326.807 929.454 329.847 929.102C336.348 928.33 341.894 931.088 344.4 936.32C346.093 939.887 346.314 944.822 344.915 947.775C343.975 949.754 341.336 952.537 338.326 954.707C334.981 957.132 334.888 957.222 335.963 957.694C336.4 957.897 337.233 958.209 337.772 958.37C338.314 958.555 339.802 959.084 341.068 959.575C342.331 960.041 344.448 960.791 345.785 961.22C353.288 963.755 357.543 967.175 359.348 972.073C360.669 975.677 360.414 980.34 358.612 984.933C357.765 987.146 355.04 990.718 353.141 992.105C348.91 995.201 342.623 996.287 336.69 994.943C335.456 994.647 334.304 994.362 334.127 994.266C333.975 994.166 332.556 993.726 330.997 993.259C329.442 992.816 327.845 992.28 327.442 992.121C325.678 991.388 322.334 990.715 321.119 990.866C319.848 991 319.848 991 320.021 991.721C321.482 997.8 321.457 997.654 321.068 999.867C320.35 1003.68 318.14 1006.62 313.582 1009.69L311.574 1011.07L308.164 1011.64C304.785 1012.22 304.733 1012.23 302.786 1011.7C300.532 1011.1 296.482 1008.59 295.106 1006.95C293.627 1005.17 291.263 1001.28 289.91 998.31C289.188 996.706 288.155 994.528 287.626 993.441C286.474 991.033 284.584 986.923 282.765 982.752C280.173 976.835 278.713 974.678 276.664 973.692C276.136 973.429 274.309 972.806 272.581 972.292C270.879 971.773 269.008 971.207 268.461 970.998C267.915 970.788 265.961 970.211 264.127 969.714C261.334 968.951 260.56 968.828 259.38 969.023C257.855 969.25 257.237 969.751 256.666 971.194C256.404 971.887 256.552 973.111 257.592 979.909C258.87 988.316 259.312 990.017 260.592 991.404C260.956 991.819 266.552 995.692 272.97 999.979C286.892 1009.25 287.811 1009.92 289.618 1012.22C290.573 1013.44 291.448 1015.64 291.793 1017.73C292.549 1022.48 290.244 1027.78 285.948 1031.14C281.779 1034.45 277.742 1034.96 271.862 1032.96C267.809 1031.58 266.228 1031.14 265.907 1031.32C265.661 1031.46 265.815 1032.88 266.592 1037.92C267.743 1045.23 267.873 1046.51 267.579 1049.3C267.367 1051.61 266.655 1053.83 265.378 1056.21C263.836 1059.11 260.498 1062.24 257.275 1063.77C255.628 1064.56 254.857 1064.79 252.257 1065.19C250.574 1065.45 248.94 1065.66 248.64 1065.64Z" fill="#8A8F92"/>
</mask>
<g mask="url(#mask0_2114_1419)">
<rect x="13" y="815.698" width="635.798" height="548.41" transform="rotate(-9.36332 13 815.698)" fill="#D7F7FF"/>
</g>
<mask id="mask1_2114_1419" style="mask-type:alpha" maskUnits="userSpaceOnUse" x="1568" y="98" width="230" height="221">
<path d="M1658.74 317.238C1657.09 316.559 1655.66 315.704 1653.98 314.402C1650.67 311.829 1648.54 308.116 1648.13 304.256C1647.94 302.471 1648.01 301.845 1649.17 294.845C1650.16 288.961 1650.38 287.125 1650.26 286.262C1650.17 285.647 1649.97 285.077 1649.84 285.007C1649.7 284.912 1648.61 285.208 1647.45 285.664C1646.27 286.095 1645.29 286.456 1645.25 286.447C1645.2 286.438 1644.59 286.606 1643.93 286.808C1640.99 287.711 1637.8 287.438 1634.78 285.981C1630.62 283.97 1628.35 280.849 1627.49 275.994C1627.19 274.233 1627.86 271.204 1628.97 269.433C1630.68 266.674 1631.85 265.799 1644.42 258.035C1652.8 252.853 1656.33 250.54 1656.83 249.931C1657.5 249.09 1657.56 248.924 1658.74 242.283C1660.31 233.594 1660.26 232.39 1658.19 231.276C1656.81 230.541 1653.19 230.869 1650.35 231.99C1649.99 232.118 1648.57 232.547 1647.19 232.894C1643.67 233.838 1640.67 234.996 1639.94 235.713C1639.59 236.042 1638.75 237.402 1638.06 238.725C1635.87 242.959 1634.53 245.504 1633.64 247.14C1633.15 248.018 1632.13 249.961 1631.38 251.45C1626.25 261.581 1625.36 262.821 1621.85 264.762C1617.97 266.939 1613.08 267.082 1609.2 265.104C1606.1 263.544 1603.93 261.196 1602.78 258.117C1602.01 256.066 1601.98 254.777 1602.59 250.83C1602.92 248.662 1603.05 247.141 1602.92 246.96C1602.69 246.651 1602.69 246.651 1595.43 248.804C1587.08 251.273 1585.19 251.543 1581.57 250.788C1577.37 249.941 1574.74 248.164 1571.99 244.33C1570.1 241.703 1569.26 239.638 1568.71 236.28C1568.42 234.588 1568.44 233.905 1568.74 232.352C1569.16 230.245 1569.62 229.32 1571.28 227.214C1573.5 224.401 1576.02 222.752 1580.98 220.898C1581.73 220.603 1582.4 220.38 1582.46 220.394C1582.53 220.407 1583.98 219.962 1585.69 219.392C1589.13 218.234 1591.83 216.886 1591.53 216.473C1591.44 216.323 1590.56 215.84 1589.6 215.386C1588.64 214.953 1587.46 214.258 1586.99 213.878C1585.88 212.953 1584.05 210.118 1583.57 208.586C1582.18 204.157 1583.64 198.013 1586.67 195.623C1589.32 193.514 1592.45 192.494 1595.61 192.673C1598.18 192.824 1602.33 194.038 1605.43 195.508C1606.63 196.076 1607.96 196.691 1608.38 196.862C1608.8 197.033 1609.73 197.482 1610.45 197.865C1611.74 198.54 1614.54 199.863 1617.42 201.182C1618.28 201.549 1619.9 202.309 1621.03 202.841C1624.26 204.382 1627.04 205.504 1628.07 205.707C1629.15 205.919 1631.67 205.617 1633.2 205.079C1633.77 204.88 1634.3 204.72 1634.37 204.733C1634.6 204.778 1639.23 203.301 1641.51 202.468C1642.67 202.054 1644.03 201.395 1644.61 201C1645.44 200.433 1645.64 200.162 1645.79 199.353C1645.94 198.609 1645.87 198.241 1645.43 197.558C1644.92 196.751 1642.31 194.138 1641.92 194.061C1641.83 194.043 1641.6 193.866 1641.45 193.66C1641.16 193.315 1638.91 191.568 1634.62 188.383C1632.79 187.028 1632.58 186.919 1630.88 186.585C1629.87 186.387 1628.6 186.292 1627.99 186.349C1627.38 186.428 1625.89 186.51 1624.66 186.557C1623.44 186.603 1621.61 186.686 1620.62 186.735C1619.63 186.806 1617.47 186.889 1615.81 186.94C1614.16 186.99 1612 187.074 1611 187.144C1603.16 187.614 1603.16 187.614 1599.37 186.891C1595.97 186.245 1595.75 186.178 1594.45 185.35C1592.63 184.174 1590.52 181.725 1589.73 179.933C1588.25 176.527 1588.49 172.528 1590.34 169.289C1592.45 165.571 1595.44 163.594 1600.65 162.451C1601.59 162.24 1602.36 161.971 1602.39 161.822C1602.42 161.673 1602.01 161.216 1601.48 160.78C1598.88 158.7 1593.1 153.43 1591.81 151.962C1588.42 148.112 1586.93 143.464 1587.75 139.272C1588.58 135.058 1591.05 131.808 1595.26 129.32C1601.46 125.697 1609.83 127.011 1616.92 132.781C1617.77 133.456 1618.98 134.424 1619.6 134.9C1620.22 135.397 1621.48 136.375 1622.4 137.062C1623.31 137.772 1624.49 138.535 1625.04 138.776C1626.38 139.349 1626.63 139.155 1626.71 137.578C1626.77 135.821 1627.25 133.331 1627.84 131.943C1628.61 130.061 1629.98 128.583 1632.22 127.234C1635.12 125.461 1637.83 124.867 1641.17 125.257C1647.38 126.014 1651.21 129.331 1652.57 135.147C1653.04 137.139 1653.1 137.703 1653.5 141.96C1653.6 143.262 1653.81 145.491 1653.96 146.913C1654.35 151.212 1654.61 154.359 1654.72 156.237C1654.88 159.096 1655.24 162.218 1655.61 163.617C1655.98 165.105 1656.65 165.833 1659.88 168.325C1660.92 169.103 1662.48 170.383 1663.38 171.156C1668.03 175.121 1670.58 176.108 1672.25 174.535C1673.52 173.303 1676.23 159.999 1675.81 157.043C1675.72 156.607 1674.33 154.476 1672.02 151.325C1667.81 145.59 1660.23 134.883 1659.62 133.768C1658.86 132.403 1658.48 131.533 1657.97 129.997C1657.51 128.58 1657.52 128.315 1657.88 125.956C1658.22 123.746 1658.39 123.249 1659.11 122.02C1661.13 118.527 1665.58 115.93 1669.65 115.846C1673.5 115.763 1677.33 117.246 1680.13 119.874C1681.25 120.956 1683.5 122.482 1683.81 122.387C1683.96 122.329 1684.35 120.836 1684.83 118.431C1686.07 112.2 1687.06 108.747 1688.19 106.78C1689.56 104.398 1691.04 102.72 1692.71 101.591C1697.55 98.3197 1703.48 97.7392 1709.15 99.9583C1713.82 101.804 1717.89 106.672 1718.67 111.312C1719.09 113.915 1719.01 115.27 1717.96 121.474C1716.92 127.613 1716.87 129.438 1717.77 129.614C1718.02 129.664 1719.15 129.266 1720.23 128.749C1721.31 128.232 1723.05 127.602 1724.08 127.361C1725.93 126.908 1725.97 126.917 1728.7 127.475C1731.92 128.107 1732.95 128.642 1735.36 130.839C1738.88 134.029 1740.16 137.839 1739.03 141.751C1738.45 143.869 1736.96 146.604 1735.89 147.565C1735.18 148.223 1729.14 152.407 1726.85 153.858C1716.57 160.325 1710.9 164.073 1710.15 164.875L1709.24 165.847L1707.92 172.661C1706.61 179.344 1706.6 179.498 1706.89 180.947C1707.25 182.874 1707.85 183.478 1709.62 183.825C1710.72 184.02 1711.32 183.984 1713.31 183.489C1714.61 183.171 1716.25 182.719 1716.93 182.521C1717.64 182.307 1719.01 181.891 1719.98 181.573C1720.96 181.281 1722.31 180.882 1722.98 180.705C1723.64 180.503 1724.9 179.933 1725.76 179.417C1727.44 178.399 1727.74 177.971 1729.88 173.66C1730.36 172.672 1731.16 171.128 1731.62 170.245C1732.53 168.502 1733.62 166.351 1735.53 162.614C1737.83 158.028 1739.96 154.489 1741.78 152.261C1743.63 150.015 1747.56 148.113 1750.52 148.055C1755.55 147.959 1760.6 150.786 1762.96 155.009C1764.47 157.738 1764.67 159.634 1763.89 163.878C1763.34 166.777 1763.36 167.4 1764.01 167.615C1764.66 167.831 1765.84 167.533 1774 165.048C1779.15 163.474 1781.77 163.148 1784.76 163.692C1788.32 164.37 1791.05 165.99 1793.94 169.122C1798.02 173.593 1798.99 178.624 1796.74 183.996C1796.04 185.647 1794.42 188.07 1793.38 188.972C1790.33 191.643 1789.45 192.09 1782.49 194.502C1776.54 196.558 1774.54 197.471 1774.58 198.141C1774.58 198.363 1775.16 198.83 1776.02 199.287C1779.63 201.3 1782.73 205.424 1783.09 208.721C1783.31 210.711 1782.38 214.263 1781.16 215.99C1779.89 217.84 1778.4 219.317 1776.93 220.244C1775.46 221.171 1772.33 221.948 1770.21 221.929C1768.43 221.931 1765.18 221.095 1762.24 219.92C1761.03 219.417 1759.1 218.683 1757.94 218.279C1756.78 217.874 1755.03 217.198 1754.06 216.787C1753.1 216.354 1751.86 215.867 1751.3 215.67C1750.74 215.493 1749.15 214.828 1747.77 214.203C1742.82 211.991 1741.57 211.547 1738.98 211.037C1736.61 210.594 1736.35 210.587 1734.82 210.95C1733.93 211.15 1732.46 211.569 1731.54 211.875C1730.62 212.181 1729.33 212.589 1728.62 212.782C1724.64 213.857 1721.25 215.599 1720.72 216.843C1720.38 217.616 1720.46 218.03 1721.13 219.134C1721.96 220.469 1726.38 224.321 1731.18 227.896C1733.53 229.64 1733.86 229.814 1735.19 230.076C1735.99 230.234 1737.45 230.322 1738.44 230.252C1745.05 229.87 1746.4 229.804 1747.57 229.812C1748.28 229.82 1749.91 229.765 1751.17 229.68C1761.05 229.035 1765.12 229.04 1767.74 229.687C1773.33 231.052 1777.06 235.033 1777.51 240.118C1777.81 243.581 1776.47 247.717 1774.41 249.721C1773.02 251.062 1769.99 252.544 1766.84 253.406C1763.34 254.375 1763.23 254.421 1763.97 255.141C1764.27 255.443 1764.86 255.957 1765.26 256.255C1765.65 256.575 1766.71 257.469 1767.6 258.264C1768.5 259.037 1770.01 260.307 1770.98 261.072C1776.39 265.473 1778.84 269.602 1778.82 274.196C1778.8 277.574 1777.16 281.339 1774.26 284.571C1772.88 286.135 1769.53 288.24 1767.54 288.799C1763.1 290.048 1757.58 289.008 1753.1 286.072C1752.17 285.448 1751.31 284.859 1751.2 284.725C1751.1 284.596 1750.07 283.796 1748.93 282.931C1747.78 282.087 1746.63 281.153 1746.35 280.898C1745.12 279.75 1742.57 278.166 1741.52 277.916C1740.43 277.636 1740.43 277.636 1740.35 278.283C1739.68 283.744 1739.71 283.617 1738.71 285.321C1736.94 288.245 1734.21 289.986 1729.51 291.117L1727.43 291.636L1724.44 291.05C1721.48 290.489 1721.43 290.48 1719.99 289.445C1718.32 288.254 1715.75 284.942 1715.12 283.161C1714.45 281.239 1713.7 277.311 1713.5 274.442C1713.4 272.897 1713.22 270.784 1713.12 269.725C1712.91 267.385 1712.62 263.415 1712.4 259.416C1712.09 253.74 1711.55 251.512 1710.16 250.068C1709.81 249.689 1708.49 248.613 1707.23 247.657C1705.98 246.705 1704.61 245.662 1704.23 245.321C1703.84 244.98 1702.41 243.903 1701.05 242.928C1698.98 241.439 1698.38 241.1 1697.35 240.897C1696.02 240.614 1695.36 240.837 1694.44 241.851C1694.01 242.341 1693.76 243.396 1692.52 249.32C1690.99 256.644 1690.83 258.183 1691.46 259.721C1691.63 260.175 1695.05 265.091 1699.02 270.602C1707.64 282.531 1708.19 283.368 1708.97 285.821C1709.39 287.118 1709.43 289.204 1709.07 291.034C1708.23 295.179 1704.7 298.84 1700.12 300.284C1695.67 301.729 1692.18 300.911 1687.95 297.449C1685.03 295.063 1683.87 294.214 1683.55 294.262C1683.3 294.302 1682.99 295.523 1682.08 299.919C1680.78 306.295 1680.49 307.388 1679.39 309.603C1678.5 311.44 1677.23 313.048 1675.44 314.619C1673.28 316.537 1669.57 318.084 1666.44 318.353C1664.84 318.502 1664.13 318.452 1661.86 317.984C1660.4 317.674 1658.98 317.352 1658.74 317.238Z" fill="#8A8F92"/>
</mask>
<g mask="url(#mask1_2114_1419)">
<rect x="1541.06" y="38.343" width="559.519" height="482.615" transform="rotate(11.1198 1541.06 38.343)" fill="#D7F7FF"/>
</g>
</g>
<defs>
<clipPath id="clip0_2114_1419">
<rect width="1920" height="1085" fill="white"/>
</clipPath>
</defs>
</svg>
