<svg width="1920" height="1042" viewBox="0 0 1920 1042" fill="none" xmlns="http://www.w3.org/2000/svg">
<g clip-path="url(#clip0_2114_1600)">
<path d="M1961.5 308L1898 368.5L1870.62 390.208C1832.8 420.201 1790.32 443.803 1744.87 460.08V460.08C1696.98 477.232 1646.5 486 1595.63 486H1521.5L1400.5 470.5L1298.5 460.5H1200.16C1137.04 460.5 1074.57 473.255 1016.5 498V498L967.066 515.962C891.234 543.517 826.88 595.786 784.362 664.356L780.727 670.218C769.277 688.683 759.889 708.351 752.733 728.866L737.934 771.29C725.353 807.356 725.4 846.627 738.069 882.663L742.454 895.137C755.825 933.169 785.003 963.552 822.462 978.451L834.153 983.101C910.88 1013.62 996.162 965.379 1009.54 883.897V883.897C1014.06 856.372 1009.56 828.124 996.703 803.368L980.064 771.317C955.409 723.829 915.472 686.034 866.697 664.034L850.823 656.874C833.318 648.978 815.068 642.851 796.344 638.586L695 615.5L554.214 592.928C525.45 588.317 496.365 586 467.234 586V586C391.238 586 316.068 601.765 246.476 632.299L236.068 636.866C164.374 668.321 99.3083 713.605 44.8375 769.84V769.84C17.7337 797.822 -6.69374 828.443 -27.9325 861.101L-89 955" stroke="#D7F7FF" stroke-width="70"/>
<circle cx="1778.66" cy="939.979" r="19.3885" transform="rotate(-125.218 1778.66 939.979)" fill="#D7F7FF"/>
<circle cx="1678.85" cy="979.281" r="28.5" transform="rotate(-125.218 1678.85 979.281)" fill="#D7F7FF"/>
<circle cx="1688.97" cy="862.163" r="41.5" transform="rotate(-125.218 1688.97 862.163)" fill="#D7F7FF"/>
<mask id="mask0_2114_1600" style="mask-type:alpha" maskUnits="userSpaceOnUse" x="282" y="132" width="247" height="235">
<path d="M429.145 366.177C427.242 366.229 425.482 366.012 423.29 365.466C418.961 364.386 415.287 361.691 413.226 358.109C412.264 356.457 412.068 355.815 410.183 348.501C408.611 342.347 408.032 340.466 407.547 339.676C407.191 339.117 406.753 338.648 406.597 338.636C406.411 338.607 405.484 339.361 404.549 340.307C403.585 341.235 402.79 342.007 402.741 342.018C402.692 342.029 402.176 342.454 401.621 342.935C399.145 345.081 395.924 346.189 392.349 346.075C387.435 345.909 383.879 343.849 380.953 339.493C379.905 337.907 379.249 334.671 379.567 332.468C380.044 329.046 380.809 327.689 389.694 314.718C395.624 306.061 398.064 302.29 398.289 301.481C398.575 300.375 398.558 300.189 396.852 293.213C394.632 284.081 394.065 282.931 391.57 282.738C389.909 282.617 386.53 284.495 384.246 286.811C383.951 287.09 382.754 288.119 381.561 289.052C378.538 291.488 376.124 293.904 375.715 294.92C375.516 295.391 375.284 297.077 375.184 298.662C374.875 303.727 374.672 306.779 374.507 308.758C374.416 309.82 374.254 312.153 374.17 313.924C373.533 325.998 373.203 327.588 370.628 330.988C367.784 334.78 363.085 337.027 358.457 336.773C354.765 336.591 351.65 335.236 349.195 332.738C347.567 331.071 346.98 329.831 345.872 325.726C345.26 323.473 344.733 321.936 344.527 321.816C344.175 321.612 344.175 321.612 338.03 326.838C330.963 332.84 329.241 333.917 325.394 334.74C320.944 335.724 317.617 335.127 313.288 332.58C310.315 330.838 308.614 329.188 306.626 326.158C305.617 324.634 305.338 323.964 304.966 322.32C304.461 320.09 304.518 318.989 305.22 316.226C306.171 312.531 307.911 309.841 311.946 305.897C312.549 305.288 313.099 304.784 313.171 304.768C313.244 304.751 314.46 303.695 315.879 302.403C318.734 299.792 320.778 297.317 320.308 297.045C320.156 296.937 319.089 296.848 317.959 296.819C316.835 296.813 315.392 296.643 314.767 296.476C313.292 296.053 310.293 294.08 309.16 292.798C305.895 289.087 304.679 282.473 306.589 278.845C308.266 275.649 310.876 273.306 314.028 272.119C316.594 271.16 321.155 270.554 324.802 270.651C326.214 270.687 327.778 270.712 328.259 270.697C328.741 270.683 329.847 270.717 330.704 270.783C332.258 270.881 335.545 270.966 338.925 271.006C339.918 270.994 341.817 271.037 343.151 271.067C346.955 271.177 350.147 271.069 351.24 270.822C352.382 270.564 354.7 269.187 355.963 268.001C356.426 267.565 356.875 267.179 356.948 267.163C357.191 267.108 361.061 263.675 362.927 261.88C363.872 260.98 364.921 259.748 365.313 259.115C365.874 258.207 365.948 257.858 365.754 257.003C365.576 256.215 365.349 255.887 364.628 255.411C363.785 254.845 360.119 253.425 359.706 253.519C359.609 253.541 359.312 253.466 359.077 253.33C358.646 253.12 355.698 252.39 350.155 251.136C347.788 250.606 347.53 250.594 345.733 251C344.664 251.242 343.388 251.697 342.822 252.014C342.26 252.354 340.841 253.078 339.669 253.651C338.496 254.224 336.753 255.092 335.813 255.565C334.878 256.061 332.81 257.074 331.221 257.836C329.631 258.598 327.563 259.611 326.628 260.106C319.199 263.942 319.199 263.942 315.196 264.872C311.607 265.708 311.359 265.74 309.745 265.49C307.468 265.13 304.352 263.657 302.809 262.254C299.904 259.574 298.413 255.58 298.821 251.629C299.276 247.099 301.332 243.888 305.909 240.532C306.74 239.918 307.372 239.325 307.336 239.167C307.3 239.01 306.704 238.742 305.996 238.547C302.574 237.641 294.674 235.002 292.791 234.127C287.831 231.841 284.374 227.96 283.37 223.523C282.361 219.065 283.37 214.836 286.394 210.6C290.864 204.405 299.579 202.077 308.967 204.639C310.08 204.932 311.682 205.35 312.492 205.546C313.307 205.764 314.957 206.171 316.143 206.447C317.334 206.746 318.816 206.979 319.454 206.976C321.007 206.956 321.169 206.659 320.559 205.093C319.86 203.357 319.264 200.722 319.233 199.12C319.177 196.955 319.867 194.928 321.47 192.648C323.528 189.673 325.916 187.925 329.328 186.869C335.705 184.928 340.863 186.507 344.692 191.582C346.005 193.321 346.302 193.845 348.528 197.815C349.188 199.039 350.349 201.12 351.107 202.44C353.343 206.455 354.955 209.404 355.869 211.186C357.25 213.903 358.949 216.785 359.911 217.988C360.917 219.275 361.881 219.696 366.098 220.73C367.444 221.041 369.515 221.614 370.721 221.98C376.962 223.834 379.867 223.698 380.813 221.448C381.516 219.703 378.422 205.584 376.739 202.887C376.473 202.498 374.199 201.024 370.59 198.953C364.018 195.185 352.032 188.027 350.952 187.206C349.628 186.204 348.886 185.52 347.729 184.243C346.67 183.062 346.56 182.803 345.902 180.348C345.28 178.05 345.231 177.493 345.4 175.987C345.864 171.716 349.071 167.274 352.996 165.438C356.712 163.698 361.082 163.49 364.937 164.842C366.496 165.413 369.344 165.928 369.6 165.704C369.725 165.581 369.461 163.961 368.885 161.416C367.416 154.813 366.89 151.026 367.139 148.626C367.45 145.715 368.162 143.447 369.307 141.625C372.608 136.357 378.132 133.236 384.604 132.955C389.943 132.741 396.005 135.724 398.764 139.905C400.292 142.258 400.803 143.61 402.451 150.102C404.084 156.527 404.822 158.324 405.77 158.11C406.037 158.049 406.963 157.177 407.79 156.208C408.618 155.24 410.045 153.875 410.939 153.2C412.547 151.96 412.596 151.949 415.491 151.317C418.892 150.547 420.134 150.621 423.421 151.724C428.223 153.312 431.108 156.47 431.697 160.763C432.042 163.076 431.769 166.381 431.14 167.778C430.741 168.721 426.66 175.396 425.059 177.795C417.835 188.52 413.929 194.612 413.541 195.718L413.078 197.053L414.733 204.254C416.333 211.325 416.393 211.477 417.297 212.764C418.478 214.485 419.319 214.815 421.189 214.392C422.35 214.106 422.921 213.811 424.636 212.476C425.767 211.604 427.167 210.459 427.746 209.973C428.345 209.458 429.498 208.463 430.304 207.737C431.139 207.027 432.273 206.06 432.858 205.596C433.413 205.116 434.39 204.018 435.009 203.144C436.204 201.43 436.31 200.885 436.531 195.769C436.573 194.6 436.69 192.751 436.758 191.694C436.897 189.603 437.032 187.039 437.274 182.581C437.545 177.123 438.089 172.762 438.902 169.809C439.733 166.827 442.735 163.283 445.599 161.949C450.45 159.691 456.58 160.268 460.701 163.36C463.35 165.364 464.361 167.124 465.424 171.594C466.142 174.651 466.43 175.248 467.155 175.179C467.88 175.11 468.899 174.311 475.776 168.375C480.11 164.624 482.515 163.18 485.662 162.421C489.422 161.546 492.78 161.946 496.942 163.75C502.84 166.345 505.947 170.826 506.073 177.023C506.098 178.935 505.564 181.991 504.944 183.315C503.124 187.23 502.466 188.042 496.731 193.388C491.816 197.957 490.271 199.703 490.594 200.34C490.694 200.554 491.455 200.761 492.493 200.833C496.874 201.239 501.667 203.917 503.432 206.974C504.512 208.813 505.13 212.674 504.685 214.881C504.246 217.229 503.44 219.306 502.409 220.841C501.377 222.376 498.663 224.482 496.593 225.377C494.853 226.149 491.334 226.733 487.966 226.856C486.569 226.888 484.375 227.006 483.071 227.112C481.767 227.217 479.772 227.314 478.653 227.331C477.528 227.325 476.112 227.385 475.484 227.432C474.862 227.502 473.031 227.538 471.42 227.524C465.645 227.505 464.24 227.61 461.495 228.231C458.999 228.82 458.742 228.925 457.413 229.936C456.625 230.517 455.38 231.556 454.618 232.25C453.855 232.943 452.77 233.899 452.166 234.391C448.757 237.151 446.204 240.309 446.223 241.749C446.223 242.648 446.484 243.015 447.607 243.803C448.995 244.743 454.953 246.59 461.17 248C464.21 248.685 464.6 248.715 466.008 248.396C466.858 248.204 468.318 247.66 469.253 247.165C475.52 243.947 476.804 243.302 477.943 242.807C478.641 242.507 480.206 241.75 481.392 241.127C490.729 236.244 494.699 234.493 497.522 233.996C503.558 232.914 508.898 235.185 511.531 239.939C513.312 243.182 513.792 247.784 512.647 250.623C511.878 252.525 509.564 255.274 506.869 257.47C503.876 259.923 503.794 260.013 504.825 260.395C505.246 260.56 506.042 260.806 506.554 260.927C507.072 261.07 508.492 261.482 509.704 261.871C510.91 262.237 512.932 262.821 514.206 263.148C521.363 265.103 525.531 268.065 527.49 272.546C528.925 275.843 528.945 280.217 527.515 284.613C526.845 286.729 524.495 290.22 522.795 291.623C519.01 294.752 513.191 296.116 507.568 295.188C506.398 294.979 505.305 294.777 505.134 294.697C504.987 294.612 503.635 294.279 502.151 293.928C500.673 293.6 499.15 293.187 498.764 293.061C497.073 292.473 493.909 292.03 492.782 292.237C491.601 292.434 491.601 292.434 491.802 293.098C493.505 298.702 493.474 298.567 493.232 300.658C492.772 304.265 490.869 307.134 486.777 310.262L484.975 311.664L481.818 312.379C478.69 313.11 478.641 313.121 476.792 312.735C474.65 312.296 470.724 310.179 469.346 308.715C467.865 307.133 465.439 303.634 464.009 300.928C463.245 299.467 462.158 297.488 461.603 296.501C460.393 294.313 458.398 290.575 456.465 286.775C453.714 281.385 452.229 279.448 450.258 278.64C449.75 278.423 448.007 277.942 446.362 277.557C444.742 277.166 442.961 276.741 442.438 276.575C441.915 276.409 440.056 275.978 438.314 275.615C435.66 275.055 434.929 274.984 433.836 275.231C432.422 275.528 431.873 276.031 431.419 277.412C431.212 278.074 431.418 279.211 432.767 285.51C434.428 293.301 434.936 294.867 436.209 296.094C436.573 296.461 442.021 299.773 448.26 303.427C461.792 311.325 462.689 311.903 464.506 313.953C465.467 315.038 466.407 317.05 466.846 318.987C467.815 323.383 465.953 328.468 462.122 331.845C458.407 335.171 454.66 335.877 449.051 334.33C445.184 333.264 443.681 332.941 443.391 333.125C443.169 333.27 443.391 334.593 444.398 339.265C445.878 346.032 446.07 347.219 445.951 349.85C445.881 352.02 445.337 354.132 444.275 356.432C442.994 359.231 440.045 362.336 437.116 363.946C435.62 364.782 434.912 365.037 432.503 365.559C430.943 365.888 429.427 366.184 429.145 366.177Z" fill="#8A8F92"/>
</mask>
<g mask="url(#mask0_2114_1600)">
<rect x="195" y="145" width="595.607" height="513.743" transform="rotate(-12.7534 195 145)" fill="#D7F7FF"/>
</g>
</g>
<defs>
<clipPath id="clip0_2114_1600">
<rect width="1920" height="1042" fill="white"/>
</clipPath>
</defs>
</svg>
