<svg width="1920" height="1050" viewBox="0 0 1920 1050" fill="none" xmlns="http://www.w3.org/2000/svg">
<g clip-path="url(#clip0_2360_1069)">
<path d="M2158.5 859.5L2091.96 692.038C2066.99 629.204 2027.78 573.023 1977.42 527.918L1936.04 490.864C1882.57 442.978 1813.31 416.5 1741.53 416.5V416.5C1712.01 416.5 1682.67 420.982 1654.5 429.791L1648.36 431.713C1595.29 448.308 1538.93 451.382 1484.37 440.657L1396.06 423.295C1373.14 418.789 1350.99 410.987 1330.31 400.133L1305.76 387.251C1276.35 371.816 1252.48 347.211 1237.8 317.411V317.411C1231.33 304.271 1226.72 290.176 1224.19 275.748V275.748C1210.48 197.372 1258.73 121.388 1335.46 100.336V100.336C1403.65 81.6276 1475.94 111.569 1510.83 173.071L1513.88 178.448C1525.49 198.905 1532.52 221.639 1534.48 245.078L1534.82 249.196C1539.65 306.887 1516.63 363.413 1472.87 401.318L1432.14 436.596C1401.4 463.226 1365.34 482.997 1326.35 494.591V494.591C1277.03 509.259 1224.67 510.357 1174.78 497.77L1150.2 491.57C1108.05 480.936 1068.05 463.12 1031.94 438.903L983.895 406.67C921.222 364.627 844.397 349.246 770.368 363.918V363.918C736.734 370.584 704.584 383.283 675.473 401.401L535.078 488.78C427.102 555.982 292.492 564.117 177.208 510.408V510.408C129.919 488.377 87.7259 456.756 53.3057 417.553L-96 247.5" stroke="#FFF7EB" stroke-width="70"/>
<path d="M319.91 23.048L307.744 86.7366L368.815 59.8693L328.392 110.529L397.334 112.263L336.66 139.859L399.819 169.851L330.911 168.919L375.777 221.228L312.284 191.952L329.97 256.218L284.467 204.396L271.471 267.89L252.97 203.787L211.866 253.934L224.032 190.246L162.961 217.113L203.384 166.453L134.442 164.72L195.116 137.123L131.957 107.132L200.865 108.063L155.999 55.7545L219.492 85.0303L201.806 20.7645L247.309 72.586L260.305 9.09173L278.806 73.195L319.91 23.048Z" fill="#FF9900" fill-opacity="0.06"/>
<circle cx="1605.74" cy="791.729" r="16" transform="rotate(-70.6451 1605.74 791.729)" fill="#FFF7EB"/>
<circle cx="1666.5" cy="730.4" r="21" transform="rotate(-70.6451 1666.5 730.4)" fill="#FFF7EB"/>
<circle cx="1682.44" cy="820.793" r="28" transform="rotate(-70.6451 1682.44 820.793)" fill="#FFF7EB"/>
</g>
<defs>
<clipPath id="clip0_2360_1069">
<rect width="1920" height="1050" fill="white"/>
</clipPath>
</defs>
</svg>
