<svg width="1920" height="1902" viewBox="0 0 1920 1902" fill="none" xmlns="http://www.w3.org/2000/svg">
<g clip-path="url(#clip0_2590_1325)">
<path d="M-118 432L-75.8087 467.177C24.4056 550.731 153.311 591.802 283.39 581.622L290.551 581.061C341.876 577.044 392.272 565.125 439.958 545.725L690.044 443.984C709.636 436.013 729.945 429.93 750.694 425.817V425.817C837.318 408.649 927.214 426.647 1000.55 475.844L1031.94 496.903C1068.05 521.12 1108.05 538.936 1150.2 549.57L1174.78 555.77C1224.67 568.357 1277.03 567.259 1326.35 552.591V552.591C1365.34 540.997 1401.4 521.226 1432.14 494.596L1472.87 459.318C1516.63 421.413 1539.65 364.887 1534.82 307.196L1534.48 303.078C1532.52 279.639 1525.49 256.905 1513.88 236.448L1510.83 231.071C1475.94 169.569 1403.65 139.628 1335.46 158.336V158.336C1258.73 179.388 1210.48 255.372 1224.19 333.748V333.748C1226.72 348.176 1231.33 362.271 1237.8 375.411V375.411C1252.48 405.211 1276.35 429.816 1305.76 445.251L1325.96 455.848C1349.47 468.187 1374.97 476.302 1401.29 479.823L1501.6 493.246C1549.68 499.68 1598.57 496.122 1645.22 482.795L1652.12 480.822C1684.16 471.668 1717.47 467.765 1750.76 469.264V469.264C1825.68 472.639 1896.8 503.185 1950.83 555.192L2054 654.5M-169.5 1258L-66.4211 1344.95C-37.3517 1369.47 -4.32744 1388.88 31.242 1402.33V1402.33C125.97 1438.18 231.817 1429.34 319.292 1378.29L448.399 1302.94C472.923 1288.63 492.69 1267.42 505.236 1241.94V1241.94C524.392 1203.05 525.088 1157.62 507.132 1118.16L486.263 1072.29C463.873 1023.09 414.797 991.5 360.737 991.5V991.5C305.417 991.5 255.451 1024.56 233.814 1075.47L227.534 1090.24C221.541 1104.34 217.577 1119.22 215.759 1134.43L215.265 1138.57C207.887 1200.3 230.941 1261.76 277.094 1303.41L367.825 1385.29C421.052 1433.33 487.448 1464.32 558.451 1474.27V1474.27C606.647 1481.02 655.712 1477.9 702.663 1465.09L724.846 1459.04C761.481 1449.05 796.772 1434.66 829.95 1416.19L934.816 1357.81C1052.88 1292.09 1192.52 1276.95 1321.93 1315.84L1399 1339L1506.5 1359.34C1649.65 1386.42 1797.5 1349.72 1911.37 1258.83L2121 1091.5" stroke="#FFF7EB" stroke-width="70"/>
<circle cx="262.173" cy="224.882" r="16" transform="rotate(110.585 262.173 224.882)" fill="#FFF7EB"/>
<circle cx="200.11" cy="284.893" r="21" transform="rotate(110.585 200.11 284.893)" fill="#FFF7EB"/>
<circle cx="186.111" cy="194.179" r="28" transform="rotate(110.585 186.111 194.179)" fill="#FFF7EB"/>
<path d="M1625.95 827.048L1613.79 890.737L1674.86 863.869L1634.44 914.529L1703.38 916.263L1642.7 943.859L1705.86 973.851L1636.95 972.919L1681.82 1025.23L1618.33 995.952L1636.01 1060.22L1590.51 1008.4L1577.51 1071.89L1559.01 1007.79L1517.91 1057.93L1530.07 994.246L1469 1021.11L1509.43 970.453L1440.48 968.72L1501.16 941.123L1438 911.132L1506.91 912.063L1462.04 859.755L1525.54 889.03L1507.85 824.765L1553.35 876.586L1566.35 813.092L1584.85 877.195L1625.95 827.048Z" fill="#FF9900" fill-opacity="0.06"/>
</g>
<defs>
<clipPath id="clip0_2590_1325">
<rect width="1920" height="1902" fill="white"/>
</clipPath>
</defs>
</svg>
