<svg width="558" height="775" viewBox="0 0 558 775" fill="none" xmlns="http://www.w3.org/2000/svg">
<path d="M558 775V0C490.076 26.9276 415.955 34.2347 344.08 21.0888L338.371 20.0446C291.236 11.4235 242.913 11.5796 195.835 20.5051C133.251 32.37 68.7126 28.6949 7.88079 9.80229L-11 3.93845V775H558Z" fill="#FF9900"/>
<path d="M65.0967 603.909L67.1936 627.029L87.9083 629.369L67.1936 631.71L65.0967 654.829L62.9998 631.71L42.2852 629.369L62.9998 627.029L65.0967 603.909Z" fill="#FFB240"/>
<path d="M87.9083 632.424L89.2932 645.972L100.149 647.7L89.2932 649.429L87.9083 662.976L86.5235 649.429L75.668 647.7L86.5235 645.972L87.9083 632.424Z" fill="#FFB240"/>
</svg>
