<svg width="569" height="775" viewBox="0 0 569 775" fill="none" xmlns="http://www.w3.org/2000/svg">
<rect width="569" height="685" fill="#FFF7EB"/>
<path d="M569 775V0C501.076 26.9276 426.955 34.2347 355.08 21.0888L349.371 20.0446C302.236 11.4235 253.913 11.5796 206.835 20.5051C144.251 32.37 79.7126 28.6949 18.8808 9.80229L0 3.93845V775H569Z" fill="#FF9900"/>
<path d="M65.0967 603.909L67.1936 627.029L87.9083 629.369L67.1936 631.71L65.0967 654.829L62.9998 631.71L42.2852 629.369L62.9998 627.029L65.0967 603.909Z" fill="#FFB240"/>
<path d="M87.9083 632.424L89.2932 645.972L100.149 647.7L89.2932 649.429L87.9083 662.976L86.5235 649.429L75.668 647.7L86.5235 645.972L87.9083 632.424Z" fill="#FFB240"/>
</svg>
