<svg width="1920" height="790" viewBox="0 0 1920 790" fill="none" xmlns="http://www.w3.org/2000/svg">
<rect width="1920" height="786" fill="#FFF7EB"/>
<rect width="1920" height="786" fill="#FFF7EB"/>
<path d="M707.257 76.0045L518.777 31.3221C481.675 22.5264 443.992 16.3946 406.015 12.9735L379.078 10.5469C301.443 3.55318 223.202 7.9435 146.837 23.5787L0 53.6423V790H1920V91.7475L1905.09 84.7332C1811.58 40.7358 1710.44 15.2725 1607.24 9.75095L1532.87 5.77171C1461.28 1.94129 1389.5 7.75113 1319.46 23.0452L1062.46 79.1634C945.32 104.742 823.926 103.663 707.257 76.0045Z" fill="#FF9900"/>
<path d="M1312 426L1320.34 488.676L1371 499L1320.34 509.324L1312 572L1303.66 509.324L1253 499L1303.66 488.676L1312 426Z" fill="#FFB240"/>
<path d="M1377.5 499L1383.19 536.363L1411 544L1383.19 551.637L1377.5 589L1371.81 551.637L1344 544L1371.81 536.363L1377.5 499Z" fill="#FFB240"/>
</svg>
